<svg xmlns="http://www.w3.org/2000/svg" viewBox="0 0 486.65 536.45"><defs><style>.cls-1{fill:#fff;}.cls-2,.cls-3{fill:none;stroke:#fff;stroke-miterlimit:10;}.cls-2{stroke-width:1.65px;}.cls-3{stroke-width:5px;}</style></defs><title>logo_DRP_Studios</title><g id="Layer_2" data-name="Layer 2"><g id="Layer_1-2" data-name="Layer 1"><path class="cls-1" d="M3.3,529.3v-37H36.6a21.66,21.66,0,0,1,5.7.65,9.29,9.29,0,0,1,3.78,1.92,7.4,7.4,0,0,1,2.07,3.15,13.19,13.19,0,0,1,.65,4.32v16.85a13.19,13.19,0,0,1-.65,4.33,7.4,7.4,0,0,1-2.07,3.15,9.26,9.26,0,0,1-3.78,1.92,21.62,21.62,0,0,1-5.7.65ZM10.55,522h26.1a6.42,6.42,0,0,0,3.58-.78,2.63,2.63,0,0,0,1.13-2.32V502.7a2.64,2.64,0,0,0-1.12-2.33,6.43,6.43,0,0,0-3.58-.78H10.55Z"/><path class="cls-1" d="M55.2,529.3v-37H88.55a21.67,21.67,0,0,1,5.7.65A9.29,9.29,0,0,1,98,494.92a7.4,7.4,0,0,1,2.08,3.15,13.2,13.2,0,0,1,.65,4.32V506a13.2,13.2,0,0,1-.65,4.33A7.4,7.4,0,0,1,98,513.52a9.27,9.27,0,0,1-3.77,1.93,21.63,21.63,0,0,1-5.7.65h-5.6l18.9,13.2h-13l-17.5-13.2h-8.9v13.2Zm7.25-19.7H88.6a6.43,6.43,0,0,0,3.57-.77,2.64,2.64,0,0,0,1.13-2.33v-3.8a2.64,2.64,0,0,0-1.12-2.33,6.43,6.43,0,0,0-3.57-.78H62.45Z"/><path class="cls-1" d="M105.6,529.3v-37h33.35a21.67,21.67,0,0,1,5.7.65,9.29,9.29,0,0,1,3.77,1.92,7.4,7.4,0,0,1,2.08,3.15,13.2,13.2,0,0,1,.65,4.32v4.8a13.2,13.2,0,0,1-.65,4.32,7.4,7.4,0,0,1-2.08,3.15,9.27,9.27,0,0,1-3.77,1.92,21.63,21.63,0,0,1-5.7.65h-26.1v12Zm7.25-18.8H139a6.42,6.42,0,0,0,3.57-.78,2.63,2.63,0,0,0,1.13-2.33v-4.7a2.64,2.64,0,0,0-1.12-2.33,6.43,6.43,0,0,0-3.57-.78H112.85Z"/><path class="cls-1" d="M173.85,529.3V522h32a6.42,6.42,0,0,0,3.57-.78,2.63,2.63,0,0,0,1.13-2.32v-3.8a2.64,2.64,0,0,0-1.12-2.32,6.43,6.43,0,0,0-3.57-.78h-21.3q-10.7,0-10.7-8v-4.65q0-7.1,10.6-7.1h32v7.25H184.2a5.28,5.28,0,0,0-2.25.33,1.09,1.09,0,0,0-.6,1v2.2a1.38,1.38,0,0,0,.6,1.28,4.8,4.8,0,0,0,2.3.38H205.8a21.63,21.63,0,0,1,5.7.65,9.27,9.27,0,0,1,3.77,1.92,7.4,7.4,0,0,1,2.08,3.15,13.21,13.21,0,0,1,.65,4.33v4.4a13.2,13.2,0,0,1-.65,4.33,7.4,7.4,0,0,1-2.08,3.15,9.26,9.26,0,0,1-3.77,1.92,21.63,21.63,0,0,1-5.7.65Z"/><path class="cls-1" d="M239.35,529.3V499.6H220.2v-7.25h45.55v7.25H246.6v29.7Z"/><path class="cls-1" d="M281.8,529.3a21.56,21.56,0,0,1-5.72-.65,9.26,9.26,0,0,1-3.75-1.92,7.39,7.39,0,0,1-2.07-3.15,13.18,13.18,0,0,1-.65-4.33v-26.9H277v26.6a2.63,2.63,0,0,0,1.13,2.32,6.42,6.42,0,0,0,3.58.78h21a6.42,6.42,0,0,0,3.57-.78,2.63,2.63,0,0,0,1.13-2.32v-26.6h7.45v26.9a13.23,13.23,0,0,1-.65,4.33,7.39,7.39,0,0,1-2.08,3.15,9.25,9.25,0,0,1-3.77,1.92,21.63,21.63,0,0,1-5.7.65Z"/><path class="cls-1" d="M321.4,529.3v-37h33.3a21.66,21.66,0,0,1,5.7.65,9.28,9.28,0,0,1,3.78,1.92,7.4,7.4,0,0,1,2.08,3.15,13.2,13.2,0,0,1,.65,4.32v16.85a13.21,13.21,0,0,1-.65,4.33,7.4,7.4,0,0,1-2.08,3.15,9.26,9.26,0,0,1-3.78,1.92,21.62,21.62,0,0,1-5.7.65Zm7.25-7.25h26.1a6.42,6.42,0,0,0,3.58-.78,2.63,2.63,0,0,0,1.13-2.32V502.7a2.64,2.64,0,0,0-1.12-2.33,6.43,6.43,0,0,0-3.58-.78h-26.1Z"/><path class="cls-1" d="M373.7,529.3v-37h7.25v37Z"/><path class="cls-1" d="M399.95,529.3a21.55,21.55,0,0,1-5.72-.65,9.25,9.25,0,0,1-3.75-1.92,7.39,7.39,0,0,1-2.08-3.15,13.18,13.18,0,0,1-.65-4.33V502.4a13.18,13.18,0,0,1,.65-4.32,7.39,7.39,0,0,1,2.08-3.15,9.27,9.27,0,0,1,3.75-1.92,21.59,21.59,0,0,1,5.72-.65H421.1a21.66,21.66,0,0,1,5.7.65,9.29,9.29,0,0,1,3.78,1.92,7.41,7.41,0,0,1,2.07,3.15,13.18,13.18,0,0,1,.65,4.32v16.85a13.18,13.18,0,0,1-.65,4.33,7.4,7.4,0,0,1-2.07,3.15,9.26,9.26,0,0,1-3.78,1.92,21.62,21.62,0,0,1-5.7.65Zm-4.75-10.35a2.63,2.63,0,0,0,1.13,2.32,6.42,6.42,0,0,0,3.57.78h21.25a6.42,6.42,0,0,0,3.58-.78,2.63,2.63,0,0,0,1.13-2.32V502.7a2.64,2.64,0,0,0-1.12-2.33,6.43,6.43,0,0,0-3.58-.78H399.9a6.43,6.43,0,0,0-3.57.78,2.64,2.64,0,0,0-1.12,2.33Z"/><path class="cls-1" d="M439.5,529.3V522h32a6.42,6.42,0,0,0,3.58-.78,2.63,2.63,0,0,0,1.13-2.32v-3.8a2.64,2.64,0,0,0-1.12-2.32,6.43,6.43,0,0,0-3.58-.78H450.2q-10.7,0-10.7-8v-4.65q0-7.1,10.6-7.1h32v7.25h-32.3a5.27,5.27,0,0,0-2.25.33,1.09,1.09,0,0,0-.6,1v2.2a1.38,1.38,0,0,0,.6,1.28,4.79,4.79,0,0,0,2.3.38h21.55a21.63,21.63,0,0,1,5.7.65,9.28,9.28,0,0,1,3.78,1.92,7.4,7.4,0,0,1,2.07,3.15,13.18,13.18,0,0,1,.65,4.33v4.4a13.18,13.18,0,0,1-.65,4.33,7.4,7.4,0,0,1-2.07,3.15,9.26,9.26,0,0,1-3.78,1.92,21.63,21.63,0,0,1-5.7.65Z"/><path class="cls-1" d="M0,536.45v-1H486.65v1Z"/><polygon class="cls-2" points="119.26 236.57 113.42 214.13 127.34 162.94 140.36 143.19 131.83 101.89 135.42 89.31 169.09 103.23 204.11 75.85 238.68 67.77 276.39 69.11 318.6 51.6 338.35 57.89 354.06 92.46 354.51 119.39 373.37 149.47 384.14 186.29 380.55 235.67 372.02 291.79 367.08 306.16 339.7 333.1 294.8 370.36 251.7 398.2 230.6 400.44 215.34 395.95 211.29 382.48 213.09 377.1 203.66 367.89 214.66 363.85 206.81 331.08 189.97 307.96 176.05 295.16 161.01 292.47 149.34 293.81 148.22 298.53 129.36 296.28 115.22 274.28 110.5 254.98 119.26 236.57"/><polygon class="cls-1" points="189.09 197.51 208.62 220.75 232.19 227.82 247 223.1 251.72 213.68 248.01 185.73 236.57 171.92 209.29 155.09 203.23 158.45 185.72 189.77 189.09 197.51"/><polygon class="cls-1" points="128.14 213.17 125.45 208.29 127.64 193.98 131.51 189.09 137.24 189.43 140.26 194.99 139.25 209.97 134.04 214.52 128.14 213.17"/><polyline class="cls-2" points="119.05 236.57 130.67 222.26 131.34 213.51"/><polyline class="cls-2" points="212.88 377.1 219.84 377.66 230.39 380.46 250.48 374.85 262.04 346 263.62 324.79 248.35 279 233.09 274.73 204.58 281.02 189.99 279.67 160.81 292.47"/><polyline class="cls-1" points="149.47 293.81 139.82 283.04 130.84 276.98 120.06 261.71 119.95 253.75 133.87 248.36 145.54 247.68 157.78 250.38 162.94 251.05 164.17 261.83 159.57 269.91 150.25 273.84 145.76 279.78 149.58 293.76"/><polygon class="cls-1" points="245.88 368.59 248.35 361.86 239.37 357.14 238.03 355.12 223.88 356.47 219.17 355.12 219.39 362.75 215.35 367.02 208.84 368.14 213.11 374.43 220.97 375.77 230.17 376.45 231.29 373.3 241.39 373.08 245.88 368.59"/><polygon class="cls-1" points="161.25 292.38 175.84 295.16 173.38 291.82 182.13 287.1 191.78 293.17 192.68 285.31 206.82 286.43 213.11 283.29 214.23 278.8 204.58 281.02 189.99 279.67 161.25 292.38"/><polygon class="cls-1" points="159.57 292.38 174.16 295.16 171.69 291.82 180.45 287.1 190.1 293.17 191 285.31 205.14 286.43 211.43 283.29 212.55 278.8 202.9 281.02 188.3 279.67 159.57 292.38"/><circle class="cls-3" cx="243.32" cy="227.82" r="225.32"/></g></g></svg>