<?xml version="1.0" encoding="UTF-8" standalone="no"?>
<!DOCTYPE svg PUBLIC "-//W3C//DTD SVG 1.1//EN" "http://www.w3.org/Graphics/SVG/1.1/DTD/svg11.dtd">
<svg width="100%" height="100%" viewBox="0 0 487 537" version="1.1" xmlns="http://www.w3.org/2000/svg" xmlns:xlink="http://www.w3.org/1999/xlink" xml:space="preserve" xmlns:serif="http://www.serif.com/" style="fill-rule:evenodd;clip-rule:evenodd;stroke-linejoin:round;stroke-miterlimit:2;">
    <g id="Layer_2">
        <g id="Layer_1-2">
            <path d="M3.3,529.3L3.3,492.3L36.6,492.3C38.52,492.263 40.437,492.482 42.3,492.95C43.691,493.29 44.985,493.947 46.08,494.87C47.03,495.724 47.743,496.809 48.15,498.02C48.605,499.414 48.825,500.874 48.8,502.34L48.8,519.19C48.826,520.659 48.606,522.123 48.15,523.52C47.743,524.731 47.03,525.816 46.08,526.67C44.985,527.594 43.691,528.251 42.3,528.59C40.437,529.059 38.52,529.278 36.6,529.24L3.3,529.3ZM10.55,522L36.65,522C37.894,522.093 39.138,521.822 40.23,521.22C40.985,520.698 41.415,519.817 41.36,518.9L41.36,502.7C41.418,501.782 40.993,500.898 40.24,500.37C39.148,499.768 37.904,499.497 36.66,499.59L10.55,499.59L10.55,522Z" style="fill:white;fill-rule:nonzero;"/>
            <path d="M55.2,529.3L55.2,492.3L88.55,492.3C90.47,492.263 92.387,492.482 94.25,492.95C95.635,493.309 96.918,493.983 98,494.92C98.954,495.772 99.671,496.858 100.08,498.07C100.535,499.464 100.755,500.924 100.73,502.39L100.73,506C100.756,507.469 100.536,508.933 100.08,510.33C99.677,511.556 98.96,512.656 98,513.52C96.909,514.446 95.619,515.106 94.23,515.45C92.367,515.919 90.45,516.137 88.53,516.1L82.93,516.1L101.83,529.3L88.83,529.3L71.33,516.1L62.43,516.1L62.43,529.3L55.2,529.3ZM62.45,509.6L88.6,509.6C89.839,509.694 91.08,509.426 92.17,508.83C92.927,508.305 93.356,507.42 93.3,506.5L93.3,502.7C93.358,501.782 92.933,500.898 92.18,500.37C91.091,499.77 89.85,499.499 88.61,499.59L62.45,499.59L62.45,509.6Z" style="fill:white;fill-rule:nonzero;"/>
            <path d="M105.6,529.3L105.6,492.3L138.95,492.3C140.87,492.263 142.787,492.482 144.65,492.95C146.038,493.292 147.328,493.949 148.42,494.87C149.374,495.722 150.091,496.808 150.5,498.02C150.955,499.414 151.175,500.874 151.15,502.34L151.15,507.14C151.175,508.606 150.955,510.066 150.5,511.46C150.091,512.672 149.374,513.758 148.42,514.61C147.328,515.532 146.038,516.189 144.65,516.53C142.787,516.999 140.87,517.217 138.95,517.18L112.85,517.18L112.85,529.18L105.6,529.3ZM112.85,510.5L139,510.5C140.24,510.591 141.481,510.32 142.57,509.72C143.329,509.196 143.758,508.31 143.7,507.39L143.7,502.69C143.758,501.772 143.333,500.888 142.58,500.36C141.491,499.76 140.25,499.489 139.01,499.58L112.85,499.58L112.85,510.5Z" style="fill:white;fill-rule:nonzero;"/>
            <path d="M173.85,529.3L173.85,522L205.85,522C207.09,522.091 208.331,521.82 209.42,521.22C210.175,520.698 210.605,519.817 210.55,518.9L210.55,515.1C210.605,514.186 210.18,513.306 209.43,512.78C208.341,512.18 207.1,511.909 205.86,512L184.56,512C177.427,512 173.86,509.333 173.86,504L173.86,499.35C173.86,494.617 177.393,492.25 184.46,492.25L216.46,492.25L216.46,499.5L184.2,499.5C183.435,499.445 182.667,499.558 181.95,499.83C181.574,500.019 181.34,500.409 181.35,500.83L181.35,503.03C181.3,503.534 181.531,504.026 181.95,504.31C182.674,504.624 183.464,504.754 184.25,504.69L205.8,504.69C207.72,504.653 209.637,504.871 211.5,505.34C212.888,505.681 214.178,506.338 215.27,507.26C216.224,508.112 216.941,509.198 217.35,510.41C217.806,511.807 218.026,513.271 218,514.74L218,519.14C218.026,520.609 217.806,522.073 217.35,523.47C216.941,524.682 216.224,525.768 215.27,526.62C214.178,527.542 212.888,528.2 211.5,528.54C209.637,529.009 207.72,529.227 205.8,529.19L173.85,529.3Z" style="fill:white;fill-rule:nonzero;"/>
            <path d="M239.35,529.3L239.35,499.6L220.2,499.6L220.2,492.35L265.75,492.35L265.75,499.6L246.6,499.6L246.6,529.3L239.35,529.3Z" style="fill:white;fill-rule:nonzero;"/>
            <path d="M281.8,529.3C279.873,529.34 277.949,529.121 276.08,528.65C274.699,528.307 273.416,527.65 272.33,526.73C271.379,525.877 270.666,524.791 270.26,523.58C269.803,522.183 269.584,520.719 269.61,519.25L269.61,492.35L277,492.35L277,518.95C276.945,519.867 277.375,520.748 278.13,521.27C279.222,521.872 280.466,522.143 281.71,522.05L302.71,522.05C303.95,522.141 305.191,521.87 306.28,521.27C307.035,520.748 307.465,519.867 307.41,518.95L307.41,492.35L314.86,492.35L314.86,519.25C314.885,520.719 314.666,522.183 314.21,523.58C313.801,524.792 313.084,525.878 312.13,526.73C311.039,527.653 309.748,528.31 308.36,528.65C306.497,529.119 304.58,529.337 302.66,529.3L281.8,529.3Z" style="fill:white;fill-rule:nonzero;"/>
            <path d="M321.4,529.3L321.4,492.3L354.7,492.3C356.62,492.263 358.537,492.482 360.4,492.95C361.791,493.29 363.085,493.947 364.18,494.87C365.134,495.722 365.851,496.808 366.26,498.02C366.715,499.414 366.935,500.874 366.91,502.34L366.91,519.19C366.936,520.659 366.716,522.123 366.26,523.52C365.851,524.732 365.134,525.818 364.18,526.67C363.085,527.594 361.791,528.251 360.4,528.59C358.537,529.059 356.62,529.278 354.7,529.24L321.4,529.3ZM328.65,522.05L354.75,522.05C355.994,522.143 357.238,521.872 358.33,521.27C359.085,520.748 359.515,519.867 359.46,518.95L359.46,502.7C359.518,501.782 359.093,500.898 358.34,500.37C357.248,499.768 356.004,499.497 354.76,499.59L328.66,499.59L328.65,522.05Z" style="fill:white;fill-rule:nonzero;"/>
            <rect x="373.7" y="492.3" width="7.25" height="37" style="fill:white;fill-rule:nonzero;"/>
            <path d="M399.95,529.3C398.023,529.34 396.099,529.122 394.23,528.65C392.849,528.307 391.566,527.65 390.48,526.73C389.526,525.878 388.809,524.792 388.4,523.58C387.943,522.183 387.724,520.719 387.75,519.25L387.75,502.4C387.725,500.934 387.945,499.474 388.4,498.08C388.809,496.868 389.526,495.782 390.48,494.93C391.566,494.011 392.849,493.354 394.23,493.01C396.099,492.539 398.023,492.32 399.95,492.36L421.1,492.36C423.02,492.323 424.937,492.542 426.8,493.01C428.191,493.35 429.485,494.007 430.58,494.93C431.53,495.784 432.243,496.869 432.65,498.08C433.105,499.474 433.325,500.934 433.3,502.4L433.3,519.25C433.326,520.719 433.107,522.183 432.65,523.58C432.243,524.791 431.53,525.876 430.58,526.73C429.485,527.654 428.191,528.311 426.8,528.65C424.937,529.119 423.02,529.338 421.1,529.3L399.95,529.3ZM395.2,518.95C395.145,519.867 395.575,520.748 396.33,521.27C397.419,521.87 398.66,522.141 399.9,522.05L421.15,522.05C422.394,522.143 423.638,521.872 424.73,521.27C425.485,520.748 425.915,519.867 425.86,518.95L425.86,502.7C425.918,501.782 425.493,500.898 424.74,500.37C423.648,499.768 422.404,499.497 421.16,499.59L399.9,499.59C398.66,499.499 397.419,499.77 396.33,500.37C395.577,500.898 395.152,501.782 395.21,502.7L395.2,518.95Z" style="fill:white;fill-rule:nonzero;"/>
            <path d="M439.5,529.3L439.5,522L471.5,522C472.744,522.093 473.988,521.822 475.08,521.22C475.835,520.698 476.265,519.817 476.21,518.9L476.21,515.1C476.265,514.186 475.84,513.306 475.09,512.78C473.998,512.178 472.754,511.907 471.51,512L450.2,512C443.067,512 439.5,509.333 439.5,504L439.5,499.35C439.5,494.617 443.033,492.25 450.1,492.25L482.1,492.25L482.1,499.5L449.8,499.5C449.035,499.445 448.267,499.558 447.55,499.83C447.174,500.019 446.94,500.409 446.95,500.83L446.95,503.03C446.9,503.534 447.131,504.026 447.55,504.31C448.274,504.624 449.064,504.755 449.85,504.69L471.4,504.69C473.32,504.653 475.237,504.871 477.1,505.34C478.491,505.68 479.785,506.337 480.88,507.26C481.83,508.114 482.543,509.199 482.95,510.41C483.407,511.807 483.626,513.271 483.6,514.74L483.6,519.14C483.626,520.609 483.407,522.073 482.95,523.47C482.543,524.681 481.83,525.766 480.88,526.62C479.785,527.544 478.491,528.201 477.1,528.54C475.237,529.009 473.32,529.227 471.4,529.19L439.5,529.3Z" style="fill:white;fill-rule:nonzero;"/>
            <rect x="0" y="535.45" width="486.65" height="1" style="fill:white;fill-rule:nonzero;"/>
            <path d="M119.26,236.57L113.42,214.13L127.34,162.94L140.36,143.19L131.83,101.89L135.42,89.31L169.09,103.23L204.11,75.85L238.68,67.77L276.39,69.11L318.6,51.6L338.35,57.89L354.06,92.46L354.51,119.39L373.37,149.47L384.14,186.29L380.55,235.67L372.02,291.79L367.08,306.16L339.7,333.1L294.8,370.36L251.7,398.2L230.6,400.44L215.34,395.95L211.29,382.48L213.09,377.1L203.66,367.89L214.66,363.85L206.81,331.08L189.97,307.96L176.05,295.16L161.01,292.47L149.34,293.81L148.22,298.53L129.36,296.28L115.22,274.28L110.5,254.98L119.26,236.57Z" style="fill:none;fill-rule:nonzero;stroke:white;stroke-width:1px;"/>
            <path d="M189.09,197.51L208.62,220.75L232.19,227.82L247,223.1L251.72,213.68L248.01,185.73L236.57,171.92L209.29,155.09L203.23,158.45L185.72,189.77L189.09,197.51Z" style="fill:white;fill-rule:nonzero;"/>
            <path d="M128.14,213.17L125.45,208.29L127.64,193.98L131.51,189.09L137.24,189.43L140.26,194.99L139.25,209.97L134.04,214.52L128.14,213.17Z" style="fill:white;fill-rule:nonzero;"/>
            <path d="M119.05,236.57L130.67,222.26L131.34,213.51" style="fill:none;fill-rule:nonzero;stroke:white;stroke-width:1px;"/>
            <path d="M212.88,377.1L219.84,377.66L230.39,380.46L250.48,374.85L262.04,346L263.62,324.79L248.35,279L233.09,274.73L204.58,281.02L189.99,279.67L160.81,292.47" style="fill:none;fill-rule:nonzero;stroke:white;stroke-width:1px;"/>
            <path d="M149.47,293.81L139.82,283.04L130.84,276.98L120.06,261.71L119.95,253.75L133.87,248.36L145.54,247.68L157.78,250.38L162.94,251.05L164.17,261.83L159.57,269.91L150.25,273.84L145.76,279.78L149.58,293.76" style="fill:white;fill-rule:nonzero;"/>
            <path d="M245.88,368.59L248.35,361.86L239.37,357.14L238.03,355.12L223.88,356.47L219.17,355.12L219.39,362.75L215.35,367.02L208.84,368.14L213.11,374.43L220.97,375.77L230.17,376.45L231.29,373.3L241.39,373.08L245.88,368.59Z" style="fill:white;fill-rule:nonzero;"/>
            <path d="M161.25,292.38L175.84,295.16L173.38,291.82L182.13,287.1L191.78,293.17L192.68,285.31L206.82,286.43L213.11,283.29L214.23,278.8L204.58,281.02L189.99,279.67L161.25,292.38Z" style="fill:white;fill-rule:nonzero;"/>
            <path d="M159.57,292.38L174.16,295.16L171.69,291.82L180.45,287.1L190.1,293.17L191,285.31L205.14,286.43L211.43,283.29L212.55,278.8L202.9,281.02L188.3,279.67L159.57,292.38Z" style="fill:white;fill-rule:nonzero;"/>
            <circle cx="243.32" cy="227.82" r="225.32" style="fill:none;stroke:white;stroke-width:1px;"/>
        </g>
    </g>
</svg>
