<svg xmlns="http://www.w3.org/2000/svg" viewBox="0 0 404 404"><defs><style>.cls-1{fill:#fff;}</style></defs><title>btn_renders</title><g id="Layer_2" data-name="Layer 2"><g id="Layer_1-2" data-name="Layer 1"><polygon class="cls-1" points="173.71 49 230.29 49 258.58 0 145.42 0 173.71 49"/><polygon class="cls-1" points="230.29 355 173.71 355 145.42 404 258.58 404 230.29 355"/><polygon class="cls-1" points="355 173.71 355 230.29 404 258.58 404 145.42 355 173.71"/><polygon class="cls-1" points="49 230.29 49 173.71 0 145.42 0 258.58 49 230.29"/><polygon class="cls-1" points="290.18 73.81 330.19 113.82 384.84 99.17 304.83 19.16 290.18 73.81"/><polygon class="cls-1" points="113.82 330.19 73.81 290.18 19.16 304.83 99.17 384.84 113.82 330.19"/><polygon class="cls-1" points="330.19 290.18 290.18 330.19 304.83 384.84 384.84 304.83 330.19 290.18"/><polygon class="cls-1" points="73.81 113.82 113.82 73.81 99.17 19.16 19.16 99.17 73.81 113.82"/><polygon class="cls-1" points="288.31 261.37 261.37 288.31 271.23 325.1 325.1 271.23 288.31 261.37"/><polygon class="cls-1" points="115.69 142.63 142.63 115.69 132.77 78.9 78.9 132.77 115.69 142.63"/><polygon class="cls-1" points="142.63 288.31 115.69 261.37 78.9 271.23 132.77 325.1 142.63 288.31"/><polygon class="cls-1" points="261.37 115.69 288.31 142.63 325.1 132.77 271.23 78.9 261.37 115.69"/><path class="cls-1" d="M111.49,240.51v-.3a70.79,70.79,0,0,0-1.8-11.8q-1.5-6.5-4.4-15.7-2.2-6.9-3.7-12.4v39.4a4,4,0,0,1-.55,2.35,2.53,2.53,0,0,1-2.15.75,2.47,2.47,0,0,1-1.9-.75,2.74,2.74,0,0,1-.7-1.95v-.8l.2-29.4q.2-13,.2-29.3v-12.3a2.16,2.16,0,0,1,.5-1.65,3.35,3.35,0,0,1,2.1-.45,11,11,0,0,1,4.6,1,10.55,10.55,0,0,1,3.6,2.65,17.06,17.06,0,0,1,4,8.4,23.72,23.72,0,0,1,.4,4.6,24.41,24.41,0,0,1-.25,3.3q-.25,1.8-.35,2.3a25,25,0,0,1-.9,3q-.7,2-.9,2.6l-1.2,2.8-1,2.6a53.38,53.38,0,0,0,1.25,9.1q1.15,5.5,2.55,10.2,1,3.3,3.6,11l2.9,8.8v.2a12.1,12.1,0,0,1-.3,2.9,1.87,1.87,0,0,1-2.1,1.6Q113.29,243.21,111.49,240.51Zm-6.7-48.6,1.5-8.6a7.55,7.55,0,0,0,.1-1.4,24.51,24.51,0,0,0-1.1-6.7,10.48,10.48,0,0,0-1.55-3,3,3,0,0,0-2-1.35l-.2,10q-.3,6.7-.3,10.4,0,3.5.1,4.6A48.89,48.89,0,0,0,104.79,191.91Z"/><path class="cls-1" d="M128,242.31q-1.7-.5-1.7-2.8v-58.1a32.26,32.26,0,0,0-.6-5.1,24.07,24.07,0,0,1-.7-5.1v-.3a22.5,22.5,0,0,1,2.5-3.6,22.69,22.69,0,0,0,3.7-.4,20.17,20.17,0,0,1,3.7-.4,5.73,5.73,0,0,1,3.1,1,2.7,2.7,0,0,1,1.5,2.25q0,3-4.6,3h-1.4a8.77,8.77,0,0,0-1.4-.1,3.44,3.44,0,0,0-1.1.1q0,3.4.4,8.2l.2,2.8.2,5.5q0,1.9-.3,5.8l-.2,5.6,1.4-.3a12,12,0,0,1,3.3-.6,2.86,2.86,0,0,1,2,.85,2.62,2.62,0,0,1,.9,2,3.38,3.38,0,0,1-.75,2.15,2.28,2.28,0,0,1-1.85,1l-1.2-.1h-1.3a2.66,2.66,0,0,0-2.1.7v30.9l5.6-.3q5.7,0,5.7,2.6v.4a4.43,4.43,0,0,1-2.2,2,10.69,10.69,0,0,1-3.1,1l-3.3.1h-3.1A9.82,9.82,0,0,1,128,242.31Z"/><path class="cls-1" d="M169.89,223.11q-7-24.1-12.1-44.3v32.8q0,4.2.8,14.3.7,11,.7,14.2a1.84,1.84,0,0,1-1.1,1.55,4.81,4.81,0,0,1-2.5.65q-2.1,0-2.1-1.6l.2-2.9q.2-3.2.2-4.2,0-5.3-.6-16.8-.6-11.7-.6-14.2v-12.8q0-3.1.3-9.2.4-5.3.4-9.2v-.6q0-5,2.2-5,1.3,0,3.3,4.4,3.3,7.2,8.4,25.8,2.9,10.8,6.8,27.8-.1-.4,1.6,6.9l.1.5q0-9.7.2-17.4l.2-17.4v-29.6q.4-2.5,3.2-2.5t2.7,3.9v.6a6.44,6.44,0,0,0-.6,2.9q0,6.1-.3,18.4t-.3,18.6v30.5a6,6,0,0,1-.85,3,2.43,2.43,0,0,1-2,1.45Q176.08,243.71,169.89,223.11Z"/><path class="cls-1" d="M196.24,241.51a2.8,2.8,0,0,1-1.45-2.5q2.2-2.2,2.2-11.7,0-5.7-.9-16.6-1-10.4-1-16.4l.2-5.5q.1-2.4.1-5.5a32.64,32.64,0,0,0-1-7.1,29.1,29.1,0,0,1-1.2-6.3q0-3.5,7.7-3.5h1.5a14.32,14.32,0,0,1,9.4,3.3,21.52,21.52,0,0,1,5.4,8.1,48.34,48.34,0,0,1,2.6,10,87.9,87.9,0,0,1,.6,8.8v7.9a1.77,1.77,0,0,0-.2.8,5.27,5.27,0,0,0,.1,1.2,4.28,4.28,0,0,1,.1,1,37.5,37.5,0,0,1-1,7.65,58.17,58.17,0,0,1-2.75,9q-4.5,11-10.1,15.6a11,11,0,0,1-6.9,2.6A6.4,6.4,0,0,1,196.24,241.51Zm12-11.55a35.67,35.67,0,0,0,4.3-9.65,74.22,74.22,0,0,0,2.7-19.8,77.06,77.06,0,0,0-1-11.8,27,27,0,0,0-4.7-11.2,12,12,0,0,0-4.3-3.75,12.63,12.63,0,0,0-5.9-1.35v.1q0,9,1.2,27.2t1.2,27.4v9.5A21,21,0,0,0,208.29,230Z"/><path class="cls-1" d="M234.89,242.31q-1.7-.5-1.7-2.8v-58.1a32.26,32.26,0,0,0-.6-5.1,24.07,24.07,0,0,1-.7-5.1v-.3a22.5,22.5,0,0,1,2.5-3.6,22.69,22.69,0,0,0,3.7-.4,20.17,20.17,0,0,1,3.7-.4,5.73,5.73,0,0,1,3.1,1,2.7,2.7,0,0,1,1.5,2.25q0,3-4.6,3h-1.4a8.77,8.77,0,0,0-1.4-.1,3.44,3.44,0,0,0-1.1.1q0,3.4.4,8.2l.2,2.8.2,5.5q0,1.9-.3,5.8l-.2,5.6,1.4-.3a12,12,0,0,1,3.3-.6,2.86,2.86,0,0,1,2,.85,2.62,2.62,0,0,1,.9,2,3.38,3.38,0,0,1-.75,2.15,2.28,2.28,0,0,1-1.85,1l-1.2-.1h-1.3a2.66,2.66,0,0,0-2.1.7v30.9l5.6-.3q5.7,0,5.7,2.6v.4a4.43,4.43,0,0,1-2.2,2,10.69,10.69,0,0,1-3.1,1l-3.3.1h-3.1A9.82,9.82,0,0,1,234.89,242.31Z"/><path class="cls-1" d="M275.08,240.51v-.3a70.79,70.79,0,0,0-1.8-11.8q-1.5-6.5-4.4-15.7-2.2-6.9-3.7-12.4v39.4a4,4,0,0,1-.55,2.35,2.53,2.53,0,0,1-2.15.75,2.47,2.47,0,0,1-1.9-.75,2.74,2.74,0,0,1-.7-1.95v-.8l.2-29.4q.2-13,.2-29.3v-12.3a2.16,2.16,0,0,1,.5-1.65,3.35,3.35,0,0,1,2.1-.45,11,11,0,0,1,4.6,1,10.55,10.55,0,0,1,3.6,2.65,17.06,17.06,0,0,1,4,8.4,23.72,23.72,0,0,1,.4,4.6,24.41,24.41,0,0,1-.25,3.3q-.25,1.8-.35,2.3a25,25,0,0,1-.9,3q-.7,2-.9,2.6l-1.2,2.8-1,2.6a53.38,53.38,0,0,0,1.25,9.1q1.15,5.5,2.55,10.2,1,3.3,3.6,11l2.9,8.8v.2a12.1,12.1,0,0,1-.3,2.9,1.87,1.87,0,0,1-2.1,1.6Q276.88,243.21,275.08,240.51Zm-6.7-48.6,1.5-8.6a7.55,7.55,0,0,0,.1-1.4,24.51,24.51,0,0,0-1.1-6.7,10.48,10.48,0,0,0-1.55-3,3,3,0,0,0-2-1.35l-.2,10q-.3,6.7-.3,10.4,0,3.5.1,4.6A48.89,48.89,0,0,0,268.38,191.91Z"/><path class="cls-1" d="M288.68,243.11q-1.6-.9-1.6-2.1a3,3,0,0,1,.6-2,2.05,2.05,0,0,1,1.7-.75,8.32,8.32,0,0,1,2.9.8,11.23,11.23,0,0,0,2.6.8,4.66,4.66,0,0,0,3.45-1.65,11.62,11.62,0,0,0,2.45-4.35,26.9,26.9,0,0,0,1.8-9,33.1,33.1,0,0,0-1.35-9,50.86,50.86,0,0,0-3.65-9.25l-1.6-3.2q-2.5-5-3.85-7.9a44.8,44.8,0,0,1-2.35-6.3,31.12,31.12,0,0,1-1.5-9.3,18.51,18.51,0,0,1,1.25-6.8,13.73,13.73,0,0,1,3.75-5.4,8.61,8.61,0,0,1,6.2-2.4,6.58,6.58,0,0,1,3.5,1.05,5.9,5.9,0,0,1,2.4,2.65l-1.7,2.1a6.34,6.34,0,0,1-3.9-1,4.81,4.81,0,0,0-3.15,1.75,10.73,10.73,0,0,0-2,3.55,12.55,12.55,0,0,0-.6,3.8,30.12,30.12,0,0,0,1,7.75,41.21,41.21,0,0,0,2.75,7.45l7,14a38.52,38.52,0,0,1,2.7,8.1,41.42,41.42,0,0,1,1,9,25.28,25.28,0,0,1-3.2,12.4,13.43,13.43,0,0,1-4.4,4.75,10.81,10.81,0,0,1-6,1.75A13.74,13.74,0,0,1,288.68,243.11Z"/></g></g></svg>