<svg xmlns="http://www.w3.org/2000/svg" viewBox="0 0 130.75 159.68"><defs><style>.cls-1{font-size:57px;}.cls-1,.cls-4{fill:#fff;}.cls-1,.cls-5{font-family:AmaticSC-Bold, Amatic SC;font-weight:700;}.cls-2{opacity:0.8;}.cls-3{fill:#202020;}.cls-5{font-size:58px;}</style></defs><title>graphHeader</title><g id="Layer_2" data-name="Layer 2"><g id="Layer_1-2" data-name="Layer 1"><text class="cls-1" transform="translate(3.15 74.82) scale(0.94 1)">graphics</text><g class="cls-2"><path class="cls-3" d="M107.8,116.89a1.16,1.16,0,0,1,.28-.05,1.33,1.33,0,0,1,.27.07c.18.06.32.16.34.3a.33.33,0,0,1,0,.22c0,.07,0-.05,0-.22a.59.59,0,0,0-.15-.17,1.88,1.88,0,0,1-.17.58,1.2,1.2,0,0,1,.07.17,2.43,2.43,0,0,1,.22.82c0,.13.1.3,0,.49a10.86,10.86,0,0,1-.44-1.08l0,.06c0,.24,0,.5,0,.75a.21.21,0,0,1,0,.13v-.13c0-.08-.13-.1-.18-.18s0-.22,0-.28a1.29,1.29,0,0,1,.1-.29V118h0c-.27.37-.77,1.87-.61,1.88s.56-.31.68-.28-.06.15.06.07a1.32,1.32,0,0,1,.18-.14c.08,0-.12.32.12.16s-.88,1.08-.68.89c.74-.7.2-.19.21-.07s.31-.25.3-.2c-.12.22.14,0,.29,0,.33-.15-.08.3.45-.08.06,0,.48-.22.48-.22s.43-.12.13.33c.46-.29.21.19.44.14s0,.23.08.34.09,0,.08,0,.19-.1.22-.08l-.08.07h.06s0,0,0,0-.11.09-.09.11a1,1,0,0,0,.26-.06l.41-.21.06,0,.11-.05,0,0s.1,0,.08,0a.32.32,0,0,1,0-.18s0,0,0,0,.06-.13.06-.11l0-.05h0a10.5,10.5,0,0,0,.45-1,.08.08,0,0,0,0-.1s.07-.13.09-.16a3.44,3.44,0,0,0-.28.25c.1-.22.39-.76-.07-.3,0-.12-.19.07-.23,0a1.4,1.4,0,0,1-.19-.27.3.3,0,0,1-.1-.16l0-.06c-.29-.36,0-1.17-.84-.92a1.06,1.06,0,0,1-1.37-.49.61.61,0,0,0-.49-.23,1,1,0,0,0-.51.09Z"/></g><g class="cls-2"><path class="cls-3" d="M92.82,139.06a1.16,1.16,0,0,1-.28.05,1.33,1.33,0,0,1-.27-.07c-.18-.06-.32-.16-.34-.3a.33.33,0,0,1,0-.22c0-.07,0,.05,0,.22a.59.59,0,0,0,.15.17,1.88,1.88,0,0,1,.17-.58,1.2,1.2,0,0,1-.07-.17,2.43,2.43,0,0,1-.22-.82c0-.13-.1-.3,0-.49a10.86,10.86,0,0,1,.44,1.08l0-.06c0-.24,0-.5,0-.75a.21.21,0,0,1,0-.13v.13c0,.08.13.1.18.18s0,.22,0,.28a1.29,1.29,0,0,1-.1.29V138h0c.27-.37.77-1.87.61-1.88s-.56.31-.68.28.06-.15-.06-.07a1.3,1.3,0,0,1-.18.14c-.08,0,.12-.32-.12-.16s.88-1.08.68-.89c-.74.7-.2.19-.21.07s-.31.25-.3.2c.12-.22-.14,0-.29,0-.33.15.08-.3-.45.08-.06,0-.48.22-.48.22s-.43.12-.13-.33c-.46.29-.21-.19-.44-.14s0-.23-.08-.34-.09,0-.08,0-.19.1-.22.08l.08-.07H90s0,0,0,0,.11-.09.1-.11a1,1,0,0,0-.26.06l-.41.21-.06,0-.11.05,0,0s-.1,0-.08,0a.32.32,0,0,1,0,.18s0,0,0,0-.06.13-.06.11l0,.05h0a10.46,10.46,0,0,0-.45,1,.08.08,0,0,0,0,.1s-.07.13-.09.16a3.46,3.46,0,0,0,.28-.25c-.1.22-.39.76.07.3,0,.12.19-.07.23,0a1.4,1.4,0,0,1,.19.27.3.3,0,0,1,.1.16l0,.06c.29.36,0,1.17.84.92a1.06,1.06,0,0,1,1.37.49.61.61,0,0,0,.49.23,1,1,0,0,0,.51-.09Z"/></g><line class="cls-4" x1="129.6" y1="119.13" x2="126.13" y2="115.66"/><g class="cls-2"><path class="cls-3" d="M126.13,115.66a1.8,1.8,0,0,1,.34-.12,1.31,1.31,0,0,1,.3,0c.2,0,.35.12.34.28a.33.33,0,0,1,0,.25c0,.08,0-.06,0-.25a.39.39,0,0,0-.14-.16,3.18,3.18,0,0,1-.34.73,1,1,0,0,1,0,.19,2.33,2.33,0,0,1,.08.92c0,.16.05.33-.08.58a9.09,9.09,0,0,1-.28-1.19l0,.07c0,.28-.07.58-.11.88a.25.25,0,0,1,0,.15l0-.15c0-.09-.13-.09-.18-.17s.1-.27.1-.34a2.27,2.27,0,0,1,.18-.36v-.12h0a7.21,7.21,0,0,0-1.13,2.36c.12,0,.74-.49.87-.48s-.1.19.05.07a2.64,2.64,0,0,1,.25-.21c.09,0-.21.4.1.16.14-.09-1.29,1.48-1,1.21,1-1,.28-.27.26-.13s.43-.37.4-.31c-.19.29.17,0,.36-.12.42-.25-.16.37.55-.19.08-.06.62-.37.62-.37s.54-.24.08.36c.61-.45.21.18.49.07s0,.27,0,.39.11,0,.09,0,.24-.15.28-.15l-.11.1h.07s0,0-.05.06-.15.13-.14.15a1.68,1.68,0,0,0,.32-.13l.53-.34.07-.06.14-.08.06,0c.05-.05.12,0,.1,0a.43.43,0,0,1,.05-.22s0,0,.05,0,.1-.16.1-.14l0-.07,0,0,.41-.66a3.78,3.78,0,0,0,.34-.58c0-.06,0-.1,0-.11a1.45,1.45,0,0,1,.14-.21c-.1.07-.26.24-.39.36.17-.28.63-1,0-.34.06-.15-.24.13-.28.08a1,1,0,0,1-.16-.28c-.06,0-.07-.1-.09-.17l0-.06c-.26-.37.31-1.4-.79-.91s-1.27,0-1.51-.28a.5.5,0,0,0-.53-.16,1.9,1.9,0,0,0-.32.07,2.88,2.88,0,0,0-.31.15Z"/></g><line class="cls-4" x1="87.99" y1="153.8" x2="91.46" y2="157.27"/><g class="cls-2"><path class="cls-3" d="M91.46,157.27a1.8,1.8,0,0,1-.34.12,1.31,1.31,0,0,1-.3,0c-.2,0-.35-.12-.34-.28a.33.33,0,0,1,0-.25c0-.08,0,.06,0,.25a.39.39,0,0,0,.14.16,3.18,3.18,0,0,1,.34-.73,1,1,0,0,1,0-.19,2.33,2.33,0,0,1-.08-.92c0-.16-.05-.33.08-.58A9.11,9.11,0,0,1,91.2,156l0-.07c0-.28.07-.58.11-.88a.25.25,0,0,1,0-.15l0,.15c0,.09.13.09.18.17s-.1.27-.1.34a2.27,2.27,0,0,1-.18.36v.12h0a7.22,7.22,0,0,0,1.13-2.36c-.12,0-.74.49-.87.48s.1-.19-.05-.07a2.66,2.66,0,0,1-.25.21c-.09,0,.21-.4-.1-.16-.14.09,1.29-1.48,1-1.21-1,1-.28.27-.26.13s-.43.37-.4.31c.19-.29-.17,0-.36.12-.42.25.16-.37-.55.2-.08.06-.62.37-.62.37s-.54.24-.08-.36c-.61.45-.21-.18-.49-.07s0-.27,0-.39-.11,0-.09,0-.24.15-.28.15l.11-.1H89s0,0,.05-.06.15-.13.14-.15a1.69,1.69,0,0,0-.32.13l-.53.34-.07.06-.14.08-.06,0c-.05.05-.12,0-.1,0a.43.43,0,0,1-.05.22s0,0-.05,0-.1.16-.1.14l0,.07,0,0-.41.66a3.79,3.79,0,0,0-.34.58c0,.06,0,.1,0,.11a1.46,1.46,0,0,1-.14.21c.1-.07.26-.24.39-.36-.17.28-.63,1,0,.34-.06.15.24-.13.28-.08a1,1,0,0,1,.16.28c.06,0,.07.1.09.17l0,.06c.26.37-.31,1.4.79.91s1.27,0,1.51.28a.5.5,0,0,0,.53.16,1.9,1.9,0,0,0,.32-.07,2.89,2.89,0,0,0,.31-.15Z"/></g><g class="cls-2"><path class="cls-3" d="M63.24,94c1.33,1.21,5.72,5.45,7.57,7.36.72.73,1.26,1.29,1.66,1.72s-.45-.46-1.66-1.72l-2-2c.93,1,1.79,1.94,2.39,2.65l1.44,1.49c2.13,2.22,4.22,4.35,6.27,6.6.74.82,2.41,2.56,3.08,3.41q-4.6-4.9-9.25-9.74l.24.27q2.41,2.58,4.79,5.19c.27.29.55.59.82.91l-.82-.91L75.57,107l-1.48-1.65c-.39-.42-.72-.84-1.08-1.26l-.72-.77-.23-.23h0c.24.38,1.83,2.23,3.44,4.17s3.27,3.94,3.79,4.46c.82.84,1.77,1.4,2.7,2.32a6.31,6.31,0,0,0,.78.83c.06,0,.21.08.35.17a13.21,13.21,0,0,0,1.64,1.76c.39.28.54,2,.74,1.91.75-.23.21-.07.9.8.08.11.59.22.75.44.48.8.84.82,1.61,1.51,1.24.94,1.08,1.57,2.41,2.18.15.08,1.89,1.37,1.89,1.37,1.09,1.27,2.17,1.66,2.58,3.11,1.49.64,2.34,2.63,3.53,3.71s1.26,2,1.85,3.36c.21.35.46.54.5.83s.76.38,1,.73l-.31.17.28.48c.07.12,0,.18-.14.23s-.41.22-.38.52a13.21,13.21,0,0,0,.81,1.62,17.13,17.13,0,0,0,1.56.87,1.43,1.43,0,0,1,.43-.22l.53.18c.33-.18.58-.49.8-.61.73-.73,1.94-.95,2.5-1.74.15-.24-.48-1-.46-1.63,0-.17.44-.25.77-.44-.42-.39-.17-.68.24-.76l-.16-.22.44-.25c-.75-1.28-1.4-2.91-2.77-3.53a6.42,6.42,0,0,0-1.19-.42c-.18-.05-.33-.43-.41-.54-.39.05-.61.32-.91.48-.54-.93-1.85-2.79-2.57-2-.58-.6-1.06-.36-1.73-.92-.9-.73-2-1.69-3.09-2.65-.62-.49-1.16-1-1.72-1.55l-.61-.56c-2.11-1.93-3.82-3.74-5.59-5.47a74.92,74.92,0,0,0-5.76-5.15c-4.39-3.57-8.49-7.84-12-11.23s-6.23-6-7.26-6.93Z"/></g><g class="cls-2"><path class="cls-3" d="M102,145.22c.32-2.13.76-4.07,1-6.12a19.79,19.79,0,0,1,.43-2.27c.12-.52.14-.33.2-.37l.2,0a1,1,0,0,0,.66-.92.92.92,0,0,0-.68-.94,1.28,1.28,0,0,0-.3-.27,3.85,3.85,0,0,0-.43-.13c-.33-.08-.71-.16-1.06-.27a9.65,9.65,0,0,1-4-2.32,8.69,8.69,0,0,1-2.33-4,8.8,8.8,0,0,1-.31-2.13V125l0-.35.06-.68c.11-.39.43-1.55-.29-1.41.5-1.77,1-3.52,1.37-5.24l.12-.63a3.43,3.43,0,0,0,.07-.49,3.13,3.13,0,0,0-.07-1,2.79,2.79,0,0,0-1.08-1.58,4,4,0,0,0-1.55-.75,7.38,7.38,0,0,0-2-.09c-1.16.12-2.31.21-3.46.26s-2.23,0-3.46.16a4,4,0,0,1-1.8.27,8.82,8.82,0,0,1-4.8-4.52l-.29-.71L78,107.7l-.44-1a15.76,15.76,0,0,1-.73-2.08,12.69,12.69,0,0,1-.4-3.15c-.25,0-.21-.33-.29-.63,0-.86,1-5.91,1.16-6.38,0-.06-.08.53-.13,1.41a28,28,0,0,0,0,3.23c.15,2.33.61,4.6.77,4.47a29,29,0,0,0-.34-3.21c-.19-1.57-.25-3.2-.24-3.48a25.86,25.86,0,0,0,1.75,6.59c.67,1.7,1.27,3,1.71,3.89a4,4,0,0,0,1.1,1.54c.25.18.31.18.23.05s-.29-.39-.54-.81-.49-1.1-.81-1.84c-.62-1.49-1.4-3.28-2-4.86A36.54,36.54,0,0,1,77.7,97a9.54,9.54,0,0,0,.87,2.22c.4.77.84,1.44.94,1.71,1.13,2.48,1.52,2,2.29,4.92.08.3.18.63.29,1l.19.53a2.89,2.89,0,0,0,.19.37,2.75,2.75,0,0,0,1.12,1,4.51,4.51,0,0,0,1.3.4c.22,0,.41.06.66.09s.63.06.89.11c-.26,0-.69.13-1.05.23a4.07,4.07,0,0,1-1,.23,2.13,2.13,0,0,1-2-.82,2,2,0,0,0,1.31,1.19,2.56,2.56,0,0,0,1.37-.05,5.3,5.3,0,0,1,1.54-.27,7.93,7.93,0,0,1,2.26.33,8.44,8.44,0,0,0,1.17.15c.41.13.79.25,1.27.38.76.14,1.49.23,2.22.29a7.38,7.38,0,0,1,2.41.6,6.07,6.07,0,0,1,3.36,3.85c-.12-.29,0-.54-.13-.85a5.77,5.77,0,0,0-3.17-3.25,7.84,7.84,0,0,0-2.15-.56,18.17,18.17,0,0,1-2-.3c-.52-.15-1.25,0-1.81-.16a14.63,14.63,0,0,1-3.13-1.2,22,22,0,0,1,3.32.76,23.34,23.34,0,0,0,3.48.69c.56,0,1.27.09,1.75.17a10.07,10.07,0,0,0-1.93-.46c-.52-.08-1-.19-1.56-.31-1.82-.42-3.92-1-5.9-1.33a3.56,3.56,0,0,1-.95-.21,1.59,1.59,0,0,1-.49-.29.64.64,0,0,1-.19-.79h-.15a.16.16,0,0,0,.05-.08.39.39,0,0,1-.08-.24c0-.07,0-.07,0-.19a3.14,3.14,0,0,1,0-.45c.15.6.15.57.19.72.43.07.57-.07.65,0a2,2,0,0,1,.19.23,1.17,1.17,0,0,0,.19.19c.06,0,0,.07.16.11l.37.12a45.87,45.87,0,0,0,6,2.07c.46.08,1,.24,1.65.38a16,16,0,0,1,2,.56,7.11,7.11,0,0,1,4,3.48,7.61,7.61,0,0,1,.54,1.3c.14.43.24,1,.32,1.24.17.66.31,1.32.44,2a27.24,27.24,0,0,1,.54,3.55c0,.59.07,1.19.06,1.78v.45a2.26,2.26,0,0,1,0,.25,2.8,2.8,0,0,0,0,.41,2.18,2.18,0,0,0,.53,1.43l2.33,1a6.18,6.18,0,0,1,3.62,2.21,5.7,5.7,0,0,1,1.11,3.83,7,7,0,0,1-1.22,3.38,12.05,12.05,0,0,1-1,1.23q-.56.69-1.08,1.39l-.26.59.28-.17-.41.47a23.79,23.79,0,0,1-1.71,3c-.29.37.32-.77.32-1.17l-.24.46-.12-.17c0,.21-.17.27-.26.37l1.24-3.66.62-1.84a2,2,0,0,1,.25-.55,3.92,3.92,0,0,0,.19-.4c-.49.06-.53.32-.67.42l-.11.51c0,.21-.1.42-.15.63a6.75,6.75,0,0,1-.42,1.14c-.62,2.1-1.71,4.08-2.12,6.13-.08.36-.12.77-.17,1.2-.08.08-.11.1-.09.06l.06-.09c0-.06,0-.14,0-.22C102.08,146.13,102,145.59,102,145.22Zm-2.18-23.79a12.59,12.59,0,0,1-.51,2.18l0,.78a1.83,1.83,0,0,0,.11.92,4.6,4.6,0,0,0,1.29,3.6,6,6,0,0,1-.66-2.08,12.93,12.93,0,0,1-.08-1.93,6,6,0,0,0,.66,2.32,5.11,5.11,0,0,0,1.89,1.93,8.6,8.6,0,0,0,1.43.66c.24.1.46.2.67.31l.6.4a4.32,4.32,0,0,1,1.49,2.23,4.5,4.5,0,0,1,.4,2.66,7.9,7.9,0,0,1-.31,1.72,5.59,5.59,0,0,0,1.14-3.14,4.66,4.66,0,0,0-1.4-3.59l-3.79-1.75a3.59,3.59,0,0,1-2-2.28,3.75,3.75,0,0,1-.1-1.33c0-.12,0-.23,0-.34l0-.52c0-.35,0-.7,0-1a24,24,0,0,0-.32-4.17c-.11-.69-.23-1.39-.37-2.09-.07-.3-.14-.83-.27-1.26a7.09,7.09,0,0,0-4.58-4.85,7.12,7.12,0,0,1,2.84,2,6.87,6.87,0,0,1,1.47,3.09c.05.27.09.58.12.81l.07.68.11,1.36A22.62,22.62,0,0,1,99.86,121.43Zm-.58-1.32c-.06-.73-.14-1.46-.23-2.18a19.57,19.57,0,0,0-.35-2.24,5.66,5.66,0,0,0-1.61-2.85,5.57,5.57,0,0,0-2.83-1.4,10.26,10.26,0,0,0-1.43-.13l-1.28-.06a11.55,11.55,0,0,0-2.2.1l2.6.09,1.32.05a6.58,6.58,0,0,1,1.39.18,5.36,5.36,0,0,1,2.54,1.39,5.64,5.64,0,0,1,1.49,2.62,5.79,5.79,0,0,0-.64-1.62c-.11-.17,0,0,.17.35a6.4,6.4,0,0,1,.58,2l.35,3.07A3,3,0,0,1,99.28,120.11Z"/><path class="cls-3" d="M109.42,135.24a9.82,9.82,0,0,1-1.48,2.27c-.28.31-.57.54-.86.82s-.59.61-.88.92c.65-.37,1.33-.62,2-1.1a5.18,5.18,0,0,0,1.2-1.35,6.79,6.79,0,0,0,.48-.85c.11-.3.23-.62.31-.94a7.67,7.67,0,0,0-.12-4.07,6.6,6.6,0,0,0-4.19-4.57l-2.6-.66a.93.93,0,0,1-.37-.4,5.73,5.73,0,0,1-.18-.7,21.28,21.28,0,0,0-1-4.66,5.87,5.87,0,0,0-.54-1.49,25,25,0,0,1,1,5.86l0,.71a3.43,3.43,0,0,0,.05.4,1.41,1.41,0,0,0,.38.69l1.82.66A6.91,6.91,0,0,1,108,128.5,6.22,6.22,0,0,1,109.42,135.24Z"/><path class="cls-3" d="M92.76,109.65a14.11,14.11,0,0,1-3.37-1.1,10.08,10.08,0,0,0,3.41,1.4l.58.1.72.11a10,10,0,0,1,1.48.39,7.63,7.63,0,0,1,2.71,1.62,7.51,7.51,0,0,0-2.67-1.77,10,10,0,0,0-1.53-.46C93.52,109.83,93.16,109.76,92.76,109.65Z"/><path class="cls-3" d="M101.25,118.44l-.26-.95-.33-1.14a8.43,8.43,0,0,0-.51-1.54,7.92,7.92,0,0,0-1.87-2.65,7.56,7.56,0,0,1,1.74,2.88,9.94,9.94,0,0,1,.37,1.58l.22,1.2C100.85,117.83,101.06,118.09,101.25,118.44Z"/></g><g class="cls-2"><path class="cls-3" d="M65.4,108.7a.16.16,0,0,0-.1-.09c-.06,0-.08-.14-.14-.2l-.08-.07a.42.42,0,0,0-.17-.17s0,0,0,0a.31.31,0,0,0-.17-.13s0-.05-.07-.06-.08-.06-.12-.07h0c-.05,0-.11,0-.16-.06l-.06,0h0l-.1-.06.16.07-.12-.05c.2.07.27,0,.26,0h-.17l-.09,0h.19a.61.61,0,0,0,.18,0s-.09.05-.12,0,.09,0,.16,0h0a1.33,1.33,0,0,1,.18,0s0,0,0,0-.1,0-.15,0l0,0-.06,0a.6.6,0,0,1,.14,0l0,0H64.7c-.08,0-.19.07-.23,0h0a2.15,2.15,0,0,1,.25-.06s0,0,.06,0a.17.17,0,0,1,.16,0,.89.89,0,0,1,.45.51h0v0s0,0,.05.08,0,0,0,0h0v0s0,0,0,0l-.14-.07s0,0,0,.06,0,0,0,0,.06.12.09.16v.06S65.41,108.73,65.4,108.7Zm-.45-.84,0,.06h0l.06.08a.19.19,0,0,0-.06-.12c.09,0,.13.16.18.28l.06.06h.05c-.16-.27-.32-.5-.55-.5A.67.67,0,0,1,64.95,107.86Zm0,0-.08,0a.29.29,0,0,0-.22,0h.22l.07,0Z"/><path class="cls-3" d="M65.31,108l.06.18a1.33,1.33,0,0,0,0-.15c0-.09-.06-.11-.09-.16a.36.36,0,0,0-.32-.21h0A.56.56,0,0,1,65.31,108Z"/><path class="cls-3" d="M64.73,107.67l-.07,0h.07l.1,0Z"/><path class="cls-3" d="M64.93,107.7h-.11l.09,0A.06.06,0,0,1,64.93,107.7Z"/></g><g class="cls-2"><path class="cls-3" d="M70.48,111.92c0-.15-.11-.2-.2-.17s-.12-.46-.21-.63a.46.46,0,0,0-.14-.2c-.06-.28-.15-.49-.28-.54s0-.14-.1.16c-.08-.25-.15-.51-.31-.42s-.06-.25-.11-.24-.12-.25-.21-.25-.08.16-.08.14c0-.31-.25.06-.39.17s-.1.07-.13,0,0,.08-.05.11a1.13,1.13,0,0,1-.12-.48c0-.07.36,0,.38-.11s-.23-.07-.24-.11c.54-.46.72-.71.69-.71a1.64,1.64,0,0,0-.42.35s-.13.13-.21.12.25-.43.27-.45.16-.31.28-.27.34-.29.44-.36c-.09.21-.3.63-.35.57.08.26.28-.52.41-.44s0,0,.06-.07l0,.09c.11,0,.26-.16.36-.06s0-.14,0-.16c0-.26-.2,0-.29,0s-.09.16-.11.16-.05-.13-.08-.2.21-.12.31-.15a1.38,1.38,0,0,0,.11-.23.24.24,0,0,0-.12,0c-.16.07-.49.64-.51.29l0,0a.09.09,0,0,0,0,0s0,0,0-.09l.05,0c.24-.4.36-.19.56-.36s.05.16.11.1.23-.08.29.12a8.13,8.13,0,0,1,.54,2.41h0v0s.08.07.07.28,0,0-.08.12v.05l0,.15s0,.06,0,.12a2,2,0,0,1-.28-.12c0,.2,0,.18,0,.22s.08-.06.09,0,.08.4.13.54v.24C70.58,111.78,70.49,112,70.48,111.92ZM70,108.49c0,.09,0,.21,0,.33l0,0s0,0,0,0l.07.38a1.69,1.69,0,0,0,0-.62c.16.08.14.78.19,1.29a.74.74,0,0,0,.1.21s.07,0,.11,0c-.2-1-.32-2.32-.72-2.52C69.86,107.92,70,108.13,70,108.49Zm-.09.17a.23.23,0,0,0-.16-.07c-.13-.09-.29-.15-.48.22a1,1,0,0,1,.48-.22c-.12-.08,0,0,.13.08A0,0,0,0,1,69.92,108.67Z"/><path class="cls-3" d="M70.64,109.22V110l.08-.63a2.92,2.92,0,0,0-.08-.71c-.06-.74-.22-1.07-.44-1.2,0,0,0,0-.06,0A3.66,3.66,0,0,1,70.64,109.22Z"/><path class="cls-3" d="M69.84,107.06c-.06.05-.12.1-.16.09s.06.16.1.17a.6.6,0,0,1,.19,0C69.94,107.17,69.9,107.08,69.84,107.06Z"/><path class="cls-3" d="M70.15,107.43l0,0a.17.17,0,0,0-.15-.1l.1.39A.88.88,0,0,1,70.15,107.43Z"/></g><g class="cls-2"><path class="cls-3" d="M75.71,114.64c0-.21-.1-.25-.2-.19s-.08-.65-.15-.88a.49.49,0,0,0-.12-.27c0-.42-.09-.72-.22-.78s0-.21-.13.3c0-.38-.08-.79-.27-.59-.06,0,0-.4-.08-.36s-.09-.39-.18-.36a1.82,1.82,0,0,1-.12.28c0-.53-.28.2-.46.46-.06.06-.12.16-.15.12a.74.74,0,0,1-.08.23,2.62,2.62,0,0,1,0-.85c0-.13.39-.12.44-.36s-.23,0-.23-.11c.34-.52.57-.89.7-1.13s.18-.35.17-.36a3.29,3.29,0,0,0-.51.73c0-.05-.17.28-.25.29.09-.16.35-.87.38-.91.18-.31.23-.61.34-.55s.4-.56.52-.7c-.13.37-.43,1.17-.47,1.07,0,.46.39-1,.51-.84s0,0,.08-.12v.17c.11.05.29-.29.37-.13s0-.24,0-.27c0-.45-.21.07-.28-.05s-.12.29-.14.29,0-.23,0-.36c.15-.3.23-.21.33-.26a3.78,3.78,0,0,0,.15-.41.15.15,0,0,0-.12,0c-.17.11-.61,1.16-.56.51l0,.07v-.05s0,0,0-.18l0,0c.32-.74.39-.34.62-.62.06-.12,0,.3.09.18s.24-.13.26.22a24.17,24.17,0,0,1,.19,3.88h0l0-.16v.16s.07.09,0,.41,0,0-.09.2v.08l-.06.24c0-.05,0,.1,0,.18a1.24,1.24,0,0,1-.28-.1c-.06.32,0,.28,0,.33s.1-.11.1,0c.1,0,0,.58.08.77l0,.35C75.83,114.41,75.71,114.76,75.71,114.64Zm0-5.28,0,.55V110s0,0,0,0v.62a4.52,4.52,0,0,0,.06-1,7.81,7.81,0,0,1,0,2.06,1.08,1.08,0,0,0,.08.3s.07,0,.11,0c-.09-1.48,0-3.71-.34-4.09C75.63,108.39,75.68,108.76,75.68,109.36Zm-.12.3a.16.16,0,0,0-.15-.1c-.12-.14-.27-.24-.53.44.19-.22.38-.43.53-.44-.11-.12,0,0,.12.12C75.54,109.66,75.55,109.66,75.56,109.66Z"/><path class="cls-3" d="M76.21,110.47l-.09,1.18.16-1a7.3,7.3,0,0,0,0-1.13c.05-1.19-.06-1.76-.25-2,0,0,0-.09-.06,0A9.89,9.89,0,0,1,76.21,110.47Z"/><path class="cls-3" d="M75.76,106.86c-.07.08-.13.17-.17.14,0,.24,0,.29.06.32a.41.41,0,0,1,.2-.06C75.84,107.06,75.81,106.9,75.76,106.86Z"/><path class="cls-3" d="M76,107.53l0-.08c0-.13-.08-.18-.13-.18l0,.69A2.46,2.46,0,0,1,76,107.53Z"/></g><g class="cls-2"><path class="cls-3" d="M76.18,115.7c.22-.08.25-.1.13-.05s.69-.3.91-.45a1,1,0,0,0,.23-.16c.44-.26.71-.5.7-.56s.21-.17-.36.21c.36-.28.72-.65.42-.5-.06,0,.35-.36.28-.34s.29-.39.19-.38-.34.29-.31.26c.43-.53-.35.16-.64.45-.08.07-.19.18-.18.14l-.22.25.61-.91c.1-.15.33-.12.55-.37s-.13-.08-.09-.15a12.26,12.26,0,0,1,1.39-1.08,2.09,2.09,0,0,0,.43-.32,3.2,3.2,0,0,0-1,.61c0-.07-.34.28-.41.27.18-.18.89-.91,1-.94.39-.28.65-.6.73-.47s.83-.37,1.08-.41c-.43.3-1.32,1-1.28.87-.31.52,1.12-.84,1.16-.58,0,0,.08,0,.17-.07l-.11.19c.07.15.55,0,.5.22,0,0,.24-.21.27-.25.37-.48-.29-.14-.28-.35s-.36.21-.38.19.13-.28.22-.45c.4-.2.44,0,.6,0a4.46,4.46,0,0,0,.5-.29.34.34,0,0,0-.12-.18c-.32-.1-1.58.73-1.08,0l-.08.06,0-.06s0-.07.08-.24l0,.1c.91-.59.75,0,1.24-.06.17-.06-.19.38,0,.32.39-.08.4.18.15.57a8.69,8.69,0,0,1-3.59,3.46h0l.19-.09-.18.09s-.06.1-.43.26,0,0-.27.07l-.09,0-.29.11-.22.09s-.06-.07,0-.13a2,2,0,0,0-.37.18c.09,0,.17,0,0,0a4.92,4.92,0,0,1-.83.39l-.42.15Zm5.45-3.6c-.14.14-.34.31-.54.48l-.06.08s0,0,0,0c-.18.19-.38.37-.58.55a4.85,4.85,0,0,0,1-.84c0,.26-1.19,1.15-2,1.68a2.64,2.64,0,0,0-.27.24s0,0,.1,0a13.12,13.12,0,0,0,2.43-2,3.15,3.15,0,0,0,1.1-2A10.34,10.34,0,0,1,81.63,112.1Zm-.38.18a.19.19,0,0,0-.05-.22c0-.23-.07-.48-.86.08.35-.12.72-.19.86-.08,0-.21-.06,0,0,.21C81.24,112.26,81.24,112.27,81.25,112.28Z"/><path class="cls-3" d="M81,113.51c-.44.27-.83.5-1.3.75.43-.2.83-.38,1.16-.56a6,6,0,0,0,1.17-.84c1.23-.93,1.62-1.69,1.58-2.21,0,0,.05-.12-.07-.08A5.9,5.9,0,0,1,81,113.51Z"/><path class="cls-3" d="M83.73,109.47c-.15,0-.3,0-.34-.06-.19.27-.17.39-.14.46a.8.8,0,0,1,.3.19C83.69,109.81,83.78,109.59,83.73,109.47Z"/><path class="cls-3" d="M83.53,110.58l0-.12a.37.37,0,0,0,0-.39c-.15.27-.36.56-.52.81A2.24,2.24,0,0,1,83.53,110.58Z"/></g><g class="cls-2"><path class="cls-3" d="M75.67,120c.26-.1.29-.17.13-.24s.84-.27,1.13-.41a.61.61,0,0,0,.3-.2c.57-.15,1-.3,1-.44s.3-.07-.49,0c.52-.16,1.1-.32.71-.43-.08-.05.58-.14.49-.19-.27-.08.54-.2.44-.28a4.57,4.57,0,0,1-.47,0c.79-.16-.45-.21-.94-.3-.13,0-.32-.06-.28-.11a2,2,0,0,1-.4,0,5.72,5.72,0,0,1,1.27-.29c.22,0,.4.33.79.31.22,0,0-.23.05-.26,1,.16,1.65.27,2.07.32a2.78,2.78,0,0,0,.62.05,7,7,0,0,0-1.34-.26c.07,0-.52-.07-.56-.15l1.59.09c.56.08,1,0,1,.16s1,.21,1.25.28a9.43,9.43,0,0,1-1.81-.12c-.69.17,1.64.08,1.47.23a.6.6,0,0,0,.21,0l-.25.06c0,.12.52.19.31.32,0,0,.37,0,.42,0,.68-.13-.17-.18,0-.29s-.48,0-.48,0,.34-.1.54-.15c.5.06.39.16.49.24s.45,0,.67,0a.12.12,0,0,0,0-.12c-.2-.13-2-.23-.93-.38h0s0,0,.27-.08l-.07.06c1.24.08.62.28,1.11.41.19,0-.46.11-.27.14.4.08.24.19-.27.32-1.5.44-3.19.89-5.57,1.36l0,0,.24,0-.23,0s-.1.1-.56.16c-.28,0,0,0-.32,0l-.11,0h-.35c.08,0-.14,0-.27,0s0-.2,0-.3c-.48,0-.4.06-.47.08.1,0,.21.06,0,.09.1.08-.77.21-1,.3l-.5.07C76.05,120.06,75.5,120,75.67,120Zm7.45-1.62-.83.12-.11,0c-.06,0,0,0,0,0l-.9.2a10.24,10.24,0,0,0,1.5-.25,17.32,17.32,0,0,1-3,.63,1.78,1.78,0,0,0-.39.17s0,.07.1.1c2-.53,5.35-1.11,5.88-1.57C84.56,118,84,118.21,83.12,118.39Zm-.49,0c.09-.06.12-.12.09-.17.16-.16.27-.33-.86-.37.41.11.79.23.86.37.14-.14-.06,0-.13.15C82.63,118.34,82.63,118.35,82.63,118.36Z"/><path class="cls-3" d="M81.69,119.24l-1.71.27,1.47-.14a15.94,15.94,0,0,0,1.62-.32A7.64,7.64,0,0,0,86,118.2c.06,0,.13,0,0-.06A23.77,23.77,0,0,1,81.69,119.24Z"/><path class="cls-3" d="M86.93,117.7c-.14,0-.28-.07-.25-.12-.37.06-.45.11-.48.16s.13.11.13.17A1.59,1.59,0,0,0,86.93,117.7Z"/><path class="cls-3" d="M86,118.14l.12,0c.19-.07.26-.13.25-.19l-1,.24A5.63,5.63,0,0,1,86,118.14Z"/></g><g class="cls-2"><path class="cls-3" d="M76.23,127.72c.19-.28.16-.43,0-.54s.71-.75,1-1.06a.77.77,0,0,0,.24-.41c.55-.37.94-.66.92-.88.08,0,.31-.14-.54,0,.52-.32,1.14-.57.7-.73-.09-.08.62-.21.53-.29-.3-.11.59-.22.48-.31s-.58,0-.52,0c.87-.16-.49-.21-1-.29-.15,0-.35-.06-.31-.11a2.45,2.45,0,0,1-.45,0,6.78,6.78,0,0,1,1.4-.3c.24,0,.45.33.88.31.24,0-.06-.23.06-.26,4.35.64,3.08.29,1.5.11.07,0-.57-.07-.62-.15l1.76.08c.62.07,1.15,0,1.09.15s1.09.21,1.36.28a11.31,11.31,0,0,1-2-.11c-.76.17,1.8.07,1.6.22a.7.7,0,0,0,.23,0l-.28.06c-.06.08.56.08.32.16l.46-.06c.75-.11-.17-.06,0-.13s-.53,0-.53,0,.37-.1.6-.15c.55.06.42.17.53.17l.72,0s.06,0,0,0c-.21-.08-2.13-.21-1-.35h0s0,0,.3-.08l-.07.06c1.36.06.67.31,1.2.37.21,0-.51,0-.3,0,.43,0,.25,0-.32.1a18.28,18.28,0,0,0-5.75,2.18l0,0,.24-.1-.23.11c0,.05-.07.15-.5.39-.28.14,0,0-.34.06l-.1.07-.36.13c.09,0-.13.07-.26.13a1.7,1.7,0,0,1-.16-.48c-.49.17-.39.2-.46.25.12,0,.25,0,.1.15.14.1-.68.58-.87.83l-.47.29C76.67,127.69,76.09,127.86,76.23,127.72Zm7.34-3.81-.9.2-.12,0c-.07,0-.05,0,0,0-.31.1-.63.21-.94.33.73-.21,1.39-.37,1.59-.46-.14.14-2,.64-3.09,1.17a1.41,1.41,0,0,0-.35.31c0,.06.05.09.15.11a15.06,15.06,0,0,1,3.55-1.57c1.22-.38,2.28-.56,2.59-.64A18.65,18.65,0,0,0,83.56,123.91Zm-.53,0c.1-.06.12-.1.09-.14.18-.14.31-.23-.94-.28a3.29,3.29,0,0,1,.94.28c.16-.12-.06,0-.14.13C83,123.93,83,123.94,83,123.95Z"/><path class="cls-3" d="M82.13,124.86c-.6.24-1.1.48-1.7.76l1.49-.58c1-.39,1-.47,1.64-.69a22.86,22.86,0,0,1,3.07-.9c.07,0,.14,0,0,0A19.35,19.35,0,0,0,82.13,124.86Z"/><path class="cls-3" d="M87.66,123.32h-.12c-.05,0-.08,0-.06-.06-.41.07-.5.11-.54.1h.13Z"/><path class="cls-3" d="M86.63,123.44l.14,0,.29,0c-.37,0-.81.1-1.16.15Z"/></g><g class="cls-2"><path class="cls-3" d="M86.2,134.8c0-.29-.24-.32-.39-.16s-.38-1-.56-1.32a.74.74,0,0,0-.28-.38c-.12-.67-.24-1.16-.46-1.22,0-.09,0-.36-.22.52-.1-.62-.09-1.32-.43-1-.12.06,0-.68-.06-.62-.24.24,0-.68-.18-.62a3.55,3.55,0,0,1-.29.47c.21-.91-.53.32-1,.72-.14.1-.3.25-.35.18a1.38,1.38,0,0,1-.27.38,3.51,3.51,0,0,1,.41-1.48c.13-.21.74-.1.93-.51.11-.23-.33-.12-.29-.25a11.83,11.83,0,0,0,1.6-1.84,3.51,3.51,0,0,0,.38-.61s-.45.58-1,1.22c0-.09-.4.47-.51.45.24-.26,1-1.44,1.08-1.5.39-.52.63-1,.67-.93a6,6,0,0,0,.75-1.2,11,11,0,0,1-.95,1.84c-.22.78.87-1.66.83-1.45a1.4,1.4,0,0,0,.1-.21l-.08.28c0,.08.28-.51.25-.25l.13-.47c.21-.77-.11.14-.08-.07s-.22.5-.22.5a4,4,0,0,1,.2-.61c.24-.52.19-.38.25-.48l.26-.71s0-.07,0-.05c0,.21-.91,2-.44.92l-.06.12,0-.09s0,0,.13-.29l0,.08c.31-.62.39-.83.38-.79l0-.09v0l0,.11.07-.21-.15.55a18.79,18.79,0,0,0-.29,6.38l0,0v0c.06,0,.11.12.14.63,0,.32,0,0-.08.35l0,.12,0,.39c0-.09,0,.15,0,.3a1.57,1.57,0,0,1-.48,0c0,.54,0,.45,0,.53.07-.11.13-.22.17,0,.13-.1.27.88.32,1.15l0,.56C86.29,134.37,86.22,135,86.2,134.8Zm-.45-8.5-.17.94v.13c0,.07,0,.06,0,0,0,.34-.06.69-.07,1,.1-.79.2-1.48.21-1.71.06.19-.18,2.13-.14,3.42a1.5,1.5,0,0,0,.14.46s.1,0,.15-.1a17.74,17.74,0,0,1,.46-6.76A16.22,16.22,0,0,0,85.75,126.3Zm-.17.52c0-.11,0-.16-.08-.15,0-.22-.07-.38-.62.79.28-.38.51-.76.62-.79,0-.2,0,0,.05.19C85.56,126.81,85.57,126.81,85.57,126.82Z"/><path class="cls-3" d="M86.05,128c0,.67,0,1.24,0,1.93l.06-1.65c0-1.07,0-1.17,0-1.84a18.23,18.23,0,0,1,.41-3.31c0-.08,0-.08,0,0A18.22,18.22,0,0,0,86.05,128Z"/><path class="cls-3" d="M86.51,123.31l0,.05,0-.06,0-.08Z"/><path class="cls-3" d="M86.55,123.16v0l0,.09v0h0l0,.12-.16.58Z"/></g><g class="cls-2"><path class="cls-3" d="M91.91,135c-.07-.28-.14-.31-.23-.14s-.19-.92-.3-1.25a.61.61,0,0,0-.17-.34c-.09-.64-.21-1.1-.34-1.11s0-.34-.08.56c-.11-.58-.21-1.25-.36-.81-.06.09-.08-.66-.14-.57-.1.31-.15-.63-.24-.52s-.07.61-.07.55c-.08-.92-.25.51-.39,1.09-.05.16-.1.37-.14.32a2.79,2.79,0,0,1,0,.47,7.37,7.37,0,0,1-.16-1.5c0-.26.37-.46.39-.91,0-.26-.24,0-.25-.08,1.05-4.54.59-3.22.26-1.58,0-.08-.12.6-.21.65l.25-1.85c.13-.64.14-1.2.26-1.13s.31-1.12.41-1.39a12.45,12.45,0,0,1-.3,2.06c.1.82.24-1.88.37-1.65a.75.75,0,0,0,.06-.23l0,.3c.11.07.25-.56.35-.29,0,0,0-.43,0-.49-.06-.8-.19.15-.29-.06s-.07.55-.09.54-.06-.4-.09-.65c.11-.56.19-.41.29-.52s.06-.51.09-.75c0,0-.08-.08-.12-.06-.15.2-.43,2.19-.47,1l0,.14v-.1s0,0-.05-.33l.05.09c.21-1.41.34-.66.51-1.18,0-.21.07.54.11.33.12-.44.22-.23.29.38.29,1.78.56,3.74.8,6.4l0,0v0s.09.12.11.62c0,.32,0,0-.06.35v.12l0,.39c0-.09,0,.15,0,.3-.1,0-.2,0-.3,0,0,.53,0,.44,0,.53,0-.11.08-.23.1,0,.09-.1.13.86.2,1.13l0,.55C92,134.58,91.93,135.18,91.91,135ZM91,126.61l0,1,0,.13c0,.07,0,.06,0,0l.11,1a13.13,13.13,0,0,0-.1-1.72,22.2,22.2,0,0,1,.33,3.4,2,2,0,0,0,.13.44s.07,0,.11-.11c-.33-2.26-.57-6.09-1-6.8Zm-.08.55c-.05-.11-.11-.15-.16-.13-.14-.21-.3-.36-.45.93.15-.46.31-.88.45-.93-.13-.18,0,.06.14.17C90.94,127.16,91,127.16,91,127.16Z"/><path class="cls-3" d="M91.74,128.32l.1,1.91c0-.6,0-1.16,0-1.64,0-1.07-.11-1.16-.16-1.83a10.27,10.27,0,0,0-.55-3.37c0-.07,0-.16-.06,0A32.41,32.41,0,0,1,91.74,128.32Z"/><path class="cls-3" d="M90.74,122.15c-.05.15-.1.3-.14.26,0,.44.07.55.11.59s.13-.12.18-.11A2.28,2.28,0,0,0,90.74,122.15Z"/><path class="cls-3" d="M91.07,123.37l0-.15c0-.23-.1-.32-.16-.33l.13,1.24A7.15,7.15,0,0,1,91.07,123.37Z"/></g><g class="cls-2"><path class="cls-3" d="M93.76,134.54c.19-.18.21-.19.1-.07s.51-.71.65-1a1.14,1.14,0,0,0,.14-.29c.3-.53.45-.93.4-1s.13-.3-.27.46c.22-.5.42-1.1.18-.73-.06.07.2-.59.13-.51-.15.25.12-.57,0-.49s-.22.53-.2.47c.21-.83-.29.42-.48.93-.06.14-.12.33-.13.28l-.12.42.25-1.35c0-.23.29-.39.41-.79.06-.23-.16,0-.15-.09a20.51,20.51,0,0,1,1-2.09,3.74,3.74,0,0,0,.31-.64,5.6,5.6,0,0,0-.75,1.33c0-.08-.23.52-.3.56.11-.31.54-1.57.59-1.66.28-.58.42-1.11.55-1s.68-.95.9-1.15A13.35,13.35,0,0,1,96,128c-.12.78.79-1.66.92-1.39,0,0,.07-.07.15-.19l0,.29c.12.12.52-.4.57-.1,0,0,.16-.38.17-.44.18-.76-.33,0-.4-.2s-.27.46-.3.45,0-.4.05-.64c.32-.47.41-.28.59-.33a7.21,7.21,0,0,0,.38-.63.31.31,0,0,0-.18-.13c-.33.07-1.26,1.81-1,.67l-.06.12a.65.65,0,0,0,0-.09s-.06-.05,0-.33l.06.1c.67-1.23.72-.45,1.17-.82.14-.17-.05.54.09.37.35-.33.45-.07.35.53a14,14,0,0,1-2.06,5.83h0l.15-.21-.14.21s0,.13-.29.52,0,0-.23.25l-.06.1-.23.29-.17.22s-.1,0-.11-.07a2.74,2.74,0,0,0-.27.42c.08-.08.15-.16.06,0a4.43,4.43,0,0,1-.62.86l-.34.4A5.86,5.86,0,0,0,93.76,134.54Zm3.71-7c-.08.24-.21.55-.34.85l0,.12c0,.07,0,.06,0,0-.1.31-.22.63-.34.93a7.72,7.72,0,0,0,.64-1.51,10.15,10.15,0,0,1-1.26,3,3.32,3.32,0,0,0-.15.4s.05,0,.12,0a21.08,21.08,0,0,0,1.51-3.49A4.87,4.87,0,0,0,98,125,17.33,17.33,0,0,1,97.48,127.54Zm-.3.44c0-.12-.07-.18-.14-.19-.08-.24-.25-.46-.82.67.3-.37.63-.69.82-.67-.08-.22-.06,0,.09.22C97.15,128,97.16,128,97.17,128Z"/><path class="cls-3" d="M97.44,129.37c-.31.55-.58,1-.93,1.57.33-.47.63-.91.88-1.29a9.25,9.25,0,0,0,.77-1.58c.8-1.72.9-2.77.68-3.31,0-.07,0-.17-.09,0A9.56,9.56,0,0,1,97.44,129.37Z"/><path class="cls-3" d="M98.53,123.35c-.14.1-.28.21-.34.14-.09.42,0,.55,0,.62a.7.7,0,0,1,.36,0A1.27,1.27,0,0,0,98.53,123.35Z"/><path class="cls-3" d="M98.74,124.7v-.16c0-.24-.06-.37-.16-.42,0,.38-.14.85-.21,1.21A3.62,3.62,0,0,1,98.74,124.7Z"/></g><g class="cls-2"><path class="cls-3" d="M94,135.83c.22-.19.22-.32.05-.45s.74-.48,1-.7a.59.59,0,0,0,.26-.31,4.35,4.35,0,0,0,.66-.3,1,1,0,0,0,.19-.15s.07,0,.07-.05.3,0-.5,0c.5,0,1.08-.15.67-.2-.09,0,.57-.09.48-.12-.28,0,.53-.16.43-.21l-.49,0c.79-.19-.48-.07-1,0-.14,0-.33,0-.3,0l-.41.08,1.27-.4c.22-.07.45.08.85,0,.23-.05-.08-.14,0-.17a18.06,18.06,0,0,1,2.18-.09,3.11,3.11,0,0,0,.65,0,4.6,4.6,0,0,0-1.42-.07c.06-.05-.55,0-.6,0,.31,0,1.58-.24,1.65-.22.59,0,1.08-.12,1,0s1.06.18,1.31.28a11,11,0,0,1-1.86,0c-.7.25,1.69,0,1.51.19,0,0,.09,0,.21,0l-.26.09c-.05.16.52.28.29.46,0,0,.38,0,.43-.05.7-.18-.15-.27,0-.44s-.49,0-.49-.06.35-.15.55-.24c.51.07.39.24.49.37a6.11,6.11,0,0,0,.67,0,.31.31,0,0,0,0-.21c-.19-.26-2-.31-.95-.61h-.12l.08,0s0-.07.27-.15l-.06.1c1.3,0,.64.44,1.13.66.19,0-.47.2-.28.24.4.15.21.36-.32.53a12.35,12.35,0,0,1-1.22.41l-1.29.17a23.83,23.83,0,0,0-3,.68l0,0,.23,0-.22,0c0,.06-.09.12-.51.23-.27.06,0,0-.31,0l-.1,0-.34,0c.08,0-.13,0-.25.06a1.81,1.81,0,0,1-.05-.44c-.46,0-.37.09-.44.12.11,0,.21.09.06.15.11.12-.7.35-.91.52l-.46.14C94.37,135.9,93.85,135.92,94,135.83Zm7.12-2-.84.09-.11,0c-.06,0-.05,0,0,0l-.9.13a8.93,8.93,0,0,0,1.5-.13c-.16.17-1.85.23-2.93.49a1.21,1.21,0,0,0-.36.2s0,.09.11.13a14.94,14.94,0,0,1,3.41-.72,4.54,4.54,0,0,0,2.47-1A16.88,16.88,0,0,1,101.11,133.86Zm-.48-.07c.1-.07.13-.14.11-.2.18-.18.3-.43-.87-.42.42.1.81.25.87.42.15-.17-.05,0-.15.18C100.63,133.77,100.63,133.79,100.62,133.8Z"/><path class="cls-3" d="M99.66,134.61c-.57.09-1.06.2-1.63.32l1.41-.2c.92-.14,1-.21,1.57-.3,1.71-.27,2.57-.09,3-.66.06,0,.14-.07,0-.1a3.91,3.91,0,0,1-1.75.54C101.55,134.3,100.75,134.41,99.66,134.61Z"/><path class="cls-3" d="M105,132.92c-.14-.08-.28-.15-.24-.24-.38.11-.47.22-.51.3a.59.59,0,0,1,.11.32C104.71,133.18,105,133,105,132.92Z"/><path class="cls-3" d="M104,133.69l.13-.07c.21-.1.28-.21.29-.32-.34.13-.76.25-1.09.36A3.14,3.14,0,0,1,104,133.69Z"/></g><g class="cls-2"><path class="cls-3" d="M101.73,143.59c-.1-.22-.22-.26-.4-.18s-.2-.73-.31-1a.58.58,0,0,0-.2-.32c0-.5,0-.88-.24-1,0-.07,0-.26-.28.33,0-.49.1-1-.25-.8-.11,0,.15-.52,0-.5s.08-.52-.07-.52-.34.33-.32.29c.32-.64-.51.11-1,.31-.14,0-.3.12-.33.05a1,1,0,0,1-.29.23,2.46,2.46,0,0,1,.57-1.06c.14-.14.65.11.88-.16s-.27-.19-.22-.27a9.8,9.8,0,0,0,1.66-1,2.08,2.08,0,0,0,.42-.36s-.47.3-1,.66c0-.07-.41.26-.51.21.25-.15,1.1-.86,1.15-.88.41-.28.69-.61.72-.51s.7-.53.85-.68c-.34.41-1.14,1.26-1.1,1.13-.3.55,1-1,1-.85l.13-.13-.11.2c0,.09.35-.29.28-.08,0,0,.17-.28.19-.32.3-.54-.14.06-.09-.11s-.26.32-.27.31.15-.27.25-.42c.29-.32.25-.21.33-.26s.23-.31.34-.46,0-.05,0-.05-1.13,1.25-.58.52l-.07.08,0-.06s0,0,.14-.2l0,.06c.74-.79.39-.34.67-.64.1-.13-.22.34-.12.22s.11-.12-.1.29a12.91,12.91,0,0,0-1.17,4.65h0l0-.19,0,.19c.06,0,.08.11,0,.47s0,0-.13.23v.09l-.09.27c0-.06,0,.11,0,.21a1.74,1.74,0,0,1-.43-.1c-.11.37,0,.32,0,.38s.15-.13.16,0c.15,0,.08.65.17.86l0,.4C101.93,143.32,101.76,143.73,101.73,143.59Zm.78-6.2-.29.66,0,.1c0,.05,0,0,0,0-.08.25-.15.5-.21.75.21-.55.4-1,.44-1.21,0,.18-.47,1.55-.62,2.48a1,1,0,0,0,.06.36s.1,0,.16,0a10.41,10.41,0,0,1,.54-2.94,17.88,17.88,0,0,1,.81-2A12.13,12.13,0,0,0,102.51,137.4Zm-.24.34c0-.09,0-.14-.06-.15,0-.2,0-.34-.69.4.31-.21.58-.42.69-.4,0-.17-.05,0,0,.17C102.26,137.73,102.27,137.73,102.27,137.74Z"/><path class="cls-3" d="M102.56,138.81c-.11.48-.19.89-.27,1.38l.31-1.16c.19-.76.15-.84.28-1.33a19.33,19.33,0,0,1,.82-2.43s.06-.11,0,0A13.86,13.86,0,0,0,102.56,138.81Z"/><path class="cls-3" d="M104.17,134.45l-.12.16a2.91,2.91,0,0,0-.25.36s.07-.07.07-.06Z"/><path class="cls-3" d="M103.69,135.25l.05-.1.13-.24c-.16.26-.35.58-.48.83Z"/></g><g class="cls-2"><path class="cls-3" d="M110.17,141c-.16-.05-.25,0-.28.15s-.49-.23-.7-.29a.4.4,0,0,0-.28,0c-.29-.23-.54-.37-.69-.29s-.14-.14.07.33c-.29-.21-.57-.5-.62-.18,0,.08-.26-.3-.3-.22s-.32-.26-.39-.16a1.86,1.86,0,0,1,0,.34c-.3-.48-.17.4-.22.8,0,.11,0,.26-.1.25a.81.81,0,0,1,0,.3,1.93,1.93,0,0,1-.5-.8c0-.15.36-.42.28-.69s-.26.12-.3.05a11.05,11.05,0,0,0,.08-1.56,1.36,1.36,0,0,0,0-.44,5.25,5.25,0,0,0-.06,1c-.05,0,0,.39-.09.44,0-.23-.11-1.11-.1-1.16,0-.41-.11-.74,0-.72s0-.7,0-.87a4.32,4.32,0,0,1,.21,1.23c.27.43-.2-1.12-.06-1s0-.06,0-.14l.1.16c.11,0,.05-.36.2-.23s-.11-.23-.13-.26c-.24-.42-.1.12-.22,0s.07.31.06.31-.14-.21-.21-.34c0-.33,0-.25.08-.33s-.08-.29-.12-.42a.11.11,0,0,0-.09,0c0,.11.19,1.28-.1.6l0,.08,0-.06s0,0-.1-.18l.05,0c-.15-.83.08-.4.08-.71,0-.12.17.29.15.17s.08-.14.28.17a21.55,21.55,0,0,0,2.48,2.77v0l-.08-.12.09.11s.11,0,.29.2,0,0,.05.19l.05,0,.1.18s.05.06.1.12a1.75,1.75,0,0,1-.29.22c.15.24.16.18.19.21s0-.16.08-.1c.05-.11.41.26.56.31l.19.22C110.11,140.77,110.24,141.06,110.17,141Zm-3.33-3.31.29.47.06.06s0,0,0,0l.39.46a5.9,5.9,0,0,0-.56-.81,14.23,14.23,0,0,1,1.27,1.48.69.69,0,0,0,.25.12s.06-.06.07-.12a11.15,11.15,0,0,1-1.57-1.65,15.88,15.88,0,0,0-1.11-1.35A15.31,15.31,0,0,0,106.85,137.7Zm.08.3a.15.15,0,0,0-.17,0c-.17-.06-.33-.11-.16.64,0-.3.06-.57.16-.64-.15-.06,0,0,.16,0C106.91,138,106.92,138,106.93,138Z"/><path class="cls-3" d="M107.92,138.24c.23.29.44.52.67.8l-.5-.73c-.35-.47-.44-.47-.68-.77a10.9,10.9,0,0,0-1.34-1.54s-.06-.08,0,0C106.51,136.62,107,137.16,107.92,138.24Z"/><path class="cls-3" d="M105.54,135.37c0,.08,0,.17,0,.14.11.25.16.3.2.33s0-.07.09-.07A2.29,2.29,0,0,0,105.54,135.37Z"/><path class="cls-3" d="M106,136l-.06-.08c-.09-.12-.14-.16-.18-.17.12.21.26.46.39.65A3.69,3.69,0,0,1,106,136Z"/></g><g class="cls-2"><path class="cls-3" d="M114.16,136.59a.18.18,0,0,0-.18.16c-.06.13-.29,0-.43,0a.29.29,0,0,0-.18,0c-.19-.08-.37-.11-.47,0s-.1-.06.05.19c-.2-.07-.42-.18-.44,0,0,.06-.21-.12-.23-.06s-.26-.08-.3,0,.09.21.07.2c-.27-.21-.08.31,0,.58,0,.08,0,.18,0,.19a.49.49,0,0,1,.08.18,1.11,1.11,0,0,1-.48-.35c-.06-.08.18-.39.08-.53s-.18.16-.22.14a6,6,0,0,0-.21-1.31,1.7,1.7,0,0,0,0,.67c-.05,0,0,.25,0,.32,0-.15-.25-.67-.25-.71,0-.26-.17-.44-.05-.47s0-.48,0-.59c.09.23.3.76.22.74.28.19-.23-.67-.05-.65,0,0,0,0,0-.09l.1.07c.12,0,.1-.26.25-.23,0,0-.09-.12-.11-.13-.24-.19-.14.12-.28.1s.06.18,0,.19-.15-.09-.23-.15.09-.19.15-.26a1.28,1.28,0,0,0-.09-.24.29.29,0,0,0-.13,0c-.1.1.11.8-.22.46l0,0,0,0s0,0-.13-.08h.07c-.14-.5.16-.32.21-.53s.19.13.18.06.16-.13.36,0c.66.37,1.31.74,2,1.15l0,0,0-.06.06,0s.09,0,.2.06,0,0,0,.11h0l.05.09s0,0,.06.06a2.81,2.81,0,0,1-.23.21c.09.12.1.08.12.09s0-.1.06-.08.25.08.35.08l.11.09C114.15,136.44,114.2,136.6,114.16,136.59Zm-2.3-1.34.24.23,0,0s0,0,0,0l.31.2a1.68,1.68,0,0,0-.44-.38c.18,0,.64.42,1,.64a.44.44,0,0,0,.18,0,.14.14,0,0,0,.06-.09c-.67-.26-1.7-1.14-2.26-1.21C111.31,134.89,111.55,135,111.86,135.25Zm0,.18a.26.26,0,0,0-.17,0c-.17,0-.35,0-.19.48a.71.71,0,0,1,.19-.48c-.15,0,0,0,.16,0C111.89,135.43,111.9,135.43,111.91,135.43Z"/><path class="cls-3" d="M112.82,135.32l.44.36-.3-.35a7.77,7.77,0,0,0-1.71-1s-.06,0-.06,0A8.4,8.4,0,0,1,112.82,135.32Z"/><path class="cls-3" d="M110.58,134.14c0,.06,0,.12-.08.12.12.12.19.14.24.14a.41.41,0,0,1,.15-.09A.75.75,0,0,0,110.58,134.14Z"/><path class="cls-3" d="M111.19,134.38l-.06,0a.33.33,0,0,0-.23,0l.4.3A.76.76,0,0,1,111.19,134.38Z"/></g><g class="cls-2"><path class="cls-3" d="M116.88,132.77l-.06.11a.67.67,0,0,1-.11.15l-.06.07a1,1,0,0,0-.15.14s0,0,0,0-.13.06-.16.13-.06,0-.08,0-.09,0-.12.07,0,.05,0,.05-.06.12-.07.21,0,.06,0,.08a.07.07,0,0,1,0,0,.17.17,0,0,1-.16,0s.11-.18.08-.2-.09.09-.1.09c0-.33.07-.39.05-.39a.45.45,0,0,0-.06.2s0,.08,0,.11,0-.18,0-.19,0-.11,0-.14.06-.14.09-.17,0,.17,0,.18,0-.16.06-.17v0h0c.05,0,.08-.08.14-.09l0,0c-.07,0-.08,0-.13.06s0,0,0,0-.05,0-.08,0,.07-.06.1-.08,0,0,0,0l-.06,0c-.06,0-.06.19-.16.14h0s0,0,0,0h0c0-.12.12-.09.17-.15s.06,0,.07,0a.19.19,0,0,1,.16,0,1,1,0,0,0,.59-.13h0l.05,0v0h0l-.1.12,0,0,0,0,.08-.1v0Zm-.57.3h.09l.09,0a.29.29,0,0,0-.11,0c.08,0,.19,0,.26-.06l.06,0,0,0c-.17.14-.47.11-.71.14A1.43,1.43,0,0,0,116.31,133.07Zm0,0-.08,0c-.07,0-.15.06-.14.16a.47.47,0,0,1,.14-.16l.07,0Z"/><path class="cls-3" d="M116.68,132.9l.09,0h0l-.12,0c-.13,0-.28,0-.41,0h0A1.9,1.9,0,0,0,116.68,132.9Z"/><path class="cls-3" d="M115.93,133l-.06,0a.13.13,0,0,0,.09,0l.08,0Z"/><path class="cls-3" d="M116.17,133H116l.13,0S116.16,133,116.17,133Z"/></g><g class="cls-2"><path class="cls-4" d="M63.8,93.44c1.33,1.21,5.72,5.45,7.57,7.36.72.73,1.26,1.29,1.66,1.72s-.45-.46-1.66-1.72l-2-2c.93,1,1.79,1.94,2.39,2.65L73.23,103c2.13,2.22,4.22,4.35,6.27,6.6.74.82,2.41,2.56,3.08,3.41q-4.6-4.9-9.25-9.74l.24.27q2.41,2.58,4.79,5.19c.27.29.55.59.82.91l-.82-.91-2.23-2.29-1.48-1.65c-.39-.42-.72-.84-1.08-1.26l-.72-.77-.23-.23h0c.24.38,1.83,2.23,3.44,4.17s3.27,3.94,3.79,4.46c.82.84,1.77,1.4,2.7,2.32a6.31,6.31,0,0,0,.78.83c.06,0,.21.08.35.17a13.21,13.21,0,0,0,1.64,1.76c.39.28.54,2,.74,1.91.75-.23.21-.07.9.8.08.11.59.22.75.44.48.8.84.82,1.61,1.51,1.24.94,1.08,1.57,2.41,2.18.15.08,1.89,1.37,1.89,1.37,1.09,1.27,2.17,1.66,2.58,3.11,1.49.64,2.34,2.63,3.53,3.71s1.26,2,1.85,3.36c.21.35.46.54.5.83s.76.38,1,.73l-.31.17.28.48c.07.12,0,.18-.14.23s-.41.22-.38.52a13.21,13.21,0,0,0,.81,1.62,17.13,17.13,0,0,0,1.56.87,1.43,1.43,0,0,1,.43-.22l.53.18c.33-.18.58-.49.8-.61.73-.73,1.94-.95,2.5-1.74.15-.24-.48-1-.46-1.63,0-.17.44-.25.77-.44-.42-.39-.17-.68.24-.76l-.16-.22.44-.25c-.75-1.28-1.4-2.91-2.77-3.53a6.42,6.42,0,0,0-1.19-.42c-.18-.05-.33-.43-.41-.54-.39.05-.61.32-.91.48-.54-.93-1.85-2.79-2.57-2-.58-.6-1.06-.36-1.73-.92-.9-.73-2-1.69-3.09-2.65-.62-.49-1.16-1-1.72-1.55l-.61-.56c-2.11-1.93-3.82-3.74-5.59-5.47a74.92,74.92,0,0,0-5.76-5.15c-4.39-3.57-8.49-7.84-12-11.23s-6.23-6-7.26-6.93Z"/></g><g class="cls-2"><path class="cls-4" d="M125.14,116.85a1.7,1.7,0,0,1,.32-.11,1.23,1.23,0,0,1,.28,0c.19,0,.33.11.32.26a.31.31,0,0,1,0,.24c0,.08,0-.05,0-.24a.37.37,0,0,0-.13-.16,3,3,0,0,1-.32.68,1,1,0,0,1,0,.17,2.2,2.2,0,0,1,.07.87c0,.15,0,.31-.07.55a8.58,8.58,0,0,1-.27-1.12l0,.07c0,.26-.07.55-.1.83a.24.24,0,0,1,0,.15l0-.15c0-.09-.12-.09-.17-.16s.1-.25.1-.32a2.12,2.12,0,0,1,.17-.34V118h0a6.8,6.8,0,0,0-1.07,2.23c.11,0,.69-.46.82-.45s-.1.18,0,.07a2.48,2.48,0,0,1,.23-.2c.08,0-.2.38.1.15.13-.08-1.21,1.4-.94,1.14,1-.94.27-.26.25-.12s.4-.35.38-.29c-.18.27.16,0,.34-.11.4-.24-.15.35.52-.18.08-.06.58-.34.58-.34s.51-.23.07.34c.58-.42.2.17.46.07s0,.25,0,.37.1,0,.09,0,.23-.15.27-.14l-.11.1h.07s0,0,0,.06-.14.13-.13.14a1.59,1.59,0,0,0,.3-.13l.5-.32.07-.05.13-.08.06,0s.11,0,.09,0a.41.41,0,0,1,.05-.2s0,0,0,0,.09-.15.09-.13l0-.07,0,0,.39-.62a3.57,3.57,0,0,0,.32-.55c0-.06,0-.09,0-.1a1.37,1.37,0,0,1,.13-.2c-.09.07-.24.22-.37.34.16-.27.6-.94,0-.32.06-.14-.23.12-.27.07a.92.92,0,0,1-.15-.26c-.06,0-.07-.09-.08-.16l0-.06c-.25-.34.3-1.32-.75-.85s-1.19,0-1.42-.27a.47.47,0,0,0-.5-.15,1.79,1.79,0,0,0-.3.07,2.73,2.73,0,0,0-.29.14Z"/></g><g class="cls-2"><path class="cls-4" d="M92.45,156.08a1.69,1.69,0,0,1-.32.11,1.23,1.23,0,0,1-.28,0c-.19,0-.33-.11-.32-.26a.31.31,0,0,1,0-.24c0-.08,0,.05,0,.24a.37.37,0,0,0,.13.16,3,3,0,0,1,.32-.68,1,1,0,0,1,0-.17,2.2,2.2,0,0,1-.07-.87c0-.15,0-.31.07-.55a8.56,8.56,0,0,1,.27,1.12l0-.07c0-.26.07-.55.1-.83a.24.24,0,0,1,0-.15l0,.15c0,.09.12.09.17.16s-.1.25-.1.32a2.12,2.12,0,0,1-.17.34V155h0a6.8,6.8,0,0,0,1.07-2.23c-.11,0-.69.46-.82.45s.1-.18,0-.07a2.51,2.51,0,0,1-.23.2c-.08,0,.2-.38-.1-.15-.13.08,1.21-1.4.94-1.14-1,.94-.27.26-.25.12s-.4.35-.38.29c.18-.27-.16,0-.34.11-.4.24.15-.35-.52.18-.08.06-.58.34-.58.34s-.51.23-.07-.34c-.58.42-.2-.17-.46-.07s0-.25,0-.37-.1,0-.09,0-.23.15-.27.14l.11-.1h-.07s0,0,0-.06.14-.13.13-.14a1.59,1.59,0,0,0-.3.13l-.5.32-.07.05-.13.08-.06,0s-.11,0-.09,0a.41.41,0,0,1-.05.2s0,0,0,0-.09.15-.09.13l0,.07,0,0-.39.62a3.55,3.55,0,0,0-.32.55c0,.06,0,.09,0,.1a1.38,1.38,0,0,1-.13.2c.09-.07.24-.22.37-.34-.16.27-.6.94,0,.32-.06.14.23-.12.27-.07a.92.92,0,0,1,.15.26c.06,0,.07.09.08.16l0,.06c.25.34-.3,1.32.75.85s1.19,0,1.42.27a.47.47,0,0,0,.5.15,1.8,1.8,0,0,0,.3-.07,2.74,2.74,0,0,0,.29-.14Z"/></g><g class="cls-2"><path class="cls-4" d="M107.12,117.89a1.06,1.06,0,0,1,.26,0l.24.06c.16.05.29.15.31.27a.3.3,0,0,1,0,.2c0,.06,0,0,0-.2a.53.53,0,0,0-.14-.15,1.71,1.71,0,0,1-.16.53,1.09,1.09,0,0,1,.06.15,2.21,2.21,0,0,1,.2.74c0,.12.09.27,0,.45a9.89,9.89,0,0,1-.4-1l0,.05c0,.22,0,.45,0,.68a.19.19,0,0,1,0,.12v-.12c0-.08-.12-.09-.17-.16s0-.2,0-.26a1.18,1.18,0,0,1,.09-.26v-.1h0c-.25.34-.7,1.7-.55,1.71s.51-.28.62-.25-.05.14.05.07a1.19,1.19,0,0,1,.17-.13c.07,0-.11.29.1.14s-.8,1-.62.81c.68-.64.18-.17.19-.06s.29-.23.27-.19c-.11.2.13,0,.27,0,.3-.14-.08.27.41-.07.06,0,.44-.2.44-.2s.39-.11.12.3c.42-.27.19.17.4.13s0,.21.07.31.08,0,.08,0,.17-.09.2-.08l-.08.06h.05s0,0,0,0-.1.08-.09.1a.94.94,0,0,0,.24-.06l.37-.19.05,0,.1,0,0,0s.09,0,.07,0a.29.29,0,0,1,0-.16s0,0,0,0,.05-.12.06-.1l0,0h0a9.51,9.51,0,0,0,.41-.87.08.08,0,0,0,0-.09s.06-.12.08-.15a3.13,3.13,0,0,0-.26.23c.09-.2.36-.69-.06-.27,0-.11-.17.07-.21,0a1.27,1.27,0,0,1-.17-.25.27.27,0,0,1-.09-.14l0-.05c-.26-.33,0-1.07-.77-.84a1,1,0,0,1-1.24-.45.55.55,0,0,0-.44-.21,1,1,0,0,0-.46.08Z"/></g><g class="cls-2"><path class="cls-4" d="M93.49,138.05a1.06,1.06,0,0,1-.26,0L93,138c-.16-.05-.29-.15-.31-.27a.3.3,0,0,1,0-.2c0-.06,0,0,0,.2a.53.53,0,0,0,.14.15,1.71,1.71,0,0,1,.16-.53,1.11,1.11,0,0,1-.06-.15,2.21,2.21,0,0,1-.2-.74c0-.12-.09-.27,0-.45a9.87,9.87,0,0,1,.4,1l0-.05c0-.22,0-.45,0-.68a.19.19,0,0,1,0-.12v.12c0,.08.12.09.17.16s0,.2,0,.26a1.18,1.18,0,0,1-.09.26v.1h0c.25-.34.7-1.7.55-1.71s-.51.28-.62.25.05-.14-.05-.07a1.21,1.21,0,0,1-.17.13c-.07,0,.11-.29-.1-.14s.8-1,.62-.81c-.68.64-.18.17-.19.06s-.29.23-.27.19c.11-.2-.13,0-.27,0-.3.14.08-.27-.41.07-.06,0-.44.2-.44.2s-.39.11-.12-.3c-.42.27-.19-.17-.4-.13s0-.21-.07-.31-.08,0-.08,0-.17.09-.2.08l.08-.06H91s0,0,0,0,.1-.08.09-.1a.94.94,0,0,0-.24.06l-.37.19-.05,0-.1,0,0,0s-.09,0-.07,0a.29.29,0,0,1,0,.16s0,0,0,0-.05.12-.06.1l0,0h0a9.51,9.51,0,0,0-.41.87.08.08,0,0,0,0,.09s-.06.12-.08.15a3.13,3.13,0,0,0,.26-.23c-.09.2-.36.69.06.27,0,.11.17-.07.21,0a1.27,1.27,0,0,1,.17.25.27.27,0,0,1,.09.14l0,.05c.26.33,0,1.07.77.84a1,1,0,0,1,1.24.45.55.55,0,0,0,.44.21,1,1,0,0,0,.46-.08Z"/></g><g class="cls-2"><path class="cls-4" d="M102.65,146.59a44.47,44.47,0,0,0,3.1-4.64l1.86-3a13,13,0,0,0,1.34-2.48,6.77,6.77,0,0,0,.4-2.61,5.6,5.6,0,0,1-.4,2.61,14.08,14.08,0,0,1-1.48,2.74c.44-.63.86-1.25,1.21-1.84a6,6,0,0,1,.95-1.65,7.8,7.8,0,0,0,.25-2.48,5.38,5.38,0,0,0-1-2.71,5.53,5.53,0,0,0-2.33-1.86,6.31,6.31,0,0,0-1.21-.39l-1.06-.13a3.52,3.52,0,0,1-1.86-.83,4.25,4.25,0,0,1-1.2-1.67,2.91,2.91,0,0,1,0-2.07,3.87,3.87,0,0,0,.81,2.67,3.66,3.66,0,0,0,2.47,1.29,8.61,8.61,0,0,1,1.45.16,5.53,5.53,0,0,1,1,.35,7.28,7.28,0,0,1,1.11.62,6.14,6.14,0,0,1,2.5,4.1l0-.53a6.75,6.75,0,0,0-1-2.44,6.54,6.54,0,0,0-2-1.9,8.23,8.23,0,0,0-1.25-.6,4.63,4.63,0,0,0-.69-.2,6.45,6.45,0,0,1-1.28-.3,1.42,1.42,0,0,1-.76-.44,2.87,2.87,0,0,0,.76.44,3.55,3.55,0,0,0,1.23,0,2.78,2.78,0,0,1,.63,0h.16a.69.69,0,0,1,.24,0l.69.23A7.21,7.21,0,0,1,110,129.7a4.62,4.62,0,0,1,.57,2.55,7.14,7.14,0,0,1,.1,1.48,2.58,2.58,0,0,1,.08.44l0,0a4.06,4.06,0,0,0,.56-3.11,6.85,6.85,0,0,0-1.12-2.84,7.79,7.79,0,0,0-2.77-2.51l-.43-.23-.21-.11-.06,0-.21-.17-.36-.24a2.19,2.19,0,0,1-.52-.45c-.27-.32-.39-.6-.56-.65s-.75,0-1.25-.13-1-.31-1-.71.33-.54,0-.71a.73.73,0,0,1-.59-.29c-.15-1,.69-2,0-2.74-.31-.52,3.4-2.17,2.69-2.25-1.29-.15-1.47-.17-1.3-.31a3.7,3.7,0,0,0,.41-.33,1.27,1.27,0,0,0,.22-.29,3.09,3.09,0,0,0,.08-.79c0-.33-1.17-1.1-1.24-1.66a2.91,2.91,0,0,0-.89-2.21,18.17,18.17,0,0,0-2.12-1.66c-1.53-.82-2.3-1.34-3.15-1.76a3.22,3.22,0,0,0-1.36-.34,2.94,2.94,0,0,0-1.65.5c-.2.17-2.68,1.11-2.68,1.11-1.89-.2-3.12.84-4.54-.62a2.62,2.62,0,0,1-.39.24l-.2.09-.1,0-.05,0h0l0,.33v-.29c0-.07,0,0,0,0H85.6a.83.83,0,0,1-.21,0,1.4,1.4,0,0,1-.38-.24,4,4,0,0,1-.65-.75,5.63,5.63,0,0,0-1.1-1.39c-1.48-1-1.44-2.08-2.31-3.39-.3-.33-.62-.5-.71-.76s-1-.36-1.27-.69l.31-.11-.44-.41c-.11-.1,0-.13.09-.17s.4-.14.26-.36a10.22,10.22,0,0,0-1.63-1.15c-.73-.25-1.43-.51-2.12-.77a.67.67,0,0,1-.27,0l-.58-.26c-.16,0-.19.05-.29,0s-.31,0-.48-.1-.3-.18-.28-.07.69,1,1,1.38c.06.1-.14-.08-.24-.15.39.51.38.57.19.39l.18.25-.14-.08c1,1.34,2,2.87,3,4.07.22.26.62.68.88,1s.38.48.47.6.24.1.35.15c.72,1,2.37,2.9,2.51,2.71a19.72,19.72,0,0,0,1.71,1.5c.29.25.61.51,1,.76a2.57,2.57,0,0,0,1.3.55c.59.09,1.33.08,2.07.13l2.62.13.94,0,2.36.12a5,5,0,0,1,2,.52,4.28,4.28,0,0,1,2.24,3,6.69,6.69,0,0,1,.11,1l0,1.05.1,2.13c.08,1.44.17,2.91.3,4.58a6.61,6.61,0,0,0,.57,2.4,5.09,5.09,0,0,0,1.58,1.9,5.49,5.49,0,0,0,2.28.93c.2,0,.41.05.61.06a3.11,3.11,0,0,1,.71-.2,5.25,5.25,0,0,0,1.13.29,4.42,4.42,0,0,1,3.42,2.55,5.7,5.7,0,0,1,.45,2.05,6.56,6.56,0,0,1-.3,2,13.9,13.9,0,0,1-1.78,3.35l-1.76,2.78L104,144.46a14.15,14.15,0,0,1-.9,1.38Z"/></g><g class="cls-2"><path class="cls-4" d="M116.53,132.4a10.54,10.54,0,0,1-1.68,1.76c-.76.64-1.68,1.34-2.65,2s-2,1.36-2.92,1.95a13.68,13.68,0,0,1-1.44.8,6.46,6.46,0,0,1-1.4.48,5.45,5.45,0,0,1-3.08.07c-.62-.26.81.37,3.08-.07a11.63,11.63,0,0,0,3-1.53c-.37.13-.75.24-1.12.35a11.61,11.61,0,0,1-1.17.25,12.51,12.51,0,0,0-2,.12,6.44,6.44,0,0,1-2.32,0,4.65,4.65,0,0,1-3.69-3.14,6.3,6.3,0,0,1-.26-1.26l-.11-.61,0-.15,0-.18.08-.36a5.3,5.3,0,0,0-.68-2.53,4.79,4.79,0,0,0-1.86-1.8,6.1,6.1,0,0,0-2.51-.68h0a5.4,5.4,0,0,1,3.55,1.38A5.18,5.18,0,0,1,99,132.76c-.38.84.07,1.26.1,1.95a4.74,4.74,0,0,0,.61,1.73,4.6,4.6,0,0,0,2.91,2,2.74,2.74,0,0,1-.38-.11,5,5,0,0,1-1.66-.95,4.59,4.59,0,0,1-1.1-1.55,5.43,5.43,0,0,1-.29-.91,3.78,3.78,0,0,0-.2-1l-.17-.45a2.91,2.91,0,0,1,.21-.62,2.77,2.77,0,0,0-.08-1.05,5.57,5.57,0,0,0-.49-1.34,5.16,5.16,0,0,1,.49,1.34,7,7,0,0,1,.14.9c0,.18-.14.38-.22.56l-.06.14s0,.07,0,.1l.09.2c.33.45.24,1.24.5,1.75a4.43,4.43,0,0,0,1.29,1.94,5.2,5.2,0,0,0,1.53.91,5.38,5.38,0,0,0,1.14.23l.36,0h0a6.93,6.93,0,0,1-2-.59,4.34,4.34,0,0,1-2.2-2.72,5.15,5.15,0,0,1-.17-1.07c0-.19-.2-.29-.29-.44l-.17-.2-.09-.1c0-.06.08-.13.12-.2l.25-.39c.08-.13.2-.28.15-.35s0-.36-.06-.53a6.51,6.51,0,0,0-.25-1,5.08,5.08,0,0,0-1.53-2.22,5.58,5.58,0,0,0-3.57-1.09l-.49,0c-.52,0-1-.08-1.36-.06a2.1,2.1,0,0,1-.43,0c-1,0-2-.18-2.74-.13-.53,0-2-.48-2.12-.4-.41.26-.17.09-1.32,0a3.88,3.88,0,0,1-.85-.08c-.42-.18-.69-.29-1-.44a3.41,3.41,0,0,1-.94-.68,3.37,3.37,0,0,1-.89-1.46,10.94,10.94,0,0,1-.37-1.6l-.26-2.62a43,43,0,0,1-.16-4.57c0-.2-.06-.41-.1-.64a2.17,2.17,0,0,0-.57-1.15,11.82,11.82,0,0,0-.92-1,20.22,20.22,0,0,0-2-1.79c-1.47-1.12-2-1.65-3.28-2.65-.37-.27-.66-.46-.86-.63s-.79-.47-1.16-.74l.12,0-.5-.35c-.13-.09-.08-.08,0-.07s.17,0,0-.14Q70.88,106,70,105.4l-1.7-1a.53.53,0,0,1-.18,0l-.5-.27c-.12,0-.11,0-.19,0s-.8-.24-.69-.05A9.22,9.22,0,0,1,68,105.34c.06.12-.19,0-.33,0,.44.5.38.66.15.53l.18.28h-.19c.45.8.87,1.72,1.29,2.61a8,8,0,0,0,1.41,2.3,4,4,0,0,0,1,.71c.16.09.29.6.36.75.35,0,.57-.41.86-.63a17.08,17.08,0,0,0,1.11,2.17,2.55,2.55,0,0,0,.33.4c.1.08.26.23.31.16a2.42,2.42,0,0,0,.63-.53c.21.27.89-.15,1.36.18a4.76,4.76,0,0,1,.56.43,2.5,2.5,0,0,1,.28.29,1,1,0,0,1,.12.17.3.3,0,0,1,0,.1l0,.05v0h0l.49,0-.29.15-.15.08s0,.07,0,.11v.48l0,1a18.19,18.19,0,0,1,0,2.63v.94c0,.81,0,1.6,0,2.37,0,.07,0,.23,0,.39l0,.45c0,.3.06.61.11.92a9.16,9.16,0,0,0,.51,1.83,8.41,8.41,0,0,0,2.24,3.2,8.8,8.8,0,0,0,3.37,1.86,9.74,9.74,0,0,0,1.8.34l1.05.1c.7.06,1.42.08,2.14.07a18.55,18.55,0,0,0,2.22-.17l.57-.09a3.2,3.2,0,0,0,.35-.12l.75-.29.08,0s0,0,.09-.08a4.06,4.06,0,0,1,1.73-.17,2.68,2.68,0,0,1,1.51.77,2.92,2.92,0,0,1,.77,1.52c.12.58,0,1.17.17,1.77a1.67,1.67,0,0,0,0,.25l.13.38a4.92,4.92,0,0,0,.29.75c.12.24.24.48.38.72l.47.66a7,7,0,0,0,2.49,1.93,7.89,7.89,0,0,0,2.87.66,8.7,8.7,0,0,0,2.68-.35,9.62,9.62,0,0,0,2.26-1c.62-.36,1.09-.68,1.6-1,1-.66,1.87-1.32,2.64-1.94a16.64,16.64,0,0,0,3.05-3.12Z"/></g><g class="cls-2"><path class="cls-4" d="M88.21,11.44c-3-.92-8.46,2.6-11.38,3.37a12.46,12.46,0,0,1-2.51.86c-.57.11.59-.36,2.51-.86.78-.34,1.67-.76,2.72-1.27-1.79,0-3.53-.1-4.84-.24-.62.37-1.26.74-1.92,1.09-2.88,1.59-5.49,3.38-8.5,4.73-.28.12-.62.3-1,.5s-.83.48-1.12.61a4.35,4.35,0,0,1-1.73.59l1.11-.68.56-.35.72-.46,3-1.92,6-3.84-.42.07L64.69,17.1a5.21,5.21,0,0,1-1.17.59l1.17-.59c.92-.62,1.64-1.46,2.59-2.21.64-.38,1.57-.55,2.21-.94a5.78,5.78,0,0,1,1.94-.3l1-.51a1.31,1.31,0,0,1,.22-.28l0,0c-2-1.19-11.39,1.87-12.42,3.11-.57.57-.25,1-.27,1.59a2.49,2.49,0,0,1-.33,1.57c-.19.22-.49-.15-.54.39a2.54,2.54,0,0,1,0,.85c-.22.24-.49.17-.71.16s-.4.06-.57.68c0,0,0,.06-.06,0a11.05,11.05,0,0,1-.37-2.72c-.05-1.11,0-2-.07-1.58-.57,3.23-.2.85-.44.34,0-.09-.5,1-.57.83-.08-1-.51,0-1.15-.09a.59.59,0,0,1-.58-.08,4,4,0,0,1-.52-.58c-.32-.37-.68-.64-1.82-.31-.26.06-2.81-.3-2.81-.3-1.28-1.26-3-.71-2.94-3.2-2.36.53-2.82-2.46-4.4-3.19s-1.29-2.34-1.75-4.24c-.23-.41-.57-.49-.53-1s-1.12.1-1.35-.32l.56-.59-.3-.55c-.07-.14.11-.34.3-.53a2.27,2.27,0,0,0,.78-1.26A7.71,7.71,0,0,0,38.86,0a18.09,18.09,0,0,0-2.27,0,6.19,6.19,0,0,1-.74.74L35.07,1c-.56.59-1,1.32-1.41,1.71-1.33,1.84-3.24,3.19-4.31,5-.3.53.42,1.3.16,2.44-.11.33-.74.78-1.3,1.37.49.35,0,1.08-.63,1.53l.15.27-.74.79c.65,1.71.89,4.28,2.69,4.34a5.29,5.29,0,0,0,1.65-.21c.26-.06.3.55.38.69a13.12,13.12,0,0,0,1.67-1.76c.42,1.3,1.52,3.83,3.16,1.46.64.63,1.57-.35,2.4.08a41.28,41.28,0,0,1,3.78,2.12,10.62,10.62,0,0,1,2.07,1.33l.73.49a26.63,26.63,0,0,1,2.55,1.93l2.83,2.43a71.32,71.32,0,0,0,6.8,5.36,34.75,34.75,0,0,0,5.06-4.8c.74-.88,1.46-1.68,2.17-2.43l.53-.55c.19-.19.27-.3.42-.45s.53-.56.8-.83a27.93,27.93,0,0,1,3.45-2.9,38.19,38.19,0,0,1,7.42-4.06c4.87-2,9.2-2.92,10.58-3.52Z"/></g><text class="cls-5" transform="translate(2.07 75.82) scale(0.94 1)">graphics</text><text class="cls-1" transform="translate(3.15 76.82) scale(0.94 1)">graphics</text><g class="cls-2"><path class="cls-4" d="M33.49,21.1c3,.92,8.46-2.6,11.38-3.37a12.46,12.46,0,0,1,2.51-.86c.57-.11-.59.36-2.51.86-.78.34-1.67.76-2.72,1.27,1.79,0,3.53.1,4.84.24.62-.37,1.26-.74,1.92-1.09,2.88-1.59,5.49-3.38,8.5-4.73.28-.12.62-.3,1-.5s.83-.48,1.12-.61a4.35,4.35,0,0,1,1.73-.59l-1.11.68-.56.35-.72.46-3,1.92-6,3.84.42-.07L57,15.44a5.22,5.22,0,0,1,1.17-.59L57,15.44c-.92.62-1.64,1.46-2.59,2.21-.64.38-1.57.55-2.21.94a5.79,5.79,0,0,1-1.94.3l-1,.51a1.32,1.32,0,0,1-.22.28l0,0c2,1.19,11.39-1.87,12.42-3.11.57-.57.25-1,.27-1.59a2.49,2.49,0,0,1,.33-1.57c.19-.22.49.15.54-.39a2.54,2.54,0,0,1,0-.85c.22-.24.49-.17.71-.16s.4-.06.57-.68c0,0,0-.06.06,0A11.06,11.06,0,0,1,64.37,14c.05,1.11,0,2,.07,1.58.57-3.23.2-.85.44-.34,0,.09.5-1,.57-.83.08,1,.51,0,1.15.09a.58.58,0,0,1,.58.08,4,4,0,0,1,.52.57c.32.37.68.64,1.82.31.26-.06,2.81.3,2.81.3,1.28,1.26,3,.71,2.94,3.2,2.36-.53,2.82,2.46,4.4,3.19s1.29,2.34,1.75,4.24c.23.41.57.49.53,1s1.12-.1,1.35.32l-.56.59.3.55c.07.14-.11.33-.3.53A2.27,2.27,0,0,0,82,30.59a7.7,7.7,0,0,0,.86,1.93,18.11,18.11,0,0,0,2.27,0,6.2,6.2,0,0,1,.74-.74l.78-.18c.56-.59,1-1.32,1.41-1.71,1.33-1.84,3.24-3.19,4.31-5,.3-.53-.42-1.3-.16-2.44.11-.33.74-.78,1.3-1.37-.49-.35,0-1.08.63-1.53L94,19.26l.74-.79c-.65-1.71-.89-4.28-2.69-4.34a5.29,5.29,0,0,0-1.65.21c-.26.06-.3-.55-.38-.69a13.12,13.12,0,0,0-1.67,1.76c-.42-1.3-1.52-3.83-3.16-1.46-.64-.63-1.57.35-2.4-.08A41.26,41.26,0,0,1,79,11.77a10.63,10.63,0,0,1-2.07-1.33L76.2,10A26.6,26.6,0,0,1,73.64,8L70.82,5.59A71.33,71.33,0,0,0,64,.23,34.76,34.76,0,0,0,59,5c-.74.88-1.46,1.68-2.17,2.43L56.26,8c-.19.19-.27.3-.42.45s-.53.56-.8.83a27.92,27.92,0,0,1-3.45,2.9,38.17,38.17,0,0,1-7.42,4.06c-4.87,2-9.2,2.92-10.58,3.52Z"/></g><g class="cls-2"><path class="cls-3" d="M40.71,136.73a1.16,1.16,0,0,1,.05.28,1.32,1.32,0,0,1-.07.27c-.06.18-.16.32-.3.34a.33.33,0,0,1-.22,0c-.07,0,.05,0,.22,0a.59.59,0,0,0,.17-.15,1.89,1.89,0,0,1-.58-.17l-.17.07a2.43,2.43,0,0,1-.82.22c-.13,0-.3.1-.49,0a10.85,10.85,0,0,1,1.08-.44l-.06,0c-.24,0-.5,0-.75,0a.21.21,0,0,1-.13,0h.13c.08,0,.1-.13.18-.18s.22,0,.28,0a1.29,1.29,0,0,1,.29.1h.11a0,0,0,0,1,0,0h0c-.37-.27-1.87-.77-1.88-.61s.31.56.28.68-.15-.06-.07.06a1.3,1.3,0,0,1,.14.18c0,.08-.32-.12-.16.12s-1.08-.88-.89-.68c.7.74.19.2.07.21s.25.31.2.3c-.22-.12,0,.14,0,.29.15.33-.3-.08.08.45,0,.06.22.48.22.48s.12.43-.33.13c.29.46-.19.21-.14.44s-.23,0-.34.08,0,.09,0,.08.1.19.08.22l-.07-.08v.06s0,0,0,0-.09-.11-.11-.1a1,1,0,0,0,.06.26c.06.13.13.26.21.41l0,.06.05.11,0,0s0,.1,0,.08a.32.32,0,0,1,.18,0s0,0,0,0,.13.06.11.06l.05,0v0a10.46,10.46,0,0,0,1,.45.08.08,0,0,0,.1,0s.13.07.16.09a3.45,3.45,0,0,0-.25-.28c.22.1.76.39.3-.07.12,0-.07-.19,0-.23a1.4,1.4,0,0,1,.27-.19.3.3,0,0,1,.16-.1l.06,0c.36-.29,1.17,0,.92-.84a1.06,1.06,0,0,1,.49-1.37.61.61,0,0,0,.23-.49,1.05,1.05,0,0,0-.09-.51Z"/></g><g class="cls-2"><path class="cls-3" d="M18.54,121.75a1.16,1.16,0,0,1-.05-.28,1.32,1.32,0,0,1,.07-.27c.06-.18.16-.32.3-.34a.33.33,0,0,1,.22,0c.07,0-.05,0-.22,0a.58.58,0,0,0-.17.15,1.88,1.88,0,0,1,.58.17l.17-.07a2.43,2.43,0,0,1,.82-.22c.13,0,.3-.1.49,0a10.84,10.84,0,0,1-1.08.44l.06,0c.24,0,.5,0,.75,0a.21.21,0,0,1,.13,0h-.13c-.08,0-.1.13-.18.18s-.22,0-.28,0a1.29,1.29,0,0,1-.29-.1h-.11a0,0,0,0,1,0,0h0c.37.27,1.87.77,1.88.61s-.31-.56-.28-.68.15.06.07-.06a1.31,1.31,0,0,1-.14-.18c0-.08.32.12.16-.12s1.08.88.89.68c-.7-.74-.19-.2-.07-.21s-.25-.31-.2-.3c.22.12,0-.14,0-.29-.15-.33.3.08-.08-.45,0-.06-.22-.48-.22-.48s-.12-.43.33-.13c-.29-.46.19-.21.14-.44s.23,0,.34-.08,0-.09,0-.08-.1-.19-.08-.22l.07.08V119s0,0,0,0,.09.11.11.09a1,1,0,0,0-.06-.26c-.06-.13-.13-.26-.21-.41l0-.06-.05-.11,0,0s0-.1,0-.08a.32.32,0,0,1-.18,0s0,0,0,0-.13-.06-.11-.06l-.05,0v0a10.48,10.48,0,0,0-1-.45.08.08,0,0,0-.1,0s-.13-.07-.16-.09a3.41,3.41,0,0,0,.25.28c-.22-.1-.76-.39-.3.07-.12,0,.07.19,0,.23a1.4,1.4,0,0,1-.27.19.3.3,0,0,1-.16.1l-.06,0c-.36.29-1.17,0-.92.84a1.06,1.06,0,0,1-.49,1.37.61.61,0,0,0-.23.49,1.05,1.05,0,0,0,.09.51Z"/></g><line class="cls-4" x1="38.47" y1="158.53" x2="41.94" y2="155.07"/><g class="cls-2"><path class="cls-3" d="M41.94,155.07a1.79,1.79,0,0,1,.12.34,1.3,1.3,0,0,1,0,.3c0,.2-.12.35-.28.34a.33.33,0,0,1-.25,0c-.08,0,.06,0,.25,0a.39.39,0,0,0,.16-.14,3.18,3.18,0,0,1-.73-.34l-.19,0a2.33,2.33,0,0,1-.92.08c-.16,0-.33.05-.58-.08a9.13,9.13,0,0,1,1.19-.28l-.07,0c-.28,0-.58-.07-.88-.11a.25.25,0,0,1-.15,0l.15,0c.09,0,.09-.13.17-.18s.27.1.34.1a2.25,2.25,0,0,1,.36.18h.12a0,0,0,0,1,0,0h0a7.21,7.21,0,0,0-2.36-1.13c0,.11.49.74.48.87s-.19-.1-.07.05a2.66,2.66,0,0,1,.21.25c0,.09-.4-.21-.16.1.09.14-1.48-1.29-1.21-1,1,1,.27.28.13.26s.37.43.31.4c-.29-.19,0,.17.12.36.25.42-.37-.16.19.55.06.08.37.62.37.62s.24.54-.36.08c.45.61-.18.21-.07.49s-.27,0-.39,0,0,.11,0,.09.15.24.15.28l-.1-.11v.07s0,0-.06-.05-.13-.15-.15-.14a1.69,1.69,0,0,0,.13.32l.34.53.06.07.08.14,0,.06c.05.05,0,.12,0,.1a.43.43,0,0,1,.22.05s0,0,0,.05.16.1.14.1l.07,0,0,0,.66.41a3.78,3.78,0,0,0,.58.34c.06,0,.1,0,.11,0a1.47,1.47,0,0,1,.21.14c-.07-.1-.24-.26-.36-.39.28.17,1,.63.34,0,.15.06-.13-.24-.08-.28a1,1,0,0,1,.28-.16c0-.06.1-.07.17-.09l.06,0c.37-.26,1.4.31.91-.79s0-1.27.28-1.51a.5.5,0,0,0,.16-.53,1.9,1.9,0,0,0-.07-.32,2.9,2.9,0,0,0-.15-.31Z"/></g><line class="cls-4" x1="3.8" y1="116.93" x2="0.33" y2="120.4"/><g class="cls-2"><path class="cls-3" d="M.33,120.4a1.79,1.79,0,0,1-.12-.34,1.3,1.3,0,0,1,0-.3c0-.2.12-.35.28-.34a.33.33,0,0,1,.25,0c.08,0-.06,0-.25,0a.39.39,0,0,0-.16.14,3.18,3.18,0,0,1,.73.34l.19,0a2.33,2.33,0,0,1,.92-.08c.16,0,.33-.05.58.08a9.08,9.08,0,0,1-1.19.28l.07,0c.28,0,.58.07.88.11a.25.25,0,0,1,.15,0l-.15,0c-.09,0-.09.13-.17.18s-.27-.1-.34-.1a2.26,2.26,0,0,1-.36-.18H1.52a.05.05,0,0,1,0,0h0a7.21,7.21,0,0,0,2.36,1.13c0-.12-.49-.74-.48-.87s.19.1.07-.05a2.63,2.63,0,0,1-.21-.25c0-.09.4.21.16-.1-.09-.14,1.48,1.29,1.21,1-1-1-.27-.28-.13-.26s-.37-.43-.31-.4c.29.19,0-.17-.12-.36-.25-.42.37.16-.19-.55-.06-.08-.37-.62-.37-.62s-.24-.54.36-.08c-.45-.61.18-.21.07-.49s.27,0,.39,0,0-.11,0-.09-.15-.24-.15-.28l.1.11V118s0,0,.06.05.13.15.15.14a1.69,1.69,0,0,0-.13-.32L4,117.31,4,117.23l-.08-.14,0-.06c-.05-.05,0-.12,0-.1a.43.43,0,0,1-.22-.05s0,0,0-.05-.16-.1-.14-.1l-.07,0,0,0-.66-.41a3.78,3.78,0,0,0-.58-.34c-.06,0-.1,0-.11,0a1.46,1.46,0,0,1-.21-.14c.07.1.24.26.36.39-.28-.17-1-.63-.34,0-.15-.06.13.24.08.28a1,1,0,0,1-.28.16c0,.06-.1.07-.17.09l-.06,0c-.37.26-1.4-.31-.91.79s0,1.27-.28,1.51a.5.5,0,0,0-.16.53,1.9,1.9,0,0,0,.07.32,2.89,2.89,0,0,0,.15.31Z"/></g><g class="cls-2"><path class="cls-3" d="M63.6,92.17c-1.21,1.33-5.45,5.72-7.36,7.57-.73.72-1.29,1.26-1.72,1.66s.46-.45,1.72-1.66l2-2c-1,.93-1.94,1.79-2.65,2.39l-1.49,1.44c-2.22,2.13-4.35,4.22-6.6,6.27-.82.74-2.56,2.41-3.41,3.08q4.9-4.6,9.74-9.25l-.27.24q-2.58,2.41-5.19,4.79c-.29.27-.59.55-.91.82l.91-.82,2.29-2.23L52.26,103c.42-.39.84-.72,1.26-1.08l.77-.72.23-.23h0c-.38.24-2.23,1.83-4.17,3.44s-3.94,3.27-4.46,3.79c-.84.82-1.4,1.77-2.32,2.7a6.33,6.33,0,0,0-.83.78c0,.06-.08.21-.17.35a13.22,13.22,0,0,0-1.76,1.64c-.28.39-2,.54-1.91.74.23.75.07.21-.8.9-.11.08-.22.59-.44.75-.8.48-.82.84-1.51,1.61-.94,1.24-1.57,1.08-2.18,2.41-.08.15-1.37,1.89-1.37,1.89-1.27,1.09-1.66,2.17-3.11,2.58-.64,1.49-2.63,2.34-3.71,3.53s-2,1.26-3.36,1.85c-.35.21-.54.46-.83.5s-.38.76-.73,1l-.17-.31-.48.28c-.12.07-.18,0-.23-.14s-.22-.41-.52-.38a13.23,13.23,0,0,0-1.62.81,17.15,17.15,0,0,0-.87,1.56,1.43,1.43,0,0,1,.22.43l-.18.53c.18.33.49.58.61.8.73.73.95,1.94,1.74,2.5.24.15,1-.48,1.63-.46.17,0,.25.44.44.77.39-.42.68-.17.76.24l.22-.16.25.44c1.28-.75,2.91-1.4,3.53-2.77a6.42,6.42,0,0,0,.42-1.19c.05-.18.43-.33.54-.41-.05-.39-.32-.61-.48-.91.93-.54,2.79-1.85,2-2.57.6-.58.36-1.06.92-1.73.73-.9,1.69-2,2.65-3.09.49-.62,1-1.16,1.55-1.72l.56-.61c1.93-2.11,3.74-3.82,5.47-5.59A74.94,74.94,0,0,0,44.9,112c3.57-4.39,7.84-8.49,11.23-12s6-6.23,6.93-7.26Z"/></g><g class="cls-2"><path class="cls-3" d="M12.38,131c2.13.32,4.06.76,6.12,1a19.77,19.77,0,0,1,2.27.43c.52.12.33.14.37.2a.83.83,0,0,0,0,.2,1,1,0,0,0,.92.66.92.92,0,0,0,.94-.68,1.28,1.28,0,0,0,.27-.3,3.84,3.84,0,0,0,.13-.43c.08-.33.16-.71.27-1.06a9.65,9.65,0,0,1,2.32-4,8.69,8.69,0,0,1,4-2.33,8.81,8.81,0,0,1,2.13-.31h.52l.35,0,.68.06c.39.11,1.55.43,1.41-.29,1.77.5,3.52,1,5.24,1.37l.63.12a3.41,3.41,0,0,0,.49.07,3.12,3.12,0,0,0,1-.07A2.79,2.79,0,0,0,44,124.51a4,4,0,0,0,.75-1.55,7.38,7.38,0,0,0,.09-2c-.12-1.16-.21-2.31-.26-3.46s0-2.23-.16-3.46a4,4,0,0,1-.27-1.8,8.82,8.82,0,0,1,4.52-4.8l.71-.29.51-.22,1-.44a15.74,15.74,0,0,1,2.08-.73,12.69,12.69,0,0,1,3.15-.4c0-.25.33-.21.63-.29.86,0,5.91,1,6.38,1.16.06,0-.53-.08-1.41-.13a28,28,0,0,0-3.23,0c-2.33.15-4.6.61-4.47.77a29,29,0,0,0,3.21-.34c1.57-.19,3.2-.25,3.48-.24A25.86,25.86,0,0,0,54.14,108c-1.7.67-3,1.27-3.89,1.71a4,4,0,0,0-1.54,1.1c-.18.25-.18.31-.05.23s.39-.29.81-.54,1.1-.49,1.84-.81c1.49-.62,3.28-1.4,4.86-2a36.54,36.54,0,0,1,4.44-1.09,9.55,9.55,0,0,0-2.22.87c-.77.4-1.44.84-1.71.94-2.48,1.13-2,1.52-4.92,2.29-.3.08-.63.18-1,.29l-.53.19a2.9,2.9,0,0,0-.37.19,2.75,2.75,0,0,0-1,1.12,4.51,4.51,0,0,0-.4,1.3c0,.22-.06.41-.09.66s-.06.63-.11.89c0-.26-.13-.69-.23-1.05a4.07,4.07,0,0,1-.23-1,2.13,2.13,0,0,1,.82-2,2,2,0,0,0-1.19,1.31,2.56,2.56,0,0,0,.05,1.37,5.29,5.29,0,0,1,.27,1.54,7.93,7.93,0,0,1-.33,2.26,8.41,8.41,0,0,0-.15,1.17c-.13.41-.25.79-.38,1.27-.14.76-.23,1.49-.29,2.22a7.39,7.39,0,0,1-.6,2.41,6.07,6.07,0,0,1-3.85,3.36c.29-.12.54,0,.85-.13a5.77,5.77,0,0,0,3.25-3.17,7.84,7.84,0,0,0,.56-2.15,18.15,18.15,0,0,1,.3-2c.15-.52,0-1.25.16-1.81a14.64,14.64,0,0,1,1.2-3.13,22,22,0,0,1-.76,3.32,23.36,23.36,0,0,0-.69,3.48c0,.56-.09,1.27-.17,1.75a10.08,10.08,0,0,0,.46-1.93c.08-.52.19-1,.31-1.56.42-1.82,1-3.92,1.33-5.9a3.55,3.55,0,0,1,.21-.95,1.59,1.59,0,0,1,.29-.49.64.64,0,0,1,.79-.19,1,1,0,0,1,0-.15.16.16,0,0,0,.08.05.39.39,0,0,1,.24-.08c.07,0,.07,0,.19,0a3.1,3.1,0,0,1,.45,0c-.6.15-.57.15-.72.19-.07.43.07.57,0,.65a2,2,0,0,1-.23.19,1.18,1.18,0,0,0-.19.19c0,.06-.07,0-.11.16l-.12.37a45.87,45.87,0,0,0-2.07,6c-.08.46-.24,1-.38,1.65a16,16,0,0,1-.56,2,7.11,7.11,0,0,1-3.48,4,7.6,7.6,0,0,1-1.3.54c-.43.14-1,.24-1.24.32-.66.17-1.32.31-2,.44a27.24,27.24,0,0,1-3.55.54c-.59,0-1.19.07-1.78.06h-.69a2.83,2.83,0,0,0-.41,0,2.18,2.18,0,0,0-1.43.53l-1,2.33A6.18,6.18,0,0,1,27.68,137a5.7,5.7,0,0,1-3.83,1.11,7,7,0,0,1-3.38-1.22,12,12,0,0,1-1.23-1q-.69-.56-1.39-1.08l-.59-.26.17.28L17,134.4a23.78,23.78,0,0,1-3-1.71c-.37-.29.77.32,1.17.32l-.46-.24.17-.12c-.21,0-.27-.17-.37-.26l3.66,1.24,1.84.62a2,2,0,0,1,.55.25,3.93,3.93,0,0,0,.4.19c-.06-.49-.32-.53-.42-.67l-.51-.11-.63-.15a6.76,6.76,0,0,1-1.14-.42c-2.1-.62-4.08-1.71-6.13-2.12-.36-.08-.77-.12-1.2-.17-.08-.08-.1-.11-.06-.09l.09.06h.22C11.47,131,12,131,12.38,131Zm23.79-2.18a12.58,12.58,0,0,1-2.18-.51l-.78,0a1.83,1.83,0,0,0-.92.11,4.61,4.61,0,0,0-3.6,1.29,6,6,0,0,1,2.08-.66,12.91,12.91,0,0,1,1.93-.08,6,6,0,0,0-2.32.66,5.11,5.11,0,0,0-1.93,1.89,8.6,8.6,0,0,0-.66,1.43c-.1.24-.2.46-.31.67l-.4.6a4.32,4.32,0,0,1-2.23,1.49,4.5,4.5,0,0,1-2.66.4,7.9,7.9,0,0,1-1.72-.31,5.59,5.59,0,0,0,3.14,1.14,4.66,4.66,0,0,0,3.59-1.4L29,131.69a3.59,3.59,0,0,1,2.28-2,3.75,3.75,0,0,1,1.33-.1l.34,0,.52,0c.35,0,.7,0,1,0a24.06,24.06,0,0,0,4.17-.32c.69-.11,1.39-.23,2.09-.37.3-.07.83-.14,1.26-.27a7.09,7.09,0,0,0,4.85-4.58,7.12,7.12,0,0,1-2,2.84,6.87,6.87,0,0,1-3.09,1.47c-.27.05-.58.09-.81.12l-.68.07-1.36.11A22.62,22.62,0,0,1,36.17,128.8Zm1.32-.58c.73-.06,1.46-.14,2.18-.23a19.63,19.63,0,0,0,2.24-.35A5.66,5.66,0,0,0,44.76,126a5.57,5.57,0,0,0,1.4-2.83,10.25,10.25,0,0,0,.13-1.43l.06-1.28a11.55,11.55,0,0,0-.1-2.2l-.09,2.6-.05,1.32a6.58,6.58,0,0,1-.18,1.39,5.36,5.36,0,0,1-1.39,2.54,5.64,5.64,0,0,1-2.62,1.49,5.79,5.79,0,0,0,1.62-.64c.17-.11,0,0-.35.17a6.4,6.4,0,0,1-2,.58l-3.07.35A3,3,0,0,1,37.49,128.22Z"/><path class="cls-3" d="M22.36,138.36a9.81,9.81,0,0,1-2.27-1.48c-.31-.28-.54-.57-.82-.86s-.61-.59-.92-.88c.37.65.62,1.33,1.1,2a5.19,5.19,0,0,0,1.35,1.2,6.78,6.78,0,0,0,.85.48c.3.11.62.23.94.31a7.67,7.67,0,0,0,4.07-.12,6.6,6.6,0,0,0,4.57-4.19l.66-2.6a.93.93,0,0,1,.4-.37,5.73,5.73,0,0,1,.7-.18,21.28,21.28,0,0,0,4.66-1,5.87,5.87,0,0,0,1.49-.54,25,25,0,0,1-5.86,1l-.71,0a3.43,3.43,0,0,0-.4.05,1.41,1.41,0,0,0-.69.37l-.66,1.82a6.91,6.91,0,0,1-1.74,3.45A6.22,6.22,0,0,1,22.36,138.36Z"/><path class="cls-3" d="M47.95,121.7a14.12,14.12,0,0,1,1.1-3.37,10.09,10.09,0,0,0-1.4,3.41c0,.19-.07.39-.1.58l-.11.72a10,10,0,0,1-.39,1.48,7.63,7.63,0,0,1-1.62,2.71,7.51,7.51,0,0,0,1.77-2.67,10,10,0,0,0,.46-1.53C47.77,122.46,47.84,122.1,47.95,121.7Z"/><path class="cls-3" d="M39.15,130.19l.95-.26,1.14-.33a8.44,8.44,0,0,0,1.54-.51,7.92,7.92,0,0,0,2.65-1.87A7.56,7.56,0,0,1,42.54,129a10,10,0,0,1-1.58.37l-1.2.22C39.77,129.79,39.51,130,39.15,130.19Z"/></g><g class="cls-2"><path class="cls-3" d="M48.89,94.34a.16.16,0,0,0,.09-.1c0-.06.15-.08.2-.14a.34.34,0,0,0,.07-.08.42.42,0,0,0,.17-.17s0,0,0,0a.31.31,0,0,0,.13-.17s.05,0,.06-.07.06-.08.07-.12,0,0,0,0,0-.11.06-.16l0-.06h0l.06-.1a1.46,1.46,0,0,0-.07.16l.05-.12c-.07.21,0,.27,0,.26s0-.1,0-.17l0-.09a.35.35,0,0,0,0,.08.85.85,0,0,1,0,.11.61.61,0,0,0,0,.18s-.05-.09,0-.12,0,.09,0,.16v0a1.33,1.33,0,0,1,0,.18h0s0-.1,0-.15,0,0,0,0a.17.17,0,0,1,0-.06.59.59,0,0,1,0,.14l0,0v-.06c0-.08-.07-.19,0-.23h0a.07.07,0,0,1,0,0v0a2.18,2.18,0,0,1,.05.25s0,0,0,.06a.17.17,0,0,1,0,.16.89.89,0,0,1-.51.45h0s0,0-.08.05,0,0,0,0h-.08l.07-.14s0,0-.06,0,0,0,0,0-.12.06-.16.09h-.06S48.87,94.35,48.89,94.34Zm.84-.45-.06,0h0a0,0,0,0,0,0,0l-.08.06a.19.19,0,0,0,.12-.06c0,.09-.16.13-.28.18l-.06.06a.09.09,0,0,0,0,.05c.27-.16.5-.32.5-.55A.67.67,0,0,1,49.73,93.89Zm0,0a.35.35,0,0,0,0-.08.29.29,0,0,0,0-.22,1.8,1.8,0,0,1,0,.22c0-.07,0,0,0,.07A0,0,0,0,1,49.71,93.85Z"/><path class="cls-3" d="M49.56,94.25l-.18.06h.15c.09,0,.11-.06.16-.09a.36.36,0,0,0,.21-.32,0,0,0,0,0,0,0A.56.56,0,0,1,49.56,94.25Z"/><path class="cls-3" d="M49.92,93.67a.3.3,0,0,1,0-.07.12.12,0,0,0,0,.07.94.94,0,0,1,0,.1A.16.16,0,0,0,49.92,93.67Z"/><path class="cls-3" d="M49.9,93.87v0a.23.23,0,0,0,0-.09l0,.09Z"/></g><g class="cls-2"><path class="cls-3" d="M45.68,99.42c.15,0,.2-.11.17-.2s.46-.12.63-.21a.46.46,0,0,0,.2-.14c.28-.06.49-.15.54-.28s.14,0-.16-.1c.25-.08.51-.15.42-.31s.25-.06.24-.11S48,98,48,97.87s-.16-.08-.14-.08c.31,0-.06-.25-.17-.39s-.07-.1,0-.13-.08,0-.11-.05a1.14,1.14,0,0,1,.48-.12c.07,0,0,.36.11.38s.07-.23.11-.24c.46.54.71.72.71.69a1.65,1.65,0,0,0-.35-.42s-.13-.13-.12-.21.43.25.45.27.31.16.27.28.29.34.36.44c-.21-.09-.63-.3-.57-.35-.26.08.52.28.44.41s0,0,.07.06l-.09,0c0,.11.16.26.06.36s.14,0,.16,0c.26,0,0-.2,0-.29s-.16-.09-.16-.11.13-.05.2-.08.12.21.15.31a1.36,1.36,0,0,0,.23.11.25.25,0,0,0,0-.12c-.07-.16-.64-.49-.29-.51l0,0h0s0,0,.09,0l0,.05c.4.24.19.36.36.56s-.16.05-.1.11.08.23-.12.29a8.13,8.13,0,0,1-2.41.54v0h0s-.07.08-.28.07,0,0-.12-.08h-.05l-.15,0s-.06,0-.12,0a2,2,0,0,1,.12-.28c-.2,0-.18,0-.22,0s.06.08,0,.09-.4.08-.54.13h-.24C45.82,99.52,45.59,99.43,45.68,99.42Zm3.42-.47h-.33l0,0s0,0,0,0l-.38.07a1.7,1.7,0,0,0,.62,0c-.08.16-.78.14-1.29.19a.73.73,0,0,0-.21.1s0,.07,0,.11c1-.2,2.32-.32,2.52-.72C49.68,98.8,49.46,98.89,49.1,98.95Zm-.17-.09A.23.23,0,0,0,49,98.7c.09-.13.15-.29-.22-.48a1,1,0,0,1,.22.48c.08-.12,0,0-.08.13A0,0,0,0,1,48.93,98.86Z"/><path class="cls-3" d="M48.38,99.58h-.76l.63.08a2.91,2.91,0,0,0,.71-.08c.74-.06,1.07-.22,1.2-.44,0,0,0,0,0-.06A3.66,3.66,0,0,1,48.38,99.58Z"/><path class="cls-3" d="M50.53,98.77c-.05-.06-.1-.12-.09-.16s-.16.06-.17.1a.6.6,0,0,1,0,.19C50.43,98.87,50.52,98.83,50.53,98.77Z"/><path class="cls-3" d="M50.17,99.09l0,0a.17.17,0,0,0,.1-.15l-.39.1A.88.88,0,0,1,50.17,99.09Z"/></g><g class="cls-2"><path class="cls-3" d="M43,104.64c.21,0,.25-.1.19-.2s.65-.08.88-.15a.49.49,0,0,0,.27-.12c.42,0,.72-.09.78-.22s.21,0-.3-.13c.38,0,.79-.08.59-.27,0-.06.4,0,.36-.08s.39-.09.36-.18a1.78,1.78,0,0,1-.28-.12c.53,0-.2-.28-.46-.46-.06-.06-.16-.12-.12-.15a.74.74,0,0,1-.23-.08,2.61,2.61,0,0,1,.85,0c.13,0,.12.39.36.44s0-.23.11-.24c.52.34.89.57,1.13.7s.35.18.36.17a3.3,3.3,0,0,0-.73-.51c.05,0-.28-.17-.29-.25.16.09.87.35.91.38.31.18.61.23.55.34s.56.4.7.52c-.37-.13-1.17-.43-1.07-.47-.46,0,1,.39.84.51s0,0,.12.08h-.17c-.05.11.29.29.13.37s.24,0,.27,0c.45,0-.07-.21.05-.28s-.29-.12-.29-.14.23,0,.36,0c.3.15.21.23.26.33a3.76,3.76,0,0,0,.41.15.15.15,0,0,0,0-.12c-.11-.17-1.16-.61-.51-.56l-.07,0h.05s0,0,.18,0l0,0c.74.32.34.39.62.62.12.06-.3,0-.18.08s.13.24-.22.26a24.19,24.19,0,0,1-3.88.19v0l.16,0h-.16s-.09.07-.41,0,0,0-.2-.09h-.08l-.24-.06c.05,0-.1,0-.18,0a1.24,1.24,0,0,1,.1-.28c-.32-.06-.28,0-.33,0s.11.1,0,.1c0,.1-.58,0-.77.08l-.35,0C43.19,104.77,42.84,104.64,43,104.64Zm5.28,0-.55,0h-.08s0,0,0,0H47a4.53,4.53,0,0,0,1,.06,7.82,7.82,0,0,1-2.06,0,1.08,1.08,0,0,0-.3.08s0,.07,0,.11c1.48-.09,3.71,0,4.09-.34C49.21,104.56,48.84,104.61,48.24,104.62Zm-.3-.12a.16.16,0,0,0,.1-.15c.14-.12.24-.27-.44-.53.22.19.43.38.44.53.12-.11,0,0-.12.12C47.94,104.47,47.94,104.48,47.94,104.49Z"/><path class="cls-3" d="M47.12,105.15l-1.18-.09,1,.16a7.32,7.32,0,0,0,1.13,0c1.19.05,1.76-.06,2-.25,0,0,.09,0,0-.06A9.89,9.89,0,0,1,47.12,105.15Z"/><path class="cls-3" d="M50.73,104.69c-.08-.07-.17-.13-.14-.17-.24,0-.29,0-.32.06a.41.41,0,0,1,.06.2C50.54,104.77,50.7,104.75,50.73,104.69Z"/><path class="cls-3" d="M50.06,104.94l.08,0c.13,0,.18-.08.18-.13l-.69,0A2.47,2.47,0,0,1,50.06,104.94Z"/></g><g class="cls-2"><path class="cls-3" d="M41.9,105.12c.08.22.1.25.05.13s.3.69.45.91a1,1,0,0,0,.16.23c.26.44.5.71.56.7s.17.21-.21-.36c.28.36.65.72.5.42,0-.06.36.35.34.28s.39.29.38.19-.29-.34-.26-.31c.53.43-.16-.35-.45-.64-.07-.08-.18-.19-.14-.18l-.25-.22.91.61c.15.1.12.33.37.55s.08-.13.15-.09a12.25,12.25,0,0,1,1.08,1.39,2.09,2.09,0,0,0,.32.43,3.19,3.19,0,0,0-.61-1c.07,0-.28-.34-.27-.41.18.18.91.89.94,1,.28.39.6.65.47.73s.37.83.41,1.08c-.3-.43-1-1.32-.87-1.28-.52-.31.84,1.12.58,1.16,0,0,0,.08.07.18l-.19-.11c-.15.07,0,.55-.22.5,0,0,.21.24.25.27.48.37.14-.29.35-.28s-.21-.36-.19-.38.28.13.45.22c.2.4,0,.44,0,.6a4.46,4.46,0,0,0,.29.5.34.34,0,0,0,.18-.12c.1-.32-.73-1.58,0-1.08l-.06-.08.06,0s.07,0,.24.08l-.1,0c.59.91,0,.75.06,1.24.06.17-.38-.19-.32,0,.08.39-.18.4-.57.15a8.69,8.69,0,0,1-3.46-3.59v0l.09.19-.09-.18s-.1-.06-.26-.43,0,0-.07-.27l0-.09-.11-.29a1.44,1.44,0,0,1-.09-.22s.07-.06.13,0a2,2,0,0,0-.18-.37c0,.09,0,.17,0,0a4.92,4.92,0,0,1-.39-.83l-.15-.42C42,105.43,41.86,105,41.9,105.12Zm3.6,5.45c-.14-.14-.31-.34-.48-.54l-.08-.06s0,0,0,0c-.19-.18-.37-.38-.55-.58a4.85,4.85,0,0,0,.84,1c-.26,0-1.15-1.19-1.68-2a2.63,2.63,0,0,0-.24-.27s0,0,0,.1a13.12,13.12,0,0,0,2,2.43,3.15,3.15,0,0,0,2,1.1A10.33,10.33,0,0,1,45.5,110.57Zm-.18-.38a.19.19,0,0,0,.22-.05c.23,0,.48-.07-.08-.86.12.35.19.72.08.86.21,0,0-.06-.21,0C45.34,110.17,45.33,110.18,45.32,110.18Z"/><path class="cls-3" d="M44.09,109.92c-.27-.44-.5-.83-.75-1.3.2.43.38.83.56,1.16a6.05,6.05,0,0,0,.84,1.17c.93,1.23,1.69,1.62,2.21,1.58,0,0,.12.05.08-.07A5.9,5.9,0,0,1,44.09,109.92Z"/><path class="cls-3" d="M48.13,112.66c0-.15,0-.3.06-.34-.27-.19-.39-.17-.46-.14a.81.81,0,0,1-.19.3C47.78,112.63,48,112.72,48.13,112.66Z"/><path class="cls-3" d="M47,112.47l.12,0a.37.37,0,0,0,.39,0c-.27-.15-.56-.36-.81-.52A2.24,2.24,0,0,1,47,112.47Z"/></g><g class="cls-2"><path class="cls-3" d="M37.59,104.6c.1.26.17.29.24.13s.27.84.41,1.13a.61.61,0,0,0,.2.3c.15.57.3,1,.44,1s.07.3,0-.49c.16.52.32,1.1.43.71.05-.08.14.58.19.49.08-.27.2.54.29.44a4.5,4.5,0,0,1,0-.47c.16.79.21-.45.3-.94,0-.13.06-.32.11-.28a2,2,0,0,1,0-.4,5.72,5.72,0,0,1,.29,1.27c0,.22-.33.4-.31.79,0,.22.23,0,.26.05-.16,1-.27,1.65-.32,2.07a2.76,2.76,0,0,0-.05.62,7,7,0,0,0,.26-1.34c0,.07.07-.52.15-.56l-.09,1.59c-.08.56,0,1-.16,1s-.21,1-.28,1.25a9.42,9.42,0,0,1,.12-1.81c-.17-.69-.08,1.64-.23,1.47a.6.6,0,0,0,0,.21l-.06-.25c-.12,0-.19.52-.32.31,0,0,0,.37,0,.42.13.68.18-.17.29,0s0-.48,0-.48.1.34.15.54c-.06.5-.16.39-.24.49s0,.45,0,.67a.12.12,0,0,0,.12,0c.13-.2.23-2,.38-.93v0s0,0,.08.27l-.06-.07c-.08,1.24-.28.62-.41,1.11,0,.19-.11-.46-.14-.27-.08.4-.19.24-.32-.27-.44-1.5-.89-3.19-1.36-5.57l0,0,0,.24,0-.23s-.1-.1-.16-.56c0-.28,0,0,0-.32l0-.11v-.35c0,.08,0-.14,0-.27s.2,0,.3,0c0-.48-.06-.4-.08-.47,0,.1-.06.21-.09,0-.08.1-.21-.77-.3-1l-.07-.5C37.54,105,37.55,104.44,37.59,104.6Zm1.62,7.45-.12-.84,0-.11c0-.06,0,0,0,0l-.2-.9a10.23,10.23,0,0,0,.25,1.5,17.33,17.33,0,0,1-.63-3,1.78,1.78,0,0,0-.17-.39s-.07,0-.1.1c.53,2,1.11,5.35,1.57,5.88C39.55,113.49,39.39,113,39.21,112.05Zm0-.49c.06.09.12.12.17.09.16.16.33.27.37-.86-.11.41-.23.79-.37.86.14.14,0-.06-.15-.13C39.25,111.57,39.24,111.57,39.23,111.57Z"/><path class="cls-3" d="M38.36,110.62l-.27-1.71.14,1.47a16,16,0,0,0,.32,1.62,7.64,7.64,0,0,0,.85,2.88c0,.06,0,.13.06,0A23.79,23.79,0,0,1,38.36,110.62Z"/><path class="cls-3" d="M39.9,115.87c0-.14.08-.28.12-.25-.06-.37-.11-.45-.16-.48s-.11.13-.17.13A1.59,1.59,0,0,0,39.9,115.87Z"/><path class="cls-3" d="M39.46,114.89l0,.12c.07.19.13.26.19.26l-.24-1A5.63,5.63,0,0,1,39.46,114.89Z"/></g><g class="cls-2"><path class="cls-3" d="M29.88,105.16c.28.19.43.16.54,0s.75.71,1.06,1a.77.77,0,0,0,.41.24c.37.55.66.94.88.92,0,.08.14.31,0-.54.32.52.57,1.14.73.7.08-.09.22.62.29.53.11-.3.22.59.31.48s0-.58,0-.52c.16.87.21-.49.29-1,0-.15.06-.35.11-.31a2.46,2.46,0,0,1,0-.45,6.78,6.78,0,0,1,.3,1.4c0,.24-.33.45-.31.88,0,.24.23-.06.26.06-.64,4.35-.29,3.08-.11,1.5,0,.07.07-.57.15-.62L34.73,111c-.07.62,0,1.15-.15,1.09s-.21,1.09-.28,1.36a11.29,11.29,0,0,1,.11-2c-.17-.76-.07,1.8-.22,1.6a.7.7,0,0,0,0,.23c0-.09,0-.17-.06-.28s-.08.56-.16.32l.06.46c.11.75.06-.17.13,0s0-.53,0-.53.1.37.15.6c-.06.55-.17.42-.17.53l0,.72s0,.06,0,0c.08-.21.21-2.13.35-1v0s0,0,.08.3l-.06-.07c-.06,1.36-.31.67-.37,1.2,0,.21,0-.51,0-.3,0,.43,0,.25-.1-.32a18.29,18.29,0,0,0-2.18-5.75l0,0,.1.24-.11-.23c-.05,0-.15-.07-.39-.5-.14-.28,0,0-.06-.34l-.07-.1-.13-.36c0,.08-.07-.13-.13-.26a1.7,1.7,0,0,1,.48-.16c-.17-.49-.2-.39-.25-.46,0,.12,0,.25-.15.1-.1.14-.58-.68-.84-.87l-.29-.47C29.9,105.6,29.74,105,29.88,105.16Zm3.81,7.34-.2-.9,0-.12c0-.07,0-.05,0,0-.1-.31-.21-.63-.33-.94.21.74.37,1.39.46,1.59-.14-.14-.64-2-1.17-3.09a1.41,1.41,0,0,0-.31-.35c-.06,0-.09.05-.11.15a15,15,0,0,1,1.57,3.55c.38,1.22.56,2.28.64,2.59A18.68,18.68,0,0,0,33.69,112.5Zm0-.53c.06.1.1.12.14.09.14.18.23.31.28-.94a3.29,3.29,0,0,1-.28.94c.12.16,0-.06-.13-.14C33.67,112,33.66,112,33.65,112Z"/><path class="cls-3" d="M32.74,111.07c-.24-.6-.48-1.1-.76-1.7l.58,1.49c.39,1,.47,1,.69,1.64a22.85,22.85,0,0,1,.9,3.07c0,.07,0,.14,0,0A19.34,19.34,0,0,0,32.74,111.07Z"/><path class="cls-3" d="M34.28,116.6c0,.06,0-.08,0-.12s0-.08.06-.06c-.07-.41-.11-.5-.1-.54a.7.7,0,0,1,0,.13Z"/><path class="cls-3" d="M34.16,115.57l0,.14c0,.21,0,.29,0,.29,0-.37-.1-.81-.15-1.16Z"/></g><g class="cls-2"><path class="cls-3" d="M22.8,115.14c.29,0,.32-.24.16-.39s1-.38,1.32-.56a.75.75,0,0,0,.38-.28c.67-.12,1.16-.24,1.22-.46.09,0,.36,0-.52-.22.62-.1,1.32-.09,1-.43-.06-.12.68,0,.62-.06-.24-.24.68,0,.62-.18a3.55,3.55,0,0,1-.47-.29c.91.21-.32-.53-.72-1-.1-.14-.25-.3-.18-.35a1.38,1.38,0,0,1-.38-.27,3.51,3.51,0,0,1,1.48.41c.21.13.1.74.51.93.23.11.12-.33.25-.29a11.82,11.82,0,0,0,1.84,1.6,3.48,3.48,0,0,0,.61.38s-.58-.45-1.22-1c.09,0-.47-.4-.45-.51.26.24,1.44,1,1.5,1.08.52.39,1,.63.93.67a6,6,0,0,0,1.2.75,11,11,0,0,1-1.84-.95c-.78-.22,1.66.87,1.45.83l.21.1-.28-.08c-.08,0,.51.28.25.25l.47.13c.76.21-.14-.11.07-.08s-.5-.22-.5-.22a4,4,0,0,1,.6.2c.52.24.38.19.48.25l.71.26h.05c-.21,0-2-.91-.92-.44l-.12-.06.09,0,.29.13-.08,0c.62.31.83.39.79.38l.09,0h0l-.11,0,.21.07-.55-.15a18.79,18.79,0,0,0-6.38-.29l0,0h0c0,.06-.12.11-.63.14-.32,0,0,0-.35-.08l-.12,0-.39,0c.09,0-.15,0-.3,0a1.58,1.58,0,0,1,0-.48c-.54,0-.45,0-.53,0,.11.07.22.13,0,.17.1.13-.88.27-1.15.32l-.56,0C23.23,115.22,22.62,115.16,22.8,115.14Zm8.5-.45-.94-.17h-.13c-.07,0-.06,0,0,0-.34,0-.69-.06-1-.07.79.1,1.48.2,1.71.21-.19.06-2.13-.18-3.42-.14a1.49,1.49,0,0,0-.46.14s0,.1.1.15a17.74,17.74,0,0,1,6.76.46A16.2,16.2,0,0,0,31.3,114.68Zm-.52-.17c.11,0,.16,0,.15-.08.22,0,.38-.07-.79-.62.38.28.76.51.79.62.2,0,0,0-.19.05C30.78,114.5,30.78,114.5,30.78,114.51Z"/><path class="cls-3" d="M29.55,115c-.67,0-1.24,0-1.93,0l1.65.06c1.07,0,1.17,0,1.84,0a18.23,18.23,0,0,1,3.31.41c.08,0,.08,0,0,0A18.22,18.22,0,0,0,29.55,115Z"/><path class="cls-3" d="M34.29,115.44l-.05,0,.06,0,.08,0Z"/><path class="cls-3" d="M34.43,115.49h0l-.09,0h0l-.12,0-.58-.16Z"/></g><g class="cls-2"><path class="cls-3" d="M22.59,120.85c.28-.07.31-.14.14-.23s.92-.19,1.25-.3a.61.61,0,0,0,.34-.17c.64-.09,1.1-.21,1.11-.34s.34,0-.56-.08c.58-.11,1.25-.21.81-.36-.09-.06.66-.08.57-.14-.31-.1.63-.15.52-.24s-.61-.07-.55-.07c.92-.08-.51-.25-1.09-.39-.16-.05-.37-.1-.32-.14a2.79,2.79,0,0,1-.47,0,7.37,7.37,0,0,1,1.5-.16c.26,0,.46.37.91.39.26,0,0-.24.08-.25,4.54,1.05,3.22.59,1.58.26.08,0-.6-.12-.65-.21l1.85.25c.64.13,1.2.14,1.13.26s1.12.31,1.39.41a12.46,12.46,0,0,1-2.06-.3c-.82.1,1.88.24,1.65.37a.75.75,0,0,0,.23.06l-.3,0c-.07.11.56.25.29.35,0,0,.43,0,.49,0,.8-.06-.15-.19.06-.29s-.55-.07-.54-.09.4-.06.65-.09c.56.11.41.19.52.29s.51.06.75.09c0,0,.08-.08.06-.12-.2-.15-2.19-.43-1-.47l-.14,0h.1s0,0,.33-.05l-.09.05c1.42.21.66.34,1.18.51.21,0-.54.07-.33.11.44.12.23.22-.37.29-1.78.29-3.74.56-6.4.8l0,0h0s-.12.09-.62.11c-.32,0,0,0-.35-.06h-.12l-.39,0c.09,0-.15,0-.3,0,0-.1,0-.2,0-.3-.53,0-.44,0-.53,0,.12,0,.23.08,0,.1.1.09-.86.13-1.13.2l-.55,0C23,120.93,22.41,120.87,22.59,120.85ZM31,120l-1,0-.13,0c-.07,0-.06,0,0,0l-1,.11a13.15,13.15,0,0,0,1.72-.1,22.18,22.18,0,0,1-3.4.33,2,2,0,0,0-.44.13s0,.07.11.11c2.26-.33,6.09-.57,6.8-1Zm-.55-.08c.11-.05.15-.11.13-.16.21-.14.36-.3-.93-.45.46.15.88.31.93.45.18-.13-.06,0-.17.14C30.44,119.88,30.44,119.89,30.44,119.9Z"/><path class="cls-3" d="M29.28,120.68l-1.91.1H29c1.07,0,1.16-.11,1.83-.16a10.27,10.27,0,0,0,3.37-.55c.07,0,.16,0,0-.06A32.42,32.42,0,0,1,29.28,120.68Z"/><path class="cls-3" d="M35.44,119.67c-.15-.05-.3-.1-.26-.14-.44,0-.55.07-.59.11s.12.13.11.18A2.29,2.29,0,0,0,35.44,119.67Z"/><path class="cls-3" d="M34.22,120l.15,0c.23,0,.32-.1.33-.16l-1.24.13A7.18,7.18,0,0,1,34.22,120Z"/></g><g class="cls-2"><path class="cls-3" d="M23.06,122.7c.18.19.19.21.07.1s.71.51,1,.65a1.14,1.14,0,0,0,.29.14c.53.3.93.45,1,.4s.3.13-.46-.27c.5.22,1.1.42.73.18-.07-.06.59.2.51.13-.25-.15.57.12.49,0l-.47-.2c.83.21-.42-.29-.93-.48-.14-.06-.33-.12-.28-.13l-.42-.12,1.35.25c.23,0,.39.29.79.41.23.06,0-.16.09-.15a20.47,20.47,0,0,1,2.09,1,3.76,3.76,0,0,0,.64.31,5.59,5.59,0,0,0-1.33-.75c.08,0-.52-.23-.56-.3.31.11,1.57.54,1.66.59.58.28,1.11.42,1,.55s.95.68,1.15.9a13.38,13.38,0,0,1-1.8-.93c-.78-.12,1.66.79,1.39.92,0,0,.07.07.19.15l-.29,0c-.12.12.4.52.1.57,0,0,.38.16.44.17.76.18,0-.34.2-.4s-.46-.27-.45-.3.4,0,.64.05c.47.32.28.41.33.59a7.27,7.27,0,0,0,.63.38.31.31,0,0,0,.13-.18c-.07-.33-1.81-1.26-.67-1l-.12-.06.09,0s.05-.06.33,0l-.1.06c1.23.67.45.72.82,1.17.17.14-.54-.05-.37.09.33.35.07.45-.53.35a14,14,0,0,1-5.83-2.06v0l.21.15-.21-.14s-.13,0-.52-.29,0,0-.25-.23l-.1-.06-.29-.23-.22-.17s0-.1.07-.11a2.74,2.74,0,0,0-.42-.27c.08.08.16.15,0,.06a4.44,4.44,0,0,1-.86-.62l-.4-.34A5.89,5.89,0,0,0,23.06,122.7Zm7,3.71c-.24-.08-.55-.21-.85-.34l-.12,0c-.07,0-.06,0,0,0-.31-.1-.63-.22-.93-.34a7.71,7.71,0,0,0,1.51.64,10.15,10.15,0,0,1-3-1.26,3.36,3.36,0,0,0-.4-.15s0,.05,0,.12a21.07,21.07,0,0,0,3.49,1.51,4.87,4.87,0,0,0,2.81.32A17.3,17.3,0,0,1,30.05,126.41Zm-.44-.3c.12,0,.18-.07.19-.14.24-.08.46-.25-.67-.82.37.3.69.63.67.82.22-.08,0-.06-.22.09C29.63,126.09,29.62,126.1,29.61,126.11Z"/><path class="cls-3" d="M28.23,126.37c-.55-.31-1-.58-1.57-.93.47.33.91.63,1.29.88a9.24,9.24,0,0,0,1.58.77c1.72.8,2.77.9,3.31.68.07,0,.17,0,0-.09A9.56,9.56,0,0,1,28.23,126.37Z"/><path class="cls-3" d="M34.24,127.47c-.1-.14-.21-.28-.14-.34-.42-.09-.55,0-.62,0a.7.7,0,0,1,0,.36A1.27,1.27,0,0,0,34.24,127.47Z"/><path class="cls-3" d="M32.9,127.68h.16c.24,0,.37-.06.42-.16-.38,0-.85-.14-1.21-.21A3.61,3.61,0,0,1,32.9,127.68Z"/></g><g class="cls-2"><path class="cls-3" d="M21.76,122.92c.19.22.32.22.45.05s.48.74.7,1a.58.58,0,0,0,.31.26,4.34,4.34,0,0,0,.3.66,1,1,0,0,0,.15.19s0,.07.05.07,0,.3,0-.5c0,.5.15,1.08.2.67,0-.09.09.57.12.48,0-.28.16.53.21.43s0-.54,0-.49c.19.79.07-.48,0-1,0-.14,0-.33,0-.3l-.08-.41.4,1.27c.07.22-.08.45,0,.85.05.23.14-.08.17,0a18,18,0,0,1,.09,2.18,3.11,3.11,0,0,0,0,.65,4.6,4.6,0,0,0,.07-1.42c.05.06,0-.54,0-.6,0,.31.24,1.58.22,1.65,0,.59.12,1.08,0,1s-.18,1.06-.28,1.31a11,11,0,0,1,0-1.86c-.25-.7,0,1.69-.19,1.51,0,0,0,.09,0,.21l-.09-.26c-.16-.05-.28.52-.46.29,0,0,0,.38.05.43.18.7.27-.15.44,0s0-.49.06-.49.15.35.24.55c-.07.51-.24.39-.37.49a6.14,6.14,0,0,0,0,.67.31.31,0,0,0,.21,0c.26-.19.31-2,.61-.95v-.12l0,.08s.07,0,.15.27l-.1-.06c0,1.3-.44.64-.66,1.13,0,.19-.2-.47-.24-.28-.15.4-.36.21-.53-.32a12.35,12.35,0,0,1-.41-1.22l-.17-1.29a23.78,23.78,0,0,0-.68-3l0,0,0,.23,0-.22c-.06,0-.12-.09-.23-.51-.06-.27,0,0,0-.31l0-.1,0-.34c0,.08,0-.13-.06-.25a1.8,1.8,0,0,1,.44-.05c0-.46-.09-.37-.12-.44,0,.11-.09.21-.15.06-.12.11-.35-.7-.52-.91l-.14-.46C21.7,123.31,21.68,122.78,21.76,122.92Zm2,7.12c0-.23-.06-.54-.09-.84l0-.11c0-.06,0-.05,0,0l-.13-.9a8.9,8.9,0,0,0,.13,1.5c-.17-.16-.23-1.85-.49-2.93a1.21,1.21,0,0,0-.2-.36s-.09,0-.13.11a14.94,14.94,0,0,1,.72,3.41,4.54,4.54,0,0,0,1,2.48A16.87,16.87,0,0,1,23.73,130Zm.07-.48c.07.1.14.13.2.11.18.18.43.3.42-.87-.1.42-.25.81-.42.87.17.15,0-.05-.18-.15C23.82,129.56,23.81,129.56,23.8,129.56Z"/><path class="cls-3" d="M23,128.59c-.09-.57-.2-1.06-.32-1.63l.2,1.41c.14.92.21,1,.3,1.57.27,1.71.09,2.57.66,3,0,.06.07.14.1,0a3.92,3.92,0,0,1-.54-1.75C23.3,130.49,23.19,129.68,23,128.59Z"/><path class="cls-3" d="M24.68,134c.08-.14.15-.28.24-.24-.11-.38-.22-.47-.3-.51a.59.59,0,0,1-.32.11C24.42,133.65,24.55,133.91,24.68,134Z"/><path class="cls-3" d="M23.91,132.9,24,133c.1.21.21.28.32.29-.13-.34-.25-.76-.36-1.09A3.16,3.16,0,0,1,23.91,132.9Z"/></g><g class="cls-2"><path class="cls-3" d="M14,130.67c.22-.1.26-.22.18-.4s.73-.2,1-.31a.58.58,0,0,0,.32-.2c.5,0,.88,0,1-.24.07,0,.26,0-.33-.28.47,0,1,.12.82-.24,0-.11.5.14.48,0s.52.08.52-.07-.33-.34-.29-.32c.64.32-.11-.51-.31-1,0-.14-.12-.3-.05-.33a1,1,0,0,1-.23-.29,2.46,2.46,0,0,1,1.06.57c.14.14-.11.65.16.88s.19-.27.27-.22a9.81,9.81,0,0,0,1,1.66,2.09,2.09,0,0,0,.36.42s-.3-.47-.66-1c.07,0-.26-.41-.21-.51.15.25.86,1.1.88,1.15.28.41.61.69.51.72s.53.7.68.85c-.41-.34-1.26-1.14-1.13-1.1-.55-.3,1,1,.85,1l.13.13-.2-.11c-.09,0,.29.35.08.28l.32.19c.54.3-.06-.14.11-.09s-.32-.26-.31-.27.27.15.42.25c.32.29.21.25.26.33l.46.34s.05,0,.05,0-1.25-1.13-.52-.58l-.08-.07.06,0s0,0,.2.14l-.06,0c.79.74.34.39.64.67.13.1-.34-.22-.22-.12s.12.11-.29-.1a12.91,12.91,0,0,0-4.65-1.17v0l.19,0-.19,0c0,.06-.11.08-.47,0s0,0-.23-.13h-.09l-.27-.09c.06,0-.11,0-.21,0a1.75,1.75,0,0,1,.1-.43c-.37-.11-.32,0-.38,0s.13.15,0,.16c0,.15-.65.08-.86.17l-.4,0C14.28,130.86,13.87,130.7,14,130.67Zm6.2.78-.66-.29-.1,0c-.05,0,0,0,0,0l-.75-.21c.55.21,1,.4,1.21.44-.18,0-1.55-.47-2.48-.62a1,1,0,0,0-.36.06s0,.1,0,.16a10.41,10.41,0,0,1,2.94.54,17.87,17.87,0,0,1,2,.81A12.14,12.14,0,0,0,20.2,131.45Zm-.34-.24c.09,0,.14,0,.15-.06.2,0,.34,0-.4-.69.21.31.42.58.4.69.17,0,0-.05-.17,0C19.87,131.2,19.87,131.2,19.86,131.21Z"/><path class="cls-3" d="M18.79,131.5c-.48-.11-.89-.18-1.38-.27l1.16.31c.76.19.84.15,1.33.28a19.34,19.34,0,0,1,2.43.82s.11.06,0,0A13.85,13.85,0,0,0,18.79,131.5Z"/><path class="cls-3" d="M23.15,133.11,23,133a3,3,0,0,0-.36-.25s.07.07.06.07Z"/><path class="cls-3" d="M22.35,132.63l.1.05.24.13c-.26-.16-.58-.35-.83-.48Z"/></g><g class="cls-2"><path class="cls-3" d="M16.59,139.11c.05-.16,0-.25-.15-.28s.23-.49.29-.7a.4.4,0,0,0,0-.28c.23-.29.37-.54.29-.69s.14-.14-.33.07c.21-.29.5-.57.18-.62-.08,0,.3-.26.22-.3s.26-.32.16-.39a1.85,1.85,0,0,1-.34,0c.48-.3-.4-.17-.8-.22-.11,0-.26,0-.25-.1a.81.81,0,0,1-.3,0,1.93,1.93,0,0,1,.8-.5c.15,0,.42.36.69.28s-.12-.26-.05-.3a11,11,0,0,0,1.56.08,1.37,1.37,0,0,0,.44,0,5.23,5.23,0,0,0-1-.06c0-.05-.39,0-.44-.09.23,0,1.11-.11,1.16-.1.41,0,.74-.11.72,0s.7,0,.87,0a4.32,4.32,0,0,1-1.23.21c-.43.27,1.12-.2,1-.06h.14l-.16.1c0,.11.36.05.23.2s.23-.11.26-.13c.42-.24-.12-.1,0-.22s-.31.07-.31.06.21-.14.34-.21c.33,0,.25,0,.33.08s.29-.08.42-.12a.11.11,0,0,0,0-.09c-.11,0-1.28.19-.6-.1l-.08,0,.06,0s0,0,.18-.1l0,.05c.83-.15.4.08.71.08.12,0-.29.17-.18.15s.14.08-.17.28a21.58,21.58,0,0,0-2.77,2.48h0l.12-.08-.11.09s0,.11-.2.29,0,0-.19.05l0,.05-.18.1s-.06.05-.12.1a1.74,1.74,0,0,1-.22-.29c-.24.15-.18.16-.21.19s.16,0,.1.08c.11.05-.26.41-.31.56l-.22.19C16.83,139,16.53,139.18,16.59,139.11Zm3.31-3.33-.47.29-.06.06s0,0,0,0l-.46.39a5.89,5.89,0,0,0,.81-.56,14.23,14.23,0,0,1-1.48,1.27.69.69,0,0,0-.12.25s.06.06.12.07A11.16,11.16,0,0,1,19.9,136a15.89,15.89,0,0,0,1.35-1.11A15.31,15.31,0,0,0,19.9,135.78Zm-.3.08a.15.15,0,0,0,0-.17c.06-.17.11-.33-.64-.16.3,0,.57.06.64.16.06-.15,0,0,0,.16C19.59,135.85,19.6,135.86,19.6,135.87Z"/><path class="cls-3" d="M19.36,136.85c-.29.23-.52.44-.8.67l.73-.5c.47-.35.47-.44.77-.68A10.89,10.89,0,0,0,21.59,135s.08-.06,0,0C21,135.44,20.44,135.94,19.36,136.85Z"/><path class="cls-3" d="M22.23,134.47c-.08,0-.17,0-.14,0-.25.11-.3.16-.33.2s.07,0,.07.09A2.29,2.29,0,0,0,22.23,134.47Z"/><path class="cls-3" d="M21.59,135l.08-.06c.12-.09.16-.14.17-.18-.21.12-.46.26-.65.39Z"/></g><g class="cls-2"><path class="cls-3" d="M21,143.09a.18.18,0,0,0-.16-.18c-.13-.06,0-.29,0-.43a.29.29,0,0,0,0-.18c.08-.19.11-.37,0-.47s.06-.1-.19.05c.07-.2.18-.42,0-.44-.06,0,.12-.21.06-.23s.08-.26,0-.3-.21.09-.2.07c.21-.27-.31-.08-.58,0-.08,0-.18,0-.19,0a.49.49,0,0,1-.18.08,1.11,1.11,0,0,1,.35-.48c.08-.06.39.18.53.08s-.16-.18-.14-.22a6,6,0,0,0,1.31-.21,1.7,1.7,0,0,0-.67,0c0-.05-.25,0-.32,0,.15,0,.67-.25.71-.25.26,0,.44-.17.47-.05s.48,0,.59,0c-.23.09-.76.3-.74.22-.19.28.67-.23.65-.05,0,0,0,0,.09,0l-.07.1c0,.12.26.1.23.25,0,0,.12-.09.13-.11.19-.24-.12-.14-.1-.28s-.18.06-.19,0,.09-.15.15-.24.19.09.26.15a1.28,1.28,0,0,0,.24-.09.29.29,0,0,0,0-.13c-.1-.1-.8.11-.46-.22l0,0,0,0s0,0,.08-.13v.07c.5-.14.32.16.53.21s-.13.19-.06.18.13.16,0,.36c-.37.66-.74,1.31-1.15,2l0,0,.06,0,0,.06s0,.09-.06.2,0,0-.11,0v0l-.09.05s0,0-.06.06a2.81,2.81,0,0,1-.21-.23c-.12.09-.08.1-.09.12s.1,0,.08.06-.08.25-.08.35l-.09.11C21.16,143.08,21,143.14,21,143.09Zm1.34-2.3-.23.24,0,0s0,0,0,0l-.2.31a1.68,1.68,0,0,0,.38-.44c0,.18-.42.64-.64,1a.44.44,0,0,0,0,.18.14.14,0,0,0,.09.06c.26-.67,1.14-1.7,1.21-2.26C22.71,140.25,22.58,140.49,22.35,140.8Zm-.18,0a.26.26,0,0,0,0-.17c0-.17,0-.35-.48-.19a.72.72,0,0,1,.48.19c0-.15,0,0,0,.16C22.16,140.83,22.17,140.83,22.17,140.85Z"/><path class="cls-3" d="M22.28,141.75l-.36.44.35-.3a2.69,2.69,0,0,0,.34-.49,2.68,2.68,0,0,0,.63-1.22s0-.06,0-.06A8.39,8.39,0,0,1,22.28,141.75Z"/><path class="cls-3" d="M23.45,139.52c-.06,0-.12,0-.12-.08-.12.12-.14.19-.14.24a.41.41,0,0,1,.09.15A.76.76,0,0,0,23.45,139.52Z"/><path class="cls-3" d="M23.22,140.13l0-.06a.33.33,0,0,0,0-.23l-.3.4A.76.76,0,0,1,23.22,140.13Z"/></g><g class="cls-2"><path class="cls-3" d="M24.83,145.82l-.11-.06a.67.67,0,0,1-.15-.11l-.07-.06a1,1,0,0,0-.14-.15s0,0,0,0-.06-.13-.13-.16,0-.06,0-.08,0-.09-.07-.12H24c0-.08-.12-.06-.21-.07s-.06,0-.08,0h0a.17.17,0,0,1,0-.16s.18.11.2.08-.09-.09-.09-.1c.33,0,.39.07.39.05a.45.45,0,0,0-.2-.06s-.08,0-.11,0l.19,0c.08,0,.11,0,.14,0s.14.06.17.09-.17,0-.18,0,.16,0,.17.06h0v0c0,.05.08.08.09.14l0,0c0-.07,0-.08-.06-.13s0,0,0,0,0-.05,0-.08.06.07.08.1h0l0-.06c0-.06-.19-.06-.14-.16h0s0,0,0,0v0c.12,0,.09.12.15.17s0,.06,0,.07a.19.19,0,0,1,0,.16,1,1,0,0,0,.13.59h0l0,.05h0l-.12-.1s0,0,0,0l0,0,.1.08h0Zm-.3-.57v.18a.29.29,0,0,0,0-.11c0,.08,0,.19.06.26l0,.06,0,0c-.14-.17-.11-.47-.14-.71A1.43,1.43,0,0,0,24.53,145.25Zm0,0,0-.08c0-.07-.06-.15-.16-.14a.47.47,0,0,1,.16.14c0-.06,0,0,0,.07Z"/><path class="cls-3" d="M24.7,145.62a.42.42,0,0,0,0,.09v0s0-.08,0-.12,0-.28,0-.41,0,0,0,0A1.9,1.9,0,0,0,24.7,145.62Z"/><path class="cls-3" d="M24.63,144.87a.12.12,0,0,1,0-.06.13.13,0,0,0,0,.09l0,.08A.38.38,0,0,0,24.63,144.87Z"/><path class="cls-3" d="M24.63,145.1v0a.34.34,0,0,0,0-.1,1.23,1.23,0,0,0,0,.13Z"/></g><g class="cls-2"><path class="cls-4" d="M64.16,92.73c-1.21,1.33-5.45,5.72-7.36,7.57-.73.72-1.29,1.26-1.72,1.66s.46-.45,1.72-1.66l2-2c-1,.93-1.94,1.79-2.65,2.39l-1.49,1.44c-2.22,2.13-4.35,4.22-6.6,6.27-.82.74-2.56,2.41-3.41,3.08q4.9-4.6,9.74-9.25l-.27.24q-2.58,2.41-5.19,4.79c-.29.27-.59.55-.91.82l.91-.82,2.29-2.23,1.65-1.48c.42-.39.84-.72,1.26-1.08l.77-.72.23-.23h0c-.38.24-2.23,1.83-4.17,3.44s-3.94,3.27-4.46,3.79c-.84.82-1.4,1.77-2.32,2.7a6.33,6.33,0,0,0-.83.78c0,.06-.08.21-.17.35a13.22,13.22,0,0,0-1.76,1.64c-.28.39-2,.54-1.91.74.23.75.07.21-.8.9-.11.08-.22.59-.44.75-.8.48-.82.84-1.51,1.61-.94,1.24-1.57,1.08-2.18,2.41-.08.15-1.37,1.89-1.37,1.89-1.27,1.09-1.66,2.17-3.11,2.58-.64,1.49-2.63,2.34-3.71,3.53s-2,1.26-3.36,1.85c-.35.21-.54.46-.83.5s-.38.76-.73,1l-.17-.31-.48.28c-.12.07-.18,0-.23-.14s-.22-.41-.52-.38a13.23,13.23,0,0,0-1.62.81,17.15,17.15,0,0,0-.87,1.56,1.43,1.43,0,0,1,.22.43l-.18.53c.18.33.49.58.61.8.73.73.95,1.94,1.74,2.5.24.15,1-.48,1.63-.46.17,0,.25.44.44.77.39-.42.68-.17.76.24l.22-.16.25.44c1.28-.75,2.91-1.4,3.53-2.77a6.42,6.42,0,0,0,.42-1.19c.05-.18.43-.33.54-.41-.05-.39-.32-.61-.48-.91.93-.54,2.79-1.85,2-2.57.6-.58.36-1.06.92-1.73.73-.9,1.69-2,2.65-3.09.49-.62,1-1.16,1.55-1.72l.56-.61c1.93-2.11,3.74-3.82,5.47-5.59a74.92,74.92,0,0,0,5.15-5.76c3.57-4.39,7.84-8.49,11.23-12s6-6.23,6.93-7.26Z"/></g><g class="cls-2"><path class="cls-4" d="M40.75,154.08a1.68,1.68,0,0,1,.11.32,1.23,1.23,0,0,1,0,.28c0,.19-.11.33-.26.32a.31.31,0,0,1-.24,0c-.08,0,.05,0,.24,0a.37.37,0,0,0,.16-.13,3,3,0,0,1-.68-.32l-.17,0a2.2,2.2,0,0,1-.87.07c-.15,0-.31,0-.55-.07a8.57,8.57,0,0,1,1.12-.27l-.07,0c-.26,0-.55-.07-.83-.1a.24.24,0,0,1-.15,0l.15,0c.09,0,.09-.12.16-.17s.25.1.32.1a2.12,2.12,0,0,1,.34.17h.12a0,0,0,0,1,0,0h0a6.8,6.8,0,0,0-2.23-1.07c0,.11.46.69.45.82s-.18-.1-.07,0a2.53,2.53,0,0,1,.2.23c0,.08-.38-.2-.15.1.08.13-1.4-1.21-1.14-.94.94,1,.26.27.12.25s.35.4.29.38c-.27-.18,0,.16.11.34.24.4-.35-.15.18.52.06.08.34.58.34.58s.23.51-.34.07c.42.58-.17.2-.07.46s-.25,0-.37,0,0,.1,0,.09.15.23.14.27l-.1-.11v.07s0,0-.06,0-.13-.14-.14-.13a1.59,1.59,0,0,0,.13.3l.32.5.05.07.08.13,0,.06s0,.11,0,.09a.41.41,0,0,1,.2.05s0,0,0,0,.15.09.13.09l.07,0,0,0,.62.39a3.55,3.55,0,0,0,.55.32c.06,0,.09,0,.1,0a1.37,1.37,0,0,1,.2.13c-.07-.09-.22-.24-.34-.37.27.16.94.6.32,0,.14.06-.12-.23-.07-.27a.92.92,0,0,1,.26-.15c0-.06.09-.07.16-.08l.06,0c.34-.25,1.32.3.85-.75s0-1.19.27-1.42a.47.47,0,0,0,.15-.5,1.79,1.79,0,0,0-.07-.3,2.72,2.72,0,0,0-.14-.29Z"/></g><g class="cls-2"><path class="cls-4" d="M1.52,121.39a1.69,1.69,0,0,1-.11-.32,1.23,1.23,0,0,1,0-.28c0-.19.11-.33.26-.32a.31.31,0,0,1,.24,0c.08,0-.05,0-.24,0a.37.37,0,0,0-.16.13,3,3,0,0,1,.68.32l.17,0a2.2,2.2,0,0,1,.87-.07c.15,0,.31,0,.55.07a8.58,8.58,0,0,1-1.12.27l.07,0c.26,0,.55.07.83.1a.24.24,0,0,1,.15,0l-.15,0c-.09,0-.09.12-.16.17s-.25-.1-.32-.1a2.14,2.14,0,0,1-.34-.17H2.64a0,0,0,0,1,0,0h0a6.8,6.8,0,0,0,2.23,1.07c0-.11-.46-.69-.45-.82s.18.1.07,0a2.48,2.48,0,0,1-.2-.23c0-.08.38.2.15-.1-.08-.13,1.4,1.21,1.14.94-.94-1-.26-.27-.12-.25s-.35-.4-.29-.38c.27.18,0-.16-.11-.34-.24-.4.35.15-.18-.52-.06-.08-.34-.58-.34-.58s-.23-.51.34-.07c-.42-.58.17-.2.07-.46s.25,0,.37,0,0-.1,0-.09-.15-.23-.14-.27l.1.11v-.07s0,0,.06,0,.13.14.14.13a1.59,1.59,0,0,0-.13-.3l-.32-.5L5,118.4l-.08-.13,0-.06s0-.11,0-.09a.41.41,0,0,1-.2-.05s0,0,0,0-.15-.09-.13-.09l-.07,0,0,0-.62-.39a3.58,3.58,0,0,0-.55-.32c-.06,0-.09,0-.1,0a1.36,1.36,0,0,1-.2-.13c.07.09.22.24.34.37-.27-.16-.94-.6-.32,0-.14-.06.12.23.07.27a.92.92,0,0,1-.26.15c0,.06-.09.07-.16.08l-.06,0c-.34.25-1.32-.3-.85.75s0,1.19-.27,1.42a.47.47,0,0,0-.15.5,1.79,1.79,0,0,0,.07.3,2.72,2.72,0,0,0,.14.29Z"/></g><g class="cls-2"><path class="cls-4" d="M39.71,136.05a1.05,1.05,0,0,1,0,.26,1.21,1.21,0,0,1-.06.24c-.05.16-.15.29-.27.31a.3.3,0,0,1-.2,0c-.06,0,0,0,.2,0a.53.53,0,0,0,.15-.14,1.71,1.71,0,0,1-.53-.16l-.15.06a2.21,2.21,0,0,1-.74.2c-.12,0-.27.09-.45,0a9.88,9.88,0,0,1,1-.4l-.05,0c-.22,0-.45,0-.68,0a.19.19,0,0,1-.12,0h.12c.08,0,.09-.12.16-.17s.2,0,.26,0a1.18,1.18,0,0,1,.26.09h.1a0,0,0,0,1,0,0h0c-.34-.25-1.7-.7-1.71-.55s.28.51.25.62-.14-.05-.07.05a1.2,1.2,0,0,1,.13.17c0,.07-.29-.11-.14.1s-1-.8-.81-.62c.64.68.17.18.06.19s.23.29.19.27c-.2-.11,0,.13,0,.27.14.3-.27-.08.07.41,0,.06.2.44.2.44s.11.39-.3.12c.27.42-.17.19-.13.4s-.21,0-.31.07,0,.08,0,.08.09.17.08.2l-.06-.08v.05s0,0,0,0-.08-.1-.1-.09a1,1,0,0,0,.06.24l.19.37,0,.05,0,.1,0,0s0,.09,0,.07a.29.29,0,0,1,.16,0s0,0,0,0,.12.05.1.06l0,0v0a9.52,9.52,0,0,0,.87.41.08.08,0,0,0,.09,0s.12.06.15.08a3.16,3.16,0,0,0-.23-.26c.2.09.69.36.27-.06.11,0-.07-.17,0-.21a1.27,1.27,0,0,1,.25-.17.27.27,0,0,1,.14-.09l.05,0c.33-.26,1.07,0,.84-.77a1,1,0,0,1,.45-1.24.55.55,0,0,0,.21-.44,1,1,0,0,0-.08-.46Z"/></g><g class="cls-2"><path class="cls-4" d="M19.54,122.43a1.06,1.06,0,0,1,0-.26,1.2,1.2,0,0,1,.06-.24c.05-.16.15-.29.27-.31a.3.3,0,0,1,.2,0c.06,0,0,0-.2,0a.53.53,0,0,0-.15.14,1.71,1.71,0,0,1,.53.16l.15-.06a2.21,2.21,0,0,1,.74-.2c.12,0,.27-.09.45,0a9.9,9.9,0,0,1-1,.4l.05,0c.22,0,.45,0,.68,0a.19.19,0,0,1,.12,0H21.3c-.08,0-.09.12-.16.17s-.2,0-.26,0a1.17,1.17,0,0,1-.26-.09h-.1a0,0,0,0,1,0,0h0c.34.25,1.7.7,1.71.55s-.28-.51-.25-.62.14.05.07-.05a1.18,1.18,0,0,1-.13-.17c0-.07.29.11.14-.1s1,.8.81.62c-.64-.68-.17-.18-.06-.19s-.23-.29-.19-.27c.2.11,0-.13,0-.27-.14-.3.27.08-.07-.41,0-.06-.2-.44-.2-.44s-.11-.39.3-.12c-.27-.42.17-.19.13-.4s.21,0,.31-.07,0-.08,0-.08-.09-.17-.08-.2l.06.08v-.05s0,0,0,0,.08.1.1.09a.94.94,0,0,0-.06-.24c-.06-.12-.12-.24-.19-.37l0-.05,0-.1,0,0s0-.09,0-.07a.29.29,0,0,1-.16,0s0,0,0,0-.12-.05-.1-.06l0,0v0a9.52,9.52,0,0,0-.87-.41.08.08,0,0,0-.09,0s-.12-.06-.15-.08a3.14,3.14,0,0,0,.23.26c-.2-.09-.69-.36-.27.06-.11,0,.07.17,0,.21a1.27,1.27,0,0,1-.25.17.27.27,0,0,1-.14.09l-.05,0c-.33.26-1.07,0-.84.77a1,1,0,0,1-.45,1.24.55.55,0,0,0-.21.44,1,1,0,0,0,.08.46Z"/></g><g class="cls-2"><path class="cls-4" d="M11,131.58a44.46,44.46,0,0,0,4.64,3.1l3,1.86a13,13,0,0,0,2.48,1.34,6.76,6.76,0,0,0,2.61.4,5.6,5.6,0,0,1-2.61-.4,14.07,14.07,0,0,1-2.74-1.48c.63.44,1.25.86,1.84,1.21a6,6,0,0,1,1.65.95,7.8,7.8,0,0,0,2.48.25,5.38,5.38,0,0,0,2.71-1,5.53,5.53,0,0,0,1.86-2.33,7.44,7.44,0,0,0,.45-1.45c.06-.48.12-1.06.17-1.35a3.31,3.31,0,0,1,.84-1.74,3.39,3.39,0,0,1,1.4-.91,2.32,2.32,0,0,1,.9-.1,1.67,1.67,0,0,1,.41.07l.18.06.25.07H33.1a1.88,1.88,0,0,0-.29,0,3.15,3.15,0,0,0-.54.08,2.61,2.61,0,0,0-.94.42,2.92,2.92,0,0,0-1.13,2c0,.23-.05.38-.09.87a6,6,0,0,1-.19,1.22,6.62,6.62,0,0,1-1,2.3,6.14,6.14,0,0,1-4.1,2.5l.53,0a6.75,6.75,0,0,0,2.44-1,6.54,6.54,0,0,0,1.9-2,7.44,7.44,0,0,0,.95-2.64l.1-.69a1,1,0,0,1,0-.22l0-.15a2.62,2.62,0,0,1,.22-.54.92.92,0,0,1,.41-.53,1.23,1.23,0,0,0-.5,1v.82a6.26,6.26,0,0,1-.1,1.31,6,6,0,0,1-.37,1.37,7.2,7.2,0,0,1-2.59,2.73,4.62,4.62,0,0,1-2.55.57,7.14,7.14,0,0,1-1.48.1,2.56,2.56,0,0,1-.44.08l0,0a4.06,4.06,0,0,0,3.11.56,6.85,6.85,0,0,0,2.84-1.12,7.79,7.79,0,0,0,2.51-2.77,9.4,9.4,0,0,0,.76-1.78,7.92,7.92,0,0,0,.23-.9l.09-.45c0-.13.05-.37.08-.33a.83.83,0,0,1,.3-.18h.2l-.08,0a1.46,1.46,0,0,1-.45-.21l0,0a.9.9,0,0,1,.1.15c0,.06,0,.07.07.15s0,.12,0,0a.64.64,0,0,1,0-.14,1,1,0,0,1,0-.57c.06-.08,0-.15.19-.22a2.89,2.89,0,0,1,.54-.13c.49-.07.93.33,1.29,0a1.1,1.1,0,0,1,.39-.59c1-.15,2,.69,2.74,0,.52-.31,2.17,3.4,2.25,2.69.15-1.29.17-1.47.31-1.3a3.68,3.68,0,0,0,.33.41,1.28,1.28,0,0,0,.29.22,3.09,3.09,0,0,0,.79.08c.33,0,1.1-1.17,1.66-1.24a2.91,2.91,0,0,0,2.21-.89,18.17,18.17,0,0,0,1.66-2.12c.82-1.53,1.34-2.3,1.76-3.15a3.22,3.22,0,0,0,.34-1.36,2.94,2.94,0,0,0-.5-1.65c-.17-.2-1.11-2.68-1.11-2.68.2-1.89-.84-3.12.62-4.54a2.6,2.6,0,0,1-.37-.68l0-.09h0l-1.44-.07h.21a1.4,1.4,0,0,1,.5.14l.38.11.19.07h0s0,0,0,0a2,2,0,0,1,.63-.85A12.32,12.32,0,0,0,51,112.2c1-1.48,2.08-1.44,3.39-2.31.33-.3.5-.62.76-.71s.36-1,.69-1.27l.11.31.41-.44c.1-.11.13,0,.17.09s.14.4.36.26A10.22,10.22,0,0,0,58,106.48c.25-.73.51-1.43.77-2.12a.67.67,0,0,1,0-.27q.13-.3.26-.58c0-.16-.05-.19,0-.29s0-.31.1-.48.18-.3.07-.28-1,.69-1.38,1c-.1.06.08-.14.15-.24-.51.39-.57.38-.39.19l-.25.18.08-.14c-1.34,1-2.87,2-4.07,3-.26.22-.68.62-1,.88s-.48.38-.6.47-.1.24-.15.35c-.94.71-2.92,2.38-2.69,2.5a19.63,19.63,0,0,0-1.43,1.62,7.56,7.56,0,0,0-1.31,1.9,4.73,4.73,0,0,0-.15,1.31L46,116.69l-.13,2.62,0,.94-.12,2.36a5,5,0,0,1-.52,2,4.28,4.28,0,0,1-3,2.24,6.69,6.69,0,0,1-1,.11l-1.05,0-2.13.1c-1.44.08-2.93.17-4.51.3A6.67,6.67,0,0,0,31,128a5.13,5.13,0,0,0-2,1.63,5.5,5.5,0,0,0-.92,2.34,7.77,7.77,0,0,0-.06,1.24,6,6,0,0,1-.08,1.14,4.44,4.44,0,0,1-2.55,3.39,5.7,5.7,0,0,1-2.05.45,6.56,6.56,0,0,1-2-.3,13.91,13.91,0,0,1-3.35-1.78l-2.78-1.76L13.14,133a14.15,14.15,0,0,1-1.38-.9Z"/></g><g class="cls-2"><path class="cls-4" d="M25.2,145.46a10.54,10.54,0,0,1-1.76-1.68c-.64-.76-1.34-1.68-2-2.65s-1.36-2-1.95-2.92a13.66,13.66,0,0,1-.8-1.44,6.45,6.45,0,0,1-.48-1.4,5.45,5.45,0,0,1-.07-3.08c.26-.62-.37.81.07,3.08a11.64,11.64,0,0,0,1.53,3c-.13-.37-.24-.75-.34-1.12a11.64,11.64,0,0,1-.25-1.17,12.51,12.51,0,0,0-.12-2,6.44,6.44,0,0,1,0-2.32,4.65,4.65,0,0,1,3.14-3.69,6.31,6.31,0,0,1,1.26-.26l.61-.11.15,0,.18,0,.36.08a5.3,5.3,0,0,0,2.53-.68,4.79,4.79,0,0,0,1.8-1.86,6.11,6.11,0,0,0,.68-2.51v0a5.4,5.4,0,0,1-1.38,3.55,5.18,5.18,0,0,1-3.45,1.58c-.84-.38-1.26.07-1.95.1a4.74,4.74,0,0,0-1.73.61,4.6,4.6,0,0,0-2,2.91,2.76,2.76,0,0,1,.11-.38,5,5,0,0,1,.95-1.66,4.59,4.59,0,0,1,1.55-1.1,5.43,5.43,0,0,1,.91-.29,3.78,3.78,0,0,0,1-.2l.45-.17a2.92,2.92,0,0,1,.62.21,2.77,2.77,0,0,0,1.05-.08,5.57,5.57,0,0,0,1.34-.49,5.16,5.16,0,0,1-1.34.49,6.94,6.94,0,0,1-.9.14c-.18,0-.38-.14-.56-.22l-.14-.06s-.07,0-.1,0l-.2.09c-.45.33-1.24.24-1.75.5a4.43,4.43,0,0,0-1.94,1.29,5.21,5.21,0,0,0-.91,1.53,5.37,5.37,0,0,0-.23,1.14l0,.36v0a6.93,6.93,0,0,1,.59-2,4.34,4.34,0,0,1,2.72-2.2,5.16,5.16,0,0,1,1.07-.17c.19,0,.29-.2.44-.29l.21-.17.1-.09.2.12.39.25c.13.08.28.2.35.15l.53-.06a6.48,6.48,0,0,0,1-.25,5.08,5.08,0,0,0,2.22-1.53,5.58,5.58,0,0,0,1.09-3.57v-.49c0-.52.08-1,.07-1.36a2.12,2.12,0,0,1,0-.43c0-1,.18-2,.13-2.74,0-.53.48-2,.4-2.12-.26-.41-.09-.17,0-1.32a3.88,3.88,0,0,1,.08-.85c.18-.42.29-.69.44-1a3.41,3.41,0,0,1,.68-.94,3.37,3.37,0,0,1,1.46-.89,11,11,0,0,1,1.6-.37l2.62-.26a43,43,0,0,1,4.57-.16c.2,0,.42,0,.64-.1a2.17,2.17,0,0,0,1.15-.57,11.82,11.82,0,0,0,1-.92,20.22,20.22,0,0,0,1.79-2c1.12-1.47,1.65-2,2.65-3.28.27-.37.46-.66.63-.86s.47-.79.74-1.16l0,.12.35-.5c.09-.13.08-.08.07,0s0,.17.14,0q.56-.78,1.11-1.62l1-1.7a.53.53,0,0,1,0-.18l.27-.5c0-.12,0-.11,0-.19s.24-.8.05-.69a9.22,9.22,0,0,1-1.26,1.18c-.12.06,0-.19,0-.32-.5.44-.66.38-.53.15l-.28.18v-.19c-.8.45-1.72.87-2.61,1.29a8,8,0,0,0-2.3,1.41,4,4,0,0,0-.71,1c-.09.16-.6.29-.75.36,0,.35.41.57.63.86a17.09,17.09,0,0,0-2.17,1.11,2.54,2.54,0,0,0-.4.33c-.08.1-.23.26-.16.31a2.42,2.42,0,0,0,.53.63c-.27.21.15.89-.18,1.36a4.74,4.74,0,0,1-.43.56,2.5,2.5,0,0,1-.29.28,1,1,0,0,1-.17.12l-.1,0-.05,0h-.05l0,.49,0-.49H42.1l-.17,0h-.48l-1,0a18.17,18.17,0,0,1-2.63,0h-.94c-.81,0-1.6,0-2.37,0H34.1l-.45,0c-.3,0-.61.06-.92.11a9.16,9.16,0,0,0-1.83.51,8.4,8.4,0,0,0-3.2,2.24,8.8,8.8,0,0,0-1.86,3.37,9.75,9.75,0,0,0-.34,1.8c0,.35-.08.7-.1,1.05-.06.7-.08,1.42-.07,2.14a18.55,18.55,0,0,0,.17,2.22l.09.57a2.93,2.93,0,0,0,.13.36l.32.75.07.16a4.06,4.06,0,0,1,.17,1.73,2.69,2.69,0,0,1-.77,1.51,2.92,2.92,0,0,1-1.52.77c-.58.12-1.17,0-1.77.17a1.67,1.67,0,0,0-.25,0l-.38.13a4.92,4.92,0,0,0-.75.29c-.24.12-.48.24-.72.38l-.66.47a7,7,0,0,0-1.93,2.49,7.89,7.89,0,0,0-.66,2.87,8.7,8.7,0,0,0,.35,2.68,9.62,9.62,0,0,0,1,2.26c.36.62.68,1.09,1,1.6.66,1,1.32,1.87,1.94,2.64a16.63,16.63,0,0,0,3.12,3.05Z"/></g></g></g></svg>