<svg xmlns="http://www.w3.org/2000/svg" viewBox="0 0 79.76 147.99"><defs><style>.cls-1{opacity:0.8;}.cls-2{fill:#202020;}.cls-3{fill:#fff;}</style></defs><title>logoHeader</title><g id="Layer_2" data-name="Layer 2"><g id="Layer_1-2" data-name="Layer 1"><g class="cls-1"><path class="cls-2" d="M24.13,100.3a1.16,1.16,0,0,1-.23-.16,1.33,1.33,0,0,1-.14-.23.43.43,0,0,1,0-.45.33.33,0,0,1,.12-.19c.06,0,0,.05-.12.19a.58.58,0,0,0,0,.22,1.88,1.88,0,0,1,.53-.29,1.21,1.21,0,0,1,.07-.17,2.43,2.43,0,0,1,.42-.73c.1-.09.14-.28.33-.37a10.85,10.85,0,0,1-.45,1.08l.06,0c.15-.19.33-.38.5-.57a.21.21,0,0,1,.09-.1l-.09.1c0,.08,0,.17,0,.26S25,99,24.94,99a1.3,1.3,0,0,1-.28.13l-.07.08,0,0h0c.45-.07,1.87-.78,1.76-.9s-.62-.18-.67-.28.15-.06,0-.09l-.23,0c0-.07.31-.14,0-.19-.11,0,1.39-.14,1.11-.15-1,0-.28,0-.2-.1s-.4,0-.36-.07c.24-.07-.11-.09-.24-.18-.34-.12.27-.15-.37-.26-.07,0-.49-.19-.49-.19s-.39-.22.14-.32c-.53-.12,0-.28-.21-.41s.14-.18.19-.3-.07-.06,0-.08-.2-.06-.22-.1h.11l0,0s0,0,.06,0,.14,0,.14,0a1,1,0,0,0-.23-.14l-.44-.14h-.07l-.11,0h-.06c-.05,0-.08-.06-.07,0a.32.32,0,0,1-.14.12s0,0,0,0-.13,0-.12,0l-.06,0h0a10.46,10.46,0,0,0-1,.36.08.08,0,0,0,0,.09s-.14,0-.18.05a3.44,3.44,0,0,0,.38,0c-.23.08-.82.26-.17.26-.11.07.18.08.18.15a1.4,1.4,0,0,1-.06.33.3.3,0,0,1,0,.19l0,.07c-.05.46-.86.8-.06,1.25a1.06,1.06,0,0,1,.62,1.32.61.61,0,0,0,.18.51,1.05,1.05,0,0,0,.42.3Z"/></g><g class="cls-1"><path class="cls-2" d="M50.39,95.22a1.16,1.16,0,0,1,.23.16,1.32,1.32,0,0,1,.14.23.43.43,0,0,1,0,.45.33.33,0,0,1-.12.19c-.06,0,0-.05.12-.19a.59.59,0,0,0,0-.22,1.88,1.88,0,0,1-.53.29,1.21,1.21,0,0,1-.07.17,2.43,2.43,0,0,1-.42.73c-.1.09-.14.28-.33.37a10.85,10.85,0,0,1,.45-1.08l-.06,0c-.15.19-.33.38-.5.57a.21.21,0,0,1-.09.1l.09-.1c0-.08,0-.17,0-.26s.19-.12.22-.18a1.3,1.3,0,0,1,.28-.13l.07-.08,0,0h0c-.45.07-1.87.78-1.76.9s.62.18.67.28-.15.06,0,.09l.23,0c0,.07-.31.14,0,.19.11,0-1.39.14-1.11.15,1,0,.28,0,.2.1s.4,0,.36.07c-.24.07.11.09.24.18.34.12-.27.15.37.26.07,0,.49.19.49.19s.39.22-.14.32c.53.12,0,.28.21.41s-.14.18-.19.3.07.06,0,.08.2.06.22.1h-.11l0,0s0,0-.06,0-.14,0-.14,0a1,1,0,0,0,.23.14l.44.14h.07l.11,0h.06c.05,0,.08.06.07,0a.32.32,0,0,1,.14-.12s0,0,0,0,.13,0,.12,0l.06,0h0a10.48,10.48,0,0,0,1-.36.08.08,0,0,0,0-.09s.14,0,.18-.05a3.44,3.44,0,0,0-.38,0c.23-.08.82-.26.17-.26.11-.07-.18-.08-.18-.15a1.4,1.4,0,0,1,.06-.33.3.3,0,0,1,0-.19l0-.07c.05-.46.86-.8.06-1.25a1.06,1.06,0,0,1-.62-1.32.61.61,0,0,0-.18-.51,1.05,1.05,0,0,0-.42-.3Z"/></g><line class="cls-3" x1="10.29" y1="83.3" x2="10.29" y2="88.2"/><g class="cls-1"><path class="cls-2" d="M10.29,88.2A1.8,1.8,0,0,1,10,88a1.3,1.3,0,0,1-.2-.23c-.13-.16-.16-.33,0-.43a.33.33,0,0,1,.17-.18c.08,0,0,.05-.17.18a.39.39,0,0,0,0,.22,3.18,3.18,0,0,1,.75-.28,1,1,0,0,1,.1-.16,2.33,2.33,0,0,1,.6-.7c.14-.09.2-.27.46-.35a9.11,9.11,0,0,1-.64,1l.08,0c.21-.18.46-.36.7-.55a.25.25,0,0,1,.12-.09l-.12.09c0,.08,0,.16,0,.25s-.26.12-.32.17a2.25,2.25,0,0,1-.39.13L11,87.2l0,0h0a7.21,7.21,0,0,0,2.47-.87c-.07-.09-.87-.17-.95-.27s.21-.06,0-.09l-.32,0c-.06-.07.44-.13,0-.19-.16,0,2-.14,1.56-.15-1.44,0-.39,0-.27-.09s-.56,0-.5-.06c.34-.07-.15-.09-.33-.17-.47-.12.38-.15-.53-.25-.1,0-.7-.18-.7-.18s-.55-.21.2-.31c-.75-.12,0-.27-.3-.4s.2-.18.26-.29-.1-.05-.06-.07-.28-.06-.3-.09h.15l-.06,0s0,0,.08,0,.2,0,.2,0a1.68,1.68,0,0,0-.32-.13l-.62-.13h-.09l-.16,0h-.08c-.07,0-.11-.05-.1,0a.43.43,0,0,1-.19.11s0,0-.06,0-.18,0-.17,0l-.08,0h0L9,83.61a3.79,3.79,0,0,0-.65.17c-.06,0-.07.06-.07.09a1.45,1.45,0,0,1-.25.05c.12,0,.35,0,.53,0-.32.08-1.15.25-.23.25-.15.06.26.08.25.15a1,1,0,0,1-.08.31c0,.06,0,.12-.05.18l0,.06c-.07.44-1.22.77-.08,1.2s.9.89.87,1.27a.5.5,0,0,0,.26.49,1.9,1.9,0,0,0,.28.17,2.9,2.9,0,0,0,.32.11Z"/></g><line class="cls-3" x1="64.23" y1="88.2" x2="64.23" y2="83.3"/><g class="cls-1"><path class="cls-2" d="M64.23,83.3a1.8,1.8,0,0,1,.33.16,1.3,1.3,0,0,1,.2.23c.13.16.16.33,0,.43a.33.33,0,0,1-.17.18c-.08,0,0-.05.17-.18a.39.39,0,0,0,0-.22,3.18,3.18,0,0,1-.75.28,1,1,0,0,1-.1.16,2.33,2.33,0,0,1-.6.7c-.14.09-.2.27-.46.35a9.09,9.09,0,0,1,.64-1l-.08,0c-.21.18-.46.36-.7.55a.25.25,0,0,1-.12.09l.12-.09c0-.08,0-.16,0-.25s.26-.12.32-.17a2.26,2.26,0,0,1,.39-.13l.09-.08,0,0h0a7.21,7.21,0,0,0-2.47.87c.07.09.87.17.95.27s-.21.06,0,.09l.32,0c.06.07-.43.13,0,.19.16,0-2,.14-1.56.15,1.44,0,.39,0,.27.09s.56,0,.5.06c-.34.07.15.09.33.17.47.12-.38.15.53.25.1,0,.7.18.7.18s.55.21-.2.31c.75.12,0,.27.3.4s-.2.18-.26.29.1.05.06.07.28.06.3.09h-.15l.06,0s0,0-.08,0-.2,0-.2,0a1.68,1.68,0,0,0,.32.13l.62.13h.09l.16,0h.08c.07,0,.11.05.1,0a.43.43,0,0,1,.19-.11s0,0,.06,0,.18,0,.17,0l.08,0h0l.75-.17a3.79,3.79,0,0,0,.65-.17c.06,0,.07-.06.07-.09a1.45,1.45,0,0,1,.25-.05c-.12,0-.35,0-.53,0,.32-.08,1.15-.25.23-.25.15-.06-.26-.08-.25-.15a1,1,0,0,1,.08-.31c0-.06,0-.12.05-.18l0-.06c.07-.44,1.22-.77.08-1.2s-.9-.89-.87-1.27a.5.5,0,0,0-.26-.49,1.9,1.9,0,0,0-.28-.17,2.9,2.9,0,0,0-.32-.11Z"/></g><g class="cls-1"><path class="cls-2" d="M39.45,148c-.08-1.8-.19-7.9-.15-10.56,0-1,0-1.8,0-2.39s0,.65,0,2.39v2.78c0-1.35.11-2.64.18-3.57l0-2.07c.06-3.08.09-6.06.23-9.11.06-1.1.11-3.52.23-4.59q-.21,6.71-.35,13.43l0-.36q.11-3.53.29-7.06c0-.4,0-.8.06-1.22L40,126.89l0,3.2-.12,2.21c0,.57-.09,1.1-.13,1.65l0,1.05v.33h0c.1-.44.29-2.87.52-5.38s.47-5.1.48-5.83c0-1.17-.26-2.24-.26-3.55a6.32,6.32,0,0,0,0-1.14c-.05,0-.09-.2-.13-.37a13.21,13.21,0,0,0,.08-2.41c-.08-.47,1-1.78.83-1.88-.7-.37-.19-.1-.07-1.21,0-.13-.26-.57-.22-.84.23-.9,0-1.17-.07-2.21-.21-1.54.34-1.88-.16-3.25,0-.17-.37-2.31-.37-2.31.13-1.67-.36-2.71.38-4-.6-1.51.2-3.51.13-5.12s.5-2.28,1.07-3.68c.1-.4.06-.7.23-.94s-.27-.8-.17-1.2l.33.1.14-.54c0-.13.15-.1.26-.07s.45.13.63-.1a13.22,13.22,0,0,0,.58-1.72A17.14,17.14,0,0,0,43.4,86a1.43,1.43,0,0,1-.46-.15l-.25-.5c-.36-.1-.76-.07-1-.13-1,0-2-.7-3-.53-.28.07-.35,1-.83,1.47-.15.1-.48-.13-.85-.23,0,.57-.36.6-.71.37l0,.27-.49-.13c-.37,1.44-1.07,3-.54,4.45A6.42,6.42,0,0,0,35.79,92c.09.17-.07.54-.09.67a2.67,2.67,0,0,0,1,.3c-.28,1-.66,3.28.42,3.21,0,.84.49,1,.57,1.87.12,1.15.23,2.62.31,4.06.09.79.09,1.55.12,2.31l0,.83c.13,2.86.06,5.35.09,7.82a74.94,74.94,0,0,0,.43,7.71c.58,5.63.46,11.54.51,16.4s.16,8.65.24,10Z"/></g><g class="cls-1"><path class="cls-2" d="M48.23,84.33c-1.73,1.28-3.41,2.34-5,3.65a19.76,19.76,0,0,1-1.9,1.3c-.45.29-.33.14-.4.12a.83.83,0,0,0-.17-.11,1,1,0,0,0-1.11.18.92.92,0,0,0-.18,1.15,1.28,1.28,0,0,0,0,.4,3.85,3.85,0,0,0,.21.4c.18.29.39.61.56.94a9.65,9.65,0,0,1,1.19,4.47,8.69,8.69,0,0,1-1.15,4.45A8.8,8.8,0,0,1,39,103l-.37.37-.27.23-.52.44c-.35.2-1.4.79-.79,1.2-1.61.9-3.22,1.75-4.67,2.74l-.53.36a3.41,3.41,0,0,0-.4.3,3.13,3.13,0,0,0-.64.74,2.79,2.79,0,0,0-.36,1.88,4,4,0,0,0,.56,1.63,7.38,7.38,0,0,0,1.37,1.5c.91.74,1.79,1.48,2.63,2.26s1.6,1.55,2.56,2.34A4,4,0,0,1,39,120.07a8.82,8.82,0,0,1,.19,6.59l-.29.71-.2.52-.41,1a15.75,15.75,0,0,1-1,2,12.68,12.68,0,0,1-1.94,2.51c.15.21-.08.38-.24.65-.61.61-4.91,3.45-5.33,3.69-.06,0,.43-.32,1.09-.91a28,28,0,0,0,2.27-2.3c1.55-1.75,2.82-3.68,2.62-3.71a29,29,0,0,0-2,2.51c-1,1.24-2.09,2.44-2.29,2.63a25.86,25.86,0,0,0,3.42-5.9c.73-1.68,1.2-3,1.54-4a4,4,0,0,0,.31-1.86c0-.31-.09-.35-.13-.2s-.07.48-.19,1-.43,1.13-.73,1.87c-.61,1.49-1.32,3.31-2,4.86a36.54,36.54,0,0,1-2.37,3.91,9.54,9.54,0,0,0,1-2.18c.26-.82.42-1.61.54-1.88,1-2.55.31-2.46,1.85-5.1.16-.27.32-.57.48-.9l.24-.51a2.89,2.89,0,0,0,.13-.4,2.75,2.75,0,0,0-.07-1.52,4.51,4.51,0,0,0-.63-1.2c-.13-.19-.25-.33-.41-.53s-.4-.49-.55-.71c.22.15.58.4.91.58a4.07,4.07,0,0,1,.9.57,2.13,2.13,0,0,1,.85,2,2,2,0,0,0-.09-1.76,2.56,2.56,0,0,0-1-.93,5.3,5.3,0,0,1-1.28-.9,7.93,7.93,0,0,1-1.37-1.83,8.45,8.45,0,0,0-.72-.94c-.19-.38-.38-.74-.63-1.17-.44-.63-.89-1.21-1.37-1.77a7.39,7.39,0,0,1-1.28-2.12,6.07,6.07,0,0,1,.35-5.1c-.13.29-.38.38-.51.69a5.77,5.77,0,0,0-.06,4.54,7.84,7.84,0,0,0,1.12,1.92,18.16,18.16,0,0,1,1.21,1.63c.26.47.86.92,1.17,1.39a14.64,14.64,0,0,1,1.36,3.06,22,22,0,0,1-1.81-2.88,23.36,23.36,0,0,0-2-3c-.37-.43-.84-1-1.11-1.36a10.08,10.08,0,0,0,1,1.69c.31.43.6.87.89,1.33,1,1.58,2,3.5,3.23,5.11a3.55,3.55,0,0,1,.53.82,1.59,1.59,0,0,1,.15.55.64.64,0,0,1-.42.69l.1.11-.09,0a.39.39,0,0,1-.11.22s-.07,0-.15.12a3.12,3.12,0,0,1-.33.3c.32-.53.3-.51.37-.64-.25-.35-.45-.36-.45-.46a2,2,0,0,1,0-.3,1.18,1.18,0,0,0,0-.27c0-.06,0-.08,0-.19l-.18-.35a45.87,45.87,0,0,0-2.79-5.72c-.27-.38-.53-.87-.9-1.44a16,16,0,0,1-1-1.82,7.11,7.11,0,0,1-.39-5.31,7.61,7.61,0,0,1,.54-1.31c.2-.41.52-.85.65-1.11.35-.59.71-1.16,1.08-1.71a27.24,27.24,0,0,1,2.12-2.89c.39-.45.79-.89,1.21-1.3l.32-.31.18-.17a2.82,2.82,0,0,0,.3-.29A2.18,2.18,0,0,0,35,97.39L34.13,95a6.18,6.18,0,0,1-1-4.12,5.69,5.69,0,0,1,1.92-3.49,7,7,0,0,1,3.25-1.52,12,12,0,0,1,1.6-.14q.89-.09,1.75-.22l.6-.24-.31-.08.62,0a23.79,23.79,0,0,1,3.36-.93c.47-.06-.77.31-1.06.6l.5-.15,0,.2a.66.66,0,0,1,.45-.08L42.3,86.51l-1.74.86a2,2,0,0,1-.56.21,3.93,3.93,0,0,0-.42.15c.39.3.6.15.77.18l.43-.28.55-.33a6.76,6.76,0,0,1,1.1-.51c1.92-1,4.1-1.67,5.83-2.83.31-.2.63-.47,1-.72.12,0,.15,0,.11,0l-.1,0-.16.16C48.84,83.67,48.51,84.09,48.23,84.33ZM32.95,102.7a12.58,12.58,0,0,1,1.91-1.18l.58-.51a1.83,1.83,0,0,0,.57-.73,4.6,4.6,0,0,0,1.63-3.46,6,6,0,0,1-1,1.94,12.92,12.92,0,0,1-1.31,1.42,6,6,0,0,0,1.18-2.11,5.11,5.11,0,0,0,0-2.7A8.6,8.6,0,0,0,36,93.89c-.09-.24-.19-.47-.26-.7l-.14-.71a4.32,4.32,0,0,1,.52-2.62,4.5,4.5,0,0,1,1.6-2.17,7.9,7.9,0,0,1,1.43-1,5.59,5.59,0,0,0-3,1.41,4.66,4.66,0,0,0-1.55,3.53L36,95.56a3.59,3.59,0,0,1-.2,3,3.75,3.75,0,0,1-.87,1l-.27.21-.4.34c-.26.23-.52.47-.77.71A24.06,24.06,0,0,0,30.77,104c-.41.57-.82,1.15-1.21,1.74-.16.26-.49.69-.7,1.08a7.09,7.09,0,0,0-.19,6.66,7.12,7.12,0,0,1-.59-3.42,6.86,6.86,0,0,1,1.15-3.22c.15-.23.35-.47.49-.66l.43-.53.88-1A22.63,22.63,0,0,1,32.95,102.7ZM32.42,104c-.48.56-.93,1.13-1.38,1.71a19.6,19.6,0,0,0-1.34,1.83,5.66,5.66,0,0,0-.87,3.15,5.57,5.57,0,0,0,1,3,10.25,10.25,0,0,0,.91,1.1l.86.94a11.54,11.54,0,0,0,1.62,1.48l-1.78-1.9-.9-1a6.58,6.58,0,0,1-.86-1.11,5.36,5.36,0,0,1-.81-2.78,5.64,5.64,0,0,1,.8-2.91,5.79,5.79,0,0,0-.69,1.6c0,.2,0,.05.12-.37a6.4,6.4,0,0,1,1-1.83l1.92-2.41A3,3,0,0,1,32.42,104Z"/><path class="cls-2" d="M35.95,86.17a9.81,9.81,0,0,1,2.65-.55c.42,0,.79,0,1.18,0l1.27,0c-.72-.2-1.38-.5-2.21-.66a5.18,5.18,0,0,0-1.81.1,6.76,6.76,0,0,0-.94.27c-.29.14-.6.27-.89.44a7.67,7.67,0,0,0-2.79,3,6.6,6.6,0,0,0-.27,6.19l1.37,2.31a.93.93,0,0,1,0,.54,5.74,5.74,0,0,1-.37.62,21.28,21.28,0,0,0-2.6,4,5.87,5.87,0,0,0-.67,1.44A25,25,0,0,1,33.28,99l.49-.52a3.42,3.42,0,0,0,.24-.32,1.41,1.41,0,0,0,.22-.75l-.82-1.76a6.91,6.91,0,0,1-1.21-3.67A6.22,6.22,0,0,1,35.95,86.17Z"/><path class="cls-2" d="M29.64,116a14.11,14.11,0,0,1,1.6,3.16,10.09,10.09,0,0,0-1.43-3.4c-.11-.16-.22-.32-.34-.48l-.43-.58a10,10,0,0,1-.77-1.32,7.63,7.63,0,0,1-.77-3.06,7.51,7.51,0,0,0,.63,3.14,10,10,0,0,0,.75,1.41C29.23,115.39,29.43,115.69,29.64,116Z"/><path class="cls-2" d="M29.85,103.83l-.49.85-.58,1a8.44,8.44,0,0,0-.73,1.45,7.92,7.92,0,0,0-.55,3.19,7.56,7.56,0,0,1,.81-3.27,9.94,9.94,0,0,1,.85-1.38l.69-1C29.7,104.55,29.74,104.21,29.85,103.83Z"/></g><g class="cls-1"><path class="cls-2" d="M48.32,136.07a.16.16,0,0,0,0,.13c0,.06,0,.16,0,.24a.34.34,0,0,0,0,.11.42.42,0,0,0,0,.23s0,0,0,0a.31.31,0,0,0,0,.22s0,.07,0,.09,0,.1,0,.13l0,0c0,.07.05.1.07.16l0,.06h0a1,1,0,0,0,0,.12,1.43,1.43,0,0,0-.07-.16l0,.12c-.1-.19-.17-.21-.16-.2l.11.13,0,.08-.05-.07s0,0-.07-.08a.61.61,0,0,0-.14-.12s.1,0,.11.05-.09,0-.13-.09h0v0s-.1-.07-.13-.12,0,0,0,0,.07.06.1.11l0,0s0,0,0,.06a.6.6,0,0,1-.12-.08h0l0,0c.07,0,.18.08.2.13h0l0,0,0,0a2.12,2.12,0,0,1-.22-.14s0,0,0,0a.17.17,0,0,1-.11-.12.89.89,0,0,1,0-.67h0l0,0v0s0,0,0-.09,0,0,0,0v0l0,0,0,0,.05.15s0,0,0-.05,0,0,0,0,0-.13.05-.18l0-.05S48.33,136,48.32,136.07ZM48,137l0-.06v-.13a.19.19,0,0,0,0,.13c0-.07,0-.2.07-.33a.42.42,0,0,0,0-.09.09.09,0,0,0,0,0c-.08.3-.13.58,0,.74A.67.67,0,0,1,48,137Zm0,0,0,.07a.29.29,0,0,0,.15.15,1.78,1.78,0,0,1-.15-.15l0-.06Z"/><path class="cls-2" d="M47.91,136.6l.09-.17-.1.1c-.05.08,0,.12-.05.18a.36.36,0,0,0,.07.38l0,0A.56.56,0,0,1,47.91,136.6Z"/><path class="cls-2" d="M48.06,137.27l.07,0a.12.12,0,0,0,0-.05l-.08-.06A.16.16,0,0,0,48.06,137.27Z"/><path class="cls-2" d="M47.94,137.11v0a.23.23,0,0,0,.06.07.9.9,0,0,1,0-.1Z"/></g><g class="cls-1"><path class="cls-2" d="M47,130.2c-.07.14-.06.22,0,.26s-.24.41-.3.6a.46.46,0,0,0,0,.24c-.16.24-.24.45-.19.58s-.08.12.18,0c-.12.23-.25.47-.08.51s-.14.21-.09.25-.09.26,0,.32.17-.06.16,0c-.18.25.22.13.4.16s.11,0,.12.07.08,0,.12,0a1.13,1.13,0,0,1-.26.43c-.05,0-.24-.26-.35-.19s.11.21.09.24a2.44,2.44,0,0,0-1,0,1.65,1.65,0,0,0,.54,0s.19,0,.23.06-.48.13-.51.12c-.21,0-.33.1-.39,0s-.44,0-.57-.05c.21-.08.66-.24.65-.16.13-.24-.57.17-.61,0H45l0-.09c-.06-.1-.3-.08-.3-.21s-.11.09-.12.1c-.15.21.17.11.18.23s.18-.05.19,0-.05.13-.09.2c-.2,0-.23-.06-.32-.11a1.35,1.35,0,0,0-.24.09.24.24,0,0,0,.07.1c.17.06.8-.11.57.15h0l0,0s0,0,0,.1l0-.05c-.46.11-.39-.12-.65-.14-.08,0,.08-.15,0-.14s-.22-.11-.12-.29a8.13,8.13,0,0,1,1.32-2.09l0,0-.08.06.08-.07s0-.1.15-.25,0,0,.14,0l0,0L46,131s0,0,.09-.08a2,2,0,0,1,.12.28c.17-.12.13-.13.15-.16s-.1,0-.05-.08.22-.34.29-.48l.17-.16C46.83,130.22,47,130.13,47,130.2ZM44.91,133l.23-.24,0,0s0,0,0,0l.22-.32a1.69,1.69,0,0,0-.41.46c-.05-.17.45-.65.78-1a.73.73,0,0,0,.07-.22s0-.06-.08-.07c-.56.85-1.42,1.87-1.27,2.29C44.61,133.46,44.69,133.25,44.91,133Zm.19-.06a.23.23,0,0,0,.06.16c0,.16.1.31.49.18a1,1,0,0,1-.49-.18c0,.14,0,0,0-.15A0,0,0,0,1,45.1,132.9Z"/><path class="cls-2" d="M45,132l.53-.54-.5.39a2.92,2.92,0,0,0-.45.56c-.48.56-.6.91-.54,1.16,0,0,0,.05,0,0A3.66,3.66,0,0,1,45,132Z"/><path class="cls-2" d="M44,134.09c.08,0,.15,0,.18,0s.07-.15.05-.19a.6.6,0,0,1-.17-.11C44,133.94,44,134,44,134.09Z"/><path class="cls-2" d="M44.05,133.61v.05a.17.17,0,0,0,0,.18l.21-.35A.88.88,0,0,1,44.05,133.61Z"/></g><g class="cls-1"><path class="cls-2" d="M45.23,124.58c-.12.17-.11.25,0,.27s-.4.51-.52.73a.49.49,0,0,0-.1.27c-.28.31-.45.58-.4.71s-.15.16.3-.12c-.24.3-.5.62-.23.6.07,0-.27.3-.2.32s-.22.34-.12.39a1.79,1.79,0,0,1,.28-.11c-.37.37.34.06.65,0,.09,0,.2,0,.2,0a.74.74,0,0,1,.22-.11,2.62,2.62,0,0,1-.58.62c-.11.08-.36-.19-.56-.06s.13.2.09.25c-.61.12-1,.23-1.3.3a1.14,1.14,0,0,0-.38.13,3.3,3.3,0,0,0,.88-.16c0,.06.32-.08.38,0-.18.05-.87.37-.91.37-.35.09-.6.26-.63.15s-.68.11-.86.13c.36-.17,1.13-.53,1.09-.43.3-.35-1,.41-1,.24,0,0-.06,0-.14,0l.11-.13c0-.11-.41,0-.35-.18,0,0-.2.14-.22.17-.32.31.2.1.16.24s.29-.12.3-.1-.14.18-.23.28c-.32.1-.31,0-.42,0a3.77,3.77,0,0,0-.4.18.15.15,0,0,0,.05.11c.2,0,1.25-.39.76,0l.07,0,0,0s0,0-.11.14v-.07c-.75.3-.52,0-.88,0-.13,0,.2-.23.07-.19-.28.06-.26-.08,0-.34a24.19,24.19,0,0,1,2.61-2.88h0l-.14.1.13-.1s0-.12.26-.32,0,0,.21-.07l.05-.06.21-.12c-.05,0,.07-.06.15-.11a1.24,1.24,0,0,1,.13.27c.27-.18.21-.18.25-.22s-.15,0-.07-.07c-.09,0,.38-.44.49-.6l.28-.22C45,124.66,45.31,124.49,45.23,124.58Zm-3.71,3.75.42-.36,0-.06s0,0,0,0l.43-.45a4.53,4.53,0,0,0-.76.67c0-.19.88-.92,1.46-1.46a1.08,1.08,0,0,0,.16-.27s0-.05-.11-.06c-1,1.11-2.63,2.61-2.65,3.14C40.86,129.06,41.09,128.76,41.51,128.33Zm.3-.12a.16.16,0,0,0,0,.17c0,.18,0,.36.69.06a1.15,1.15,0,0,1-.69-.06c0,.16,0,0,0-.17C41.82,128.23,41.82,128.22,41.81,128.21Z"/><path class="cls-2" d="M41.92,127.17l.9-.77L42,127a7.3,7.3,0,0,0-.81.78c-.88.81-1.2,1.29-1.23,1.59,0,0,0,.08,0,0A9.89,9.89,0,0,1,41.92,127.17Z"/><path class="cls-2" d="M39.69,130c.11,0,.21,0,.22,0,.18-.16.19-.22.18-.27a.41.41,0,0,1-.18-.1C39.77,129.85,39.68,130,39.69,130Z"/><path class="cls-2" d="M40,129.4l0,.07c-.07.11-.07.18,0,.23l.47-.51A2.47,2.47,0,0,1,40,129.4Z"/></g><g class="cls-1"><path class="cls-2" d="M45.64,123.5c-.21-.1-.24-.11-.13-.06s-.7-.28-1-.33a1,1,0,0,0-.28,0,1.82,1.82,0,0,0-.89-.1c-.07,0-.27,0,.4.11-.45-.05-1,0-.65.05.06,0-.5,0-.44,0,.22.06-.48.07-.4.14l.4,0c-.68.07.36.14.77.14.11,0,.26,0,.23,0l.34,0-1.07.22c-.18,0-.32-.15-.65-.13s0,.15,0,.17a12.27,12.27,0,0,1-1.74-.22,2.08,2.08,0,0,0-.52-.08,3.2,3.2,0,0,0,1.13.27c-.05,0,.44,0,.48.1-.25,0-1.28,0-1.34,0-.47-.07-.88,0-.84-.19s-.85-.33-1.05-.47a7.75,7.75,0,0,1,1.52.29c.59-.15-1.38-.2-1.23-.41,0,0-.07,0-.17-.08l.22-.06c.05-.16-.41-.36-.2-.51,0,0-.32,0-.36,0-.6.08.1.31-.05.45s.4.1.4.13-.3.1-.47.16c-.42-.14-.31-.3-.39-.45a4.46,4.46,0,0,0-.56-.15.34.34,0,0,0,0,.21c.15.29,1.63.6.77.76l.1,0h-.07s0,.07-.23.11l.05-.09c-1.06-.23-.53-.53-.92-.83-.16-.08.4-.13.25-.21-.33-.22-.16-.41.3-.51a8.69,8.69,0,0,1,5,.09l0,0L42,122l.2.06s.11,0,.49.12,0,0,.24.14l.09,0,.28.13.22.09s0,.09-.07.12a2,2,0,0,0,.39.13c-.08,0-.15-.09,0,0a4.92,4.92,0,0,1,.86.31l.4.19C45.35,123.34,45.77,123.57,45.64,123.5Zm-6.4-1.31c.2,0,.47,0,.73,0h.1c.06,0,0,0,0,0,.26,0,.53,0,.8,0a4.85,4.85,0,0,0-1.31-.12,6.5,6.5,0,0,1,2.62.25l.36,0s0,0-.05-.09a13.13,13.13,0,0,0-3.1-.33,3.15,3.15,0,0,0-2.17.62A10.33,10.33,0,0,1,39.24,122.19Zm.4.14a.19.19,0,0,0-.12.19c-.17.16-.29.39.67.55-.33-.16-.64-.37-.67-.55-.15.15,0,0,.15-.16C39.63,122.35,39.63,122.34,39.64,122.33Z"/><path class="cls-2" d="M40.7,121.65c.51.12.94.23,1.45.39-.44-.17-.86-.31-1.21-.43a6.05,6.05,0,0,0-1.42-.24c-1.53-.21-2.34,0-2.68.44-.06,0-.12.05,0,.11A5.91,5.91,0,0,1,40.7,121.65Z"/><path class="cls-2" d="M35.9,122.57c.11.1.23.2.2.28.32-.06.4-.15.43-.23a.81.81,0,0,1-.08-.35C36.17,122.35,35.94,122.45,35.9,122.57Z"/><path class="cls-2" d="M36.82,121.92l-.11.05a.37.37,0,0,0-.26.29c.3-.08.65-.14.94-.21A2.23,2.23,0,0,1,36.82,121.92Z"/></g><g class="cls-1"><path class="cls-2" d="M49,120.81c-.25-.12-.32-.08-.27.08s-.78-.4-1.09-.51a.61.61,0,0,0-.35-.08c-.51-.3-.9-.47-1-.38s-.27-.16.33.37c-.48-.25-1-.55-.8-.2,0,.09-.51-.31-.48-.21s-.53-.24-.52-.11a4.51,4.51,0,0,1,.32.35c-.67-.45.17.46.45.88.07.12.18.27.12.27a2,2,0,0,1,.28.29,5.72,5.72,0,0,1-1.11-.7c-.17-.14,0-.52-.34-.77s-.13.2-.22.14c-.57-.81-1-1.35-1.24-1.69a2.78,2.78,0,0,0-.4-.48,7,7,0,0,0,.77,1.13c-.08,0,.32.42.29.5l-1.06-1.18c-.34-.45-.71-.76-.59-.81s-.56-.86-.68-1.08A9.42,9.42,0,0,1,42.64,118c.61.37-1.1-1.21-.88-1.2a.6.6,0,0,0-.12-.17l.22.13c.12-.05-.23-.51,0-.44,0,0-.29-.24-.33-.27-.58-.39,0,.24-.21.2s.32.36.31.37-.31-.17-.49-.28c-.31-.39-.16-.39-.18-.52s-.31-.33-.46-.49a.12.12,0,0,0-.11.06c0,.24,1.22,1.54.39.93l.08.09-.07-.05s-.05,0-.25-.14h.09c-.82-.94-.24-.63-.5-1.07-.12-.15.4.24.29.09-.23-.34,0-.31.42,0,1.37.75,2.88,1.63,4.9,3a.09.09,0,0,1,0,0l-.19-.16.19.14s.14,0,.51.28,0,0,.2.25l.1.06.26.24c-.05-.06.11.08.21.17-.08.06-.11.17-.21.21.36.31.32.24.39.28s-.11-.19,0-.1c0-.12.69.4.94.51l.4.31C48.81,120.51,49.19,120.9,49,120.81Zm-6.41-4.13.68.5.1.05c.05,0,.05,0,0,0l.78.49a10.23,10.23,0,0,0-1.24-.89,17.32,17.32,0,0,1,2.55,1.67,1.79,1.79,0,0,0,.39.16s0-.07,0-.14c-1.8-1.06-4.57-3-5.27-3C41.38,115.92,41.87,116.18,42.64,116.69Zm.33.36c-.11,0-.17,0-.19.06-.23,0-.43,0,.35.87-.21-.37-.4-.72-.35-.87-.2,0,0,.06.2,0C42.95,117.07,43,117.06,43,117.05Z"/><path class="cls-2" d="M44.25,117.1l1.4,1-1.14-.94a15.94,15.94,0,0,0-1.37-.92,7.64,7.64,0,0,0-2.64-1.44c-.05,0-.12-.06,0,0A23.78,23.78,0,0,1,44.25,117.1Z"/><path class="cls-2" d="M39.45,114.48c.07.13.15.25.1.26.3.22.4.24.45.23s0-.17,0-.22A1.59,1.59,0,0,0,39.45,114.48Z"/><path class="cls-2" d="M40.46,114.86l-.12-.06c-.18-.09-.27-.09-.31,0l.91.57A5.62,5.62,0,0,1,40.46,114.86Z"/></g><g class="cls-1"><path class="cls-2" d="M54.11,115c-.33.06-.42.19-.35.42s-1,0-1.42.07a.77.77,0,0,0-.46.12c-.65-.13-1.13-.2-1.27,0-.08,0-.32-.12.38.39-.6-.15-1.21-.4-1,0,0,.12-.59-.29-.57-.17.13.29-.57-.26-.56-.12s.4.42.35.39c-.73-.5.2.5.53.95.08.13.2.29.14.29a2.46,2.46,0,0,1,.31.32,6.78,6.78,0,0,1-1.2-.78c-.18-.16-.08-.55-.4-.84s-.12.2-.22.14c-2.63-3.53-2-2.38-1-1.14-.08,0,.36.45.34.54l-1.19-1.3c-.38-.49-.79-.83-.66-.88s-.63-.92-.77-1.16a11.29,11.29,0,0,1,1.32,1.48c.66.41-1.22-1.32-1-1.29a.7.7,0,0,0-.14-.18l.24.15c.1,0-.34-.46-.11-.34l-.37-.28c-.61-.45.08.17-.1.08s.37.37.35.39-.34-.19-.53-.32c-.35-.42-.18-.42-.25-.5l-.54-.49s-.06,0-.05,0c.09.2,1.36,1.65.46,1l.09.1-.07-.06s-.05,0-.27-.16h.09c-.92-1-.26-.69-.58-1.11-.15-.14.39.32.24.18-.32-.3-.17-.18.29.15a18.28,18.28,0,0,0,5.61,2.53.11.11,0,0,1,0,0l-.24-.1.24.08c0-.06.15-.06.63.08.29.1,0,0,.28.2l.12,0,.35.16c-.07,0,.14,0,.28.09a1.7,1.7,0,0,1-.22.45c.47.22.42.14.5.15-.07-.1-.15-.2,0-.17,0-.17.89.07,1.2,0l.54.12C53.78,114.67,54.3,115,54.11,115Zm-7.88-2.49L47,113l.11.05c.06,0,.06,0,0,0,.29.15.6.3.9.43-.67-.37-1.24-.72-1.45-.8.2,0,1.84.93,3,1.35a1.41,1.41,0,0,0,.47,0c.05,0,0-.1,0-.18a15,15,0,0,1-3.62-1.4c-1.13-.59-2-1.21-2.28-1.38A18.66,18.66,0,0,0,46.22,112.47Zm.4.35c-.11,0-.16,0-.17,0-.22,0-.38-.05.47.86a3.29,3.29,0,0,1-.47-.86c-.19,0,0,.06.19,0C46.61,112.83,46.62,112.82,46.62,112.82Z"/><path class="cls-2" d="M47.91,112.81c.6.25,1.12.44,1.75.67l-1.47-.64c-1-.41-1.06-.4-1.65-.67a22.87,22.87,0,0,1-2.81-1.54c-.05,0-.12-.09,0,0A19.34,19.34,0,0,0,47.91,112.81Z"/><path class="cls-2" d="M42.91,110l.09.08c0,.05,0,.09,0,.09.34.24.43.28.45.31l-.08-.1Z"/><path class="cls-2" d="M43.72,110.63l-.11-.08-.24-.17c.29.23.64.51.93.71Z"/></g><g class="cls-1"><path class="cls-2" d="M52.06,102.91c-.18.23-.06.4.16.39s-.41.95-.53,1.33a.74.74,0,0,0-.07.47c-.39.56-.65,1-.54,1.19-.06.07-.24.26.53-.21-.37.51-.87,1-.37,1,.13,0-.51.45-.39.48.34,0-.46.5-.32.57a3.55,3.55,0,0,1,.53-.13c-.79.49.6.15,1.22.19.17,0,.39,0,.37.12a1.39,1.39,0,0,1,.46-.08,3.51,3.51,0,0,1-1.34.76c-.24.06-.59-.45-1-.3-.24.08.14.32,0,.38a11.83,11.83,0,0,0-2.44.17,3.5,3.5,0,0,0-.7.16s.73-.09,1.56-.17c-.07.06.61,0,.68,0-.35,0-1.75.29-1.82.3-.64.09-1.17.27-1.13.18a6,6,0,0,0-1.38.32,11,11,0,0,1,2-.63c.71-.4-1.79.56-1.61.44l-.22.07.26-.14c0-.09-.56.16-.35,0l-.42.24c-.69.39.17,0,0,.1s.51-.2.51-.2a4,4,0,0,1-.57.29,1.64,1.64,0,0,1-.52.16l-.68.32,0,0c.18-.11,2.06-.78,1-.34l.13,0-.09,0-.3.12.07,0c-.66.22-.87.31-.83.29l-.09,0h0l.1-.05-.19.1.49-.28a18.79,18.79,0,0,0,4.72-4.3h0l-.2.19.18-.19c-.05,0,0-.16.35-.55.22-.23,0,0,.31-.19l.07-.1.3-.26c-.07.05.1-.12.2-.22.1.12.25.2.31.36.4-.35.3-.33.35-.41-.13,0-.25.06-.14-.09-.16,0,.43-.81.59-1l.38-.41C51.7,103.15,52.17,102.76,52.06,102.91Zm-5.69,6.33.79-.54.1-.09c.06,0,0,0,0,0,.26-.22.53-.45.78-.68-.63.49-1.19.9-1.36,1.06.09-.18,1.64-1.38,2.52-2.32a1.5,1.5,0,0,0,.22-.42c0-.06-.08-.06-.18,0a17.74,17.74,0,0,1-5.1,4.45A16.2,16.2,0,0,0,46.37,109.24Zm.49-.25c-.07.09-.09.14,0,.16-.12.19-.22.32,1-.12a3.65,3.65,0,0,1-1,.12c-.11.16.07,0,.09-.17C46.87,109,46.86,109,46.86,109Z"/><path class="cls-2" d="M47.39,107.79c.48-.46.88-.88,1.35-1.38l-1.21,1.13c-.78.74-.81.84-1.31,1.3a18.22,18.22,0,0,1-2.63,2.05c-.07,0-.07,0,0,0A18.22,18.22,0,0,0,47.39,107.79Z"/><path class="cls-2" d="M43.72,110.82l.05,0-.05,0-.08,0Z"/><path class="cls-2" d="M43.58,110.88h0l.08,0h0l.11-.06.53-.3Z"/></g><g class="cls-1"><path class="cls-2" d="M48.17,98.72c-.15.25-.12.32.06.26s-.52.78-.67,1.09a.61.61,0,0,0-.12.36c-.39.52-.63.92-.54,1s-.21.27.45-.34c-.34.49-.74,1-.32.82.11,0-.41.53-.3.5.29-.14-.34.55-.2.54s.48-.38.44-.33c-.6.71.54-.18,1-.49.15-.07.33-.19.33-.13a2.79,2.79,0,0,1,.37-.3,7.37,7.37,0,0,1-.95,1.17c-.18.18-.59.06-.92.37s.2.14.12.23c-4,2.46-2.69,1.86-1.29.93,0,.08.51-.34.6-.31l-1.48,1.13c-.55.36-1,.75-1,.62s-1,.57-1.27.7a12.45,12.45,0,0,1,1.67-1.25c.51-.65-1.5,1.16-1.43.9a.75.75,0,0,0-.2.12l.18-.23c0-.13-.57.22-.45,0,0,0-.3.3-.34.35-.52.61.24,0,.16.24s.44-.33.45-.32-.24.33-.39.52c-.47.32-.43.15-.57.16s-.41.32-.59.47c0,.06,0,.11,0,.13.24,0,1.85-1.25,1-.37l.11-.08-.07.07s0,.06-.2.27l0-.1c-1.15.85-.7.23-1.2.47-.18.12.34-.43.16-.31-.4.23-.32,0,.06-.47,1.06-1.46,2.25-3,4-5.09h0l-.19.19.18-.19s0-.14.36-.52,0,0,.29-.2l.08-.1.29-.26c-.07.05.1-.11.21-.21.06.08.18.11.21.22.39-.37.3-.33.35-.39-.11.05-.22.11-.11,0-.14,0,.51-.7.65-.94l.38-.4C47.81,99,48.28,98.58,48.17,98.72Zm-5.32,6.55.65-.7.07-.11c0-.06,0-.06,0,0l.65-.81A13.13,13.13,0,0,0,43,104.91a22.19,22.19,0,0,1,2.17-2.63,2,2,0,0,0,.22-.4s-.07,0-.15,0c-1.37,1.83-3.91,4.71-4.12,5.5Zm.44-.33c0,.11,0,.18,0,.2,0,.25,0,.47,1-.34-.43.21-.84.4-1,.34,0,.22.07,0,0-.22C43.3,105,43.3,105,43.29,104.94Z"/><path class="cls-2" d="M43.56,103.57l1.28-1.42-1.16,1.16c-.74.77-.74.89-1.19,1.41a10.27,10.27,0,0,0-2,2.78c0,.06-.09.13,0,0A32.42,32.42,0,0,1,43.56,103.57Z"/><path class="cls-2" d="M39.91,108.64c.14-.07.29-.14.28-.08.3-.32.34-.43.34-.49s-.17,0-.21-.05A2.28,2.28,0,0,0,39.91,108.64Z"/><path class="cls-2" d="M40.54,107.54l-.08.13c-.13.2-.16.3-.12.35l.78-1A7.17,7.17,0,0,1,40.54,107.54Z"/></g><g class="cls-1"><path class="cls-2" d="M46.53,97.75c-.26,0-.28,0-.12,0s-.86.14-1.16.23a1.14,1.14,0,0,0-.3.11c-.58.16-1,.33-1,.4s-.3.12.51-.13c-.51.2-1.07.48-.65.39.09,0-.55.28-.46.27.29-.07-.49.32-.37.33l.48-.19c-.73.43.5-.09,1-.32.14-.06.32-.14.29-.11l.38-.21-1.13.78c-.2.13-.48.07-.85.27-.21.12.13.1,0,.16a20.52,20.52,0,0,1-2.15.8,3.74,3.74,0,0,0-.67.23,5.59,5.59,0,0,0,1.47-.41c0,.07.53-.21.61-.18-.29.14-1.49.73-1.59.75-.61.21-1.08.48-1.1.33s-1.15.19-1.45.18a13.36,13.36,0,0,1,1.94-.61c.63-.47-1.74.62-1.64.34a.57.57,0,0,0-.24,0l.23-.17c0-.17-.65-.09-.47-.34,0,0-.38.16-.43.19-.66.41.27.21.14.42s.52-.14.53-.11-.3.26-.49.41c-.56.11-.49-.1-.65-.18a7.25,7.25,0,0,0-.71.18.31.31,0,0,0,0,.22c.29.18,2.17-.39,1.2.25l.13,0-.08.05s0,.08-.23.24l0-.12c-1.35.39-.83-.19-1.41-.24-.22,0,.42-.35.2-.33-.48,0-.37-.27.13-.62a14,14,0,0,1,5.58-2.66h0l-.25,0,.24-.05s.1-.09.57-.16c.3,0,0,0,.33,0l.11,0,.37,0,.28,0s.06.08,0,.13a2.73,2.73,0,0,0,.49-.1c-.11,0-.22,0-.05,0a4.44,4.44,0,0,1,1-.16l.52,0A5.86,5.86,0,0,0,46.53,97.75ZM39,100.06c.23-.11.54-.24.84-.36l.11-.07c.06,0,0,0,0,0,.29-.15.6-.29.9-.42a7.72,7.72,0,0,0-1.53.62,10.16,10.16,0,0,1,3-1.22,3.33,3.33,0,0,0,.38-.18s0,0-.12,0A21.07,21.07,0,0,0,39,99.75a4.87,4.87,0,0,0-2.21,1.75A17.32,17.32,0,0,1,39,100.06Zm.52-.1c-.08.1-.08.17,0,.23-.11.23-.14.5,1.05.1-.47,0-.93,0-1.05-.1-.1.22.07,0,.09-.22C39.49,100,39.48,100,39.48,100Z"/><path class="cls-2" d="M40.27,98.8c.61-.17,1.13-.31,1.76-.45-.57.1-1.09.2-1.53.29a9.26,9.26,0,0,0-1.67.57c-1.78.65-2.59,1.33-2.82,1.86-.06,0-.12.11,0,.1A9.56,9.56,0,0,1,40.27,98.8Z"/><path class="cls-2" d="M35.25,102.28c.17,0,.34.05.34.14.36-.24.41-.36.42-.45a.7.7,0,0,1-.24-.27C35.47,101.93,35.26,102.14,35.25,102.28Z"/><path class="cls-2" d="M36,101.18l-.11.11c-.17.17-.22.3-.18.41.3-.24.7-.5,1-.71A3.61,3.61,0,0,1,36,101.18Z"/></g><g class="cls-1"><path class="cls-2" d="M47.29,96.67c-.28,0-.38.07-.36.28s-.86-.18-1.2-.21a.58.58,0,0,0-.4,0,4.34,4.34,0,0,0-.68-.25,1,1,0,0,0-.24,0s-.07,0-.09,0-.23-.19.33.37c-.39-.32-.87-.66-.61-.33,0,.08-.47-.34-.43-.26s-.49-.27-.45-.16.42.35.37.32c-.69-.43.29.39.71.71.11.09.26.21.22.2l.35.23-1.18-.62c-.2-.11-.26-.38-.6-.6s0,.15-.14.11A18.07,18.07,0,0,1,41.29,95a3.11,3.11,0,0,0-.47-.45,4.6,4.6,0,0,0,1,1.05c-.08,0,.41.36.42.44-.25-.19-1.28-.95-1.33-1-.42-.41-.85-.68-.71-.77s-.62-.87-.72-1.12c.44.44,1.46,1.36,1.3,1.33.67.32-1.23-1.16-.93-1.21,0,0,0-.09-.12-.18l.25.11c.15-.08-.17-.57.12-.53,0,0-.29-.24-.34-.27-.63-.37-.09.3-.33.29s.32.37.3.39-.35-.14-.56-.22c-.31-.41-.11-.45-.09-.61a6.11,6.11,0,0,0-.44-.51.31.31,0,0,0-.18.12c0,.32,1.18,1.62.24,1.1l.09.09-.07,0s-.06,0-.3-.08l.11,0c-.89-1-.14-.77-.33-1.27-.1-.17.47.2.37,0-.17-.39.1-.41.6-.15a12.34,12.34,0,0,1,1.15.58l1,.79a23.8,23.8,0,0,0,2.61,1.65.11.11,0,0,1,0,0l-.19-.14.19.12c0-.05.15,0,.53.2s0,0,.2.24l.1,0,.26.21c-.05-.06.11.07.22.14-.1.11-.15.26-.28.35.36.29.33.2.4.23s-.09-.21.06-.15c0-.16.74.25,1,.27l.42.22C47.06,96.35,47.45,96.71,47.29,96.67ZM40.86,93c.19.14.43.34.66.53l.1.06c.05,0,.06,0,0,0l.73.54a8.91,8.91,0,0,0-1.15-1c.23,0,1.47,1.14,2.42,1.73A1.21,1.21,0,0,0,44,95c.05,0,0-.09,0-.17a14.94,14.94,0,0,1-2.92-1.9,4.54,4.54,0,0,0-2.42-1.08A16.86,16.86,0,0,1,40.86,93Zm.29.39c-.12,0-.19,0-.22.07-.25,0-.51.09.31.91-.23-.37-.4-.75-.31-.91-.23,0,0,.07.23,0C41.14,93.43,41.14,93.42,41.15,93.41Z"/><path class="cls-2" d="M42.42,93.52c.47.34.89.61,1.38.93l-1.14-.86c-.75-.55-.85-.55-1.32-.9-1.4-1-1.88-1.75-2.55-1.62-.06,0-.15-.05-.08.07a3.92,3.92,0,0,1,1.62.85C40.85,92.4,41.5,92.89,42.42,93.52Z"/><path class="cls-2" d="M37.42,90.92c0,.15.09.3,0,.34.35.19.49.18.57.15a.59.59,0,0,1,.15-.3A1.26,1.26,0,0,0,37.42,90.92Z"/><path class="cls-2" d="M38.72,91.13l-.14,0c-.22-.07-.35,0-.43,0,.34.15.72.36,1,.52A3.15,3.15,0,0,1,38.72,91.13Z"/></g><g class="cls-1"><path class="cls-2" d="M47.3,85.7c-.09.23,0,.35.16.41s-.38.65-.5.94a.58.58,0,0,0-.09.37c-.35.36-.59.65-.52.86-.05,0-.22.16.43,0-.34.33-.79.62-.41.75.09.07-.45.25-.36.32.26.09-.42.31-.32.41a2.46,2.46,0,0,1,.43,0c-.68.23.44.29.91.47.13.07.3.12.27.2a1,1,0,0,1,.37,0,2.46,2.46,0,0,1-1.15.35c-.2,0-.38-.53-.74-.51-.2,0,.06.32,0,.35a9.81,9.81,0,0,0-1.89-.46,2.07,2.07,0,0,0-.55,0s.54.13,1.19.27c-.06,0,.47.11.51.21-.28-.07-1.39-.17-1.44-.19-.49-.09-.92-.05-.87-.14s-.87-.12-1.08-.13a6.58,6.58,0,0,1,1.58,0c.6-.18-1.43,0-1.28-.07h-.18l.22-.06c0-.08-.46,0-.26-.14l-.36.1c-.59.17.14.06,0,.14s.41,0,.41,0a2,2,0,0,1-.47.13c-.43,0-.33,0-.42,0l-.57.09s0,0,0,0,1.68-.09.78,0h0s0,0-.24,0l.06,0a6.7,6.7,0,0,1-.93,0c-.16,0,.4-.09.24-.07-.34,0-.16,0,.27-.14a12.91,12.91,0,0,0,4.11-2.46l0,0-.17.1.15-.11s0-.14.31-.36,0,0,.26-.07l.06-.07L45.4,87c-.06,0,.09-.07.17-.12a1.75,1.75,0,0,1,.23.38c.34-.18.26-.19.3-.24s-.2,0-.11-.11c-.13-.07.4-.52.49-.73l.3-.26C47,85.76,47.37,85.59,47.3,85.7Zm-4.93,3.83.67-.26.09-.05s0,0,0,0c.23-.12.46-.25.68-.38-.54.25-1,.45-1.17.55.1-.15,1.42-.76,2.19-1.32a1,1,0,0,0,.21-.3c0-.05-.06-.07-.14-.08a10.41,10.41,0,0,1-2.46,1.69,17.87,17.87,0,0,1-2,.84A12.12,12.12,0,0,0,42.36,89.54Zm.41-.07c-.07.06-.09.11-.06.15-.13.15-.22.26.77.2-.36-.07-.71-.11-.77-.2-.12.13.05,0,.1-.14C42.77,89.48,42.77,89.47,42.77,89.46Z"/><path class="cls-2" d="M43.32,88.5c.42-.26.76-.5,1.16-.79l-1,.6c-.67.4-.7.49-1.14.75A19.36,19.36,0,0,1,40,90.21c-.05,0-.12,0,0,0A13.86,13.86,0,0,0,43.32,88.5Z"/><path class="cls-2" d="M39.1,90.45l.2,0a2.92,2.92,0,0,0,.44-.08h-.09Z"/><path class="cls-2" d="M40,90.22l-.11,0-.26.08c.3-.07.65-.16.92-.25Z"/></g><g class="cls-1"><path class="cls-2" d="M39.5,81.56a.19.19,0,0,0,.3.09c.19-.06.18.51.29.7a.4.4,0,0,0,.18.22c0,.37.12.64.29.69,0,.05,0,.2.18-.28.05.35,0,.76.31.57.09,0,0,.4.06.37s0,.41.16.39.21-.31.2-.27c-.13.55.4-.16.72-.41.1-.06.21-.15.25-.11a.81.81,0,0,1,.18-.23,1.93,1.93,0,0,1-.22.92c-.08.14-.55,0-.68.29s.27.1.25.18a11,11,0,0,0-1.16,1.05c-.21.22-.28.33-.28.34a5.25,5.25,0,0,0,.74-.66c0,.06.28-.27.38-.25-.17.16-.71.86-.75.89-.29.29-.44.6-.51.5s-.51.48-.63.6c.21-.35.72-1.13.72-1,.11-.5-.65.93-.68.76,0,0,0,0-.09.11l0-.18c-.07-.09-.29.21-.3,0,0,0-.09.23-.09.27-.12.47.15,0,.17.14s.17-.27.18-.26-.05.25-.09.39c-.2.27-.21.15-.29.17s-.15.26-.21.38,0,.07,0,.08.77-1,.5-.36l0-.07,0,.05s0,0-.06.2V87.8c-.48.69-.34.23-.55.45s.09-.33,0-.23-.15,0-.08-.32a21.56,21.56,0,0,0,.2-3.71h0l0,.14V84c-.05,0-.08-.08-.07-.35s0,0,.1-.17v-.07l.05-.2s0-.08,0-.16a1.74,1.74,0,0,1,.36,0c.06-.28,0-.24,0-.28s-.11.11-.13,0-.11-.47-.17-.61l0-.28C39.38,81.78,39.49,81.47,39.5,81.56Zm0,4.69.13-.54v-.08s0,0,0,0l.05-.6a5.9,5.9,0,0,0-.17,1,14.25,14.25,0,0,1,.15-1.94.69.69,0,0,0-.09-.26s-.08,0-.13,0a11.16,11.16,0,0,1-.05,2.28,15.88,15.88,0,0,0-.17,1.74A15.31,15.31,0,0,0,39.51,86.26Zm.16-.27c0,.08.06.12.11.13.08.17.15.31.57-.34-.23.19-.44.36-.57.34.07.15,0,0-.08-.14C39.68,86,39.67,86,39.67,86Z"/><path class="cls-2" d="M39.14,85.11c0-.37.06-.68.09-1l-.16.87c-.08.58,0,.65-.06,1a10.89,10.89,0,0,0-.14,2s0,.1,0,0C39,87.26,39,86.53,39.14,85.11Z"/><path class="cls-2" d="M38.79,88.83c.06-.06.11-.13.12-.09.1-.25.1-.33.09-.37s-.08,0-.11,0A2.3,2.3,0,0,0,38.79,88.83Z"/><path class="cls-2" d="M38.89,88v.09c0,.15,0,.22,0,.24.06-.23.14-.51.18-.73A3.71,3.71,0,0,1,38.89,88Z"/></g><g class="cls-1"><path class="cls-2" d="M33.56,81.87a.18.18,0,0,0,.24,0c.13,0,.18.24.28.33a.29.29,0,0,0,.16.09c.08.19.18.33.32.35s0,.11.1-.17c.09.19.17.42.34.28s.06.23.12.21.13.24.22.21.09-.21.09-.19c0,.34.27-.16.44-.38.06-.06.11-.14.15-.12a.49.49,0,0,1,.07-.18,1.11,1.11,0,0,1,.1.59c0,.1-.4.15-.43.32s.24,0,.25.06a6,6,0,0,0-.77,1.07,1.7,1.7,0,0,0,.45-.5s.15-.21.23-.22c-.08.13-.3.65-.33.68-.16.22-.19.43-.3.37s-.35.33-.45.39c.1-.23.32-.75.37-.68-.06-.33-.31.63-.42.5s0,0-.06.07l0-.12c-.11-.06-.25.12-.34,0s0,.15,0,.17c0,.31.19,0,.27.13s.09-.17.11-.16,0,.17.06.27-.2.08-.29.08a1.28,1.28,0,0,0-.11.23.29.29,0,0,0,.11.07c.14,0,.49-.64.48-.17l0,0v0s0,0,0,.15l0-.05c-.25.46-.34.11-.53.22s0-.23-.09-.17-.21,0-.26-.26c-.2-.73-.41-1.45-.59-2.22h0v0s-.08,0-.1-.18,0,0,.07-.09v0l0-.1s0,0,0-.08a2.79,2.79,0,0,1,.31,0c0-.15,0-.12,0-.15s-.08.06-.1,0-.12-.23-.19-.3v-.14C33.46,82,33.53,81.83,33.56,81.87Zm.68,2.57v-.33l0,0s0,0,0,0l-.08-.36a1.68,1.68,0,0,0,0,.58c-.15-.11-.15-.75-.23-1.13a.43.43,0,0,0-.12-.14.14.14,0,0,0-.11,0,18.16,18.16,0,0,0,.74,2.45C34.37,85.08,34.29,84.82,34.23,84.44Zm.09-.16a.26.26,0,0,0,.15.09c.13.11.27.22.47-.21a.71.71,0,0,1-.47.21c.11.1,0,0-.12-.1C34.34,84.29,34.34,84.29,34.32,84.28Z"/><path class="cls-2" d="M33.61,83.72l-.06-.57c0,.17,0,.33,0,.47A7.76,7.76,0,0,0,34,85.51s0,.07.05,0A8.39,8.39,0,0,1,33.61,83.72Z"/><path class="cls-2" d="M34.35,86.13c.05,0,.11-.06.14,0,0-.17,0-.23-.07-.27a.41.41,0,0,1-.17,0A.75.75,0,0,0,34.35,86.13Z"/><path class="cls-2" d="M34.09,85.53l0,.07a.33.33,0,0,0,.13.19l-.08-.49A.76.76,0,0,1,34.09,85.53Z"/></g><g class="cls-1"><path class="cls-2" d="M28.93,82.65l.12,0a.67.67,0,0,1,.18,0h.09a1,1,0,0,0,.2,0s0,0,0,0a.31.31,0,0,0,.2,0s.05,0,.08,0,.09,0,.13,0l0,0c.05.07.13,0,.2-.1s0,0,.07,0a.07.07,0,0,1,0,0s.1.07.1.12-.2,0-.2.09.13,0,.13,0c-.27.2-.32.22-.31.24a.45.45,0,0,0,.19-.1s.06,0,.1-.05-.11.15-.12.15-.06.09-.12.07-.14.05-.18.06.1-.14.13-.12-.1.12-.17.08h0l0,0c-.06,0-.11,0-.16,0a.12.12,0,0,0,0,0c0,.06.09,0,.14.05s0,0,0,0,0,0,.05.06-.09,0-.13,0l0,0,.06,0c.07,0,.18-.09.21,0h0s0,0,0,0l0,0c-.09.08-.15,0-.23,0s0-.05-.05,0a.19.19,0,0,1-.14-.09,1,1,0,0,0-.51-.33H29l.15,0h-.08l-.13,0h0Zm.61.19,0-.05h0l-.07-.05a.29.29,0,0,0,.08.08c-.08,0-.15-.12-.23-.15h-.13c.22,0,.41.25.6.4A1.42,1.42,0,0,0,29.54,82.84Zm0,0,.08,0c.07,0,.15.06.21,0a.46.46,0,0,1-.21,0l-.07,0Z"/><path class="cls-2" d="M29.17,82.7l-.09,0,0,0,.12.06c.11.08.21.18.32.26h0A1.89,1.89,0,0,0,29.17,82.7Z"/><path class="cls-2" d="M29.74,83.18l.06,0a.13.13,0,0,0-.05-.07l-.08,0A.38.38,0,0,0,29.74,83.18Z"/><path class="cls-2" d="M29.57,83l0,0,.08.06L29.59,83S29.58,83,29.57,83Z"/></g><g class="cls-1"><path class="cls-3" d="M38.66,148c-.08-1.8-.19-7.9-.15-10.56,0-1,0-1.8,0-2.39s0,.65,0,2.39v2.78c0-1.35.11-2.64.18-3.57l0-2.07c.06-3.08.09-6.06.23-9.11.06-1.1.11-3.52.23-4.59q-.21,6.71-.35,13.43l0-.36q.11-3.53.29-7.06c0-.4,0-.8.06-1.22l-.06,1.22,0,3.2L39,132.3c0,.57-.09,1.1-.13,1.65l0,1.05v.33h0c.1-.44.29-2.87.52-5.38s.47-5.1.48-5.83c0-1.17-.26-2.24-.26-3.55a6.32,6.32,0,0,0,0-1.14c-.05,0-.09-.2-.13-.37a13.21,13.21,0,0,0,.08-2.41c-.08-.47,1-1.78.83-1.88-.7-.37-.19-.1-.07-1.21,0-.13-.26-.57-.22-.84.23-.9,0-1.17-.07-2.21-.21-1.54.34-1.88-.16-3.25,0-.17-.37-2.31-.37-2.31.13-1.67-.36-2.71.38-4-.6-1.51.2-3.51.13-5.12s.5-2.28,1.07-3.68c.1-.4.06-.7.23-.94s-.27-.8-.17-1.2l.33.1.14-.54c0-.13.15-.1.26-.07s.45.13.63-.1a13.22,13.22,0,0,0,.58-1.72A17.14,17.14,0,0,0,42.61,86a1.43,1.43,0,0,1-.46-.15l-.25-.5c-.36-.1-.76-.07-1-.13-1,0-2-.7-3-.53-.28.07-.35,1-.83,1.47-.15.1-.48-.13-.85-.23,0,.57-.36.6-.71.37l0,.27L35,86.37c-.37,1.44-1.07,3-.54,4.45A6.42,6.42,0,0,0,35,92c.09.17-.07.54-.09.67a2.67,2.67,0,0,0,1,.3c-.28,1-.66,3.28.42,3.21,0,.84.49,1,.57,1.87.12,1.15.23,2.62.31,4.06.09.79.09,1.55.12,2.31l0,.83c.13,2.86.06,5.35.09,7.82a74.94,74.94,0,0,0,.43,7.71c.58,5.63.46,11.54.51,16.4s.16,8.65.24,10Z"/></g><g class="cls-1"><path class="cls-3" d="M11.83,88.06a1.7,1.7,0,0,1-.31-.15,1.23,1.23,0,0,1-.19-.21c-.12-.15-.15-.31,0-.41a.31.31,0,0,1,.16-.17c.08,0,0,0-.16.17a.37.37,0,0,0,0,.2,3,3,0,0,1,.71-.26,1,1,0,0,1,.1-.15,2.2,2.2,0,0,1,.56-.66c.13-.08.19-.26.44-.33a8.59,8.59,0,0,1-.6,1l.07,0c.2-.17.44-.34.66-.51a.24.24,0,0,1,.12-.09l-.12.09c0,.08,0,.15,0,.23s-.25.11-.3.16a2.13,2.13,0,0,1-.37.12l-.09.08,0,0h0a6.8,6.8,0,0,0,2.33-.82c-.07-.09-.82-.16-.89-.26s.19-.06,0-.08l-.3,0c-.06-.06.41-.13,0-.18-.15,0,1.85-.13,1.47-.14-1.36,0-.37,0-.26-.09s-.53,0-.47-.06c.32-.07-.14-.09-.32-.16-.45-.11.35-.14-.5-.24-.1,0-.66-.17-.66-.17s-.52-.2.19-.29c-.71-.11,0-.26-.28-.37s.19-.17.25-.27-.1-.05-.06-.07-.26-.06-.29-.09h.14l-.06,0s0,0,.08,0,.19,0,.19,0a1.59,1.59,0,0,0-.3-.13l-.58-.12h-.09l-.15,0h-.07c-.07,0-.11-.05-.09,0a.41.41,0,0,1-.18.11s0,0-.05,0-.17,0-.16,0l-.07,0h0l-.71.16a3.57,3.57,0,0,0-.61.16c-.06,0-.07.06-.06.08a1.37,1.37,0,0,1-.23,0c.11,0,.33,0,.5,0-.3.08-1.08.24-.22.23-.14.06.25.07.24.14a.92.92,0,0,1-.08.3c0,.06,0,.11-.05.17l0,.06c-.07.42-1.15.73-.07,1.13s.84.84.82,1.2a.47.47,0,0,0,.24.46,1.78,1.78,0,0,0,.26.16,2.71,2.71,0,0,0,.3.11Z"/></g><g class="cls-1"><path class="cls-3" d="M62.68,83.44a1.69,1.69,0,0,1,.31.15,1.23,1.23,0,0,1,.19.21c.12.15.15.31,0,.41a.31.31,0,0,1-.16.17c-.08,0,0,0,.16-.17a.37.37,0,0,0,0-.2,3,3,0,0,1-.71.26,1,1,0,0,1-.1.15,2.2,2.2,0,0,1-.56.66c-.13.08-.19.26-.44.33a8.58,8.58,0,0,1,.6-1l-.07,0c-.2.17-.44.34-.66.51a.24.24,0,0,1-.12.09l.12-.09c0-.08,0-.15,0-.23s.25-.11.3-.16a2.13,2.13,0,0,1,.37-.12l.09-.08,0,0h0a6.8,6.8,0,0,0-2.33.82c.07.09.82.16.89.26s-.19.06,0,.08l.3,0c.06.06-.41.13,0,.18.15,0-1.85.13-1.47.14,1.36,0,.37,0,.26.09s.53,0,.47.06c-.32.07.14.09.32.16.45.11-.35.14.5.24.1,0,.66.17.66.17s.52.2-.19.29c.71.11,0,.26.28.37s-.19.17-.25.27.1.05.06.07.26.06.29.09H61.6l.06,0s0,0-.08,0-.19,0-.19,0a1.6,1.6,0,0,0,.3.13l.58.13h.09l.15,0h.07c.07,0,.11.05.09,0a.41.41,0,0,1,.18-.11s0,0,.05,0,.17,0,.16,0l.07,0h0l.71-.16a3.57,3.57,0,0,0,.61-.16c.06,0,.07-.06.06-.08a1.37,1.37,0,0,1,.23,0c-.11,0-.33,0-.5,0,.3-.08,1.08-.24.22-.23.14-.06-.25-.07-.24-.14a.92.92,0,0,1,.08-.3c0-.06,0-.11.05-.17l0-.06c.07-.42,1.15-.73.07-1.13s-.84-.84-.82-1.2a.47.47,0,0,0-.24-.46,1.78,1.78,0,0,0-.26-.16,2.7,2.7,0,0,0-.3-.11Z"/></g><g class="cls-1"><path class="cls-3" d="M25.31,100.07a1.06,1.06,0,0,1-.21-.15,1.21,1.21,0,0,1-.13-.21.39.39,0,0,1,0-.41.3.3,0,0,1,.11-.17c.05,0,0,0-.11.17a.53.53,0,0,0,0,.2,1.72,1.72,0,0,1,.49-.26,1.1,1.1,0,0,1,.07-.15,2.21,2.21,0,0,1,.39-.66c.09-.08.13-.26.3-.33a9.89,9.89,0,0,1-.41,1l.05,0c.14-.17.3-.34.45-.52a.19.19,0,0,1,.08-.09l-.08.09c0,.08,0,.15,0,.23s-.17.11-.2.16a1.18,1.18,0,0,1-.25.12l-.06.08,0,0h0c.41-.06,1.7-.71,1.6-.82s-.56-.16-.61-.26.13-.06,0-.08l-.21,0c0-.06.28-.13,0-.18s1.26-.13,1-.14c-.93,0-.25,0-.18-.09s-.36,0-.32-.06c.22-.07-.1-.09-.22-.16-.31-.11.24-.14-.34-.24-.07,0-.45-.17-.45-.17s-.35-.2.13-.29c-.49-.11,0-.26-.19-.37s.13-.17.17-.27-.07-.05,0-.07-.18-.06-.2-.09h.1l0,0s0,0,.05,0,.13,0,.13,0a.94.94,0,0,0-.21-.13l-.4-.12h-.06l-.1,0h-.05s-.07-.05-.06,0a.29.29,0,0,1-.12.11s0,0,0,0-.12,0-.11,0l-.05,0h0a9.55,9.55,0,0,0-.91.32A.08.08,0,0,0,24,96s-.13,0-.16,0a3.13,3.13,0,0,0,.34,0c-.21.08-.74.24-.15.23-.1.06.17.07.16.14a1.27,1.27,0,0,1-.05.3.27.27,0,0,1,0,.17v.06c0,.42-.79.73-.05,1.13a1,1,0,0,1,.56,1.2.55.55,0,0,0,.17.46,1,1,0,0,0,.39.27Z"/></g><g class="cls-1"><path class="cls-3" d="M49.2,95.45a1.06,1.06,0,0,1,.21.15,1.2,1.2,0,0,1,.13.21.39.39,0,0,1,0,.41.3.3,0,0,1-.11.17c-.05,0,0,0,.11-.17a.53.53,0,0,0,0-.2,1.71,1.71,0,0,1-.49.26,1.09,1.09,0,0,1-.07.15,2.21,2.21,0,0,1-.39.66c-.09.08-.13.26-.3.33a9.87,9.87,0,0,1,.41-1l-.05,0c-.14.17-.3.34-.45.51a.19.19,0,0,1-.08.09l.08-.09c0-.08,0-.15,0-.23s.17-.11.2-.16a1.18,1.18,0,0,1,.25-.12l.06-.08,0,0h0c-.41.06-1.7.71-1.6.82s.56.16.61.26-.13.06,0,.08l.21,0c0,.06-.28.13,0,.18s-1.26.13-1,.14c.93,0,.25,0,.18.09s.36,0,.32.06c-.22.07.1.09.22.16.31.11-.24.14.34.24.07,0,.45.17.45.17s.35.2-.13.29c.49.11,0,.26.19.37s-.13.17-.17.27.07.05,0,.07.18.06.2.09h-.1l0,0s0,0-.05,0-.13,0-.13,0a.94.94,0,0,0,.21.13l.4.13H49l.1,0h.05s.07.05.06,0a.29.29,0,0,1,.12-.11s0,0,0,0,.12,0,.11,0l.05,0h0a9.51,9.51,0,0,0,.91-.32.08.08,0,0,0,0-.08s.13,0,.16,0a3.12,3.12,0,0,0-.34,0c.21-.08.74-.24.15-.23.1-.06-.17-.07-.16-.14a1.27,1.27,0,0,1,.05-.3.27.27,0,0,1,0-.17v-.06c0-.42.79-.73.05-1.13a1,1,0,0,1-.56-1.2.55.55,0,0,0-.17-.46,1,1,0,0,0-.39-.27Z"/></g><g class="cls-1"><path class="cls-3" d="M48.77,82.94A44.43,44.43,0,0,0,43.3,84l-3.41.78a13,13,0,0,0-2.7.81,6.77,6.77,0,0,0-2.13,1.56,5.6,5.6,0,0,1,2.13-1.56,14.08,14.08,0,0,1,3-.89c-.76.14-1.49.27-2.15.45a6,6,0,0,1-1.84.5,7.8,7.8,0,0,0-1.93,1.57A5.38,5.38,0,0,0,33,89.86a5.53,5.53,0,0,0,.33,3A6.31,6.31,0,0,0,33.94,94l.66.84a3.52,3.52,0,0,1,.73,1.91,4.27,4.27,0,0,1-.33,2,3.24,3.24,0,0,1-1.41,1.5c-.07,0,0,0-.05,0s0,0,0,0a4.18,4.18,0,0,0,1.27-2.48A3.67,3.67,0,0,0,34,95.09,8.25,8.25,0,0,1,33.11,94a5.66,5.66,0,0,1-.47-1,7.3,7.3,0,0,1-.34-1.22,6.14,6.14,0,0,1,1.13-4.65l-.39.36a6.75,6.75,0,0,0-1,2.43,6.54,6.54,0,0,0,.1,2.79A8.24,8.24,0,0,0,32.58,94a4.63,4.63,0,0,0,.34.63,6.45,6.45,0,0,1,.69,1.11,1.42,1.42,0,0,1,.23.85,2.87,2.87,0,0,0-.23-.85,3.55,3.55,0,0,0-.86-.88,2.79,2.79,0,0,1-.46-.44l-.11-.12a.68.68,0,0,1-.13-.2c-.11-.21-.22-.43-.33-.65a7.2,7.2,0,0,1-.1-3.77A4.62,4.62,0,0,1,33,87.48a7.14,7.14,0,0,1,1-1.12,2.57,2.57,0,0,1,.26-.37h0a4.06,4.06,0,0,0-2.59,1.8,6.85,6.85,0,0,0-1.22,2.8,7.79,7.79,0,0,0,.19,3.74l.14.47.07.23v.07l0,.27.08.42a2.2,2.2,0,0,1,.06.69c0,.42-.15.7-.06.86a9.43,9.43,0,0,0,.71.86,1.92,1.92,0,0,1,.45,1.17c-.12,0-.07.12-.14.17-.15.24-.62.14-.49.51a.73.73,0,0,1,.21.62c-.59.8-1.91.93-1.9,2-.15.59-3.94-.87-3.5-.31.81,1,.92,1.16.7,1.14a3.69,3.69,0,0,0-.53-.05,1.27,1.27,0,0,0-.36.05,3.09,3.09,0,0,0-.62.5c-.26.22.05,1.61-.3,2.05a2.91,2.91,0,0,0-.94,2.19,18.17,18.17,0,0,0,.33,2.67c.5,1.66.68,2.57,1,3.47a3.22,3.22,0,0,0,.72,1.21,2.94,2.94,0,0,0,1.53.81c.26,0,2.68,1.11,2.68,1.11,1.2,1.48,2.81,1.61,2.77,3.65a2.6,2.6,0,0,1,.74.22l.08,0h0l1.07-1h0l0,0-.1.09a1.4,1.4,0,0,1-.45.25l-.35.19-.18.08h0s0,0,0,0a2,2,0,0,1,.16,1,12.33,12.33,0,0,0,0,2.74c.32,1.77-.45,2.49-.77,4a3.31,3.31,0,0,1,0,1c-.11.25.43.93.41,1.39l-.3-.14,0,.6c0,.15-.09.1-.18.06s-.39-.19-.44.07a10.22,10.22,0,0,0,.35,2c.34.69.65,1.37,1,2a.67.67,0,0,1,.19.19q.12.3.22.6c.1.13.17.1.23.18s.21.23.27.41.08.34.15.25.19-1.17.31-1.65c0-.11,0,.16.07.27.08-.64.14-.67.14-.41l0-.3,0,.16c.27-1.62.63-3.42.73-5,0-.34,0-.92,0-1.3,0-.19.07-.61.09-.76s-.1-.24-.15-.35c.16-1.17.38-3.74.14-3.67a19.64,19.64,0,0,0-.13-2.16,7.56,7.56,0,0,0-.42-2.28,4.72,4.72,0,0,0-.82-1l-.82-.91-1.77-1.94-.63-.7-1.58-1.76a5,5,0,0,1-1-1.78,4.28,4.28,0,0,1,.54-3.71,6.67,6.67,0,0,1,.6-.76l.72-.77,1.44-1.58c1-1.07,1.94-2.18,3-3.45l.12-.14a5.17,5.17,0,0,0,.36-6.81l-.19-.24-.1-.12-.17-.09c-.21-.12-.51-.21-.54-.4l-.26-.5c-.1-.17-.24-.33-.35-.49a4.41,4.41,0,0,1-.5-4.2A5.83,5.83,0,0,1,37,85.84a14.45,14.45,0,0,1,3.61-1.08L43.83,84l2.47-.57a14,14,0,0,1,1.6-.33Z"/></g><g class="cls-1"><path class="cls-3" d="M28.92,83.16a10.54,10.54,0,0,1,2.43-.06c1,.09,2.14.24,3.31.44s2.36.44,3.44.69a13.66,13.66,0,0,1,1.59.45,6.45,6.45,0,0,1,1.33.65,5.45,5.45,0,0,1,2.22,2.13c.25.62-.31-.83-2.22-2.13a11.64,11.64,0,0,0-3.23-1.07c.35.17.7.36,1,.55a11.62,11.62,0,0,1,1,.66,12.52,12.52,0,0,0,1.47,1.31A6.44,6.44,0,0,1,43,88.38a4.65,4.65,0,0,1,.39,4.83,6.3,6.3,0,0,1-.71,1.08l-.36.51-.09.13-.15.1-.31.2a5.3,5.3,0,0,0-1.31,2.27,4.79,4.79,0,0,0,0,2.59,6.1,6.1,0,0,0,1.29,2.26l.06.07-.06-.07a5.4,5.4,0,0,1-1.53-3.49,5.18,5.18,0,0,1,1.33-3.56c.86-.33.84-.94,1.3-1.45a4.74,4.74,0,0,0,.79-1.66,4.6,4.6,0,0,0-.61-3.51,2.76,2.76,0,0,1,.19.35,5,5,0,0,1,.51,1.85,4.59,4.59,0,0,1-.32,1.87,5.43,5.43,0,0,1-.44.85,3.78,3.78,0,0,0-.56.84l-.19.44a2.92,2.92,0,0,1-.59.29A2.77,2.77,0,0,0,41,96a5.58,5.58,0,0,0-.61,1.3A5.17,5.17,0,0,1,41,96a7,7,0,0,1,.54-.74c.16-.09.37-.16.55-.25l.14-.06s0-.06.05-.09l.08-.2c.09-.55.71-1,.89-1.59a4.43,4.43,0,0,0,.46-2.28A5.2,5.2,0,0,0,43.24,89a5.38,5.38,0,0,0-.64-1l-.24-.27h0a6.93,6.93,0,0,1,1,1.82A4.34,4.34,0,0,1,43,93.11a5.16,5.16,0,0,1-.63.88c-.11.15-.07.35-.1.52l0,.27v.13L42,95l-.46.1c-.15,0-.34.05-.36.14s-.23.28-.33.42a6.5,6.5,0,0,0-.51.86,5.08,5.08,0,0,0-.49,2.66,5.58,5.58,0,0,0,1.75,3.29l.34.36c.36.38.62.73.92,1a2.11,2.11,0,0,1,.34.27c.68.72,1.27,1.52,1.84,2,.38.37,1.08,1.75,1.21,1.78.47.1.18.06.92,1a3.88,3.88,0,0,1,.54.66c.17.43.28.7.37,1a3.42,3.42,0,0,1,.19,1.15,3.37,3.37,0,0,1-.41,1.67,11,11,0,0,1-.87,1.4l-1.66,2a43,43,0,0,1-3.12,3.34c-.12.16-.25.33-.38.52a2.17,2.17,0,0,0-.42,1.22,11.82,11.82,0,0,0-.07,1.37,20.22,20.22,0,0,0,.17,2.7c.25,1.83.26,2.59.44,4.19.07.45.14.79.16,1.06s.22.89.3,1.34l-.07-.1.1.6c0,.15,0,.12,0,.08s-.1-.14-.07.13q.16.95.36,1.93l.52,1.89a.53.53,0,0,1,.09.15l.16.55c.07.1.1.06.14.12s.39.73.45.52a9.22,9.22,0,0,1,.06-1.72c0-.13.15.12.24.22,0-.67.2-.74.27-.48l.07-.32.14.13c.25-.88.6-1.83.94-2.76a8,8,0,0,0,.64-2.62,4,4,0,0,0-.23-1.23c-.06-.18.21-.63.27-.79-.28-.21-.7-.11-1.05-.17a17.08,17.08,0,0,0,.74-2.32,2.54,2.54,0,0,0,0-.52c0-.13,0-.35-.11-.33a2.42,2.42,0,0,0-.82-.07c0-.35-.73-.52-.83-1.09a4.75,4.75,0,0,1-.1-.7,2.49,2.49,0,0,1,0-.4,1,1,0,0,1,0-.21.3.3,0,0,1,0-.1l0,0v0h0l-.38-.31.31.1.16.05c.05,0,.06,0,.09-.06l.33-.35.7-.73a18.19,18.19,0,0,1,1.83-1.89l.66-.68c.56-.59,1.12-1.14,1.68-1.67l.27-.27.31-.33c.2-.23.39-.48.57-.72a9.16,9.16,0,0,0,.93-1.66,8.4,8.4,0,0,0,.68-3.85,8.8,8.8,0,0,0-1.07-3.69,9.75,9.75,0,0,0-1-1.51c-.22-.28-.44-.55-.67-.82-.46-.54-.94-1.06-1.46-1.56a18.54,18.54,0,0,0-1.69-1.45l-.47-.34a3.17,3.17,0,0,0-.33-.17l-.73-.32-.08,0s0,0-.12,0a4.06,4.06,0,0,1-1.34-1.1,2.68,2.68,0,0,1-.52-1.62,2.92,2.92,0,0,1,.53-1.62c.32-.49.81-.85,1.14-1.37a1.67,1.67,0,0,0,.14-.21l.18-.36a4.92,4.92,0,0,0,.32-.74c.08-.26.17-.51.24-.77l.14-.8a7,7,0,0,0-.39-3.13,7.89,7.89,0,0,0-1.56-2.49,8.7,8.7,0,0,0-2.14-1.64,9.62,9.62,0,0,0-2.29-.9c-.69-.18-1.25-.29-1.86-.4-1.17-.24-2.26-.39-3.24-.49a16.63,16.63,0,0,0-4.36,0Z"/></g><g class="cls-1"><path class="cls-2" d="M8,23.52c3,.92,8.46-2.6,11.38-3.37a12.45,12.45,0,0,1,2.51-.86c.57-.11-.59.36-2.51.86-.78.34-1.67.76-2.72,1.27,1.79,0,3.53.1,4.84.24.62-.37,1.26-.74,1.92-1.09,2.88-1.59,5.49-3.38,8.5-4.73.28-.12.62-.3,1-.5s.83-.48,1.12-.61a4.35,4.35,0,0,1,1.73-.59l-1.11.68-.56.35-.72.46-3,1.92-6,3.84.42-.07,6.75-3.44a5.21,5.21,0,0,1,1.17-.59l-1.17.59c-.92.62-1.64,1.46-2.59,2.21-.64.38-1.57.55-2.21.94a5.78,5.78,0,0,1-1.94.3l-1,.51a1.32,1.32,0,0,1-.22.28l0,0C25.57,23.31,35,20.24,36,19c.57-.57.25-1,.27-1.59a2.5,2.5,0,0,1,.33-1.57c.19-.22.49.15.54-.39a2.54,2.54,0,0,1,0-.85c.22-.24.49-.17.71-.16s.4-.06.57-.68c0,0,0-.06.06,0a11.05,11.05,0,0,1,.37,2.72c.05,1.11,0,2,.07,1.58.57-3.23.2-.85.44-.34,0,.09.5-1,.57-.83.08,1,.51,0,1.15.09a.59.59,0,0,1,.58.08,4,4,0,0,1,.52.58c.32.37.68.64,1.82.31.26-.06,2.81.3,2.81.3,1.28,1.26,3,.71,2.94,3.2,2.36-.53,2.82,2.46,4.4,3.19s1.29,2.34,1.75,4.24c.23.41.57.49.53,1s1.12-.1,1.35.32l-.56.59.3.55c.07.14-.11.34-.3.53A2.27,2.27,0,0,0,56.48,33a7.71,7.71,0,0,0,.86,1.93,18.09,18.09,0,0,0,2.27,0,6.2,6.2,0,0,1,.74-.74l.78-.18c.56-.59,1-1.32,1.41-1.71,1.33-1.84,3.24-3.19,4.31-5,.3-.53-.42-1.3-.16-2.44.11-.33.74-.78,1.3-1.37-.49-.35,0-1.08.63-1.53l-.15-.27.74-.79c-.65-1.71-.89-4.28-2.69-4.34a5.29,5.29,0,0,0-1.65.21c-.26.06-.3-.55-.38-.69a13.12,13.12,0,0,0-1.67,1.76c-.42-1.3-1.52-3.83-3.16-1.46-.64-.63-1.57.35-2.4-.08a41.29,41.29,0,0,1-3.78-2.12,10.62,10.62,0,0,1-2.07-1.33l-.73-.49a26.62,26.62,0,0,1-2.55-1.93L45.32,8a71.34,71.34,0,0,0-6.8-5.36,34.76,34.76,0,0,0-5.06,4.8c-.74.88-1.46,1.68-2.17,2.43l-.53.55c-.19.19-.27.3-.42.45s-.53.56-.8.83a27.92,27.92,0,0,1-3.45,2.9,38.19,38.19,0,0,1-7.42,4.06c-4.87,2-9.2,2.92-10.58,3.52Z"/></g><g class="cls-1"><path class="cls-3" d="M8,20.87c3,.92,8.46-2.6,11.38-3.37a12.46,12.46,0,0,1,2.51-.86c.57-.11-.59.36-2.51.86-.78.34-1.67.76-2.72,1.27,1.79,0,3.53.1,4.84.24.62-.37,1.26-.74,1.92-1.09,2.88-1.59,5.49-3.38,8.5-4.73.28-.12.62-.3,1-.5s.83-.48,1.12-.61a4.35,4.35,0,0,1,1.73-.59l-1.11.68-.56.35-.72.46-3,1.92-6,3.84.42-.07,6.75-3.44a5.22,5.22,0,0,1,1.17-.59l-1.17.59c-.92.62-1.64,1.46-2.59,2.21-.64.38-1.57.55-2.21.94a5.79,5.79,0,0,1-1.94.3l-1,.51a1.32,1.32,0,0,1-.22.28l0,0C25.57,20.66,35,17.6,36,16.35c.57-.57.25-1,.27-1.59a2.5,2.5,0,0,1,.33-1.57c.19-.22.49.15.54-.39a2.54,2.54,0,0,1,0-.85c.22-.24.49-.17.71-.16s.4-.06.57-.68c0,0,0-.06.06,0a11.05,11.05,0,0,1,.37,2.72c.05,1.11,0,2,.07,1.58.57-3.23.2-.85.44-.34,0,.09.5-1,.57-.83.08,1,.51,0,1.15.09a.58.58,0,0,1,.58.08,4,4,0,0,1,.52.57c.32.37.68.64,1.82.31.26-.06,2.81.3,2.81.3,1.28,1.26,3,.71,2.94,3.2,2.36-.53,2.82,2.46,4.4,3.19s1.29,2.34,1.75,4.24c.23.41.57.49.53,1s1.12-.1,1.35.32l-.56.59.3.55c.07.14-.11.33-.3.53a2.27,2.27,0,0,0-.78,1.26,7.71,7.71,0,0,0,.86,1.93,18.11,18.11,0,0,0,2.27,0,6.2,6.2,0,0,1,.74-.74l.78-.18c.56-.59,1-1.32,1.41-1.71,1.33-1.84,3.24-3.19,4.31-5,.3-.53-.42-1.3-.16-2.44.11-.33.74-.78,1.3-1.37-.49-.35,0-1.08.63-1.53L68.47,19l.74-.79c-.65-1.71-.89-4.28-2.69-4.34a5.29,5.29,0,0,0-1.65.21c-.26.06-.3-.55-.38-.69a13.13,13.13,0,0,0-1.67,1.76c-.42-1.3-1.52-3.83-3.16-1.46-.64-.63-1.57.35-2.4-.08a41.26,41.26,0,0,1-3.78-2.12,10.63,10.63,0,0,1-2.07-1.33l-.73-.49A26.62,26.62,0,0,1,48.14,7.8L45.32,5.36A71.34,71.34,0,0,0,38.51,0a34.76,34.76,0,0,0-5.06,4.8c-.74.88-1.46,1.68-2.17,2.43l-.53.55c-.19.19-.27.3-.42.45s-.53.56-.8.83A27.92,27.92,0,0,1,26.09,12,38.18,38.18,0,0,1,18.68,16c-4.87,2-9.2,2.92-10.58,3.52Z"/></g><path class="cls-3" d="M3.4,72.13a3.41,3.41,0,0,1-1.84.54,1.38,1.38,0,0,1-1.11-.57A1.9,1.9,0,0,1,0,70.89q0-4.54.38-12.1.32-8,.32-12v-.38Q.38,43,.38,41.3q0-5.13,1.89-5.13a1.3,1.3,0,0,1,.95.41,1.3,1.3,0,0,1,.4.94,20.16,20.16,0,0,1-.16,2.05,18.61,18.61,0,0,0-.16,2.05q0,3.62.05,6.53t.05,6.48a7.46,7.46,0,0,0-.27,2.27v.65L3,61.82q-.11,1.89-.11,4.32,0,3.73,1.78,3.73l.35,0a6.58,6.58,0,0,1,.67,0A11.87,11.87,0,0,1,7,69.76q2.92,0,2.92,1.62a1.13,1.13,0,0,1-.49.92,2.54,2.54,0,0,1-1.19.49A15.34,15.34,0,0,0,3.4,72.13Z"/><path class="cls-3" d="M18.09,72.05a6.65,6.65,0,0,1-1.94-2.4,21.4,21.4,0,0,1-1.94-7.18,53.89,53.89,0,0,1-.49-7.07,8.92,8.92,0,0,1,.05-1.08v-1c0-.18,0-.27-.05-.27v-1l.05-3.78q.05-1.73.43-5.51a18.64,18.64,0,0,1,1.24-5,4.11,4.11,0,0,1,1-1.65,1.9,1.9,0,0,1,1.35-.57,9.33,9.33,0,0,1,3.89.78,8.2,8.2,0,0,1,2.92,2.19,12.42,12.42,0,0,1,1.84,3.32,19.56,19.56,0,0,1,1.08,4.18,34,34,0,0,1,.32,4.81v.43q0,1.67.05,3l.05,3.08q0,15.55-7.24,15.55A4.23,4.23,0,0,1,18.09,72.05Zm4.16-2.16a5,5,0,0,0,1.24-2.13,21,21,0,0,0,1.24-5.94q.27-2.75.27-4.75,0-2.43-.38-6.37-.32-4.16-.32-6.21v-1A5.88,5.88,0,0,0,22.92,40a3.91,3.91,0,0,0-3.1-1.51,2.44,2.44,0,0,0-2.43,2.11,14.36,14.36,0,0,0-.54,4.32c0,.68,0,1.26.05,1.73v1.46l-.11,2.48q-.11,1.13-.11,2.48,0,2.92.16,5.78a47.07,47.07,0,0,0,1.08,7.88q.86,4,2.54,4A2.51,2.51,0,0,0,22.25,69.89Z"/><path class="cls-3" d="M38.07,71.78A6.62,6.62,0,0,1,36,70.3a7.3,7.3,0,0,1-1.3-2.21,15.49,15.49,0,0,1-.86-2.81,18.33,18.33,0,0,1-.43-3q-.16-1.94-.22-3.35V53.67q0-3.13.11-5.13a30.13,30.13,0,0,1,.7-5.13,12.17,12.17,0,0,1,1.67-4.27,5.87,5.87,0,0,1,3.19-2.54,6.25,6.25,0,0,1,2.27-.38q2.32,0,2.32,1.35a1.28,1.28,0,0,1-.51,1.05,1.9,1.9,0,0,1-1.21.41,3,3,0,0,1-.59-.05,2.32,2.32,0,0,0-.54-.05,2,2,0,0,0-1.62,1,8.64,8.64,0,0,0-1.19,2.7,43.42,43.42,0,0,0-1.19,7.29q-.22,3.67-.22,5.45t.16,5a22.62,22.62,0,0,0,.92,5.18,7.75,7.75,0,0,0,.89,2.08,4.62,4.62,0,0,0,1.32,1.32,3.43,3.43,0,0,0,1.89.59q2.59,0,2.59-8.64V58.42a3.42,3.42,0,0,0-1.24-.16H41.79q-1.89,0-1.89-1.24a1.39,1.39,0,0,1,.51-1.16,2.07,2.07,0,0,1,1.32-.4v.05h.76q4.86,0,4.86,1.67a13.5,13.5,0,0,1-.27,1.94,8.88,8.88,0,0,0-.32,1.94q0,.92.16,2.86L47,66.79a5,5,0,0,1-1.81,4.08,6.71,6.71,0,0,1-4.4,1.48A6.56,6.56,0,0,1,38.07,71.78Z"/><path class="cls-3" d="M56.21,72.05a6.65,6.65,0,0,1-1.94-2.4,21.4,21.4,0,0,1-1.94-7.18,53.89,53.89,0,0,1-.49-7.07,8.92,8.92,0,0,1,.05-1.08v-1c0-.18,0-.27-.05-.27v-1l.05-3.78q.05-1.73.43-5.51a18.64,18.64,0,0,1,1.24-5,4.11,4.11,0,0,1,1-1.65,1.9,1.9,0,0,1,1.35-.57,9.33,9.33,0,0,1,3.89.78,8.2,8.2,0,0,1,2.92,2.19,12.42,12.42,0,0,1,1.84,3.32,19.56,19.56,0,0,1,1.08,4.18,34,34,0,0,1,.32,4.81v.43q0,1.67.05,3L66,57.39q0,15.55-7.24,15.55A4.23,4.23,0,0,1,56.21,72.05Zm4.16-2.16a5,5,0,0,0,1.24-2.13,21,21,0,0,0,1.24-5.94q.27-2.75.27-4.75,0-2.43-.38-6.37-.32-4.16-.32-6.21v-1A5.88,5.88,0,0,0,61,40a3.91,3.91,0,0,0-3.1-1.51,2.44,2.44,0,0,0-2.43,2.11A14.36,14.36,0,0,0,55,44.86c0,.68,0,1.26.05,1.73v1.46l-.11,2.48q-.11,1.13-.11,2.48,0,2.92.16,5.78a47.07,47.07,0,0,0,1.08,7.88q.86,4,2.54,4A2.51,2.51,0,0,0,60.37,69.89Z"/><path class="cls-3" d="M71.25,72a2.05,2.05,0,0,1-.78-1.4l.59-.92a4,4,0,0,1,1,.22,6.9,6.9,0,0,0,1.24.16,2.33,2.33,0,0,0,1.75-.86,5.41,5.41,0,0,0,1.16-2.27,18,18,0,0,0,.7-4.64,15.11,15.11,0,0,0-2.27-7.51l-.59-1q-1-1.78-1.73-3.19a18.9,18.9,0,0,1-1.19-3,14.26,14.26,0,0,1-.65-4.21,12.89,12.89,0,0,1,1.08-5,5.11,5.11,0,0,1,1.54-2,3.54,3.54,0,0,1,2.24-.78,3,3,0,0,1,1.81.62A1.82,1.82,0,0,1,78,37.63a.88.88,0,0,1-.38.76,1.53,1.53,0,0,1-.92.27,2.17,2.17,0,0,1-1.13-.32q-1.19.05-1.89,2.11a10.88,10.88,0,0,0-.59,3.13,10.76,10.76,0,0,0,.49,3.16,13.54,13.54,0,0,0,1.24,2.89L76,51.78l1.89,3.56a15.77,15.77,0,0,1,1.21,3.51,18.06,18.06,0,0,1,.46,4.05,13.63,13.63,0,0,1-1.51,6.26,6.2,6.2,0,0,1-2.13,2.43,5.38,5.38,0,0,1-3.05.92v.16A3.5,3.5,0,0,1,71.25,72Z"/><path d="M3.57,73.05a3.41,3.41,0,0,1-1.84.54A1.38,1.38,0,0,1,.63,73a1.9,1.9,0,0,1-.46-1.21q0-4.54.38-12.1.32-8,.32-12v-.38q-.32-3.4-.32-5.08,0-5.13,1.89-5.13a1.29,1.29,0,0,1,.95.41,1.29,1.29,0,0,1,.4.94,20.14,20.14,0,0,1-.16,2.05,18.61,18.61,0,0,0-.16,2.05q0,3.62.05,6.53t.05,6.48a7.45,7.45,0,0,0-.27,2.27v.65l-.11,4.27q-.11,1.89-.11,4.32,0,3.73,1.78,3.73l.35,0a6.58,6.58,0,0,1,.67,0,11.83,11.83,0,0,1,1.24-.05q2.92,0,2.92,1.62a1.13,1.13,0,0,1-.49.92,2.55,2.55,0,0,1-1.19.49A15.32,15.32,0,0,0,3.57,73.05Z"/><path d="M18.26,73a6.65,6.65,0,0,1-1.94-2.4,21.39,21.39,0,0,1-1.94-7.18,53.9,53.9,0,0,1-.49-7.07,9,9,0,0,1,.05-1.08v-1c0-.18,0-.27-.05-.27V53l.05-3.78q.05-1.73.43-5.51a18.62,18.62,0,0,1,1.24-5,4.11,4.11,0,0,1,1-1.65,1.91,1.91,0,0,1,1.35-.57,9.33,9.33,0,0,1,3.89.78,8.2,8.2,0,0,1,2.92,2.19,12.43,12.43,0,0,1,1.84,3.32A19.55,19.55,0,0,1,27.66,47,34,34,0,0,1,28,51.78v.43q0,1.67.05,3l.05,3.08q0,15.55-7.24,15.55A4.23,4.23,0,0,1,18.26,73Zm4.16-2.16a5,5,0,0,0,1.24-2.13,21,21,0,0,0,1.24-5.94q.27-2.75.27-4.75,0-2.43-.38-6.37-.32-4.16-.32-6.21v-1a5.88,5.88,0,0,0-1.38-3.56A3.91,3.91,0,0,0,20,39.35a2.44,2.44,0,0,0-2.43,2.11A14.36,14.36,0,0,0,17,45.78q0,1,.05,1.73V49L17,51.45q-.11,1.13-.11,2.48,0,2.92.16,5.78A47.06,47.06,0,0,0,18.1,67.6q.86,4,2.54,4A2.51,2.51,0,0,0,22.42,70.81Z"/><path d="M38.24,72.7a6.62,6.62,0,0,1-2.11-1.48A7.29,7.29,0,0,1,34.84,69,15.48,15.48,0,0,1,34,66.19a18.35,18.35,0,0,1-.43-3q-.16-1.95-.22-3.35V54.58q0-3.13.11-5.13a30.14,30.14,0,0,1,.7-5.13,12.17,12.17,0,0,1,1.67-4.27A5.88,5.88,0,0,1,39,37.52a6.28,6.28,0,0,1,2.27-.38q2.32,0,2.32,1.35a1.28,1.28,0,0,1-.51,1.05,1.91,1.91,0,0,1-1.21.41,3,3,0,0,1-.59-.05,2.32,2.32,0,0,0-.54-.05,2,2,0,0,0-1.62,1,8.64,8.64,0,0,0-1.19,2.7,43.43,43.43,0,0,0-1.19,7.29q-.22,3.67-.22,5.45t.16,5a22.64,22.64,0,0,0,.92,5.18,7.76,7.76,0,0,0,.89,2.08,4.61,4.61,0,0,0,1.32,1.32,3.43,3.43,0,0,0,1.89.59q2.59,0,2.59-8.64V59.33A3.44,3.44,0,0,0,43,59.17H42c-1.26,0-1.89-.41-1.89-1.24a1.39,1.39,0,0,1,.51-1.16,2.07,2.07,0,0,1,1.32-.4v.05h.76q4.86,0,4.86,1.67A13.53,13.53,0,0,1,47.26,60,8.87,8.87,0,0,0,46.93,62q0,.92.16,2.86l.11,2.86a5,5,0,0,1-1.81,4.08A6.71,6.71,0,0,1,41,73.27,6.54,6.54,0,0,1,38.24,72.7Z"/><path d="M56.38,73a6.65,6.65,0,0,1-1.94-2.4,21.39,21.39,0,0,1-1.94-7.18A53.9,53.9,0,0,1,52,56.31a9,9,0,0,1,.05-1.08v-1c0-.18,0-.27-.05-.27V53l.05-3.78q.05-1.73.43-5.51a18.62,18.62,0,0,1,1.24-5,4.11,4.11,0,0,1,1-1.65,1.91,1.91,0,0,1,1.35-.57,9.33,9.33,0,0,1,3.89.78,8.2,8.2,0,0,1,2.92,2.19,12.43,12.43,0,0,1,1.84,3.32A19.55,19.55,0,0,1,65.78,47a34,34,0,0,1,.32,4.81v.43q0,1.67.05,3l.05,3.08q0,15.55-7.24,15.55A4.23,4.23,0,0,1,56.38,73Zm4.16-2.16a5,5,0,0,0,1.24-2.13A21,21,0,0,0,63,62.74q.27-2.75.27-4.75,0-2.43-.38-6.37-.32-4.16-.32-6.21v-1a5.88,5.88,0,0,0-1.38-3.56,3.91,3.91,0,0,0-3.1-1.51,2.44,2.44,0,0,0-2.43,2.11,14.36,14.36,0,0,0-.54,4.32q0,1,.05,1.73V49l-.11,2.48Q55,52.59,55,53.93q0,2.92.16,5.78a47.06,47.06,0,0,0,1.08,7.88q.86,4,2.54,4A2.51,2.51,0,0,0,60.54,70.81Z"/><path d="M71.42,72.89a2.06,2.06,0,0,1-.78-1.4l.59-.92a4,4,0,0,1,1,.22,6.9,6.9,0,0,0,1.24.16,2.33,2.33,0,0,0,1.75-.87,5.4,5.4,0,0,0,1.16-2.27,18,18,0,0,0,.7-4.64,15.12,15.12,0,0,0-2.27-7.51l-.59-1q-1-1.78-1.73-3.19a18.91,18.91,0,0,1-1.19-3,14.25,14.25,0,0,1-.65-4.21,12.9,12.9,0,0,1,1.08-5,5.11,5.11,0,0,1,1.54-2,3.54,3.54,0,0,1,2.24-.78,3,3,0,0,1,1.81.62,1.82,1.82,0,0,1,.84,1.49.88.88,0,0,1-.38.76,1.54,1.54,0,0,1-.92.27,2.16,2.16,0,0,1-1.13-.32q-1.19.06-1.89,2.11a10.88,10.88,0,0,0-.59,3.13,10.76,10.76,0,0,0,.49,3.16A13.57,13.57,0,0,0,75,50.53l1.19,2.16,1.89,3.56a15.81,15.81,0,0,1,1.21,3.51,18.08,18.08,0,0,1,.46,4.05,13.63,13.63,0,0,1-1.51,6.26,6.2,6.2,0,0,1-2.13,2.43,5.37,5.37,0,0,1-3.05.92v.16A3.5,3.5,0,0,1,71.42,72.89Z"/><path class="cls-3" d="M3.4,73.88a3.41,3.41,0,0,1-1.84.54,1.38,1.38,0,0,1-1.11-.57A1.9,1.9,0,0,1,0,72.64q0-4.54.38-12.1.32-8,.32-12v-.38q-.32-3.4-.32-5.08,0-5.13,1.89-5.13a1.3,1.3,0,0,1,.95.41,1.3,1.3,0,0,1,.4.94,20.16,20.16,0,0,1-.16,2.05,18.61,18.61,0,0,0-.16,2.05q0,3.62.05,6.53t.05,6.48a7.46,7.46,0,0,0-.27,2.27v.65L3,63.57q-.11,1.89-.11,4.32,0,3.73,1.78,3.73l.35,0a6.58,6.58,0,0,1,.67,0A11.87,11.87,0,0,1,7,71.51q2.92,0,2.92,1.62A1.13,1.13,0,0,1,9.4,74a2.54,2.54,0,0,1-1.19.49A15.34,15.34,0,0,0,3.4,73.88Z"/><path class="cls-3" d="M18.09,73.8a6.65,6.65,0,0,1-1.94-2.4,21.4,21.4,0,0,1-1.94-7.18,53.89,53.89,0,0,1-.49-7.07,8.92,8.92,0,0,1,.05-1.08v-1c0-.18,0-.27-.05-.27v-1l.05-3.78q.05-1.73.43-5.51a18.64,18.64,0,0,1,1.24-5,4.11,4.11,0,0,1,1-1.65,1.9,1.9,0,0,1,1.35-.57,9.33,9.33,0,0,1,3.89.78,8.2,8.2,0,0,1,2.92,2.19,12.42,12.42,0,0,1,1.84,3.32,19.56,19.56,0,0,1,1.08,4.18,34,34,0,0,1,.32,4.81V53q0,1.67.05,3l.05,3.08q0,15.55-7.24,15.55A4.23,4.23,0,0,1,18.09,73.8Zm4.16-2.16a5,5,0,0,0,1.24-2.13,21,21,0,0,0,1.24-5.94q.27-2.75.27-4.75,0-2.43-.38-6.37-.32-4.16-.32-6.21v-1a5.88,5.88,0,0,0-1.38-3.56,3.91,3.91,0,0,0-3.1-1.51,2.44,2.44,0,0,0-2.43,2.11,14.36,14.36,0,0,0-.54,4.32c0,.68,0,1.26.05,1.73V49.8l-.11,2.48q-.11,1.13-.11,2.48,0,2.92.16,5.78a47.07,47.07,0,0,0,1.08,7.88q.86,4,2.54,4A2.51,2.51,0,0,0,22.25,71.64Z"/><path class="cls-3" d="M38.07,73.53A6.62,6.62,0,0,1,36,72a7.3,7.3,0,0,1-1.3-2.21A15.49,15.49,0,0,1,33.8,67a18.33,18.33,0,0,1-.43-3q-.16-1.94-.22-3.35V55.42q0-3.13.11-5.13a30.13,30.13,0,0,1,.7-5.13,12.17,12.17,0,0,1,1.67-4.27,5.87,5.87,0,0,1,3.19-2.54A6.25,6.25,0,0,1,41.09,38q2.32,0,2.32,1.35a1.28,1.28,0,0,1-.51,1.05,1.9,1.9,0,0,1-1.21.41,3,3,0,0,1-.59-.05,2.32,2.32,0,0,0-.54-.05,2,2,0,0,0-1.62,1,8.64,8.64,0,0,0-1.19,2.7,43.42,43.42,0,0,0-1.19,7.29q-.22,3.67-.22,5.45t.16,5a22.62,22.62,0,0,0,.92,5.18,7.75,7.75,0,0,0,.89,2.08,4.62,4.62,0,0,0,1.32,1.32,3.43,3.43,0,0,0,1.89.59q2.59,0,2.59-8.64V60.17A3.42,3.42,0,0,0,42.88,60H41.79q-1.89,0-1.89-1.24a1.39,1.39,0,0,1,.51-1.16,2.07,2.07,0,0,1,1.32-.4v.05h.76q4.86,0,4.86,1.67a13.5,13.5,0,0,1-.27,1.94,8.88,8.88,0,0,0-.32,1.94q0,.92.16,2.86L47,68.54a5,5,0,0,1-1.81,4.08,6.71,6.71,0,0,1-4.4,1.48A6.56,6.56,0,0,1,38.07,73.53Z"/><path class="cls-3" d="M56.21,73.8a6.65,6.65,0,0,1-1.94-2.4,21.4,21.4,0,0,1-1.94-7.18,53.89,53.89,0,0,1-.49-7.07,8.92,8.92,0,0,1,.05-1.08v-1c0-.18,0-.27-.05-.27v-1l.05-3.78q.05-1.73.43-5.51a18.64,18.64,0,0,1,1.24-5,4.11,4.11,0,0,1,1-1.65,1.9,1.9,0,0,1,1.35-.57,9.33,9.33,0,0,1,3.89.78,8.2,8.2,0,0,1,2.92,2.19,12.42,12.42,0,0,1,1.84,3.32,19.56,19.56,0,0,1,1.08,4.18,34,34,0,0,1,.32,4.81V53q0,1.67.05,3L66,59.14q0,15.55-7.24,15.55A4.23,4.23,0,0,1,56.21,73.8Zm4.16-2.16a5,5,0,0,0,1.24-2.13,21,21,0,0,0,1.24-5.94q.27-2.75.27-4.75,0-2.43-.38-6.37-.32-4.16-.32-6.21v-1A5.88,5.88,0,0,0,61,41.7a3.91,3.91,0,0,0-3.1-1.51,2.44,2.44,0,0,0-2.43,2.11A14.36,14.36,0,0,0,55,46.61c0,.68,0,1.26.05,1.73V49.8l-.11,2.48q-.11,1.13-.11,2.48,0,2.92.16,5.78a47.07,47.07,0,0,0,1.08,7.88q.86,4,2.54,4A2.51,2.51,0,0,0,60.37,71.64Z"/><path class="cls-3" d="M71.25,73.72a2.05,2.05,0,0,1-.78-1.4l.59-.92a4,4,0,0,1,1,.22,6.9,6.9,0,0,0,1.24.16,2.33,2.33,0,0,0,1.75-.86,5.41,5.41,0,0,0,1.16-2.27,18,18,0,0,0,.7-4.64,15.11,15.11,0,0,0-2.27-7.51l-.59-1q-1-1.78-1.73-3.19a18.9,18.9,0,0,1-1.19-3A14.26,14.26,0,0,1,70.52,45a12.89,12.89,0,0,1,1.08-5,5.11,5.11,0,0,1,1.54-2,3.54,3.54,0,0,1,2.24-.78,3,3,0,0,1,1.81.62A1.82,1.82,0,0,1,78,39.38a.88.88,0,0,1-.38.76,1.53,1.53,0,0,1-.92.27,2.17,2.17,0,0,1-1.13-.32q-1.19.05-1.89,2.11a10.88,10.88,0,0,0-.59,3.13,10.76,10.76,0,0,0,.49,3.16,13.54,13.54,0,0,0,1.24,2.89L76,53.53l1.89,3.56a15.77,15.77,0,0,1,1.21,3.51,18.06,18.06,0,0,1,.46,4.05,13.63,13.63,0,0,1-1.51,6.26,6.2,6.2,0,0,1-2.13,2.43,5.38,5.38,0,0,1-3.05.92v.16A3.5,3.5,0,0,1,71.25,73.72Z"/></g></g></svg>