<svg xmlns="http://www.w3.org/2000/svg" viewBox="0 0 174.64 174.64"><defs><style>.cls-1{fill:#fff;}</style></defs><title>logo_nsFlame</title><g id="Layer_2" data-name="Layer 2"><g id="Layer_1-2" data-name="Layer 1"><path class="cls-1" d="M112.89,120.57c-1.43-1.76-2.74-3.18-3.59-4.06-1.77-1.85-2.85-3-4.62-2.17a4.23,4.23,0,0,0-2.22,3.41,5.19,5.19,0,0,0,1.12,4.06,3.39,3.39,0,0,1,.09,2s-2,2.23-10.93-2.8c-.84-.47-1.53-.89-2.09-1.26,1-.41,2-.82,2.89-1.15,5.59-2.14,11.93-4.56,12.72-11.11,1-8.51-3.55-11-7.58-13.12A36.18,36.18,0,0,1,87.4,85.72c-.74-.84-2-2.44-1.91-3.77.11-2.71,4.38-6.55,7.2-9.1,3.4-3.06,6.08-5.48,6.84-8.93.89-4.06-.72-9.31-5.09-16.51A98,98,0,0,0,88.66,39,2.8,2.8,0,0,0,84,39a5.4,5.4,0,0,0-.09,6.12c1.32,1.84,4,7,3.58,10.22-.07.49-.29,2-2.58,3.42-5.48,3.4-9.26,8.87-10.92,15.81a36.77,36.77,0,0,0,2.35,23c2.71,6.22,1.55,17.25.07,25.16l-8.69-12.62a2.8,2.8,0,0,0-4-1C56.53,113.92,52.7,120,52.37,127.28c-.64,13.93,12.23,25.51,13.7,26.78s3.6.77,4.61-1.24a5.27,5.27,0,0,0-.94-6.06c-3.1-2.71-11.08-11.39-10.73-19,.15-3.29,2-6.38,5.52-9.21L75.43,134.4a2.9,2.9,0,0,0,3.1,1.36A3.77,3.77,0,0,0,81,133c.06-.2,1.15-4.12,2.11-9.62,1.52,2.46,4.31,4.21,7,5.72,5,2.79,8.93,4.1,12.11,4a7.83,7.83,0,0,0,7.12-4.69,8.6,8.6,0,0,1,1.42,6.17c-.79,4.49-5.43,9-12.12,11.68-1.76.71-2.74,3.16-2.2,5.47.44,1.88,1.76,3.08,3.18,3.08a2.61,2.61,0,0,0,1-.2c9.22-3.75,15.28-10.34,16.64-18.08A19.65,19.65,0,0,0,112.89,120.57ZM82.12,93.28a29.45,29.45,0,0,1-1.51-4.39A18.84,18.84,0,0,0,83,92.34a42.44,42.44,0,0,0,13.13,10.14,14,14,0,0,1,3.46,2.22c.06.07.19.23.08,1.27-.85,1.51-5.68,3.35-8,4.25-2.87,1.1-5.52,2.11-7.32,3.7C85.08,105.27,84.32,98.34,82.12,93.28ZM115,135.83c-1.16,6.65-6.65,12.42-15.06,15.84a.79.79,0,0,1-.3.06,1.07,1.07,0,0,1-1-.92,1.42,1.42,0,0,1,.66-1.64c7.59-3.09,12.71-8.29,13.7-13.92a12.91,12.91,0,0,0-3.13-10.51c-.64-.79-1.26-1.51-1.83-2.14a9.07,9.07,0,0,1-.68,4.09c-1.44,3.2-5.44,5.73-16.38-.42-4.89-2.75-6.84-4.81-6.74-7.13.14-2.94,3.62-4.28,8-6,4.14-1.58,9.29-3.55,9.65-6.54.47-3.88-.73-4.7-4.94-7A40.41,40.41,0,0,1,84.57,90c-2.38-2.7-3.53-5.52-3.4-8.39.23-5.5,4.93-9.73,9.07-13.47C92.6,66,95,63.84,95.37,62.35c.48-2.16-1.31-6.25-3.72-10.39a14.5,14.5,0,0,1,.1,4.43,10.24,10.24,0,0,1-5,7.5,19.51,19.51,0,0,0-8.64,12.38,29.6,29.6,0,0,0,2,18.51c5.5,12.63-1,36.12-1.26,37.12l-.57,2L65,114.72c-5.3,3.67-8.1,8-8.33,12.9-.5,10.91,11.64,21.59,11.77,21.7a1.58,1.58,0,0,1,.28,1.82.87.87,0,0,1-1.38.37c-.54-.47-13.23-11.62-12.66-24,.28-6.1,3.68-11.33,10.1-15.55l.68-.45,12,17.45c1.44-6,5-23.3.87-32.82a32.91,32.91,0,0,1-2.15-20.6,22,22,0,0,1,9.69-14,7.77,7.77,0,0,0,3.87-5.62c.84-5.8-4.12-12.82-4.17-12.89L87,41.18c1.2,1.54,11.71,15.28,10.25,21.89-.53,2.39-2.91,4.54-5.92,7.26-3.58,3.23-8,7.24-8.21,11.45-.09,2,.8,4.08,2.72,6.25a38.68,38.68,0,0,0,11.94,9.18c4,2.15,6.9,3.7,6.16,9.81-.56,4.63-5.9,6.68-11.07,8.65A39.18,39.18,0,0,0,88,117.8c-1.59.9-1.66,1.47-1.66,1.48s0,1.45,5.53,4.56c7.38,4.15,12.44,4.69,13.87,1.5a6.84,6.84,0,0,0-.45-5.67,11.27,11.27,0,0,1-.4-2.17s5.06,3.63,6.44,5.31A15.9,15.9,0,0,1,115,135.83ZM81.82,73.15a16.16,16.16,0,0,1,5.94-6.48l.1-.06A39.46,39.46,0,0,0,81.82,73.15Zm9.73-9.95A13,13,0,0,0,93,60.75a5.62,5.62,0,0,1,.13.69A11.74,11.74,0,0,1,91.55,63.2Z"/><path class="cls-1" d="M91.11,25.69c2.6,1.58-1.85,2-3.55,6.64-.62,1.69-7.93-4-6-5.85,3-2.83,4.24-3,3.91-4.75s.19.22,1.08-3.2C93.33,28.42,85.62,22.34,91.11,25.69Z"/><path class="cls-1" d="M84.44,52.85c2.6,1.58-1.85,2-3.55,6.64-.62,1.69-7.93-4-6-5.85,3-2.83,4.24-3,3.91-4.75s.19.22,1.08-3.2C86.67,55.58,79,49.5,84.44,52.85Z"/><path class="cls-1" d="M71.31,131.58c3.26.92-.7,2.33.05,7,.28,1.73-9.5-2-8.61-4.2,1.34-3.32,2.46-3.77,1.26-5.33s.29.16-.62-3.26C74.8,133.66,64.44,129.63,71.31,131.58Z"/><path class="cls-1" d="M90.41,141.79a21.06,21.06,0,0,0-2.52-2c.55.17,2.26,0-1.39-9.26-2.6,4.86-2.65,2.11-2.8,4.52-.17,2.6-2.13,2.65-7.53,6.31-3.59,2.44,5,11.93,6.52,9.55C86.92,144.47,93.61,144.54,90.41,141.79Z"/><path class="cls-1" d="M97.67,137.54c-3,.11-.46,2-3.11,5.52-1,1.31,8.32.22,8.59-1.67.4-2.86-.29-3.42,1.34-4.42s-.3.07,1.91-2.44C94,138.52,103.91,137.31,97.67,137.54Z"/><path class="cls-1" d="M96.89,35.85c1.53,1.67-.8,1.95-1.29,6.46-.18,1.65-4.58-4.25-3.71-6,1.32-2.7,2-2.82,1.65-4.56s.12.22.29-3.14C98.33,38.65,93.67,32.32,96.89,35.85Z"/><path class="cls-1" d="M73.4,106.77c1.74,1.52-.14,2,.68,6.44.3,1.64-5-3.81-4.77-5.64.37-2.75.9-2.92.14-4.6s.16.21-.62-3.1C75.37,109.4,69.72,103.55,73.4,106.77Z"/><path class="cls-1" d="M96.78,78.71c.45,1.9-1.68,1.66-4.38,5.8-1,1.52-1.76-5-.1-6.48,2.5-2.26,3.13-2.23,3.73-3.94s0,.24,1.84-2.89C96.58,81.65,95.82,74.7,96.78,78.71Z"/><path class="cls-1" d="M103.94,58.15c-.67-1.63,1.27-1.71,3.12-5.76.68-1.49,2.25,4.19,1,5.75-1.92,2.35-2.49,2.41-2.79,4s0-.21-1.24,2.82C103.72,55.5,105.35,61.59,103.94,58.15Z"/><path class="cls-1" d="M64.78,86.53c-1.07-.7,0-1.55-.54-4.73-.21-1.17,3.08,1.56,3,3-.17,2.2-.48,2.47,0,3.55s-.1-.12.43,2.2C63.55,85,67.05,88,64.78,86.53Z"/><path class="cls-1" d="M87.32,0a87.29,87.29,0,1,0,73.54,40.23A87.18,87.18,0,0,0,87.32,0Zm.13,168.72a81.42,81.42,0,1,1,81.4-81.4,81.4,81.4,0,0,1-81.4,81.4Z"/><path class="cls-1" d="M87.32,12.23a75.08,75.08,0,1,1-60,29.88A75.79,75.79,0,0,1,53.29,20.36a74.29,74.29,0,0,1,34-8.13m.11,149A73.87,73.87,0,1,0,13.56,87.32a73.95,73.95,0,0,0,73.86,73.86m-.11-151a77.06,77.06,0,1,0,64.93,35.51A77,77,0,0,0,87.32,10.23Zm.11,149a71.88,71.88,0,1,1,71.86-71.86,71.86,71.86,0,0,1-71.86,71.86Z"/></g></g></svg>