<svg xmlns="http://www.w3.org/2000/svg" viewBox="0 0 410.14 410.14"><defs><style>.cls-1{fill:#fff;}.cls-2{fill:none;stroke:#fff;stroke-miterlimit:10;stroke-width:5px;}</style></defs><title>logo_nsBlock</title><g id="Layer_2" data-name="Layer 2"><g id="Layer_1-2" data-name="Layer 1"><polygon class="cls-1" points="318.35 205.07 295.85 205.07 295.85 249.02 229.55 249.02 229.55 238.75 207.05 238.75 207.05 271.52 229.55 271.52 295.85 271.52 295.85 271.52 318.35 271.52 318.35 271.52 318.35 271.52 318.35 260.27 318.35 249.02 318.35 249.02 318.35 205.07"/><rect class="cls-1" x="295.85" y="160.26" width="22.5" height="33.49"/><rect class="cls-1" x="135.62" y="205" width="22.37" height="22.5" transform="translate(-109.92 167.14) rotate(-45)"/><polygon class="cls-1" points="90.4 171.51 90.4 182.76 90.4 182.76 90.4 271.46 112.9 271.46 135.41 271.46 135.41 249.09 112.9 249.09 112.9 182.76 180.7 182.76 180.7 249.09 158.2 249.09 158.2 271.46 180.7 271.46 203.2 271.46 203.2 182.76 203.2 171.51 203.2 160.26 90.4 160.26 90.4 171.51"/><polygon class="cls-1" points="207.05 205 207.05 216.25 207.05 227.5 318.35 227.5 318.35 216.25 318.35 205 207.05 205"/><polygon class="cls-1" points="229.55 182.76 318.35 182.76 318.35 171.51 318.35 160.26 229.55 160.26 229.55 160.26 207.05 160.26 207.05 227.5 229.55 227.5 229.55 182.76"/><path class="cls-2" d="M205.07,407.64c111.88,0,202.57-90.69,202.57-202.57S316.95,2.5,205.07,2.5,2.5,93.19,2.5,205.07,93.19,407.64,205.07,407.64ZM64.82,65.37H348.25V344.77H64.82Z"/></g></g></svg>