<svg xmlns="http://www.w3.org/2000/svg" viewBox="0 0 590.23 284.4"><defs><style>.cls-1{fill:#fff;}</style></defs><title>logo_nsBlockStar</title><g id="Layer_2" data-name="Layer 2"><g id="Layer_1-2" data-name="Layer 1"><polygon class="cls-1" points="257.9 112.83 257.9 67.29 227 67.29 136.33 67.29 136.33 67.29 105.56 67.29 105.56 128 105.56 143.46 105.56 158.91 227.43 158.91 227.43 188.18 136.57 188.18 136.57 174.09 105.56 174.09 105.56 219.08 136.36 219.08 227.1 219.08 257.9 219.08 257.9 219.08 257.9 203.7 257.9 188.32 257.9 188.32 257.9 158.91 257.9 158.91 257.9 143.46 257.9 128 136.46 128 136.46 98.19 227 98.19 227 112.83 257.9 112.83"/><polygon class="cls-1" points="484.78 112.83 484.78 67.29 453.88 67.29 363.22 67.29 363.22 67.29 332.45 67.29 332.45 128 332.45 143.46 332.45 158.91 454.31 158.91 454.31 188.18 363.46 188.18 363.46 174.09 332.45 174.09 332.45 219.08 363.24 219.08 453.98 219.08 484.78 219.08 484.78 219.08 484.78 203.7 484.78 188.32 484.78 188.32 484.78 158.91 484.78 158.91 484.78 143.46 484.78 128 363.35 128 363.35 98.19 453.88 98.19 453.88 112.83 484.78 112.83"/><rect class="cls-1" x="160.62" y="233.29" width="42.34" height="42.34" transform="translate(130.4 562.93) rotate(-135)"/><rect class="cls-1" x="387.45" y="8.77" width="42.34" height="42.34" transform="translate(676.38 340.04) rotate(-135)"/><polygon class="cls-1" points="590.23 58.21 590.23 1.67 550.33 1.67 550.33 1.67 493.79 1.67 493.79 1.67 453.88 1.67 453.88 58.21 493.79 58.21 493.79 224.52 363.35 224.52 323.44 224.52 323.44 58.21 323.44 58.21 363.35 58.21 363.35 1.67 323.44 1.67 227 1.67 136.46 1.67 40.02 1.67 0.11 1.67 0.11 58.21 40.02 58.21 40.02 58.21 40.02 224.52 0 224.52 0 281.06 40.02 281.06 96.56 281.06 136.57 281.06 136.57 224.52 96.56 224.52 96.56 58.21 136.46 58.21 227 58.21 266.9 58.21 266.9 224.52 227 224.52 227 281.06 266.9 281.06 453.88 281.06 590.23 281.06 590.23 224.52 550.33 224.52 550.33 224.52 550.33 58.21 590.23 58.21"/><rect class="cls-1" x="160.62" y="233.29" width="42.34" height="42.34" transform="translate(-72.67 436.24) rotate(-90)"/><rect class="cls-1" x="387.36" y="8.69" width="42.34" height="42.34" transform="translate(378.68 438.39) rotate(-90)"/></g></g></svg>