<svg xmlns="http://www.w3.org/2000/svg" viewBox="0 0 80.42 197.04"><defs><style>.cls-1{fill:#fff;}.cls-2{fill:none;stroke:#fff;stroke-miterlimit:10;stroke-width:3.96px;}.cls-3{fill:#662d91;}</style></defs><title>logo_nsGrape</title><g id="Layer_2" data-name="Layer 2"><g id="Layer_1-2" data-name="Layer 1"><rect class="cls-1" y="51.94" width="80.42" height="101.9" rx="12" ry="12"/><path class="cls-2" d="M75.3,58.43"/><path class="cls-3" d="M52.44,102.08A66.77,66.77,0,0,1,61.73,106V65.21c-5.12,2.29-10.25,4.52-15.31,6.86C41.17,74.44,35.95,76.9,31,79.57L44.92,99.7C47.41,100.45,49.92,101.22,52.44,102.08Z"/><path class="cls-3" d="M59.37,114.24a46.17,46.17,0,0,0-6.25-2.72L59,120a15.48,15.48,0,0,0,2.52-2.53,3,3,0,0,1,.19-.31V116A9.69,9.69,0,0,0,59.37,114.24Z"/><path class="cls-3" d="M27.31,94.27l-6-8.61a15.57,15.57,0,0,0-2.58,2.58c0,.05,0,.09-.08.14v1.5a10.09,10.09,0,0,0,2.26,1.63A41.74,41.74,0,0,0,27.31,94.27Z"/><path class="cls-3" d="M27.85,103.68a69.94,69.94,0,0,1-9.16-3.85v40.66c5.08-2.27,10.17-4.48,15.18-6.8,3.45-1.55,6.89-3.11,10.23-4.81,1.78-.89,3.55-1.79,5.29-2.72L35.5,106.1C33,105.33,30.42,104.55,27.85,103.68Z"/><path class="cls-3" d="M0,68.4v69a16.45,16.45,0,0,0,16.45,16.45H64a16.45,16.45,0,0,0,16.45-16.45v-69A16.45,16.45,0,0,0,64,51.94H16.45A16.45,16.45,0,0,0,0,68.4Zm73.11,73.49a6,6,0,0,1-3.26,5.45,5.7,5.7,0,0,1-7.11-1.91L53.1,131.51a161.77,161.77,0,0,1-17.73,6.23c-5.53,1.56-11.08,3-16.68,4.17V142a5.77,5.77,0,0,1-4.17,5.64,5.7,5.7,0,0,1-7.22-5.49V63.91a6,6,0,0,1,3-5.32,5.7,5.7,0,0,1,7.41,1.76L27.27,74.2A161,161,0,0,1,44.91,68c5.57-1.56,11.16-3,16.81-4.19v-.07a5.77,5.77,0,0,1,4.17-5.64,5.7,5.7,0,0,1,7.22,5.49Z"/><circle class="cls-3" cx="64.12" cy="35.49" r="9.83"/><circle class="cls-3" cx="35.85" cy="40.6" r="6.9"/><circle class="cls-3" cx="30.98" cy="22.31" r="6.95" transform="translate(-6.58 15.48) rotate(-25.45)"/><circle class="cls-3" cx="50.47" cy="2.83" r="2.83" transform="translate(3.68 21.96) rotate(-25.45)"/><circle class="cls-3" cx="17.67" cy="165.97" r="9.83" transform="translate(-65.56 21.29) rotate(-23.83)"/><circle class="cls-3" cx="53.31" cy="164.64" r="6.95" transform="translate(-106.26 97.66) rotate(-49.29)"/><circle class="cls-3" cx="43.35" cy="190.33" r="6.71" transform="translate(-129.2 99.05) rotate(-49.29)"/><circle class="cls-3" cx="38.39" cy="172.68" r="3.85" transform="translate(-117.54 89.14) rotate(-49.29)"/></g></g></svg>