<svg xmlns="http://www.w3.org/2000/svg" viewBox="0 0 580.53 800.39"><defs><style>.cls-1{fill:#231f20;}.cls-2{fill:#fff;}</style></defs><title>NS_Gfk</title><g id="Layer_2" data-name="Layer 2"><g id="Layer_1-2" data-name="Layer 1"><path class="cls-1" d="M324.21,236.2h0c-7.53,13-7.53,13-33.87,22-26.35-9-26.35-9-33.88-22h0l-10.54,54.75a90.86,90.86,0,0,0,10.54,62.6h.83A94,94,0,0,1,288.57,359l1.77.63,2.43-.85a94,94,0,0,1,31.45-5.27h0a90.86,90.86,0,0,0,10.54-62.6Z"/><path class="cls-1" d="M336.39,353.54a90.86,90.86,0,0,0,10.54-62.6L336.39,236.2h0c6.05,2,7.6-2.23,8.11-8.58,1.22-15.13,4.06-39.61,4.06-39.61l4.31,32.73a162.76,162.76,0,0,0,25.87,68.92h0c4.13,28.46-19.26,57.94-30.18,83l-.17-.85a29.28,29.28,0,0,0-12-18.3Z"/><path class="cls-1" d="M244.29,353.54a90.86,90.86,0,0,1-10.54-62.6l10.54-54.75h0c-6.05,2-7.6-2.23-8.11-8.58C235,212.49,232.12,188,232.12,188l-4.31,32.73a162.76,162.76,0,0,1-25.87,68.92h0c-4.13,28.46,19.26,57.94,30.18,83l.17-.85a29.28,29.28,0,0,1,12-18.3Z"/><path class="cls-2" d="M296.64,50.84h0a129.71,129.71,0,0,1-5-21,1.69,1.69,0,0,1,0-.42l.36-3.76a1.46,1.46,0,0,0-.85-1.39.91.91,0,0,1-.28-.26q-.43-3.76-.69-7.61L289.15,1l-.06-1V0l0,.68-1,15.67q-.25,3.87-.7,7.66a.9.9,0,0,1-.28.26,1.44,1.44,0,0,0-.85,1.37l.36,3.75a1.69,1.69,0,0,1,0,.42,129.9,129.9,0,0,1-4.93,20.81,1.67,1.67,0,0,0-.08.41c-.69,10.13,2.08,20.5,4.71,30.16a1.65,1.65,0,0,1,0,.86h0a1.69,1.69,0,0,0,.21,1.34,13.56,13.56,0,0,1,.71,1.32,1.86,1.86,0,0,1,.11.31c.66,2.48,1.28,4.89,1.79,7.23v.06h0v0c.52-2.38,1.15-4.84,1.82-7.35a1.84,1.84,0,0,1,.12-.32,12.45,12.45,0,0,1,1.1-1.89h0l-.2-.71a1.65,1.65,0,0,1,0-.86C294.59,71.48,297.38,61,296.64,50.84Z"/><path class="cls-1" d="M251.07,219.65a39.28,39.28,0,0,1-4.55-27.06l4.55-23.67h0a4.24,4.24,0,0,1-5.55-3.69,140.85,140.85,0,0,1,.29-17.14l-4.52,15.21a93.15,93.15,0,0,0,4.37,64.3l.14.33.07-.37a12.66,12.66,0,0,1,5.19-7.91Z"/><path class="cls-1" d="M327.58,219.65a39.28,39.28,0,0,0,4.55-27.06l-4.55-23.67h0a4.24,4.24,0,0,0,5.55-3.69,140.85,140.85,0,0,0-.29-17.14l4.52,15.21A93.15,93.15,0,0,1,333,227.6l-.14.33-.07-.37a12.66,12.66,0,0,0-5.19-7.91Z"/><path class="cls-2" d="M258.51,137.08A39.28,39.28,0,0,0,263.06,110l-4.55-23.67h0a4.24,4.24,0,0,0,5.55-3.69,140.85,140.85,0,0,0-.29-17.14l4.52,15.21a93.15,93.15,0,0,1-4.37,64.3l-.14.33-.07-.37a12.66,12.66,0,0,0-5.19-7.91Z"/><path class="cls-2" d="M319.68,137.08A39.28,39.28,0,0,1,315.13,110l4.55-23.67h0a4.24,4.24,0,0,1-5.55-3.69,140.85,140.85,0,0,1,.29-17.14L309.9,80.74a93.15,93.15,0,0,0,4.37,64.3l.14.33.07-.37a12.66,12.66,0,0,1,5.19-7.91Z"/><path class="cls-1" d="M367.79,356.56a39.28,39.28,0,0,0,16.1-22.22l6.43-23.23h0a4.24,4.24,0,0,0,6.61-.84,140.85,140.85,0,0,0,7.36-15.49l-2.71,15.63c-1.74,10.06-13.65,19.11-10,28.45,12.69,32.27-13.29,19.57-22.5,27.21l-.27.23.1-.36a12.66,12.66,0,0,0-1.13-9.39Z"/><path class="cls-1" d="M212.92,356.56a39.28,39.28,0,0,1-16.1-22.22l-6.43-23.23h0a4.24,4.24,0,0,1-6.61-.84,140.85,140.85,0,0,1-7.36-15.49l2.71,15.63c1.74,10.06,13.65,19.11,10,28.45-12.69,32.27,13.29,19.57,22.5,27.21l.27.23-.1-.36a12.66,12.66,0,0,1,1.13-9.39Z"/><path class="cls-1" d="M341.15,324.21"/><path class="cls-1" d="M271.65,258.2h0c5.14,1.51,12.72-2,18.69,8.86,6-10.9,13.55-7.35,18.69-8.86h0l5.81,5.13c2.28,2,.21,4.09-5.81,5.87h0l-2.56-.43a16,16,0,0,0-16.13,7.15h0a16.06,16.06,0,0,0-16.14-7.14l-2.55.43h0c-6-1.77-8.09-3.86-5.81-5.87Z"/><path class="cls-1" d="M319.12,262.85h0c-.31-1.4-4-2.22.11-6.32-4.1,4.1-4.92.42-6.32.11h0l.9-2.83c.35-1.11,1.45-1.52,3.1-1.16h0l.27.58c.67,1.43,2.74,1.47,5.28.09h0c-1.38,2.53-1.34,4.61.09,5.28l.58.27h0c.36,1.65-.06,2.75-1.16,3.1Z"/><path class="cls-1" d="M285.95,275.92h0c1.21.78,4.39-1.26,4.39,4.55,0-5.8,3.19-3.77,4.39-4.55h0l1.37,2.63c.54,1,.05,2.1-1.37,3h0l-.6-.22c-1.49-.54-3,.9-3.79,3.67h0c-.82-2.77-2.31-4.21-3.79-3.67l-.6.22h0c-1.42-.91-1.9-2-1.37-3Z"/><path class="cls-1" d="M260.58,262.85h0c.31-1.4,4-2.22-.11-6.32,4.1,4.1,4.92.42,6.32.11h0l-.9-2.83c-.35-1.11-1.45-1.52-3.1-1.16h0l-.27.58c-.67,1.43-2.74,1.47-5.28.09h0c1.38,2.53,1.34,4.61-.09,5.28l-.58.27h0c-.36,1.65.06,2.75,1.16,3.1Z"/><path class="cls-1" d="M299.68,235.67h0a13.82,13.82,0,0,0-18.69,0h0l-2.91-8.23c-1.14-3.23-.11-6.57,2.91-9.41h0l1.28.69c5.34,5.34,6.7-.69,8.06-.69s2.72,6,8.07.68l1.28-.68h0c3,2.84,4,6.19,2.91,9.41Z"/><path class="cls-1" d="M276.52,216.11h0a10.46,10.46,0,0,0-10,10h0l-6-2.85c-2.34-1.12-3.57-3.46-3.48-6.59h0l1.05-.32c5.72,0,3.22-4,3.95-4.68s4.68,1.77,4.68-4l.32-1h0c3.13-.09,5.47,1.15,6.59,3.48Z"/><path class="cls-1" d="M303.18,216.11h0a10.46,10.46,0,0,1,10,10h0l6-2.85c2.34-1.12,3.57-3.46,3.48-6.59h0l-1.05-.32c-5.72,0-3.22-4-3.95-4.68s-4.68,1.77-4.68-4l-.32-1h0c-3.13-.09-5.47,1.15-6.59,3.48Z"/><path class="cls-1" d="M379.43,283h0a10.46,10.46,0,0,1,8.07,11.61h0l6.37-1.75c2.5-.68,4.13-2.77,4.59-5.87h0l-1-.5c-5.63-1-2.47-4.46-3.05-5.31s-4.92.91-3.91-4.72l-.13-1.09h0c-3.07-.65-5.59.16-7.1,2.26Z"/><path class="cls-1" d="M201.45,283h0a10.46,10.46,0,0,0-8.07,11.61h0L187,292.89c-2.5-.68-4.13-2.77-4.59-5.87h0l1-.5c5.63-1,2.47-4.46,3.05-5.31s4.92.91,3.91-4.72l.13-1.09h0c3.07-.65,5.59.16,7.1,2.26Z"/><path class="cls-1" d="M386.12,394.12c-4.41-.22-7.33-14.25-6-16.86h0a32.7,32.7,0,0,1-28.72,11.9c-6.5-.66-12.81-1.77-15.65-3.44h0c-2.86,5.24-11.67,8.31-20.36,7a89.2,89.2,0,0,1-17.11-4.2,20.93,20.93,0,0,1-8,4.19,20.93,20.93,0,0,1-8-4.19,89.2,89.2,0,0,1-17.11,4.2c-8.68,1.27-17.5-1.81-20.36-7h0c-2.85,1.67-9.16,2.78-15.65,3.44a32.7,32.7,0,0,1-28.72-11.9h0c1.38,2.61-1.54,16.63-5.95,16.86-10.55.53-27.66-14.91-27.66-14.91h0a38.88,38.88,0,0,0,32.17,21.49c10.35.7,21.09,1.14,27.47,1.32a226.52,226.52,0,0,1,39.94,4.62c6.13,1.29,10.24,1.41,13.13.8,6.95-1.46,6.83-7.13,10.74-10.84,3.91,3.71,3.79,9.38,10.74,10.84,2.89.61,7,.49,13.13-.8A226.52,226.52,0,0,1,354.15,402c6.38-.19,17.15-.63,27.51-1.33a38.79,38.79,0,0,0,32.12-21.49h0S396.67,394.65,386.12,394.12Z"/><path class="cls-1" d="M382.71,235c-4.06-7.39-10.39-12-12.24-20.18-1.61-7.15-.68-17.52-4-24.18l-7.09-14.2a140.84,140.84,0,0,1,3.26,16.83,4.24,4.24,0,0,1-4.83,4.6l2.29,6c1.1,2.89,2.63,17.12-.31,21.59h0a10.75,10.75,0,0,1,9.13,11.2,39.18,39.18,0,0,1-2.3,11.17,12.66,12.66,0,0,1,6.48,6.89l.14.35.08-.35c1.54-6.23,10.69-6,11.59-11.85C385.2,241,384.64,238.54,382.71,235Z"/><path class="cls-1" d="M198,235c4.06-7.39,10.39-12,12.24-20.18,1.61-7.15.68-17.52,4-24.18l7.09-14.2A140.84,140.84,0,0,0,218,193.3a4.24,4.24,0,0,0,4.83,4.6l-2.29,6c-1.1,2.89-2.63,17.12.31,21.59h0a10.75,10.75,0,0,0-9.13,11.2,39.18,39.18,0,0,0,2.3,11.17,12.66,12.66,0,0,0-6.48,6.89l-.14.35-.08-.35c-1.54-6.23-10.69-6-11.59-11.85C195.48,241,196,238.54,198,235Z"/><path class="cls-1" d="M232.12,264l2.29-6a4.24,4.24,0,0,1-4.83-4.6,140.85,140.85,0,0,1,3.26-16.83l-7.09,14.2c-3.32,6.66-2.39,17-4,24.18-1.85,8.23-8.19,12.79-12.24,20.18-1.93,3.52-2.49,6-2.2,7.87.89,5.83,10,5.62,11.59,11.85l.08.35.11-.29A47.5,47.5,0,0,1,222.42,325c1.44,7.18,1.86,17.31,4.13,24.16l4.83,14.59s-2.24-10.37-3.12-16.86c-.37-2.71.64-4.72,2.05-4.11l-1.68-6.09c-.81-2.94-2.82-17.09-1.72-21.23h0c-1.69-.77-3.23-2.88-4.27-5.59a12.65,12.65,0,0,1,3-1.91,39.18,39.18,0,0,1-2.3-11.17,10.75,10.75,0,0,1,9.13-11.2h0C229.49,281.15,231,266.91,232.12,264Z"/><path class="cls-1" d="M349,264l-2.29-6a4.24,4.24,0,0,0,4.83-4.6,140.85,140.85,0,0,0-3.26-16.83l7.09,14.2c3.32,6.66,2.39,17,4,24.18,1.85,8.23,8.19,12.79,12.24,20.18,1.93,3.52,2.49,6,2.2,7.87-.89,5.83-10,5.62-11.59,11.85l-.08.35-.11-.29A47.5,47.5,0,0,0,358.7,325c-1.44,7.18-1.86,17.31-4.13,24.16l-4.83,14.59s2.24-10.37,3.12-16.86c.37-2.71-.64-4.72-2.05-4.11l1.68-6.09c.81-2.94,2.82-17.09,1.72-21.23h0c1.69-.77,3.23-2.88,4.27-5.59a12.65,12.65,0,0,0-3-1.91,39.18,39.18,0,0,0,2.3-11.17,10.75,10.75,0,0,0-9.13-11.2h0C351.62,281.15,350.09,266.91,349,264Z"/><path class="cls-1" d="M416.06,264l-2.29-6a4.24,4.24,0,0,0,4.83-4.6,140.85,140.85,0,0,0-3.26-16.83l7.09,14.2c3.32,6.66,2.39,17,4,24.18,1.85,8.23,8.19,12.79,12.24,20.18,1.93,3.52,2.49,6,2.2,7.87-.89,5.83-10,5.62-11.59,11.85l-.08.35-.11-.29A47.5,47.5,0,0,0,425.77,325c-1.44,7.18-1.86,17.31-4.13,24.16l-4.83,14.59s2.24-10.37,3.12-16.86c.37-2.71-.64-4.72-2.05-4.11l1.68-6.09c.81-2.94,2.82-17.09,1.72-21.23h0c1.69-.77,3.23-2.88,4.27-5.59a12.65,12.65,0,0,0-3-1.91,39.18,39.18,0,0,0,2.3-11.17,10.75,10.75,0,0,0-9.13-11.2h0C418.7,281.15,417.17,266.91,416.06,264Z"/><path class="cls-1" d="M164.61,264l2.29-6a4.24,4.24,0,0,1-4.83-4.6,140.85,140.85,0,0,1,3.26-16.83l-7.09,14.2c-3.32,6.66-2.39,17-4,24.18-1.85,8.23-8.19,12.79-12.24,20.18-1.93,3.52-2.49,6-2.2,7.87.89,5.83,10,5.62,11.59,11.85l.08.35.11-.29A47.5,47.5,0,0,1,154.91,325c1.44,7.18,1.86,17.31,4.13,24.16l4.83,14.59s-2.24-10.37-3.12-16.86c-.37-2.71.64-4.72,2.05-4.11l-1.68-6.09c-.81-2.94-2.82-17.09-1.72-21.23h0c-1.69-.77-3.23-2.88-4.27-5.59a12.65,12.65,0,0,1,3-1.91,39.18,39.18,0,0,1-2.3-11.17,10.75,10.75,0,0,1,9.13-11.2h0C162,281.15,163.51,266.91,164.61,264Z"/><path class="cls-1" d="M256.46,199.64h0a13.82,13.82,0,0,0,0-18.69h0A22.56,22.56,0,0,0,266,159.84l-1.34-11.75c6.57,29.85,6.57,29.85,9.41,32.86h0l-.69,1.28c-5.34,5.34.69,6.7.69,8.06s-6,2.72-.68,8.07l.68,1.28h0c-2.84,3-6.19,4-9.41,2.91Z"/><path class="cls-1" d="M321.72,199.64h0a13.82,13.82,0,0,1,0-18.69h0a22.56,22.56,0,0,1-9.57-21.11l1.34-11.75c-6.57,29.85-6.57,29.85-9.41,32.86h0l.69,1.28c5.34,5.34-.69,6.7-.69,8.06s6,2.72.68,8.07l-.68,1.28h0c2.84,3,6.19,4,9.41,2.91Z"/><path class="cls-1" d="M314.84,232.74l-5.81-5.4c-10.28,3.18-27.1,3.18-37.38,0l-5.81,5.4c-2.28,2.12-.21,4.31,5.81,6.18h0a5.26,5.26,0,0,1,4.45,1.3C290.07,253,287,248,290.34,253.4c3.32-5.44.27-.45,14.22-13.19a5.27,5.27,0,0,1,4.47-1.3h0C315.06,237,317.12,234.85,314.84,232.74Zm-20.11,5.45-.6-.14c-1.49-.36-3,.59-3.79,2.41-.82-1.82-2.31-2.76-3.79-2.41l-.6.14c-1.42-.6-1.9-1.3-1.37-2l1.37-1.73c1.21.51,4.39-.82,4.39,3,0-3.81,3.19-2.48,4.39-3l1.37,1.73C296.63,236.88,296.15,237.58,294.73,238.18Z"/><path class="cls-1" d="M298.35,182.17l4.47-23.67a4.05,4.05,0,0,1-2.11.12l1.68-7.64a18.93,18.93,0,0,0-2.8-14.58c-.77.66-1.57-.47-2.15-3.06-6.74-30.1-5.26-18.32-6.87-31.16-1.6,12.85-.13,1.06-6.86,31.15-.58,2.6-1.38,3.74-2.15,3.07a18.93,18.93,0,0,0-2.8,14.58l1.65,7.53a4.05,4.05,0,0,1-2.54,0l4.47,23.67a40,40,0,0,1-4.47,27.06,12.68,12.68,0,0,1,5.09,7.91l.07.37.14-.33.11-.25a7.68,7.68,0,0,1,14.14,0l.11.25.14.33.07-.37a12.68,12.68,0,0,1,5.09-7.91A40,40,0,0,1,298.35,182.17Z"/><path class="cls-1" d="M298.35,334.13l4.47-11.64a8.1,8.1,0,0,1-2.11.06l1.68-3.76c1.1-2.46.1-5-2.8-7.17-.77.33-1.57-.23-2.15-1.5-6.74-14.81-5.26-9-6.87-15.33-1.6,6.32-.13.52-6.86,15.32-.58,1.28-1.38,1.84-2.15,1.51-2.91,2.17-3.9,4.72-2.8,7.17l1.65,3.7a8.08,8.08,0,0,1-2.54,0l4.47,11.64c1.75,4.56.16,9.29-4.47,13.31,2.63.92,4.46,2.31,5.09,3.89l.07.18.14-.16.11-.12c2.69-3.07,11.45-3.07,14.14,0l.11.12.14.16.07-.18c.63-1.58,2.45-3,5.09-3.89C298.19,343.42,296.6,338.7,298.35,334.13Z"/><path class="cls-1" d="M314.84,365.07l-5.81-5.4c-10.28,3.18-27.1,3.18-37.38,0l-5.81,5.4c-2.28,2.12-.21,4.31,5.81,6.18h0a5.26,5.26,0,0,1,4.45,1.3c14,12.75,10.91,7.76,14.24,13.19,3.32-5.44.27-.45,14.22-13.19a5.27,5.27,0,0,1,4.47-1.3h0C315.06,369.37,317.12,367.18,314.84,365.07Zm-28.9,4,.6.14c1.49.36,3-.59,3.79-2.41.82,1.82,2.31,2.76,3.79,2.41l.6-.14c1.42.6,1.9,1.3,1.37,2l-1.37,1.73c-1.21-.51-4.39.82-4.39-3,0,3.81-3.19,2.48-4.39,3L284.58,371C284,370.37,284.53,369.67,285.95,369.07Z"/><path class="cls-1" d="M330,362l-2.56-2.38a32.74,32.74,0,0,1-16.46,0L308.43,362c-1,.93-.09,1.9,2.56,2.72h0a2.32,2.32,0,0,1,2,.57c6.15,5.61,4.81,3.42,6.27,5.81,1.46-2.4.12-.2,6.26-5.81a2.32,2.32,0,0,1,2-.57h0C330.11,363.94,331,363,330,362Zm-8.86,2.4-.27-.06a1.85,1.85,0,0,1-3.34,0l-.26.06c-.62-.26-.84-.57-.6-.87l.6-.76c.53.22,1.93-.36,1.93,1.31,0-1.68,1.4-1.09,1.93-1.31l.6.76C322,363.87,321.78,364.18,321.16,364.44Z"/><path class="cls-1" d="M273,362l-2.56-2.38a32.74,32.74,0,0,1-16.46,0L251.42,362c-1,.93-.09,1.9,2.56,2.72h0a2.32,2.32,0,0,1,2,.57c6.15,5.61,4.81,3.42,6.27,5.81,1.46-2.4.12-.2,6.26-5.81a2.32,2.32,0,0,1,2-.57h0C273.1,363.94,274,363,273,362Zm-8.86,2.4-.27-.06a1.52,1.52,0,0,0-1.67,1.06,1.52,1.52,0,0,0-1.67-1.06l-.26.06c-.62-.26-.84-.57-.6-.87l.6-.76c.53.22,1.93-.36,1.93,1.31,0-1.68,1.4-1.09,1.93-1.31l.6.76C265,363.87,264.77,364.18,264.15,364.44Z"/><path class="cls-1" d="M300.1,331.17l6.53,4.47a14.38,14.38,0,0,1,0-2.11l2.11,1.68c1.38,1.1,2.81.1,4-2.8a2.12,2.12,0,0,1,.84-2.15c8.31-6.74,5.06-5.26,8.6-6.87-3.55-1.6-.29-.13-8.6-6.86a2.13,2.13,0,0,1-.85-2.15c-1.22-2.91-2.65-3.9-4-2.8l-2.08,1.65a14.32,14.32,0,0,1,0-2.54l-6.53,4.47c-2.56,1.75-5.21.16-7.47-4.47-.52,2.63-1.3,4.46-2.18,5.09l-.1.07.09.14.07.11c1.72,2.69,1.72,11.45,0,14.14l-.07.11-.09.14.1.07c.89.63,1.67,2.45,2.18,5.09C294.88,331,297.54,329.42,300.1,331.17Z"/><path class="cls-1" d="M280.82,331.17l-6.53,4.47a14.38,14.38,0,0,0,0-2.11l-2.11,1.68c-1.38,1.1-2.81.1-4-2.8a2.12,2.12,0,0,0-.84-2.15c-8.31-6.74-5.06-5.26-8.6-6.87,3.55-1.6.29-.13,8.6-6.86a2.13,2.13,0,0,0,.85-2.15c1.22-2.91,2.65-3.9,4-2.8l2.08,1.65a14.32,14.32,0,0,0,0-2.54l6.53,4.47c2.56,1.75,5.21.16,7.47-4.47.52,2.63,1.3,4.46,2.18,5.09l.1.07-.09.14-.07.11c-1.72,2.69-1.72,11.45,0,14.14l.07.11.09.14-.1.07c-.89.63-1.67,2.45-2.18,5.09C286,331,283.38,329.42,280.82,331.17Z"/><path class="cls-1" d="M312,296.89l4.75-2.12a3.38,3.38,0,0,1-.64-.61l1.6-.61c1-.4,1.51-1.45,1.29-2.94-.32-.13-.39-.53-.19-1.08,2.38-6.36,1.11-4.21,2.5-6.55-2.34,1.39-.19.12-6.55,2.5-.55.21-.95.14-1.08-.19-1.5-.22-2.54.24-2.94,1.29l-.6,1.58a3.37,3.37,0,0,1-.75-.75l-2.12,4.75c-.83,1.86-2.69,2.79-5.25,2.61a3.35,3.35,0,0,1,.35,2.65l0,.07h.16c1.7-.11,4.28,2.47,4.17,4.17v.16l.07,0a3.35,3.35,0,0,1,2.65.35C309.2,299.58,310.13,297.72,312,296.89Z"/><path class="cls-1" d="M313.38,296.53l.61,3.25a6,6,0,0,1,.61-.63l.13,1.12c.08.73.8.86,2,.36a.89.89,0,0,1,.88-.38c4.44.47,3-.06,4.57.51-.58-1.52,0-.13-.51-4.56a.89.89,0,0,1,.39-.89c.5-1.22.37-1.93-.36-2l-1.1-.13a6,6,0,0,1,.75-.75l-3.25-.61c-1.27-.24-1.59-1.49-.89-3.52a3.67,3.67,0,0,1-2.15.86H315v.12c-.29,1.3-2.87,3.89-4.17,4.17h-.12v.05a3.67,3.67,0,0,1-.86,2.15C311.89,294.94,313.14,295.26,313.38,296.53Z"/><path class="cls-1" d="M307.69,290.84l-3.25-.61a6,6,0,0,0,.63-.61l-1.12-.13c-.73-.08-.86-.8-.36-2a.89.89,0,0,0,.38-.88c-.47-4.44.06-3-.51-4.57,1.52.58.13,0,4.56.51a.89.89,0,0,0,.89-.39c1.22-.5,1.93-.37,2,.36l.13,1.1a6,6,0,0,0,.75-.75l.61,3.25c.24,1.27,1.49,1.59,3.52.89a3.67,3.67,0,0,0-.86,2.15v.05H315c-1.3.29-3.89,2.87-4.17,4.17v.12h-.05a3.67,3.67,0,0,0-2.15.86C309.28,292.33,309,291.08,307.69,290.84Z"/><path class="cls-1" d="M269.11,296.89l-4.75-2.12a3.38,3.38,0,0,0,.64-.61l-1.6-.61c-1-.4-1.51-1.45-1.29-2.94.32-.13.39-.53.19-1.08-2.38-6.36-1.11-4.21-2.5-6.55,2.34,1.39.19.12,6.55,2.5.55.21.95.14,1.08-.19,1.5-.22,2.54.24,2.94,1.29l.6,1.58a3.37,3.37,0,0,0,.75-.75l2.12,4.75c.83,1.86,2.69,2.79,5.25,2.61a3.35,3.35,0,0,0-.35,2.65l0,.07h-.16c-1.7-.11-4.28,2.47-4.17,4.17v.16l-.07,0a3.35,3.35,0,0,0-2.65.35C271.9,299.58,271,297.72,269.11,296.89Z"/><path class="cls-1" d="M267.72,296.53l-.61,3.25a6,6,0,0,0-.61-.63l-.13,1.12c-.08.73-.8.86-2,.36a.89.89,0,0,0-.88-.38c-4.44.47-3-.06-4.57.51.58-1.52,0-.13.51-4.56a.89.89,0,0,0-.39-.89c-.5-1.22-.37-1.93.36-2l1.1-.13a6,6,0,0,0-.75-.75l3.25-.61c1.27-.24,1.59-1.49.89-3.52a3.67,3.67,0,0,0,2.15.86h.05v.12c.29,1.3,2.87,3.89,4.17,4.17h.12v.05a3.67,3.67,0,0,0,.86,2.15C269.21,294.94,268,295.26,267.72,296.53Z"/><path class="cls-1" d="M273.41,290.84l3.25-.61a6,6,0,0,1-.63-.61l1.12-.13c.73-.08.86-.8.36-2a.89.89,0,0,1-.38-.88c.47-4.44-.06-3,.51-4.57-1.52.58-.13,0-4.56.51a.89.89,0,0,1-.89-.39c-1.22-.5-1.93-.37-2,.36l-.13,1.1a6,6,0,0,1-.75-.75l-.61,3.25c-.24,1.27-1.49,1.59-3.52.89a3.67,3.67,0,0,1,.86,2.15v.05h.12c1.3.29,3.89,2.87,4.17,4.17v.12h.05a3.67,3.67,0,0,1,2.15.86C271.82,292.33,272.14,291.08,273.41,290.84Z"/><path class="cls-1" d="M256.46,564.2h0c7.53-13,7.53-13,33.87-22,26.35,9,26.35,9,33.88,22h0l10.54-54.75a90.86,90.86,0,0,0-10.54-62.6h-.83a94,94,0,0,1-31.27-5.48l-1.77-.63-2.43.85a94,94,0,0,1-31.45,5.27h0a90.86,90.86,0,0,0-10.54,62.6Z"/><path class="cls-1" d="M244.29,446.85a90.86,90.86,0,0,0-10.54,62.6l10.54,54.75h0c-6.05-2-7.6,2.23-8.11,8.58-1.22,15.13-4.06,39.61-4.06,39.61l-4.31-32.73a162.76,162.76,0,0,0-25.87-68.92h0c-4.13-28.46,19.26-57.94,30.18-83l.17.85a29.28,29.28,0,0,0,12,18.3Z"/><path class="cls-1" d="M336.39,446.85a90.86,90.86,0,0,1,10.54,62.6L336.39,564.2h0c6.05-2,7.6,2.23,8.11,8.58,1.22,15.13,4.06,39.61,4.06,39.61l4.31-32.73a162.76,162.76,0,0,1,25.87-68.92h0c4.13-28.46-19.26-57.94-30.18-83l-.17.85a29.28,29.28,0,0,1-12,18.3Z"/><path class="cls-2" d="M284,749.55h0a129.71,129.71,0,0,1,5,21,1.69,1.69,0,0,1,0,.42l-.36,3.76a1.46,1.46,0,0,0,.85,1.39.91.91,0,0,1,.28.26q.43,3.76.69,7.61l1,15.42.06,1v0l0-.68,1-15.67q.25-3.87.7-7.66a.9.9,0,0,1,.28-.26,1.44,1.44,0,0,0,.85-1.37l-.36-3.75a1.69,1.69,0,0,1,0-.42,129.9,129.9,0,0,1,4.93-20.81,1.67,1.67,0,0,0,.08-.41c.69-10.13-2.08-20.5-4.71-30.16a1.65,1.65,0,0,1,0-.86h0a1.69,1.69,0,0,0-.21-1.34,13.56,13.56,0,0,1-.71-1.32,1.86,1.86,0,0,1-.11-.31c-.66-2.48-1.28-4.89-1.79-7.23v-.06h0v0c-.52,2.38-1.15,4.84-1.82,7.35a1.84,1.84,0,0,1-.12.32,12.45,12.45,0,0,1-1.1,1.89h0l.2.71a1.65,1.65,0,0,1,0,.86C286.09,728.92,283.3,739.36,284,749.55Z"/><path class="cls-1" d="M329.61,580.74a39.28,39.28,0,0,1,4.55,27.06l-4.55,23.67h0a4.24,4.24,0,0,1,5.55,3.69,140.85,140.85,0,0,1-.29,17.14l4.52-15.21a93.15,93.15,0,0,0-4.37-64.3l-.14-.33-.07.37a12.66,12.66,0,0,1-5.19,7.91Z"/><path class="cls-1" d="M253.1,580.74a39.28,39.28,0,0,0-4.55,27.06l4.55,23.67h0a4.24,4.24,0,0,0-5.55,3.69,140.85,140.85,0,0,0,.29,17.14l-4.52-15.21a93.15,93.15,0,0,1,4.37-64.3l.14-.33.07.37a12.66,12.66,0,0,0,5.19,7.91Z"/><path class="cls-2" d="M322.17,663.31a39.28,39.28,0,0,0-4.55,27.06L322.17,714h0a4.24,4.24,0,0,0-5.55,3.69,140.85,140.85,0,0,0,.29,17.14l-4.52-15.21a93.15,93.15,0,0,1,4.37-64.3l.14-.33.07.37a12.66,12.66,0,0,0,5.19,7.91Z"/><path class="cls-2" d="M261,663.31a39.28,39.28,0,0,1,4.55,27.06L261,714h0a4.24,4.24,0,0,1,5.55,3.69,140.85,140.85,0,0,1-.29,17.14l4.52-15.21a93.15,93.15,0,0,0-4.37-64.3l-.14-.33-.07.37a12.66,12.66,0,0,1-5.19,7.91Z"/><path class="cls-1" d="M212.89,443.83a39.28,39.28,0,0,0-16.1,22.22l-6.43,23.23h0a4.24,4.24,0,0,0-6.61.84,140.85,140.85,0,0,0-7.36,15.49L179.1,490c1.74-10.06,13.65-19.11,10-28.45-12.69-32.27,13.29-19.57,22.5-27.21l.27-.23-.1.36a12.66,12.66,0,0,0,1.13,9.39Z"/><path class="cls-1" d="M367.76,443.83a39.28,39.28,0,0,1,16.1,22.22l6.43,23.23h0a4.24,4.24,0,0,1,6.61.84,140.85,140.85,0,0,1,7.36,15.49L401.55,490c-1.74-10.06-13.65-19.11-10-28.45,12.69-32.27-13.29-19.57-22.5-27.21l-.27-.23.1.36a12.66,12.66,0,0,1-1.13,9.39Z"/><path class="cls-1" d="M239.53,476.19"/><path class="cls-1" d="M309,542.19h0c-5.14-1.51-12.72,2-18.69-8.86-6,10.9-13.55,7.35-18.69,8.86h0l-5.81-5.13c-2.28-2-.21-4.09,5.81-5.87h0l2.56.43a16,16,0,0,0,16.13-7.15h0a16.06,16.06,0,0,0,16.14,7.14l2.55-.43h0c6,1.77,8.09,3.86,5.81,5.87Z"/><path class="cls-1" d="M261.56,537.54h0c.31,1.4,4,2.22-.11,6.32,4.1-4.1,4.92-.42,6.32-.11h0l-.9,2.83c-.35,1.11-1.45,1.52-3.1,1.16h0l-.27-.58c-.67-1.43-2.74-1.47-5.28-.09h0c1.38-2.53,1.34-4.61-.09-5.28l-.58-.27h0c-.36-1.65.06-2.75,1.16-3.1Z"/><path class="cls-1" d="M294.73,524.47h0c-1.21-.78-4.39,1.26-4.39-4.55,0,5.8-3.19,3.77-4.39,4.55h0l-1.37-2.63c-.54-1-.05-2.1,1.37-3h0l.6.22c1.49.54,3-.9,3.79-3.67h0c.82,2.77,2.31,4.21,3.79,3.67l.6-.22h0c1.42.91,1.9,2,1.37,3Z"/><path class="cls-1" d="M320.1,537.54h0c-.31,1.4-4,2.22.11,6.32-4.1-4.1-4.92-.42-6.32-.11h0l.9,2.83c.35,1.11,1.45,1.52,3.1,1.16h0l.27-.58c.67-1.43,2.74-1.47,5.28-.09h0c-1.38-2.53-1.34-4.61.09-5.28l.58-.27h0c.36-1.65-.06-2.75-1.16-3.1Z"/><path class="cls-1" d="M281,564.72h0a13.82,13.82,0,0,0,18.69,0h0l2.91,8.23c1.14,3.23.11,6.57-2.91,9.41h0l-1.28-.69c-5.34-5.34-6.7.69-8.06.69s-2.72-6-8.07-.68l-1.28.68h0c-3-2.84-4-6.19-2.91-9.41Z"/><path class="cls-1" d="M304.16,584.28h0a10.46,10.46,0,0,0,10-10h0l6,2.85c2.34,1.12,3.57,3.46,3.48,6.59h0l-1.05.32c-5.72,0-3.22,4-3.95,4.68s-4.68-1.77-4.68,4l-.32,1h0c-3.13.09-5.47-1.15-6.59-3.48Z"/><path class="cls-1" d="M277.5,584.28h0a10.46,10.46,0,0,1-10-10h0l-6,2.85c-2.34,1.12-3.57,3.46-3.48,6.59h0l1.05.32c5.72,0,3.22,4,3.95,4.68s4.68-1.77,4.68,4l.32,1h0c3.13.09,5.47-1.15,6.59-3.48Z"/><path class="cls-1" d="M201.25,517.37h0a10.46,10.46,0,0,1-8.07-11.61h0l-6.37,1.75c-2.5.68-4.13,2.77-4.59,5.87h0l1,.5c5.63,1,2.47,4.46,3.05,5.31s4.92-.91,3.91,4.72l.13,1.09h0c3.07.65,5.59-.16,7.1-2.26Z"/><path class="cls-1" d="M379.23,517.37h0a10.46,10.46,0,0,0,8.07-11.61h0l6.37,1.75c2.5.68,4.13,2.77,4.59,5.87h0l-1,.5c-5.63,1-2.47,4.46-3.05,5.31s-4.92-.91-3.91,4.72l-.13,1.09h0c-3.07.65-5.59-.16-7.1-2.26Z"/><path class="cls-1" d="M194.56,406.27c4.41.22,7.33,14.25,6,16.86h0a32.7,32.7,0,0,1,28.72-11.9c6.5.66,12.81,1.77,15.65,3.44h0c2.86-5.24,11.67-8.31,20.36-7a89.2,89.2,0,0,1,17.11,4.2,20.93,20.93,0,0,1,8-4.19,20.93,20.93,0,0,1,8,4.19,89.2,89.2,0,0,1,17.11-4.2c8.68-1.27,17.5,1.81,20.36,7h0c2.85-1.67,9.16-2.78,15.65-3.44a32.7,32.7,0,0,1,28.72,11.9h0c-1.38-2.61,1.54-16.63,5.95-16.86,10.55-.53,27.66,14.91,27.66,14.91h0a38.88,38.88,0,0,0-32.17-21.49c-10.35-.7-21.09-1.14-27.47-1.32a226.52,226.52,0,0,1-39.94-4.62c-6.13-1.29-10.24-1.41-13.13-.8-6.95,1.46-6.83,7.13-10.74,10.84-3.91-3.71-3.79-9.38-10.74-10.84-2.89-.61-7-.49-13.13.8a226.52,226.52,0,0,1-39.94,4.62c-6.38.19-17.15.63-27.51,1.33a38.79,38.79,0,0,0-32.12,21.49h0S184,405.74,194.56,406.27Z"/><path class="cls-1" d="M198,565.37c4.06,7.39,10.39,12,12.24,20.18,1.61,7.15.68,17.52,4,24.18l7.09,14.2A140.84,140.84,0,0,1,218,607.09a4.24,4.24,0,0,1,4.83-4.6l-2.29-6c-1.1-2.89-2.63-17.12.31-21.59h0a10.75,10.75,0,0,1-9.13-11.2,39.18,39.18,0,0,1,2.3-11.17,12.66,12.66,0,0,1-6.48-6.89l-.14-.35-.08.35c-1.54,6.23-10.69,6-11.59,11.85C195.48,559.37,196,561.85,198,565.37Z"/><path class="cls-1" d="M382.71,565.37c-4.06,7.39-10.39,12-12.24,20.18-1.61,7.15-.68,17.52-4,24.18l-7.09,14.2a140.84,140.84,0,0,0,3.26-16.83,4.24,4.24,0,0,0-4.83-4.6l2.29-6c1.1-2.89,2.63-17.12-.31-21.59h0a10.75,10.75,0,0,0,9.13-11.2,39.18,39.18,0,0,0-2.3-11.17,12.66,12.66,0,0,0,6.48-6.89l.14-.35.08.35c1.54,6.23,10.69,6,11.59,11.85C385.2,559.37,384.64,561.85,382.71,565.37Z"/><path class="cls-1" d="M348.56,536.37l-2.29,6a4.24,4.24,0,0,1,4.83,4.6,140.85,140.85,0,0,1-3.26,16.83l7.09-14.2c3.32-6.66,2.39-17,4-24.18,1.85-8.23,8.19-12.79,12.24-20.18,1.93-3.52,2.49-6,2.2-7.87-.89-5.83-10-5.62-11.59-11.85l-.08-.35-.11.29a47.5,47.5,0,0,1-3.32-10.09c-1.44-7.18-1.86-17.31-4.13-24.16l-4.83-14.59s2.24,10.37,3.12,16.86c.37,2.71-.64,4.72-2.05,4.11l1.68,6.09c.81,2.94,2.82,17.09,1.72,21.23h0c1.69.77,3.23,2.88,4.27,5.59a12.65,12.65,0,0,1-3,1.91,39.18,39.18,0,0,1,2.3,11.17,10.75,10.75,0,0,1-9.13,11.2h0C351.19,519.25,349.66,533.48,348.56,536.37Z"/><path class="cls-1" d="M231.69,536.37l2.29,6a4.24,4.24,0,0,0-4.83,4.6,140.85,140.85,0,0,0,3.26,16.83l-7.09-14.2c-3.32-6.66-2.39-17-4-24.18-1.85-8.23-8.19-12.79-12.24-20.18-1.93-3.52-2.49-6-2.2-7.87.89-5.83,10-5.62,11.59-11.85l.08-.35.11.29A47.5,47.5,0,0,0,222,475.37c1.44-7.18,1.86-17.31,4.13-24.16l4.83-14.59s-2.24,10.37-3.12,16.86c-.37,2.71.64,4.72,2.05,4.11l-1.68,6.09c-.81,2.94-2.82,17.09-1.72,21.23h0c-1.69.77-3.23,2.88-4.27,5.59a12.65,12.65,0,0,0,3,1.91,39.18,39.18,0,0,0-2.3,11.17,10.75,10.75,0,0,0,9.13,11.2h0C229.05,519.25,230.58,533.48,231.69,536.37Z"/><path class="cls-1" d="M164.61,536.37l2.29,6a4.24,4.24,0,0,0-4.83,4.6,140.85,140.85,0,0,0,3.26,16.83l-7.09-14.2c-3.32-6.66-2.39-17-4-24.18-1.85-8.23-8.19-12.79-12.24-20.18-1.93-3.52-2.49-6-2.2-7.87.89-5.83,10-5.62,11.59-11.85l.08-.35.11.29a47.5,47.5,0,0,0,3.32-10.09c1.44-7.18,1.86-17.31,4.13-24.16l4.83-14.59s-2.24,10.37-3.12,16.86c-.37,2.71.64,4.72,2.05,4.11l-1.68,6.09c-.81,2.94-2.82,17.09-1.72,21.23h0c-1.69.77-3.23,2.88-4.27,5.59a12.65,12.65,0,0,0,3,1.91,39.18,39.18,0,0,0-2.3,11.17,10.75,10.75,0,0,0,9.13,11.2h0C162,519.25,163.51,533.48,164.61,536.37Z"/><path class="cls-1" d="M416.06,536.37l-2.29,6a4.24,4.24,0,0,1,4.83,4.6,140.85,140.85,0,0,1-3.26,16.83l7.09-14.2c3.32-6.66,2.39-17,4-24.18,1.85-8.23,8.19-12.79,12.24-20.18,1.93-3.52,2.49-6,2.2-7.87-.89-5.83-10-5.62-11.59-11.85l-.08-.35-.11.29a47.5,47.5,0,0,1-3.32-10.09c-1.44-7.18-1.86-17.31-4.13-24.16l-4.83-14.59S419,447,419.92,453.47c.37,2.71-.64,4.72-2.05,4.11l1.68,6.09c.81,2.94,2.82,17.09,1.72,21.23h0c1.69.77,3.23,2.88,4.27,5.59a12.65,12.65,0,0,1-3,1.91,39.18,39.18,0,0,1,2.3,11.17,10.75,10.75,0,0,1-9.13,11.2h0C418.7,519.25,417.17,533.48,416.06,536.37Z"/><path class="cls-1" d="M324.21,600.75h0a13.82,13.82,0,0,0,0,18.69h0a22.56,22.56,0,0,0-9.57,21.11L316,652.3c-6.57-29.85-6.57-29.85-9.41-32.86h0l.69-1.28c5.34-5.34-.69-6.7-.69-8.06s6-2.72.68-8.07l-.68-1.28h0c2.84-3,6.19-4,9.41-2.91Z"/><path class="cls-1" d="M259,600.75h0a13.82,13.82,0,0,1,0,18.69h0a22.56,22.56,0,0,1,9.57,21.11l-1.34,11.75c6.57-29.85,6.57-29.85,9.41-32.86h0l-.69-1.28c-5.34-5.34.69-6.7.69-8.06s-6-2.72-.68-8.07l.68-1.28h0c-2.84-3-6.19-4-9.41-2.91Z"/><path class="cls-1" d="M265.84,567.66l5.81,5.4c10.28-3.18,27.1-3.18,37.38,0l5.81-5.4c2.28-2.12.21-4.31-5.81-6.18h0a5.26,5.26,0,0,1-4.45-1.3c-14-12.75-10.91-7.76-14.24-13.19-3.32,5.44-.27.45-14.22,13.19a5.27,5.27,0,0,1-4.47,1.3h0C265.62,563.35,263.56,565.54,265.84,567.66Zm20.11-5.45.6.14c1.49.36,3-.59,3.79-2.41.82,1.82,2.31,2.76,3.79,2.41l.6-.14c1.42.6,1.9,1.3,1.37,2l-1.37,1.73c-1.21-.51-4.39.82-4.39-3,0,3.81-3.19,2.48-4.39,3l-1.37-1.73C284,563.51,284.53,562.81,285.95,562.21Z"/><path class="cls-1" d="M282.33,618.22l-4.47,23.67a4.05,4.05,0,0,1,2.11-.12l-1.68,7.64A18.93,18.93,0,0,0,281.1,664c.77-.66,1.57.47,2.15,3.06,6.74,30.1,5.26,18.32,6.87,31.16,1.6-12.85.13-1.06,6.86-31.15.58-2.6,1.38-3.74,2.15-3.07a18.93,18.93,0,0,0,2.8-14.58l-1.65-7.53a4.05,4.05,0,0,1,2.54,0l-4.47-23.67a40,40,0,0,1,4.47-27.06,12.68,12.68,0,0,1-5.09-7.91l-.07-.37-.14.33-.11.25a7.68,7.68,0,0,1-14.14,0l-.11-.25-.14-.33-.07.37a12.68,12.68,0,0,1-5.09,7.91A40,40,0,0,1,282.33,618.22Z"/><path class="cls-1" d="M282.33,466.26l-4.47,11.64a8.1,8.1,0,0,1,2.11-.06l-1.68,3.76c-1.1,2.46-.1,5,2.8,7.17.77-.33,1.57.23,2.15,1.5,6.74,14.81,5.26,9,6.87,15.33,1.6-6.32.13-.52,6.86-15.32.58-1.28,1.38-1.84,2.15-1.51,2.91-2.17,3.9-4.72,2.8-7.17l-1.65-3.7a8.08,8.08,0,0,1,2.54,0l-4.47-11.64c-1.75-4.56-.16-9.29,4.47-13.31-2.63-.92-4.46-2.31-5.09-3.89l-.07-.18-.14.16-.11.12c-2.69,3.07-11.45,3.07-14.14,0l-.11-.12-.14-.16-.07.18c-.63,1.58-2.45,3-5.09,3.89C282.49,457,284.08,461.7,282.33,466.26Z"/><path class="cls-1" d="M265.84,435.33l5.81,5.4c10.28-3.18,27.1-3.18,37.38,0l5.81-5.4c2.28-2.12.21-4.31-5.81-6.18h0a5.26,5.26,0,0,1-4.45-1.3c-14-12.75-10.91-7.76-14.24-13.19-3.32,5.44-.27.45-14.22,13.19a5.27,5.27,0,0,1-4.47,1.3h0C265.62,431,263.56,433.21,265.84,435.33Zm28.9-4-.6-.14c-1.49-.36-3,.59-3.79,2.41-.82-1.82-2.31-2.76-3.79-2.41l-.6.14c-1.42-.6-1.9-1.3-1.37-2l1.37-1.73c1.21.51,4.39-.82,4.39,3,0-3.81,3.19-2.48,4.39-3l1.37,1.73C296.63,430,296.15,430.73,294.73,431.32Z"/><path class="cls-1" d="M250.66,438.35l2.56,2.38a32.74,32.74,0,0,1,16.46,0l2.56-2.38c1-.93.09-1.9-2.56-2.72h0a2.32,2.32,0,0,1-2-.57c-6.15-5.61-4.81-3.42-6.27-5.81-1.46,2.4-.12.2-6.26,5.81a2.32,2.32,0,0,1-2,.57h0C250.57,436.45,249.66,437.42,250.66,438.35Zm8.86-2.4.27.06a1.52,1.52,0,0,0,1.67-1.06,1.52,1.52,0,0,0,1.67,1.06l.26-.06c.62.26.84.57.6.87l-.6.76c-.53-.22-1.93.36-1.93-1.31,0,1.68-1.4,1.09-1.93,1.31l-.6-.76C258.68,436.52,258.9,436.21,259.52,436Z"/><path class="cls-1" d="M307.68,438.35l2.56,2.38a32.74,32.74,0,0,1,16.46,0l2.56-2.38c1-.93.09-1.9-2.56-2.72h0a2.32,2.32,0,0,1-2-.57c-6.15-5.61-4.81-3.42-6.27-5.81-1.46,2.4-.12.2-6.26,5.81a2.32,2.32,0,0,1-2,.57h0C307.58,436.45,306.67,437.42,307.68,438.35Zm8.86-2.4.27.06a1.85,1.85,0,0,1,3.34,0l.26-.06c.62.26.84.57.6.87l-.6.76c-.53-.22-1.93.36-1.93-1.31,0,1.68-1.4,1.09-1.93,1.31l-.6-.76C315.69,436.52,315.91,436.21,316.53,436Z"/><path class="cls-1" d="M280.58,469.23,274,464.76a14.38,14.38,0,0,1,0,2.11L272,465.2c-1.38-1.1-2.81-.1-4,2.8a2.12,2.12,0,0,1-.84,2.15c-8.31,6.74-5.06,5.26-8.6,6.87,3.55,1.6.29.13,8.6,6.86a2.13,2.13,0,0,1,.85,2.15c1.22,2.91,2.65,3.9,4,2.8l2.08-1.65a14.32,14.32,0,0,1,0,2.54l6.53-4.47c2.56-1.75,5.21-.16,7.47,4.47.52-2.63,1.3-4.46,2.18-5.09l.1-.07-.09-.14-.07-.11c-1.72-2.69-1.72-11.45,0-14.14l.07-.11.09-.14-.1-.07c-.89-.63-1.67-2.45-2.18-5.09C285.79,469.39,283.14,471,280.58,469.23Z"/><path class="cls-1" d="M299.86,469.23l6.53-4.47a14.38,14.38,0,0,0,0,2.11l2.11-1.68c1.38-1.1,2.81-.1,4,2.8a2.12,2.12,0,0,0,.84,2.15c8.31,6.74,5.06,5.26,8.6,6.87-3.55,1.6-.29.13-8.6,6.86a2.13,2.13,0,0,0-.85,2.15c-1.22,2.91-2.65,3.9-4,2.8l-2.08-1.65a14.32,14.32,0,0,0,0,2.54l-6.53-4.47c-2.56-1.75-5.21-.16-7.47,4.47-.52-2.63-1.3-4.46-2.18-5.09l-.1-.07.09-.14.07-.11c1.72-2.69,1.72-11.45,0-14.14l-.07-.11-.09-.14.1-.07c.89-.63,1.67-2.45,2.18-5.09C294.65,469.39,297.3,471,299.86,469.23Z"/><path class="cls-1" d="M268.69,503.5l-4.75,2.12a3.38,3.38,0,0,1,.64.61l-1.6.61c-1,.4-1.51,1.45-1.29,2.94.32.13.39.53.19,1.08-2.38,6.36-1.11,4.21-2.5,6.55,2.34-1.39.19-.12,6.55-2.5.55-.21.95-.14,1.08.19,1.5.22,2.54-.24,2.94-1.29l.6-1.58a3.37,3.37,0,0,1,.75.75l2.12-4.75c.83-1.86,2.69-2.79,5.25-2.61a3.35,3.35,0,0,1-.35-2.65l0-.07h-.16c-1.7.11-4.28-2.47-4.17-4.17v-.16l-.07,0a3.35,3.35,0,0,1-2.65-.35C271.48,500.81,270.55,502.67,268.69,503.5Z"/><path class="cls-1" d="M267.3,503.86l-.61-3.25a6,6,0,0,1-.61.63l-.13-1.12c-.08-.73-.8-.86-2-.36a.89.89,0,0,1-.88.38c-4.44-.47-3,.06-4.57-.51.58,1.52,0,.13.51,4.56a.89.89,0,0,1-.39.89c-.5,1.22-.37,1.93.36,2l1.1.13a6,6,0,0,1-.75.75l3.25.61c1.27.24,1.59,1.49.89,3.52a3.67,3.67,0,0,1,2.15-.86h.05v-.12c.29-1.3,2.87-3.89,4.17-4.17H270v-.05a3.67,3.67,0,0,1,.86-2.15C268.79,505.45,267.54,505.13,267.3,503.86Z"/><path class="cls-1" d="M273,509.55l3.25.61a6,6,0,0,0-.63.61l1.12.13c.73.08.86.8.36,2a.89.89,0,0,0-.38.88c.47,4.44-.06,3,.51,4.57-1.52-.58-.13,0-4.56-.51a.89.89,0,0,0-.89.39c-1.22.5-1.93.37-2-.36l-.13-1.1a6,6,0,0,0-.75.75l-.61-3.25c-.24-1.27-1.49-1.59-3.52-.89a3.67,3.67,0,0,0,.86-2.15v-.05h.12c1.3-.29,3.89-2.87,4.17-4.17v-.12H270a3.67,3.67,0,0,0,2.15-.86C271.4,508.06,271.71,509.31,273,509.55Z"/><path class="cls-1" d="M311.57,503.5l4.75,2.12a3.38,3.38,0,0,0-.64.61l1.6.61c1,.4,1.51,1.45,1.29,2.94-.32.13-.39.53-.19,1.08,2.38,6.36,1.11,4.21,2.5,6.55-2.34-1.39-.19-.12-6.55-2.5-.55-.21-.95-.14-1.08.19-1.5.22-2.54-.24-2.94-1.29l-.6-1.58a3.37,3.37,0,0,0-.75.75l-2.12-4.75c-.83-1.86-2.69-2.79-5.25-2.61a3.35,3.35,0,0,0,.35-2.65l0-.07h.16c1.7.11,4.28-2.47,4.17-4.17v-.16l.07,0a3.35,3.35,0,0,0,2.65-.35C308.78,500.81,309.71,502.67,311.57,503.5Z"/><path class="cls-1" d="M313,503.86l.61-3.25a6,6,0,0,0,.61.63l.13-1.12c.08-.73.8-.86,2-.36a.89.89,0,0,0,.88.38c4.44-.47,3,.06,4.57-.51-.58,1.52,0,.13-.51,4.56a.89.89,0,0,0,.39.89c.5,1.22.37,1.93-.36,2l-1.1.13a6,6,0,0,0,.75.75l-3.25.61c-1.27.24-1.59,1.49-.89,3.52a3.67,3.67,0,0,0-2.15-.86h-.05v-.12c-.29-1.3-2.87-3.89-4.17-4.17h-.12v-.05a3.67,3.67,0,0,0-.86-2.15C311.47,505.45,312.72,505.13,313,503.86Z"/><path class="cls-1" d="M307.27,509.55l-3.25.61a6,6,0,0,1,.63.61l-1.12.13c-.73.08-.86.8-.36,2a.89.89,0,0,1,.38.88c-.47,4.44.06,3-.51,4.57,1.52-.58.13,0,4.56-.51a.89.89,0,0,1,.89.39c1.22.5,1.93.37,2-.36l.13-1.1a6,6,0,0,1,.75.75l.61-3.25c.24-1.27,1.49-1.59,3.52-.89a3.67,3.67,0,0,1-.86-2.15v-.05h-.12c-1.3-.29-3.89-2.87-4.17-4.17v-.12h-.05a3.67,3.67,0,0,1-2.15-.86C308.86,508.06,308.54,509.31,307.27,509.55Z"/><path class="cls-1" d="M504.39,418.94h0c-4.2-4.42-4.2-4.42-7.09-19.88,2.89-15.46,2.89-15.46,7.09-19.88h0L486.75,373c-6.92-2.42-14.08-.23-20.18,6.18h0v.49A96.83,96.83,0,0,1,464.8,398l-.2,1,.27,1.42a97.08,97.08,0,0,1,1.7,18.45h0c6.1,6.41,13.26,8.61,20.18,6.18Z"/><path class="cls-1" d="M466.56,426.08c6.1,6.41,13.26,8.61,20.18,6.18l17.65-6.18h0c-.64,3.55.72,4.46,2.77,4.76,4.88.71,12.77,2.38,12.77,2.38l-10.55,2.53c-7.95,1.91-15.55,7.1-22.22,15.18h0c-9.17,2.42-18.68-11.3-26.77-17.71l.28-.1c2.39-.87,4.51-3.4,5.9-7Z"/><path class="cls-1" d="M466.56,372c6.1-6.41,13.26-8.61,20.18-6.18L504.39,372h0c-.64-3.55.72-4.46,2.77-4.76,4.88-.71,12.77-2.38,12.77-2.38l-10.55-2.53c-7.95-1.91-15.55-7.1-22.22-15.18h0c-9.17-2.42-18.68,11.3-26.77,17.71l.28.1c2.39.87,4.51,3.4,5.9,7Z"/><path class="cls-1" d="M564.14,402.75h0a27.45,27.45,0,0,1,6.78-2.93.3.3,0,0,1,.14,0l1.21.21c.19,0,.35-.19.45-.5a.54.54,0,0,1,.08-.17c.81-.17,1.63-.31,2.45-.41l5-.6.31,0h0l-.22,0-5.05-.61c-.83-.1-1.65-.24-2.47-.41a.54.54,0,0,1-.08-.17c-.09-.31-.25-.53-.44-.5l-1.21.21a.3.3,0,0,1-.14,0,27.46,27.46,0,0,1-6.71-2.89.34.34,0,0,0-.13,0c-3.26-.4-6.61,1.22-9.72,2.77a.3.3,0,0,1-.28,0h0a.35.35,0,0,0-.43.13,4.52,4.52,0,0,1-.43.42l-.1.07c-.8.39-1.58.75-2.33,1.05h0c.77.3,1.56.67,2.37,1.07l.1.07a4.42,4.42,0,0,1,.61.65h0l.23-.12a.3.3,0,0,1,.28,0C557.49,401.55,560.86,403.19,564.14,402.75Z"/><path class="cls-1" d="M509.73,376c2.64-2.77,5.73-3.72,8.72-2.67l7.63,2.67h0c-.27-1.53.31-3.13,1.19-3.26a25,25,0,0,1,5.53.17l-4.9-2.65c-6.85-3.7-14.19-2.71-20.73,2.57l-.11.08.12,0a4.91,4.91,0,0,1,2.55,3Z"/><path class="cls-1" d="M509.73,420.91c2.64,2.77,5.73,3.72,8.72,2.67l7.63-2.67h0c-.27,1.53.31,3.13,1.19,3.26a25,25,0,0,0,5.53-.17l-4.9,2.65c-6.85,3.7-14.19,2.71-20.73-2.57l-.11-.08.12,0a4.91,4.91,0,0,0,2.55-3Z"/><path class="cls-1" d="M536.34,380.38c2.64,2.77,5.73,3.72,8.72,2.67l7.63-2.67h0c-.27,1.53.31,3.13,1.19,3.26a25,25,0,0,0,5.53-.17l-4.9,2.65c-6.85,3.7-14.19,2.71-20.73-2.57l-.11-.08.12,0a4.91,4.91,0,0,0,2.55-3Z"/><path class="cls-1" d="M536.34,416.27c2.64-2.77,5.73-3.72,8.72-2.67l7.63,2.67h0c-.27-1.53.31-3.13,1.19-3.26a25,25,0,0,1,5.53.17l-4.9-2.65c-6.85-3.7-14.19-2.71-20.73,2.57l-.11.08.12,0a4.91,4.91,0,0,1,2.55,3Z"/><path class="cls-1" d="M465.59,444.51c1.69,4.61,4.23,8,7.16,9.45l7.49,3.77h0a3.86,3.86,0,0,0,.27,3.88,42,42,0,0,0,5,4.32l-5-1.59c-3.24-1-6.16-8-9.17-5.86-10.4,7.45-6.31-7.8-8.77-13.2l-.07-.16.12.06a2.53,2.53,0,0,0,3-.67Z"/><path class="cls-1" d="M465.59,353.63c1.69-4.61,4.23-8,7.16-9.45l7.49-3.77h0a3.86,3.86,0,0,1,.27-3.88,42,42,0,0,1,5-4.32l-5,1.59c-3.24,1-6.16,8-9.17,5.86-10.4-7.45-6.31,7.8-8.77,13.2l-.07.16.12-.06a2.53,2.53,0,0,1,3,.67Z"/><path class="cls-1" d="M476,428.87"/><path class="cls-1" d="M497.3,388.09h0c-.49,3,.66,7.46-2.86,11,3.51,3.5,2.37,8,2.86,11h0l-1.65,3.41c-.65,1.34-1.32.13-1.89-3.41h0l.14-1.5c.34-3.71-.57-7.43-2.3-9.46h0c1.74-2,2.64-5.76,2.3-9.47l-.14-1.5h0c.57-3.54,1.24-4.75,1.89-3.41Z"/><path class="cls-1" d="M495.8,415.94h0c.45-.18.72-2.34,2,.06-1.32-2.41-.13-2.89,0-3.71h0l.91.53c.36.21.49.85.38,1.82h0l-.19.16c-.46.39-.47,1.61,0,3.1h0c-.82-.81-1.49-.79-1.7.05l-.09.34h0c-.53.21-.88,0-1-.68Z"/><path class="cls-1" d="M491.59,396.48h0c-.25.71.4,2.58-1.47,2.58,1.87,0,1.22,1.87,1.47,2.58h0l-.85.8c-.33.31-.68,0-1-.8h0l.07-.35a2.08,2.08,0,0,0-1.18-2.22h0a2.09,2.09,0,0,0,1.18-2.23l-.07-.35h0c.29-.83.64-1.12,1-.8Z"/><path class="cls-1" d="M495.8,381.6h0c.45.18.72,2.34,2-.06-1.32,2.41-.13,2.89,0,3.71h0l.91-.53c.36-.21.49-.85.38-1.82h0l-.19-.16c-.46-.39-.47-1.61,0-3.1h0c-.82.81-1.49.79-1.7-.05l-.09-.34h0c-.53-.21-.88,0-1,.68Z"/><path class="cls-1" d="M504.56,404.54h0a13.4,13.4,0,0,0,0-11h0l2.65-1.71c1-.67,2.12-.06,3,1.71h0l-.22.75c-1.72,3.14.22,3.93.22,4.73s-1.94,1.6-.22,4.74l.22.75h0c-.92,1.77-2,2.37-3,1.71Z"/><path class="cls-1" d="M510.87,390.94h0c0-3.14-1.5-5.78-3.22-5.87h0l.92-3.5c.36-1.37,1.11-2.1,2.12-2h0l.1.62c0,3.36,1.27,1.89,1.51,2.32s-.57,2.75,1.27,2.75l.34.19h0c0,1.84-.37,3.21-1.12,3.87Z"/><path class="cls-1" d="M510.87,406.59h0c0,3.14-1.5,5.78-3.22,5.87h0l.92,3.5c.36,1.37,1.11,2.1,2.12,2h0l.1-.62c0-3.36,1.27-1.89,1.51-2.32s-.57-2.75,1.27-2.75l.34-.19h0c0-1.84-.37-3.21-1.12-3.87Z"/><path class="cls-1" d="M489.3,451.34h0c-.35,3.07-2,5.2-3.74,4.73h0l.56,3.74c.22,1.46.89,2.42,1.89,2.7h0l.16-.58c.33-3.3,1.44-1.45,1.71-1.79s-.29-2.89,1.52-2.29l.35-.07h0a5.9,5.9,0,0,0-.73-4.17Z"/><path class="cls-1" d="M489.3,346.9h0c-.35-3.07-2-5.2-3.74-4.73h0l.56-3.74c.22-1.46.89-2.42,1.89-2.7h0l.16.58c.33,3.3,1.44,1.45,1.71,1.79s-.29,2.89,1.52,2.29l.35.07h0a5.9,5.9,0,0,1-.73,4.17Z"/><path class="cls-1" d="M453.48,455.26c.07-2.59,4.59-4.3,5.43-3.49h0c-2.76-4.08-4.2-10.41-3.84-16.85a48,48,0,0,1,1.11-9.19h0c-1.69-1.68-2.68-6.85-2.27-11.95a89.48,89.48,0,0,1,1.36-10,17.29,17.29,0,0,1-1.35-4.69,17.29,17.29,0,0,1,1.35-4.69,89.48,89.48,0,0,1-1.36-10c-.41-5.1.58-10.27,2.27-11.95h0a48,48,0,0,1-1.11-9.19c-.36-6.44,1.08-12.78,3.84-16.85h0c-.84.81-5.36-.9-5.43-3.49-.17-6.19,4.81-16.23,4.81-16.23h0c-4,3.61-6.63,10.79-6.93,18.88-.23,6.07-.37,12.38-.43,16.12-.13,8-.61,15.88-1.49,23.44a35,35,0,0,0-.26,7.7c.47,4.08,2.3,4,3.49,6.3-1.2,2.3-3,2.22-3.49,6.3a35,35,0,0,0,.26,7.7c.87,7.56,1.36,15.46,1.49,23.44.06,3.74.2,10.06.43,16.15.3,8.08,2.94,15.25,6.93,18.85h0S453.31,461.45,453.48,455.26Z"/><path class="cls-1" d="M504.77,453.26c2.38-2.38,3.85-6.1,6.51-7.18,2.3-.94,5.65-.4,7.79-2.35l4.58-4.16a28.38,28.38,0,0,1-5.43,1.91c-.88.15-1.61-1.24-1.48-2.83L514.81,440c-.93.65-5.52,1.54-7-.18h0c-.27,3.21-1.83,5.54-3.61,5.36a8,8,0,0,1-3.6-1.35,6.63,6.63,0,0,1-2.22,3.8l-.11.08.11,0c2,.91,1.94,6.28,3.82,6.8C502.84,454.72,503.64,454.39,504.77,453.26Z"/><path class="cls-1" d="M504.77,344.86c2.38,2.38,3.85,6.1,6.51,7.18,2.3.94,5.65.4,7.79,2.35l4.58,4.16a28.38,28.38,0,0,0-5.43-1.91c-.88-.15-1.61,1.24-1.48,2.83l-1.93-1.34c-.93-.65-5.52-1.54-7,.18h0c-.27-3.21-1.83-5.54-3.61-5.36a8,8,0,0,0-3.6,1.35,6.63,6.63,0,0,0-2.22-3.8l-.11-.08.11,0c2-.91,1.94-6.28,3.82-6.8C502.84,343.39,503.64,343.72,504.77,344.86Z"/><path class="cls-1" d="M495.42,364.9l1.93,1.34c-.12-1.59.6-3,1.48-2.83a28.38,28.38,0,0,1,5.43,1.91l-4.58-4.16c-2.15-2-5.49-1.4-7.79-2.35-2.65-1.09-4.12-4.8-6.51-7.18-1.13-1.13-1.94-1.46-2.54-1.29-1.88.52-1.81,5.89-3.82,6.8l-.11,0,.09.07a11.49,11.49,0,0,1-3.25,1.95c-2.31.84-5.58,1.09-7.79,2.42l-4.7,2.84a56.64,56.64,0,0,1,5.43-1.83c.87-.22,1.52.38,1.32,1.21l2-1c.95-.48,5.51-1.66,6.84-1h0a4.5,4.5,0,0,1,1.8-2.51,9.53,9.53,0,0,1,.61,1.73,8,8,0,0,1,3.6-1.35c1.78-.18,3.34,2.15,3.61,5.36h0C489.9,363.35,494.49,364.25,495.42,364.9Z"/><path class="cls-1" d="M495.42,433.47l1.93-1.34c-.12,1.59.6,3,1.48,2.83a28.38,28.38,0,0,0,5.43-1.91l-4.58,4.16c-2.15,2-5.49,1.4-7.79,2.35-2.65,1.09-4.12,4.8-6.51,7.18-1.13,1.13-1.94,1.46-2.54,1.29-1.88-.52-1.81-5.89-3.82-6.8l-.11,0,.09-.07a11.49,11.49,0,0,0-3.25-1.95c-2.31-.84-5.58-1.09-7.79-2.42l-4.7-2.84a56.64,56.64,0,0,0,5.43,1.83c.87.22,1.52-.38,1.32-1.21l2,1c.95.48,5.51,1.66,6.84,1h0a4.5,4.5,0,0,0,1.8,2.51,9.53,9.53,0,0,0,.61-1.73,8,8,0,0,0,3.6,1.35c1.78.18,3.34-2.15,3.61-5.36h0C489.9,435,494.49,434.12,495.42,433.47Z"/><path class="cls-1" d="M495.42,472.83l1.93-1.34c-.12,1.59.6,3,1.48,2.83a28.38,28.38,0,0,0,5.43-1.91l-4.58,4.16c-2.15,2-5.49,1.4-7.79,2.35-2.65,1.09-4.12,4.8-6.51,7.18-1.13,1.13-1.94,1.46-2.54,1.29-1.88-.52-1.81-5.89-3.82-6.8l-.11,0,.09-.07a11.49,11.49,0,0,0-3.25-1.95c-2.31-.84-5.58-1.09-7.79-2.42l-4.7-2.84a56.64,56.64,0,0,0,5.43,1.83c.87.22,1.52-.38,1.32-1.21l2,1c.95.48,5.51,1.66,6.84,1h0a4.5,4.5,0,0,0,1.8,2.51,9.53,9.53,0,0,0,.61-1.73,8,8,0,0,0,3.6,1.35c1.78.18,3.34-2.15,3.61-5.36h0C489.9,474.38,494.49,473.48,495.42,472.83Z"/><path class="cls-1" d="M495.42,325.28l1.93,1.34c-.12-1.59.6-3,1.48-2.83a28.38,28.38,0,0,1,5.43,1.91l-4.58-4.16c-2.15-2-5.49-1.4-7.79-2.35-2.65-1.09-4.12-4.8-6.51-7.18-1.13-1.13-1.94-1.46-2.54-1.29-1.88.52-1.81,5.89-3.82,6.8l-.11,0,.09.07a11.49,11.49,0,0,1-3.25,1.95c-2.31.84-5.58,1.09-7.79,2.42l-4.7,2.84A56.64,56.64,0,0,1,468.7,323c.87-.22,1.52.38,1.32,1.21l2-1c.95-.48,5.51-1.66,6.84-1h0a4.5,4.5,0,0,1,1.8-2.51,9.53,9.53,0,0,1,.61,1.73,8,8,0,0,1,3.6-1.35c1.78-.18,3.34,2.15,3.61,5.36h0C489.9,323.74,494.49,324.63,495.42,325.28Z"/><path class="cls-1" d="M516.18,379.18h0c1.66,2.85,4.37,2.85,6,0h0c1.53,4,4.14,6.17,6.81,5.62l3.79-.79c-9.62,3.85-9.62,3.85-10.59,5.52h0l-.41-.4c-1.72-3.14-2.16.4-2.6.4s-.88-3.54-2.6-.4l-.41.4h0a8,8,0,0,1-.94-5.52Z"/><path class="cls-1" d="M516.18,417.47h0c1.66-2.85,4.37-2.85,6,0h0c1.53-4,4.14-6.17,6.81-5.62l3.79.79c-9.62-3.85-9.62-3.85-10.59-5.52h0l-.41.4c-1.72,3.14-2.16-.4-2.6-.4s-.88,3.54-2.6.4l-.41-.4h0a8,8,0,0,0-.94,5.52Z"/><path class="cls-1" d="M505.51,413.44l1.74-3.41a78.52,78.52,0,0,1,0-21.93l-1.74-3.41c-.68-1.34-1.39-.13-2,3.41h0a5,5,0,0,1-.42,2.61c-4.11,8.2-2.5,6.4-4.25,8.36,1.75,1.95.15.16,4.25,8.35a5,5,0,0,1,.42,2.62h0C504.12,413.56,504.83,414.77,505.51,413.44Zm-1.76-11.8,0-.35a3.58,3.58,0,0,1,0-4.45l0-.35c.19-.83.42-1.12.64-.8l.56.8c-.16.71.27,2.58-1,2.58,1.23,0,.8,1.87,1,2.58l-.56.8C504.17,402.75,503.95,402.47,503.75,401.63Z"/><path class="cls-1" d="M521.81,403.76l7.63,2.62a4.26,4.26,0,0,1,0-1.24l2.46,1c1.61.64,3.28.06,4.7-1.64-.21-.45.15-.92,1-1.26,9.7-4,5.9-3.09,10-4-4.14-.94-.34-.08-10-4-.84-.34-1.2-.81-1-1.26-1.42-1.71-3.09-2.29-4.7-1.64l-2.43,1a4.25,4.25,0,0,1,0-1.49l-7.63,2.62c-3,1-6.09.1-8.72-2.62a4.85,4.85,0,0,1-2.55,3l-.12,0,.11.08.08.06c2,1.58,2,6.72,0,8.3l-.08.06-.11.08.12,0a4.85,4.85,0,0,1,2.55,3C515.72,403.66,518.82,402.73,521.81,403.76Z"/><path class="cls-1" d="M472.82,403.76l3.75,2.62a8.62,8.62,0,0,1,0-1.24l1.21,1c.79.64,1.61.06,2.31-1.64a1.26,1.26,0,0,1,.49-1.26c4.77-4,2.9-3.09,4.94-4-2-.94-.17-.08-4.94-4a1.26,1.26,0,0,1-.49-1.26c-.7-1.71-1.52-2.29-2.31-1.64l-1.19,1a8.59,8.59,0,0,1,0-1.49l-3.75,2.62c-1.47,1-3,.1-4.29-2.62a5.21,5.21,0,0,1-1.25,3l-.06,0,.05.08,0,.06c1,1.58,1,6.72,0,8.3l0,.06-.05.08.06,0a5.21,5.21,0,0,1,1.25,3C469.83,403.66,471.35,402.73,472.82,403.76Z"/><path class="cls-1" d="M462.85,413.44l1.74-3.41a78.52,78.52,0,0,1,0-21.93l-1.74-3.41c-.68-1.34-1.39-.13-2,3.41h0a5,5,0,0,1-.42,2.61c-4.11,8.2-2.5,6.4-4.25,8.36,1.75,1.95.15.16,4.25,8.35a5,5,0,0,1,.42,2.62h0C461.46,413.56,462.17,414.77,462.85,413.44Zm-1.29-17,0,.35a3.58,3.58,0,0,1,0,4.45l0,.35c-.19.83-.42,1.12-.64.8l-.56-.8c.16-.71-.27-2.58,1-2.58-1.23,0-.8-1.87-1-2.58l.56-.8C461.14,395.36,461.37,395.65,461.56,396.48Z"/><path class="cls-1" d="M463.82,422.34l.77-1.5a34.58,34.58,0,0,1,0-9.66l-.77-1.5c-.3-.59-.61-.06-.88,1.5h0a2.19,2.19,0,0,1-.18,1.15c-1.81,3.61-1.1,2.82-1.87,3.68.77.86.06.07,1.87,3.68a2.2,2.2,0,0,1,.18,1.15h0C463.21,422.39,463.52,422.93,463.82,422.34Zm-.77-5.2,0-.16a1.58,1.58,0,0,1,0-2l0-.16c.08-.37.18-.49.28-.35l.25.35c-.07.31.12,1.14-.42,1.14.54,0,.35.82.42,1.14l-.25.35C463.24,417.63,463.14,417.51,463.05,417.14Z"/><path class="cls-1" d="M463.82,388.88l.77-1.5a34.58,34.58,0,0,1,0-9.66l-.77-1.5c-.3-.59-.61-.06-.88,1.5h0a2.19,2.19,0,0,1-.18,1.15c-1.81,3.61-1.1,2.82-1.87,3.68.77.86.06.07,1.87,3.68a2.2,2.2,0,0,1,.18,1.15h0C463.21,388.94,463.52,389.47,463.82,388.88Zm-.77-5.2,0-.16a1.58,1.58,0,0,1,0-2l0-.16c.08-.37.18-.49.28-.35l.25.35c-.07.31.12,1.14-.42,1.14.54,0,.35.82.42,1.14l-.25.35C463.24,384.18,463.14,384.05,463.05,383.69Z"/><path class="cls-1" d="M473.78,404.78l-1.44,3.83a2.56,2.56,0,0,1,.68,0l-.54,1.24a1.94,1.94,0,0,0,.9,2.36c.25-.11.5.08.69.5,2.17,4.88,1.7,3,2.21,5,.52-2.08,0-.17,2.21-5,.19-.42.44-.61.69-.5a1.94,1.94,0,0,0,.9-2.36l-.53-1.22a2.55,2.55,0,0,1,.82,0l-1.44-3.83c-.56-1.5-.05-3.06,1.44-4.38a2.6,2.6,0,0,1-1.64-1.28l0-.06,0,.05,0,0c-.87,1-3.69,1-4.56,0l0,0,0-.05,0,.06a2.6,2.6,0,0,1-1.64,1.28C473.83,401.72,474.34,403.28,473.78,404.78Z"/><path class="cls-1" d="M473.78,393.47l-1.44-3.83a2.56,2.56,0,0,0,.68,0l-.54-1.24a1.94,1.94,0,0,1,.9-2.36c.25.11.5-.08.69-.5,2.17-4.88,1.7-3,2.21-5,.52,2.08,0,.17,2.21,5,.19.42.44.61.69.5a1.94,1.94,0,0,1,.9,2.36l-.53,1.22a2.55,2.55,0,0,0,.82,0l-1.44,3.83c-.56,1.5-.05,3.06,1.44,4.38a2.6,2.6,0,0,0-1.64,1.28l0,.06,0-.05,0,0c-.87-1-3.69-1-4.56,0l0,0,0,.05,0-.06a2.6,2.6,0,0,0-1.64-1.28C473.83,396.53,474.34,395,473.78,393.47Z"/><path class="cls-1" d="M484.83,411.76l.68,2.79a2,2,0,0,1,.2-.38l.2.94c.13.62.47.88.95.76,0-.19.17-.23.35-.11,2,1.4,1.36.65,2.11,1.47-.45-1.37,0-.11-.81-3.84-.07-.32,0-.56.06-.63.07-.88-.08-1.49-.42-1.73l-.51-.35a1.88,1.88,0,0,1,.24-.44L486.35,409c-.6-.49-.9-1.58-.84-3.08-.34.3-.64.37-.85.21l0,0v.09c0,1-.8,2.51-1.35,2.45h-.05v0a3.43,3.43,0,0,1-.11,1.56C484,410.13,484.56,410.67,484.83,411.76Z"/><path class="cls-1" d="M484.94,412.58l-1,.36a3.28,3.28,0,0,1,.2.36l-.36.07c-.24,0-.28.47-.12,1.18a.74.74,0,0,1,.12.52c-.15,2.61,0,1.79-.17,2.68.49-.34,0,0,1.47-.3.12,0,.23.06.29.23.39.29.62.22.65-.21l0-.65a3.35,3.35,0,0,1,.24.44l.2-1.91c.08-.75.48-.93,1.14-.52a3.37,3.37,0,0,1-.28-1.26v0h0a4.59,4.59,0,0,1-1.35-2.45V411h0c-.14,0-.39-.14-.69-.5C485.45,411.7,485.35,412.44,484.94,412.58Z"/><path class="cls-1" d="M486.78,409.24l.2-1.91a3.45,3.45,0,0,0,.2.37l0-.66c0-.43.26-.5.65-.21.06.17.16.25.28.23,1.43-.27,1,0,1.47-.3-.19.89,0,.07-.17,2.68a.74.74,0,0,0,.12.52c.16.71.12,1.13-.12,1.18l-.36.07a3.35,3.35,0,0,0,.24.44l-1,.36c-.41.14-.51.87-.29,2.07-.3-.37-.55-.55-.69-.5h0v-.07a4.59,4.59,0,0,0-1.35-2.45h0v0a3.37,3.37,0,0,0-.28-1.26C486.3,410.17,486.7,410,486.78,409.24Z"/><path class="cls-1" d="M484.83,386.6l.68-2.79a2,2,0,0,0,.2.38l.2-.94c.13-.62.47-.88.95-.76,0,.19.17.23.35.11,2-1.4,1.36-.65,2.11-1.47-.45,1.37,0,.11-.81,3.84-.07.32,0,.56.06.63.07.88-.08,1.49-.42,1.73l-.51.35a1.88,1.88,0,0,0,.24.44l-1.53,1.24c-.6.49-.9,1.58-.84,3.08-.34-.3-.64-.37-.85-.21l0,0v-.09c0-1-.8-2.51-1.35-2.45h-.05v0a3.43,3.43,0,0,0-.11-1.56C484,388.24,484.56,387.69,484.83,386.6Z"/><path class="cls-1" d="M484.94,385.78l-1-.36a3.28,3.28,0,0,0,.2-.36l-.36-.07c-.24,0-.28-.47-.12-1.18a.74.74,0,0,0,.12-.52c-.15-2.61,0-1.79-.17-2.68.49.34,0,0,1.47.3.12,0,.23-.06.29-.23.39-.29.62-.22.65.21l0,.65a3.35,3.35,0,0,0,.24-.44l.2,1.91c.08.75.48.93,1.14.52a3.37,3.37,0,0,0-.28,1.26v0h0a4.59,4.59,0,0,0-1.35,2.45v.07h0c-.14,0-.39.14-.69.5C485.45,386.66,485.35,385.92,484.94,385.78Z"/><path class="cls-1" d="M486.78,389.12,487,391a3.45,3.45,0,0,1,.2-.37l0,.66c0,.43.26.5.65.21.06-.17.16-.25.28-.23,1.43.27,1,0,1.47.3-.19-.89,0-.07-.17-2.68a.74.74,0,0,1,.12-.52c.16-.71.12-1.13-.12-1.18l-.36-.07a3.35,3.35,0,0,1,.24-.44l-1-.36c-.41-.14-.51-.87-.29-2.07-.3.37-.55.55-.69.5h0v.07A4.59,4.59,0,0,1,486,387.3h0v0a3.37,3.37,0,0,1-.28,1.26C486.3,388.19,486.7,388.38,486.78,389.12Z"/><path class="cls-1" d="M76.14,379.18h0c4.2,4.42,4.2,4.42,7.09,19.88-2.89,15.46-2.89,15.46-7.09,19.88h0l17.65,6.18c6.92,2.42,14.08.23,20.18-6.18h0v-.49a96.83,96.83,0,0,1,1.77-18.35l.2-1-.27-1.42a97.08,97.08,0,0,1-1.7-18.45h0c-6.1-6.41-13.26-8.61-20.18-6.18Z"/><path class="cls-1" d="M114,372c-6.1-6.41-13.26-8.61-20.18-6.18L76.14,372h0c.64-3.55-.72-4.46-2.77-4.76-4.88-.71-12.77-2.38-12.77-2.38l10.55-2.53c7.95-1.91,15.55-7.1,22.22-15.18h0c9.17-2.42,18.68,11.3,26.77,17.71l-.28.1c-2.39.87-4.51,3.4-5.9,7Z"/><path class="cls-1" d="M114,426.08c-6.1,6.41-13.26,8.61-20.18,6.18l-17.65-6.18h0c.64,3.55-.72,4.46-2.77,4.76-4.88.71-12.77,2.38-12.77,2.38l10.55,2.53c7.95,1.91,15.55,7.1,22.22,15.18h0c9.17,2.42,18.68-11.3,26.77-17.71l-.28-.1c-2.39-.87-4.51-3.4-5.9-7Z"/><path class="cls-1" d="M16.39,395.36h0a27.45,27.45,0,0,1-6.78,2.93.3.3,0,0,1-.14,0l-1.21-.21c-.19,0-.35.19-.45.5a.54.54,0,0,1-.08.17c-.81.17-1.63.31-2.45.41l-5,.6-.31,0H0l.22,0,5.05.61c.83.1,1.65.24,2.47.41a.54.54,0,0,1,.08.17c.09.31.25.53.44.5l1.21-.21a.3.3,0,0,1,.14,0,27.46,27.46,0,0,1,6.71,2.89.34.34,0,0,0,.13,0c3.26.4,6.61-1.22,9.72-2.77a.3.3,0,0,1,.28,0h0a.35.35,0,0,0,.43-.13,4.52,4.52,0,0,1,.43-.42l.1-.07c.8-.39,1.58-.75,2.33-1.05h0c-.77-.3-1.56-.67-2.37-1.07l-.1-.07a4.42,4.42,0,0,1-.61-.65h0l-.23.12a.3.3,0,0,1-.28,0C23,396.56,19.67,394.93,16.39,395.36Z"/><path class="cls-1" d="M70.81,422.1c-2.64,2.77-5.73,3.72-8.72,2.67l-7.63-2.67h0c.27,1.53-.31,3.13-1.19,3.26a25,25,0,0,1-5.53-.17l4.9,2.65c6.85,3.7,14.19,2.71,20.73-2.57l.11-.08-.12,0a4.91,4.91,0,0,1-2.55-3Z"/><path class="cls-1" d="M70.81,377.2c-2.64-2.77-5.73-3.72-8.72-2.67l-7.63,2.67h0c.27-1.53-.31-3.13-1.19-3.26a25,25,0,0,0-5.53.17l4.9-2.65c6.85-3.7,14.19-2.71,20.73,2.57l.11.08-.12,0a4.91,4.91,0,0,0-2.55,3Z"/><path class="cls-1" d="M44.19,417.74c-2.64-2.77-5.73-3.72-8.72-2.67l-7.63,2.67h0c.27-1.53-.31-3.13-1.19-3.26a25,25,0,0,0-5.53.17L26,412c6.85-3.7,14.19-2.71,20.73,2.57l.11.08-.12,0a4.91,4.91,0,0,0-2.55,3Z"/><path class="cls-1" d="M44.19,381.84c-2.64,2.77-5.73,3.72-8.72,2.67l-7.63-2.67h0c.27,1.53-.31,3.13-1.19,3.26a25,25,0,0,1-5.53-.17l4.9,2.65c6.85,3.7,14.19,2.71,20.73-2.57l.11-.08-.12,0a4.91,4.91,0,0,1-2.55-3Z"/><path class="cls-1" d="M114.94,353.61c-1.69-4.61-4.23-8-7.16-9.45l-7.49-3.77h0a3.86,3.86,0,0,0-.27-3.88,42,42,0,0,0-5-4.32l5,1.59c3.24,1,6.16,8,9.17,5.86,10.4-7.45,6.31,7.8,8.77,13.2l.07.16-.12-.06a2.53,2.53,0,0,0-3,.67Z"/><path class="cls-1" d="M114.94,444.49c-1.69,4.61-4.23,8-7.16,9.45l-7.49,3.77h0a3.86,3.86,0,0,1-.27,3.88,42,42,0,0,1-5,4.32l5-1.59c3.24-1,6.16-8,9.17-5.86,10.4,7.45,6.31-7.8,8.77-13.2l.07-.16-.12.06a2.53,2.53,0,0,1-3-.67Z"/><path class="cls-1" d="M104.51,369.24"/><path class="cls-1" d="M83.23,410h0c.49-3-.66-7.46,2.86-11-3.51-3.5-2.37-8-2.86-11h0l1.65-3.41c.65-1.34,1.32-.13,1.89,3.41h0l-.14,1.5c-.34,3.71.57,7.43,2.3,9.46h0c-1.74,2-2.64,5.76-2.3,9.47l.14,1.5h0c-.57,3.54-1.24,4.75-1.89,3.41Z"/><path class="cls-1" d="M84.73,382.17h0c-.45.18-.72,2.34-2-.06,1.32,2.41.13,2.89,0,3.71h0l-.91-.53c-.36-.21-.49-.85-.38-1.82h0l.19-.16c.46-.39.47-1.61,0-3.1h0c.82.81,1.49.79,1.7-.05l.09-.34h0c.53-.21.88,0,1,.68Z"/><path class="cls-1" d="M88.95,401.63h0c.25-.71-.4-2.58,1.47-2.58-1.87,0-1.22-1.87-1.47-2.58h0l.85-.8c.33-.31.68,0,1,.8h0l-.07.35a2.08,2.08,0,0,0,1.18,2.22h0a2.09,2.09,0,0,0-1.18,2.23l.07.35h0c-.29.83-.64,1.12-1,.8Z"/><path class="cls-1" d="M84.73,416.52h0c-.45-.18-.72-2.34-2,.06,1.32-2.41.13-2.89,0-3.71h0l-.91.53c-.36.21-.49.85-.38,1.82h0l.19.16c.46.39.47,1.61,0,3.1h0c.82-.81,1.49-.79,1.7.05l.09.34h0c.53.21.88,0,1-.68Z"/><path class="cls-1" d="M76,393.57h0a13.4,13.4,0,0,0,0,11h0l-2.65,1.71c-1,.67-2.12.06-3-1.71h0l.22-.75c1.72-3.14-.22-3.93-.22-4.73s1.94-1.6.22-4.74l-.22-.75h0c.92-1.77,2-2.37,3-1.71Z"/><path class="cls-1" d="M69.67,407.17h0c0,3.14,1.5,5.78,3.22,5.87h0l-.92,3.5c-.36,1.37-1.11,2.1-2.12,2h0l-.1-.62c0-3.36-1.27-1.89-1.51-2.32s.57-2.75-1.27-2.75l-.34-.19h0c0-1.84.37-3.21,1.12-3.87Z"/><path class="cls-1" d="M69.67,391.52h0c0-3.14,1.5-5.78,3.22-5.87h0l-.92-3.5c-.36-1.37-1.11-2.1-2.12-2h0l-.1.62c0,3.36-1.27,1.89-1.51,2.32s.57,2.75-1.27,2.75l-.34.19h0c0,1.84.37,3.21,1.12,3.87Z"/><path class="cls-1" d="M91.23,346.78h0c.35-3.07,2-5.2,3.74-4.73h0l-.56-3.74c-.22-1.46-.89-2.42-1.89-2.7h0l-.16.58c-.33,3.3-1.44,1.45-1.71,1.79s.29,2.89-1.52,2.29l-.35.07h0a5.9,5.9,0,0,0,.73,4.17Z"/><path class="cls-1" d="M91.23,451.22h0c.35,3.07,2,5.2,3.74,4.73h0l-.56,3.74c-.22,1.46-.89,2.42-1.89,2.7h0l-.16-.58c-.33-3.3-1.44-1.45-1.71-1.79s.29-2.89-1.52-2.29l-.35-.07h0a5.9,5.9,0,0,1,.73-4.17Z"/><path class="cls-1" d="M127.05,342.85c-.07,2.59-4.59,4.3-5.43,3.49h0c2.76,4.08,4.2,10.41,3.84,16.85a48,48,0,0,1-1.11,9.19h0c1.69,1.68,2.68,6.85,2.27,11.95a89.48,89.48,0,0,1-1.36,10,17.29,17.29,0,0,1,1.35,4.69,17.29,17.29,0,0,1-1.35,4.69,89.48,89.48,0,0,1,1.36,10c.41,5.1-.58,10.27-2.27,11.95h0a48,48,0,0,1,1.11,9.19c.36,6.44-1.08,12.78-3.84,16.85h0c.84-.81,5.36.9,5.43,3.49.17,6.19-4.81,16.23-4.81,16.23h0c4-3.61,6.63-10.79,6.93-18.88.23-6.07.37-12.38.43-16.12.13-8,.61-15.88,1.49-23.44a35,35,0,0,0,.26-7.7c-.47-4.08-2.3-4-3.49-6.3,1.2-2.3,3-2.22,3.49-6.3a35,35,0,0,0-.26-7.7c-.87-7.56-1.36-15.46-1.49-23.44-.06-3.74-.2-10.06-.43-16.15-.3-8.08-2.94-15.25-6.93-18.85h0S127.22,336.66,127.05,342.85Z"/><path class="cls-1" d="M75.76,344.86c-2.38,2.38-3.85,6.1-6.51,7.18-2.3.94-5.65.4-7.79,2.35l-4.58,4.16a28.38,28.38,0,0,1,5.43-1.91c.88-.15,1.61,1.24,1.48,2.83l1.93-1.34c.93-.65,5.52-1.54,7,.18h0c.27-3.21,1.83-5.54,3.61-5.36a8,8,0,0,1,3.6,1.35,6.63,6.63,0,0,1,2.22-3.8l.11-.08-.11,0c-2-.91-1.94-6.28-3.82-6.8C77.7,343.39,76.9,343.72,75.76,344.86Z"/><path class="cls-1" d="M75.76,453.26c-2.38-2.38-3.85-6.1-6.51-7.18-2.3-.94-5.65-.4-7.79-2.35l-4.58-4.16a28.38,28.38,0,0,0,5.43,1.91c.88.15,1.61-1.24,1.48-2.83L65.72,440c.93.65,5.52,1.54,7-.18h0c.27,3.21,1.83,5.54,3.61,5.36a8,8,0,0,0,3.6-1.35,6.63,6.63,0,0,0,2.22,3.8l.11.08-.11,0c-2,.91-1.94,6.28-3.82,6.8C77.7,454.72,76.9,454.39,75.76,453.26Z"/><path class="cls-1" d="M85.11,433.22l-1.93-1.34c.12,1.59-.6,3-1.48,2.83a28.38,28.38,0,0,1-5.43-1.91L80.85,437c2.15,2,5.49,1.4,7.79,2.35,2.65,1.09,4.12,4.8,6.51,7.18,1.13,1.13,1.94,1.46,2.54,1.29,1.88-.52,1.81-5.89,3.82-6.8l.11,0-.09-.07a11.49,11.49,0,0,1,3.25-1.95c2.31-.84,5.58-1.09,7.79-2.42l4.7-2.84a56.64,56.64,0,0,1-5.43,1.83c-.87.22-1.52-.38-1.32-1.21l-2,1c-.95.48-5.51,1.66-6.84,1h0a4.5,4.5,0,0,1-1.8,2.51,9.53,9.53,0,0,1-.61-1.73,8,8,0,0,1-3.6,1.35c-1.78.18-3.34-2.15-3.61-5.36h0C90.63,434.76,86,433.87,85.11,433.22Z"/><path class="cls-1" d="M85.11,364.64,83.18,366c.12-1.59-.6-3-1.48-2.83a28.38,28.38,0,0,0-5.43,1.91l4.58-4.16c2.15-2,5.49-1.4,7.79-2.35,2.65-1.09,4.12-4.8,6.51-7.18,1.13-1.13,1.94-1.46,2.54-1.29,1.88.52,1.81,5.89,3.82,6.8l.11,0-.09.07a11.49,11.49,0,0,0,3.25,1.95c2.31.84,5.58,1.09,7.79,2.42l4.7,2.84a56.64,56.64,0,0,0-5.43-1.83c-.87-.22-1.52.38-1.32,1.21l-2-1c-.95-.48-5.51-1.66-6.84-1h0a4.5,4.5,0,0,0-1.8-2.51,9.53,9.53,0,0,0-.61,1.73,8,8,0,0,0-3.6-1.35c-1.78-.18-3.34,2.15-3.61,5.36h0C90.63,363.09,86,364,85.11,364.64Z"/><path class="cls-1" d="M85.11,325.28l-1.93,1.34c.12-1.59-.6-3-1.48-2.83a28.38,28.38,0,0,0-5.43,1.91l4.58-4.16c2.15-2,5.49-1.4,7.79-2.35,2.65-1.09,4.12-4.8,6.51-7.18,1.13-1.13,1.94-1.46,2.54-1.29,1.88.52,1.81,5.89,3.82,6.8l.11,0-.09.07a11.49,11.49,0,0,0,3.25,1.95c2.31.84,5.58,1.09,7.79,2.42l4.7,2.84a56.64,56.64,0,0,0-5.43-1.83c-.87-.22-1.52.38-1.32,1.21l-2-1c-.95-.48-5.51-1.66-6.84-1h0a4.5,4.5,0,0,0-1.8-2.51,9.53,9.53,0,0,0-.61,1.73,8,8,0,0,0-3.6-1.35c-1.78-.18-3.34,2.15-3.61,5.36h0C90.63,323.74,86,324.63,85.11,325.28Z"/><path class="cls-1" d="M85.11,472.83l-1.93-1.34c.12,1.59-.6,3-1.48,2.83a28.38,28.38,0,0,1-5.43-1.91l4.58,4.16c2.15,2,5.49,1.4,7.79,2.35,2.65,1.09,4.12,4.8,6.51,7.18,1.13,1.13,1.94,1.46,2.54,1.29,1.88-.52,1.81-5.89,3.82-6.8l.11,0-.09-.07a11.49,11.49,0,0,1,3.25-1.95c2.31-.84,5.58-1.09,7.79-2.42l4.7-2.84a56.64,56.64,0,0,1-5.43,1.83c-.87.22-1.52-.38-1.32-1.21l-2,1c-.95.48-5.51,1.66-6.84,1h0a4.5,4.5,0,0,1-1.8,2.51,9.53,9.53,0,0,1-.61-1.73,8,8,0,0,1-3.6,1.35c-1.78.18-3.34-2.15-3.61-5.36h0C90.63,474.38,86,473.48,85.11,472.83Z"/><path class="cls-1" d="M64.36,418.94h0c-1.66-2.85-4.37-2.85-6,0h0c-1.53-4-4.14-6.17-6.81-5.62l-3.79.79c9.62-3.85,9.62-3.85,10.59-5.52h0l.41.4c1.72,3.14,2.16-.4,2.6-.4s.88,3.54,2.6.4l.41-.4h0a8,8,0,0,1,.94,5.52Z"/><path class="cls-1" d="M64.36,380.64h0c-1.66,2.85-4.37,2.85-6,0h0c-1.53,4-4.14,6.17-6.81,5.62l-3.79-.79c9.62,3.85,9.62,3.85,10.59,5.52h0l.41-.4c1.72-3.14,2.16.4,2.6.4s.88-3.54,2.6-.4l.41.4h0a8,8,0,0,0,.94-5.52Z"/><path class="cls-1" d="M75,384.68l-1.74,3.41a78.52,78.52,0,0,1,0,21.93L75,413.44c.68,1.34,1.39.13,2-3.41h0a5,5,0,0,1,.42-2.61c4.11-8.2,2.5-6.4,4.25-8.36-1.75-1.95-.15-.16-4.25-8.35a5,5,0,0,1-.42-2.62h0C76.41,384.55,75.71,383.34,75,384.68Zm1.76,11.8,0,.35a3.58,3.58,0,0,1,0,4.45l0,.35c-.19.83-.42,1.12-.64.8l-.56-.8c.16-.71-.27-2.58,1-2.58-1.23,0-.8-1.87-1-2.58l.56-.8C76.36,395.36,76.59,395.65,76.78,396.48Z"/><path class="cls-1" d="M58.72,394.36l-7.63-2.62a4.26,4.26,0,0,1,0,1.24l-2.46-1c-1.61-.64-3.28-.06-4.7,1.64.21.45-.15.92-1,1.26-9.7,4-5.9,3.09-10,4,4.14.94.34.08,10,4,.84.34,1.2.81,1,1.26,1.42,1.71,3.09,2.29,4.7,1.64l2.43-1a4.25,4.25,0,0,1,0,1.49l7.63-2.62c3-1,6.09-.1,8.72,2.62a4.85,4.85,0,0,1,2.55-3l.12,0-.11-.08-.08-.06c-2-1.58-2-6.72,0-8.3l.08-.06.11-.08-.12,0a4.85,4.85,0,0,1-2.55-3C64.81,394.45,61.71,395.38,58.72,394.36Z"/><path class="cls-1" d="M107.71,394.36,104,391.74a8.62,8.62,0,0,1,0,1.24l-1.21-1c-.79-.64-1.61-.06-2.31,1.64a1.26,1.26,0,0,1-.49,1.26c-4.77,4-2.9,3.09-4.94,4,2,.94.17.08,4.94,4a1.26,1.26,0,0,1,.49,1.26c.7,1.71,1.52,2.29,2.31,1.64l1.19-1a8.59,8.59,0,0,1,0,1.49l3.75-2.62c1.47-1,3-.1,4.29,2.62a5.21,5.21,0,0,1,1.25-3l.06,0-.05-.08,0-.06c-1-1.58-1-6.72,0-8.3l0-.06.05-.08-.06,0a5.21,5.21,0,0,1-1.25-3C110.71,394.45,109.18,395.38,107.71,394.36Z"/><path class="cls-1" d="M117.68,384.68l-1.74,3.41a78.52,78.52,0,0,1,0,21.93l1.74,3.41c.68,1.34,1.39.13,2-3.41h0a5,5,0,0,1,.42-2.61c4.11-8.2,2.5-6.4,4.25-8.36-1.75-1.95-.15-.16-4.25-8.35a5,5,0,0,1-.42-2.62h0C119.07,384.55,118.37,383.34,117.68,384.68Zm1.29,17,0-.35a3.58,3.58,0,0,1,0-4.45l0-.35c.19-.83.42-1.12.64-.8l.56.8c-.16.71.27,2.58-1,2.58,1.23,0,.8,1.87,1,2.58l-.56.8C119.39,402.75,119.17,402.47,119,401.63Z"/><path class="cls-1" d="M116.71,375.77l-.77,1.5a34.58,34.58,0,0,1,0,9.66l.77,1.5c.3.59.61.06.88-1.5h0a2.19,2.19,0,0,1,.18-1.15c1.81-3.61,1.1-2.82,1.87-3.68-.77-.86-.06-.07-1.87-3.68a2.2,2.2,0,0,1-.18-1.15h0C117.32,375.72,117,375.19,116.71,375.77Zm.77,5.2,0,.16a1.58,1.58,0,0,1,0,2l0,.16c-.08.37-.18.49-.28.35l-.25-.35c.07-.31-.12-1.14.42-1.14-.54,0-.35-.82-.42-1.14l.25-.35C117.3,380.48,117.4,380.6,117.48,381Z"/><path class="cls-1" d="M116.71,409.23l-.77,1.5a34.58,34.58,0,0,1,0,9.66l.77,1.5c.3.59.61.06.88-1.5h0a2.19,2.19,0,0,1,.18-1.15c1.81-3.61,1.1-2.82,1.87-3.68-.77-.86-.06-.07-1.87-3.68a2.2,2.2,0,0,1-.18-1.15h0C117.32,409.17,117,408.64,116.71,409.23Zm.77,5.2,0,.16a1.58,1.58,0,0,1,0,2l0,.16c-.08.37-.18.49-.28.35l-.25-.35c.07-.31-.12-1.14.42-1.14-.54,0-.35-.82-.42-1.14l.25-.35C117.3,413.93,117.4,414.06,117.48,414.43Z"/><path class="cls-1" d="M106.76,393.33l1.44-3.83a2.56,2.56,0,0,1-.68,0l.54-1.24a1.94,1.94,0,0,0-.9-2.36c-.25.11-.5-.08-.69-.5-2.17-4.88-1.7-3-2.21-5-.52,2.08,0,.17-2.21,5-.19.42-.44.61-.69.5a1.94,1.94,0,0,0-.9,2.36l.53,1.22a2.55,2.55,0,0,1-.82,0l1.44,3.83c.56,1.5.05,3.06-1.44,4.38a2.6,2.6,0,0,1,1.64,1.28l0,.06,0-.05,0,0c.87-1,3.69-1,4.56,0l0,0,0,.05,0-.06a2.6,2.6,0,0,1,1.64-1.28C106.7,396.39,106.19,394.83,106.76,393.33Z"/><path class="cls-1" d="M106.76,404.64l1.44,3.83a2.56,2.56,0,0,0-.68,0l.54,1.24a1.94,1.94,0,0,1-.9,2.36c-.25-.11-.5.08-.69.5-2.17,4.88-1.7,3-2.21,5-.52-2.08,0-.17-2.21-5-.19-.42-.44-.61-.69-.5a1.94,1.94,0,0,1-.9-2.36l.53-1.22a2.55,2.55,0,0,0-.82,0l1.44-3.83c.56-1.5.05-3.06-1.44-4.38a2.6,2.6,0,0,0,1.64-1.28l0-.06,0,.05,0,0c.87,1,3.69,1,4.56,0l0,0,0-.05,0,.06a2.6,2.6,0,0,0,1.64,1.28C106.7,401.58,106.19,403.14,106.76,404.64Z"/><path class="cls-1" d="M95.71,386.35,95,383.56a2,2,0,0,1-.2.38l-.2-.94c-.13-.62-.47-.88-.95-.76,0,.19-.17.23-.35.11-2-1.4-1.36-.65-2.11-1.47.45,1.37,0,.11.81,3.84.07.32,0,.56-.06.63-.07.88.08,1.49.42,1.73l.51.35a1.88,1.88,0,0,1-.24.44l1.53,1.24c.6.49.9,1.58.84,3.08.34-.3.64-.37.85-.21l0,0v-.09c0-1,.8-2.51,1.35-2.45h.05v0a3.43,3.43,0,0,1,.11-1.56C96.57,388,96,387.44,95.71,386.35Z"/><path class="cls-1" d="M95.59,385.53l1-.36a3.28,3.28,0,0,1-.2-.36l.36-.07c.24,0,.28-.47.12-1.18a.74.74,0,0,1-.12-.52c.15-2.61,0-1.79.17-2.68-.49.34,0,0-1.47.3-.12,0-.23-.06-.29-.23-.39-.29-.62-.22-.65.21l0,.65a3.35,3.35,0,0,1-.24-.44l-.2,1.91c-.08.75-.48.93-1.14.52a3.37,3.37,0,0,1,.28,1.26v0h0A4.59,4.59,0,0,1,94.59,387v.07h0c.14,0,.39.14.69.5C95.08,386.41,95.18,385.68,95.59,385.53Z"/><path class="cls-1" d="M93.76,388.87l-.2,1.91a3.45,3.45,0,0,0-.2-.37l0,.66c0,.43-.26.5-.65.21-.06-.17-.16-.25-.28-.23-1.43.27-1,0-1.47.3.19-.89,0-.07.17-2.68a.74.74,0,0,0-.12-.52c-.16-.71-.12-1.13.12-1.18l.36-.07a3.35,3.35,0,0,0-.24-.44l1-.36c.41-.14.51-.87.29-2.07.3.37.55.55.69.5h0v.07A4.59,4.59,0,0,0,94.58,387h0v0a3.37,3.37,0,0,0,.28,1.26C94.24,387.94,93.83,388.13,93.76,388.87Z"/><path class="cls-1" d="M95.71,411.51,95,414.3a2,2,0,0,0-.2-.38l-.2.94c-.13.62-.47.88-.95.76,0-.19-.17-.23-.35-.11-2,1.4-1.36.65-2.11,1.47.45-1.37,0-.11.81-3.84.07-.32,0-.56-.06-.63-.07-.88.08-1.49.42-1.73l.51-.35a1.88,1.88,0,0,0-.24-.44l1.53-1.24c.6-.49.9-1.58.84-3.08.34.3.64.37.85.21l0,0v.09c0,1,.8,2.51,1.35,2.45h.05v0A3.43,3.43,0,0,0,97.4,410C96.57,409.88,96,410.42,95.71,411.51Z"/><path class="cls-1" d="M95.59,412.33l1,.36a3.28,3.28,0,0,0-.2.36l.36.07c.24,0,.28.47.12,1.18a.74.74,0,0,0-.12.52c.15,2.61,0,1.79.17,2.68-.49-.34,0,0-1.47-.3-.12,0-.23.06-.29.23-.39.29-.62.22-.65-.21l0-.65a3.35,3.35,0,0,0-.24.44l-.2-1.91c-.08-.75-.48-.93-1.14-.52a3.37,3.37,0,0,0,.28-1.26v0h0a4.59,4.59,0,0,0,1.35-2.45v-.07h0c.14,0,.39-.14.69-.5C95.08,411.46,95.18,412.19,95.59,412.33Z"/><path class="cls-1" d="M93.76,409l-.2-1.91a3.45,3.45,0,0,1-.2.37l0-.66c0-.43-.26-.5-.65-.21-.06.17-.16.25-.28.23-1.43-.27-1,0-1.47-.3.19.89,0,.07.17,2.68a.74.74,0,0,1-.12.52c-.16.71-.12,1.13.12,1.18l.36.07a3.35,3.35,0,0,1-.24.44l1,.36c.41.14.51.87.29,2.07.3-.37.55-.55.69-.5h0v-.07a4.59,4.59,0,0,1,1.35-2.45h0v0a3.37,3.37,0,0,1,.28-1.26C94.24,409.92,93.83,409.74,93.76,409Z"/></g></g></svg>