<svg xmlns="http://www.w3.org/2000/svg" viewBox="0 0 65.65 144.87"><defs><style>.cls-1{opacity:0.8;}.cls-2{fill:#202020;}.cls-3,.cls-5{fill:#fff;}.cls-4,.cls-6{stroke:#fff;}.cls-4,.cls-5,.cls-6{stroke-miterlimit:10;}.cls-4{stroke-width:2px;}.cls-5{stroke:#000;stroke-width:1.8px;}</style></defs><title>split</title><g id="Layer_2" data-name="Layer 2"><g id="Layer_1-2" data-name="Layer 1"><g class="cls-1"><path class="cls-2" d="M17.69,39.16a1.91,1.91,0,0,1-.35-.36,3.43,3.43,0,0,1-.21-.52,1.35,1.35,0,0,1,0-1,.82.82,0,0,1,.18-.42c.09-.09,0,.12-.18.42a1.92,1.92,0,0,0,0,.49,2.72,2.72,0,0,1,.79-.63,3.46,3.46,0,0,1,.11-.37,6.4,6.4,0,0,1,.63-1.62c.14-.2.21-.62.49-.82-.18.8-.43,1.59-.68,2.39l.08-.06c.22-.42.49-.84.74-1.25a.46.46,0,0,1,.13-.22l-.13.22c-.05.19,0,.37,0,.57s-.28.27-.33.39a1.77,1.77,0,0,1-.41.29l-.1.19a.12.12,0,0,1,0,.06h0c.67-.16,2.78-1.73,2.61-2s-.92-.4-1-.63c0-.08.22-.14,0-.2a1.35,1.35,0,0,1-.34-.07c-.06-.15.46-.31,0-.43-.17-.08,2.07-.32,1.65-.33-1.52-.07-.41,0-.29-.21,0,0-.59-.1-.53-.15.36-.16-.16-.21-.35-.39-.5-.27.4-.33-.56-.58-.11,0-.74-.41-.74-.41.06-.3-.58-.48.21-.71-.8-.27,0-.62-.31-.91s.21-.4.28-.65c0-.07-.11-.12-.07-.17s-.3-.14-.32-.21l.16,0-.06-.1s0,0,.08,0,.21,0,.21,0a1.6,1.6,0,0,0-.34-.31c-.21-.1-.41-.2-.65-.3l-.1,0L17.87,28l-.08,0c-.08,0-.12-.12-.1-.09a.62.62,0,0,1-.2.26s0,0-.06,0-.19.11-.18.07l-.08,0,0,0c-.26.13-.5.26-.8.4a2.6,2.6,0,0,0-.68.39.22.22,0,0,0-.07.2s-.21.1-.26.12a3.47,3.47,0,0,0,.56.05c-.34.18-1.22.58-.25.57-.16.15.28.18.27.33a4.49,4.49,0,0,1-.09.72.93.93,0,0,1-.06.41l0,.15c-.08,1-1.29,1.77-.08,2.76s.95,2.05.92,2.92a1.77,1.77,0,0,0,.27,1.12,2.73,2.73,0,0,0,.29.4,2.37,2.37,0,0,0,.34.26Z"/></g><g class="cls-1"><path class="cls-2" d="M44,27.9a1.91,1.91,0,0,1,.35.36,3.43,3.43,0,0,1,.21.52,1.35,1.35,0,0,1,0,1,.82.82,0,0,1-.18.42c-.09.09,0-.12.18-.42a1.92,1.92,0,0,0,0-.49,2.72,2.72,0,0,1-.79.63,3.47,3.47,0,0,1-.11.37A6.4,6.4,0,0,1,43,31.9c-.14.2-.21.63-.49.82.18-.8.43-1.59.68-2.39l-.08.06c-.22.42-.49.84-.74,1.25a.46.46,0,0,1-.13.22l.13-.22c.05-.19,0-.37,0-.57s.28-.27.33-.39a1.77,1.77,0,0,1,.41-.29l.1-.19a.12.12,0,0,1,0-.06h0c-.67.16-2.78,1.73-2.61,2s.92.4,1,.63c0,.08-.22.14,0,.2a1.35,1.35,0,0,1,.34.07c.06.15-.46.31,0,.43.17.08-2.07.32-1.65.33,1.52.07.41,0,.29.21,0,0,.59.1.53.15-.36.16.16.21.35.39.5.27-.4.33.56.58.11,0,.74.41.74.41-.06.3.58.48-.21.71.8.27,0,.63.31.91s-.21.4-.28.65c0,.07.11.13.07.17s.3.14.32.21l-.16,0,.06.1s0,0-.08,0-.21,0-.21,0a1.6,1.6,0,0,0,.34.31c.21.1.41.2.65.3l.1,0,.17.09.08,0c.08,0,.12.12.1.09a.62.62,0,0,1,.2-.26s0,0,.06,0,.19-.11.18-.07l.08,0,0,0c.26-.13.5-.26.8-.4a2.6,2.6,0,0,0,.68-.39.22.22,0,0,0,.07-.2s.21-.1.26-.12a3.47,3.47,0,0,0-.56-.05c.34-.18,1.22-.58.25-.57.16-.15-.27-.18-.27-.33a4.49,4.49,0,0,1,.09-.72.93.93,0,0,1,.06-.41l0-.15c.08-1,1.29-1.77.08-2.76s-.95-2.05-.92-2.92a1.77,1.77,0,0,0-.27-1.12,2.74,2.74,0,0,0-.29-.4,2.37,2.37,0,0,0-.34-.26Z"/></g><line class="cls-3" x1="3.85" y1="1.49" x2="3.85" y2="12.35"/><g class="cls-1"><path class="cls-2" d="M3.85,12.35A2.44,2.44,0,0,1,3.36,12a2.84,2.84,0,0,1-.3-.5A2.11,2.11,0,0,1,2.89,11,.75.75,0,0,1,3,10.54a.7.7,0,0,1,.25-.41c.12-.08,0,.11-.25.41A1.28,1.28,0,0,0,3,11a3.92,3.92,0,0,1,1.12-.61,2.61,2.61,0,0,1,.15-.35,5.22,5.22,0,0,1,.89-1.56c.2-.19.29-.6.69-.79a23.5,23.5,0,0,1-1,2.3L5,9.94c.32-.4.69-.81,1-1.21a.45.45,0,0,1,.18-.21L6,8.73c-.07.18,0,.35,0,.55s-.39.26-.47.38A2.68,2.68,0,0,1,5,9.94l-.14.18a.1.1,0,0,1,0,.06h0C5.85,10,8.81,8.51,8.58,8.25s-1.29-.38-1.41-.61.31-.14,0-.2a2.68,2.68,0,0,1-.48-.06c-.09-.15.65-.3.06-.41-.24-.08,2.91-.3,2.32-.32-2.14-.06-.58,0-.41-.21,0,0-.84-.1-.75-.14.5-.16-.22-.2-.5-.38-.71-.26.56-.32-.78-.56-.15,0-1-.4-1-.4.08-.29-.82-.46.3-.69-1.12-.26,0-.6-.44-.88s.3-.39.39-.63c0-.07-.15-.12-.09-.16s-.42-.14-.45-.21l.23,0-.09-.09s0,0,.12,0,.3,0,.3,0A2.17,2.17,0,0,0,5.41,2L5,1.86l-.48-.15-.14,0L4.11,1.6,4,1.58c-.11,0-.17-.12-.14-.09a.68.68,0,0,1-.29.25s-.06,0-.08,0-.27.1-.25.06l-.12,0-.05,0c-.36.12-.7.25-1.12.38a4.27,4.27,0,0,0-1,.38.18.18,0,0,0-.1.2s-.29.09-.37.11a7.06,7.06,0,0,0,.79.05c-.47.18-1.71.56-.35.55-.22.14.39.17.38.32a3,3,0,0,1-.12.7.65.65,0,0,1-.08.4L1.1,5C1,6-.71,6.72,1,7.68s1.33,2,1.29,2.81a1.36,1.36,0,0,0,.06.59,2.07,2.07,0,0,0,.32.5,3,3,0,0,0,.41.39,3.48,3.48,0,0,0,.48.25Z"/></g><line class="cls-3" x1="57.79" y1="12.35" x2="57.79" y2="1.49"/><g class="cls-1"><path class="cls-2" d="M57.79,1.49a2.44,2.44,0,0,1,.49.35,2.84,2.84,0,0,1,.3.5,2.11,2.11,0,0,1,.17.53.75.75,0,0,1-.11.43.7.7,0,0,1-.25.41c-.12.08,0-.11.25-.41a1.28,1.28,0,0,0,0-.48,3.92,3.92,0,0,1-1.12.61,2.61,2.61,0,0,1-.15.35,5.22,5.22,0,0,1-.89,1.56c-.2.19-.29.6-.69.79a23.49,23.49,0,0,1,1-2.3l-.12.06c-.32.4-.69.81-1,1.21a.45.45,0,0,1-.18.21l.18-.21c.07-.18,0-.35,0-.55s.39-.26.47-.38a2.68,2.68,0,0,1,.58-.28l.14-.18a.1.1,0,0,1,0-.06h0c-.95.15-3.91,1.67-3.68,1.92s1.29.38,1.41.61-.31.14,0,.2a2.68,2.68,0,0,1,.48.06c.09.15-.65.3-.06.41.24.08-2.91.3-2.32.32,2.14.06.58,0,.41.21,0,0,.84.1.75.14-.5.16.22.2.5.38.71.26-.56.32.78.56.15,0,1,.4,1,.4-.08.29.82.46-.3.69,1.12.26,0,.6.44.88s-.3.39-.39.63c0,.07.15.12.09.16s.42.14.45.21l-.23,0,.09.09s0,0-.12,0-.3,0-.3,0a2.17,2.17,0,0,0,.48.29l.43.15.48.15.14,0,.24.09.12,0c.11,0,.17.12.14.09a.68.68,0,0,1,.29-.25s.06,0,.08,0,.27-.1.25-.06l.12,0,.05,0c.36-.12.7-.25,1.12-.38a4.27,4.27,0,0,0,1-.38.18.18,0,0,0,.1-.2S61,11,61.12,11a7.06,7.06,0,0,0-.79-.05c.47-.18,1.71-.56.35-.55.22-.14-.39-.17-.38-.32a3,3,0,0,1,.12-.7.65.65,0,0,1,.08-.4l0-.14c.11-1,1.81-1.71.12-2.66s-1.33-2-1.29-2.81a1.36,1.36,0,0,0-.06-.59,2.07,2.07,0,0,0-.32-.5,3,3,0,0,0-.41-.39,3.49,3.49,0,0,0-.48-.25Z"/></g><g class="cls-1"><path class="cls-2" d="M33,144.87c-.12-4-.29-17.51-.22-23.4,0-2.27,0-4,.06-5.3,0-1.09,0,1.44-.06,5.3v6.16c.05-3,.16-5.85.27-7.91l0-4.59c.09-6.82.13-13.43.35-20.18.09-2.45.16-7.79.35-10.17q-.32,14.88-.52,29.75l0-.8q.17-7.82.43-15.64c0-.89,0-1.78.09-2.7l-.09,2.7-.06,7.09-.18,4.9c0,1.27-.13,2.44-.19,3.65l0,2.34v.69c.15-1,.43-6.36.77-11.93s.71-11.3.71-12.93c0-2.6-.39-5-.39-7.86a20.83,20.83,0,0,0,.06-2.52,2.4,2.4,0,0,1-.19-.82c0-1.93.36-3.86.12-5.34-.11-1,1.5-3.94,1.24-4.16-1-.81-.29-.22-.11-2.67a14.65,14.65,0,0,1-.32-1.85c.34-2,0-2.6-.11-4.9-.31-3.41.51-4.16-.24-7.2-.07-.37-.55-5.12-.55-5.12.19-3.71-.53-6,.56-8.9-.89-3.34.3-7.79.2-11.35s.74-5,1.6-8.16A8.38,8.38,0,0,1,37,19c.27-.52-.4-1.78-.25-2.67l.5.22.21-1.19c.05-.3.22-.22.39-.15.33.15.67.3.94-.22q.52-1.86.86-3.81c-.2-1.28-.44-2.55-.73-3.8A1.7,1.7,0,0,1,38.21,7l-.37-1.11c-.54-.22-1.13-.15-1.49-.3-1.54,0-3-1.55-4.47-1.18-.41.15-.53,2.3-1.23,3.27-.22.22-.72-.3-1.27-.52,0,1.26-.54,1.33-1.05.82l-.07.59-.73-.3c-.55,3.19-1.59,6.75-.8,9.87a18,18,0,0,0,.82,2.52,4.41,4.41,0,0,1-.14,1.48c.46.52,1,.44,1.47.67-.41,2.3-1,7.27.62,7.12,0,1.85.73,2.23.85,4.15.18,2.55.34,5.8.47,9,.13,1.75.14,3.43.18,5.12l.05,1.83c.19,6.34.09,11.86.13,17.33s.2,10.91.65,17.1c.86,12.48.69,25.59.77,36.34s.24,19.17.36,22.24Z"/></g><g class="cls-1"><path class="cls-2" d="M41.63,2.91l-1,1.27-1,1.16c-.65.77-1.29,1.52-1.95,2.23S36.43,9,35.79,9.67l-.12.13-.06.06,0,0,0,0h0l0-.08h0l.09.2a1.06,1.06,0,0,0,.11.19c.06.19.13.32.18.49.45,2.14-.84,6.12,0,9.55,0,.44.2.78.27,1.17.07.16.13.32.18.49l0,.12,0,.06.08.18.31.74a23.09,23.09,0,0,1,1.52,5.8A30.18,30.18,0,0,1,36.13,40.4a27.82,27.82,0,0,1-1.31,2.83l-1.2,2.1L31.3,49.59c-.44.58-1.73,2.26-.66,2.49l-3,3.84a11.51,11.51,0,0,0-2.06,3.46,13.14,13.14,0,0,0-.35,8.28c.16.58.32,1.09.54,1.71l.66,1.84A29,29,0,0,0,28,74.79c1,1.83,2,3.65,2.94,5.49l.68,1.38c.21.44.49,1,.68,1.56.42,1.08.77,2.18,1.08,3.29A8.76,8.76,0,0,1,34.53,89c-.07,1.63-.17,3.2-.33,4.77s-.47,3.24-.63,4.46a68,68,0,0,1-1.24,7.89,28.26,28.26,0,0,1-2,5.34c.3.27,0,.68-.14,1.23-.68,1.38-6,8.62-6.61,9.26a50.73,50.73,0,0,0,3.85-7.34c1.69-3.84,2.9-7.82,2.59-7.76s-1.11,2.75-2.14,5.4-2.22,5.32-2.47,5.75a56.52,56.52,0,0,0,3-11.9c.5-3.24.75-5.74.92-7.57.37-3.7.2-4.57.06-4s-.51,2.83-.89,5.69-.83,6.34-1.31,9.34c-.61,1.79-.81,4.52-2.15,8a20.7,20.7,0,0,0,.66-4.23c.1-1.54.07-3,.16-3.48.54-4.85-.38-4.34,1-9.66.29-1.09.53-2.4.75-3.82l.16-1.08c0-.34.07-.64.09-1,0-.64.05-1.3,0-1.95a56.7,56.7,0,0,0-.67-6.61,24.82,24.82,0,0,1,1.61,3.68,8.71,8.71,0,0,1,.42,4.79,7.26,7.26,0,0,0,.5-3.67A9.51,9.51,0,0,0,29,87.86c-.36-.81-.73-1.58-1-2.5-.15-.46-.32-1-.48-1.5s-.39-1.36-.56-2.18a18.33,18.33,0,0,0-.67-2c-.12-.75-.26-1.46-.44-2.33A56.31,56.31,0,0,0,23,69.91a24.91,24.91,0,0,1-1.91-8.18c0,.5-.17.82-.14,1.34a20.65,20.65,0,0,0,1.74,7.06,38.9,38.9,0,0,1,2.38,6.47c.19.95.88,2.08,1.14,3.06a18.26,18.26,0,0,1,.51,2.95c0,.48.09,1,.11,1.45s0,.81-.07,1.22l-.63-2.57-.66-3.08a48.63,48.63,0,0,0-1.67-6.09,14.32,14.32,0,0,0-1.2-2.24,39.1,39.1,0,0,1,1.7,5.43c.41,1.62.79,3.4,1.2,5.19l.63,2.61a17.41,17.41,0,0,1,.31,2.1c.31,2.81.15,5.69-1,7.22l.08.45a.4.4,0,0,0-.17.17,8.67,8.67,0,0,1-1.12,2.84q.33-1.24.7-2.47c0-.49-.05-.76-.07-1.07s0-.62-.07-.93c0-.62,0-1.25,0-1.88.08-1.27.27-2.6.44-4a17.46,17.46,0,0,0,.16-2.09,9.34,9.34,0,0,0-.11-1.31l-.17-1.42a42,42,0,0,0-1-5.52c-.24-.77-.43-1.85-.71-2.89a15.54,15.54,0,0,0-1-2.79c-.24-.5-.55-1.18-.79-1.8s-.47-1.27-.68-1.92a33.05,33.05,0,0,1-1-4,22.33,22.33,0,0,1-.06-8.48c.11-.63.32-1.36.47-1.92l.46-1.55q.48-1.54,1-3a54.77,54.77,0,0,1,2.66-5.84L26,39.61a14.55,14.55,0,0,0,1-2.28A22.59,22.59,0,0,0,28.3,32a18.56,18.56,0,0,0-.19-5.73,18.75,18.75,0,0,1-.45-6.73,24.34,24.34,0,0,1,1.46-6.12A17.3,17.3,0,0,1,31.9,8.45a6.69,6.69,0,0,1,.47-.82l-.45.16a4.33,4.33,0,0,1,.72-.53l.41-.47.46-.36A4.19,4.19,0,0,1,34.13,6l.69-.39c.93-.52,1.86-1,2.79-1.48.8-.33-1.23.92-1.65,1.53l.81-.5v.37a1.3,1.3,0,0,1,.76-.35c-.92.77-1.84,1.52-2.77,2.26-.11.09-.25.19-.33.27l-.12.19a2,2,0,0,0-.24.37,4.09,4.09,0,0,1-.23.41l-.21.5a16.38,16.38,0,0,0-.95,5,1,1,0,0,0,.6-.84c.09-.35.13-.72.19-1a5.6,5.6,0,0,1,.56-3l.14-.41.16-.32a3.72,3.72,0,0,1,.34-.54c.8-.59,1.65-1.17,2.45-1.79a30,30,0,0,0,4.5-4.14c.13-.13.27-.27.38-.4s.17-.23.26-.35a5.61,5.61,0,0,1,.65-.65c.21,0,.26,0,.2,0L42.9,1a2.07,2.07,0,0,0-.21.25,3.88,3.88,0,0,0-.45.74A3.64,3.64,0,0,1,41.63,2.91Zm-18.14,48a26.42,26.42,0,0,1,2.32-3.25l.65-1.24a6.16,6.16,0,0,0,.65-1.72q1-1.61,2-3.19a20.3,20.3,0,0,0,1.8-3.29c-.84,1.13-1.69,2.07-2.57,3.12A19.3,19.3,0,0,0,26,45q.57-1.41,1.23-2.72c.43-.87.93-1.76,1.34-2.47a33.12,33.12,0,0,0,2.13-5A25,25,0,0,0,32,29.2a16.06,16.06,0,0,0,0-3.12,14.2,14.2,0,0,0-.25-1.63l-.12-1.22A27.26,27.26,0,0,1,31,17.47a39,39,0,0,1-.06-4.19,26.73,26.73,0,0,0-1.18,6.63,16.58,16.58,0,0,0,0,1.75,16.5,16.5,0,0,0,.12,1.77c.05.6.2,1.16.3,1.78a16.91,16.91,0,0,1,.35,1.95,21.2,21.2,0,0,1-.6,7.43,21.76,21.76,0,0,1-1.12,3.33c-.23.52-.47,1-.74,1.51s-.53.89-.87,1.48c-1.29,2.17-2.56,4.35-3.63,6.62-.53,1.14-1,2.29-1.47,3.46a36.52,36.52,0,0,0-1.25,3.83,23.29,23.29,0,0,0-.25,8.61,31.83,31.83,0,0,0,.86,4.14c.19.68.41,1.36.65,2l.73,1.88-.4-1.19c-.14-.44-.3-.88-.42-1.32-.27-.88-.46-1.76-.64-2.63A30,30,0,0,1,20.8,61a20.61,20.61,0,0,1,.68-5.38,17.82,17.82,0,0,1,.94-2.54Q22.92,52,23.5,50.88Zm-.21,2.53c-.23.6-.48,1.28-.67,2a16.8,16.8,0,0,0-.44,2.06,22.16,22.16,0,0,0-.22,4.1A24.62,24.62,0,0,0,22.65,67a19.94,19.94,0,0,0,.85,2.63l1,2.39A57.54,57.54,0,0,0,28.07,80l-3.69-8.73c-.32-.74-.65-1.46-1-2.26a21.31,21.31,0,0,1-.75-2.41A24.69,24.69,0,0,1,22,61.54a23.27,23.27,0,0,0,.21,2.91c.06.34,0,.09-.06-.64A25.74,25.74,0,0,1,22,60.28a20.84,20.84,0,0,1,1-5.76A6,6,0,0,1,23.29,53.4Z"/><path class="cls-2" d="M27.27,16.79a23.88,23.88,0,0,1,4.07-7.6,10.12,10.12,0,0,0-2.91,2.26,13.78,13.78,0,0,0-2.32,5.46,31.22,31.22,0,0,0-.57,6.39,18.33,18.33,0,0,0,.17,2.46L25.95,27c.06.38,0,.56.07.84A24.06,24.06,0,0,1,25.9,31a30.47,30.47,0,0,1-1.18,6c-.15.45-.3.88-.47,1.29l-.69,1.56C23,41.2,22.45,42.48,22,43.8a45.71,45.71,0,0,0-2.18,8.28,12.63,12.63,0,0,0-.44,3.36q.1-.84.28-1.69L20,52.21c.21-.88.44-1.74.68-2.6a46.25,46.25,0,0,1,1.75-5c.68-1.61,1.44-3.19,2.2-4.75l.48-1c.14-.25.24-.55.38-.83.22-.58.45-1.19.62-1.83a24.62,24.62,0,0,0,.81-4.07A21.88,21.88,0,0,0,27,27.88c0-.37-.07-.71-.11-1.07l-.29-1.49a16.78,16.78,0,0,1-.2-3A21,21,0,0,1,27.27,16.79Z"/><path class="cls-2" d="M23.25,75.55a29.73,29.73,0,0,1,1,6.23,20.8,20.8,0,0,0-.68-6.49,31.6,31.6,0,0,0-1.38-4c-.25-.6-.6-1.37-.87-2.12s-.53-1.5-.75-2.26c.18.77.38,1.53.64,2.3s.56,1.57.78,2.18A32.85,32.85,0,0,1,23.25,75.55Z"/><path class="cls-2" d="M19.34,55.43c-.09.72-.13,1.42-.15,2.13a32.14,32.14,0,0,0,1.42,9.37A29.78,29.78,0,0,1,19.89,57C19.56,56.93,19.38,56.29,19.34,55.43Z"/></g><g class="cls-1"><path class="cls-2" d="M42.28,119.57a.26.26,0,0,0,0,.19c0,.09-.1.21-.13.31a.55.55,0,0,0,0,.15.65.65,0,0,0-.07.33s0,.05,0,0a.53.53,0,0,0,0,.32s0,.09,0,.13,0,.14,0,.2l0,0c0,.1,0,.17,0,.26v.11s0,.17,0,.18a2.26,2.26,0,0,0,0-.26l0,.19c-.07-.31-.15-.38-.13-.36s.06.13.1.23l0,.13a.61.61,0,0,0,0-.12,1.48,1.48,0,0,1-.07-.14,1,1,0,0,0-.14-.23s.11.08.12.13c0-.1-.1-.09-.14-.2l0,0v0c0-.08-.1-.15-.12-.23s0,0,0,0,.07.12.1.2,0,0,0,0a.31.31,0,0,1,0,.09,1,1,0,0,1-.12-.17l-.06,0,0,.08c.07.09.2.2.2.28h0a.12.12,0,0,1,0,0l0,0a3.53,3.53,0,0,1-.23-.3s0-.07,0-.09a.31.31,0,0,1-.1-.21,1.33,1.33,0,0,1,.25-.92v0l0,0,0,0s0-.07.05-.12,0,0,0,0v0h0s0,0,0,0,0,.15,0,.23,0,0,0-.06,0,0,0-.07.09-.16.12-.23l.06-.05S42.3,119.54,42.28,119.57Zm-.62,1.15,0-.08v0a0,0,0,0,0,0,0l0-.14a.26.26,0,0,0-.09.16c0-.12.08-.27.18-.43a.67.67,0,0,0,0-.12.17.17,0,0,0,0-.07c-.19.39-.34.76-.18,1.06A1,1,0,0,1,41.66,120.72Zm0,0a.58.58,0,0,0,0,.12.52.52,0,0,0,.15.28c0-.09-.11-.18-.15-.28,0,.1,0,0,0-.1Z"/><path class="cls-2" d="M41.61,120.13l.16-.19-.16.1c-.09.08-.08.15-.12.22a.58.58,0,0,0,0,.56,0,0,0,0,0,0,0A.88.88,0,0,1,41.61,120.13Z"/><path class="cls-2" d="M41.61,121.13l.07.08a.22.22,0,0,0,0-.09l-.08-.12A.32.32,0,0,0,41.61,121.13Z"/><path class="cls-2" d="M41.49,120.86v0a.41.41,0,0,0,.06.12,1.3,1.3,0,0,1,0-.14Z"/></g><g class="cls-1"><path class="cls-2" d="M42.4,110.9c-.13.16-.14.28-.05.37s-.41.46-.55.69a.66.66,0,0,0-.13.31c-.27.26-.43.51-.41.71,0,0-.13.13.24,0-.22.27-.45.53-.25.67,0,.07-.23.23-.18.3s-.19.32-.13.43.23,0,.21,0c-.3.26.24.28.45.4s.14.08.13.15.11,0,.16,0a1.39,1.39,0,0,1-.45.47c-.08,0-.22-.48-.37-.42s.08.34,0,.38c-.85-.41-1.24-.47-1.22-.43a2.12,2.12,0,0,0,.66.31c0,.06.23.08.27.19-.12,0-.63,0-.66-.06-.26-.08-.44,0-.48-.18s-.53-.25-.68-.33c.28,0,.88,0,.85.08.23-.27-.75,0-.75-.24,0,0-.05,0-.11,0l.08-.1c0-.17-.34-.24-.31-.42,0,0-.16.07-.18.09-.25.22.18.23.16.4s.23,0,.25,0-.1.15-.16.23c-.26-.05-.27-.19-.36-.3a1.48,1.48,0,0,0-.32,0,.44.44,0,0,0,.06.17c.18.16,1,.21.65.47h.06l0,0s0,.06-.07.12v-.08c-.59-.05-.44-.34-.75-.49-.11,0,.14-.18,0-.2s-.24-.25-.07-.45a9.51,9.51,0,0,1,2.26-2.28l0,0-.12.05.12-.07c0-.06,0-.15.26-.28s0,0,.18,0l.05,0,.19,0s.07,0,.14-.07a3.36,3.36,0,0,1,.06.44c.24-.09.2-.12.23-.15s-.12-.07,0-.14.38-.37.5-.52l.26-.14C42.19,110.85,42.49,110.83,42.4,110.9ZM39,113.74l.35-.22,0-.06s0,0,0-.05l.37-.34a1.91,1.91,0,0,0-.65.45c0-.26.76-.7,1.28-1.08a1,1,0,0,0,.16-.27c0-.06,0-.1-.08-.13-1,.91-2.31,1.93-2.26,2.58C38.47,114.31,38.64,114.06,39,113.74Zm.25,0a.38.38,0,0,0,0,.25c0,.23,0,.47.55.47a1.42,1.42,0,0,1-.55-.47c0,.21,0,0,0-.22C39.25,113.78,39.25,113.77,39.24,113.75Z"/><path class="cls-2" d="M39.36,112.46l.82-.51c-.28.11-.53.21-.74.32a3.34,3.34,0,0,0-.73.57c-.77.56-1,1-1,1.35,0,0,0,.07,0,.08A4.38,4.38,0,0,1,39.36,112.46Z"/><path class="cls-2" d="M37.57,114.9c.09,0,.18.08.2.14.13-.1.13-.18.12-.24a1,1,0,0,1-.18-.22C37.61,114.71,37.55,114.81,37.57,114.9Z"/><path class="cls-2" d="M37.75,114.26l0,.06a.27.27,0,0,0,0,.26l.36-.38A1,1,0,0,1,37.75,114.26Z"/></g><g class="cls-1"><path class="cls-2" d="M42,102.33c-.21.18-.22.3-.08.38s-.67.53-.89.78a.66.66,0,0,0-.22.33c-.45.31-.74.59-.72.8-.06,0-.23.15.41,0-.39.31-.82.63-.48.73.08.06-.43.29-.35.35.23.07-.38.37-.28.48a2,2,0,0,1,.38,0c-.58.34.41.24.81.3.11,0,.26,0,.24.12a.83.83,0,0,1,.31,0,3,3,0,0,1-.91.6c-.16.06-.38-.43-.68-.34s.1.33,0,.38c-.79-.1-1.36-.15-1.71-.17s-.51,0-.51,0a3.92,3.92,0,0,0,1.14.17c0,.07.43,0,.48.13-.24,0-1.2.12-1.26.1-.46,0-.83.1-.84-.08s-.88-.15-1.12-.21c.5-.07,1.57-.22,1.49-.1.48-.34-1.33.13-1.27-.1,0,0-.08,0-.18,0l.17-.12c0-.17-.51-.19-.39-.4,0,0-.29.11-.33.13-.5.29.22.22.13.4s.4,0,.41,0-.23.19-.37.29c-.43,0-.39-.16-.52-.26a4.24,4.24,0,0,0-.55.07.25.25,0,0,0,0,.17c.24.15,1.69,0,.94.39h.1l-.06,0s0,.07-.18.15l0-.09c-1,.07-.64-.29-1.1-.39-.17,0,.31-.23.14-.23-.37,0-.3-.23.06-.48a27.71,27.71,0,0,1,4.17-2.81l0,0-.2.07.19-.09c0-.06.06-.15.43-.33s0,0,.28,0l.09-.05.3-.08c-.07,0,.11-.05.22-.09a2.06,2.06,0,0,1,.07.44c.4-.13.32-.15.38-.19-.09,0-.19,0-.06-.13-.1-.1.62-.43.81-.61l.42-.18C41.67,102.32,42.15,102.25,42,102.33Zm-5.85,3.52.64-.3.08-.07s0,0,0-.05l.68-.43a5.14,5.14,0,0,0-1.17.59c0-.27,1.4-.87,2.29-1.36a1.35,1.35,0,0,0,.28-.3c0-.06,0-.09-.12-.13-1.59,1.09-4.12,2.43-4.3,3.14C35.12,106.56,35.49,106.25,36.16,105.85Zm.42,0a.25.25,0,0,0,0,.26c-.07.25-.09.5.84.39-.37-.1-.73-.21-.84-.39-.06.22.06,0,.05-.23C36.58,105.84,36.58,105.83,36.58,105.81Z"/><path class="cls-2" d="M37,104.43l1.37-.67c-.45.16-.87.31-1.22.45a8.32,8.32,0,0,0-1.27.71c-1.35.72-1.91,1.24-2,1.64,0,0-.08.08,0,.08A11.46,11.46,0,0,1,37,104.43Z"/><path class="cls-2" d="M33.35,107.39c.14,0,.27.06.27.12.27-.13.31-.22.31-.29a.63.63,0,0,1-.2-.22C33.52,107.16,33.35,107.3,33.35,107.39Z"/><path class="cls-2" d="M33.93,106.64l-.08.08c-.13.12-.14.21-.11.29l.74-.49A2.77,2.77,0,0,1,33.93,106.64Z"/></g><g class="cls-1"><path class="cls-2" d="M41.25,94c-.28.16-.31.22-.12.3s-.87.59-1.16.86a.75.75,0,0,0-.29.35c-.59.35-1,.66-1,.87-.08,0-.31.18.55-.07-.52.35-1.11.71-.65.78.1.05-.58.33-.48.39.31,0-.53.41-.4.51a3.76,3.76,0,0,1,.52-.07c-.81.41.54.2,1.09.22.15,0,.35,0,.32.09a1.61,1.61,0,0,1,.43-.08,5.07,5.07,0,0,1-1.28.7c-.23.07-.52-.39-.93-.27-.23.08.12.32,0,.38-1.09,0-1.84,0-2.32,0a2.34,2.34,0,0,0-.69.06,6.3,6.3,0,0,0,1.53.07c-.06.08.58,0,.65.09-.33,0-1.64.24-1.72.23-.62,0-1.13.18-1.12,0s-1.16-.08-1.46-.12a8,8,0,0,1,2-.24c.69-.4-1.8.26-1.67,0a.55.55,0,0,0-.24,0l.25-.14c0-.18-.65-.16-.46-.38,0,0-.39.13-.45.16-.7.34.25.21.11.41s.53-.07.54,0-.33.22-.53.33c-.56,0-.48-.13-.63-.22a7.41,7.41,0,0,0-.73.12.2.2,0,0,0,0,.18c.28.14,2.21-.12,1.17.32l.13,0-.08,0s0,.07-.26.17l0-.1c-1.38.17-.79-.24-1.38-.32-.22,0,.45-.26.23-.25-.48,0-.35-.22.16-.51a50.76,50.76,0,0,1,5.67-3.22l0,0-.26.09.25-.1c0-.06.08-.16.58-.35.31-.11,0,0,.36,0l.12-.06.39-.1c-.09,0,.15-.06.29-.1,0,.11.11.26.08.41.52-.16.42-.18.5-.22-.12,0-.25,0-.08-.13-.13-.11.81-.45,1.08-.61l.55-.19C40.81,94,41.43,93.88,41.25,94Zm-7.79,4,.87-.37.11-.08c.06,0,0-.05,0-.05l.92-.5a8.9,8.9,0,0,0-1.57.7c.08-.29,1.9-1,3.08-1.58a1.84,1.84,0,0,0,.38-.33c0-.06-.05-.09-.14-.12-2.1,1.23-5.54,2.82-5.91,3.59C32,98.75,32.54,98.39,33.46,97.92Zm.55-.07c-.08.11-.08.19,0,.26-.12.26-.18.53,1.07.33-.48-.07-.95-.15-1.07-.33-.11.23.07,0,.09-.24C34,97.88,34,97.87,34,97.85Z"/><path class="cls-2" d="M34.73,96.39l1.81-.79-1.6.55a14.08,14.08,0,0,0-1.69.83c-1.81.85-2.61,1.43-2.84,1.86-.06,0-.12.09,0,.08A20.21,20.21,0,0,1,34.73,96.39Z"/><path class="cls-2" d="M29.56,99.77c.17,0,.34,0,.33.11.38-.16.45-.26.46-.33s-.19-.13-.22-.21C29.82,99.51,29.58,99.67,29.56,99.77Z"/><path class="cls-2" d="M30.45,98.93l-.12.09c-.18.14-.23.24-.2.32l1.05-.57A4.86,4.86,0,0,1,30.45,98.93Z"/></g><g class="cls-1"><path class="cls-2" d="M42.07,88.38c-.36,0-.42.1-.23.19s-1.17.09-1.59.19a.86.86,0,0,0-.44.16c-.79.07-1.34.19-1.38.36-.11,0-.41,0,.65.1-.71.11-1.5.25-1,.43.1.07-.78.12-.68.19.35.11-.74.21-.61.33s.7,0,.63.06c-1.06.16.58.29,1.23.4.18,0,.42.08.36.13a3.16,3.16,0,0,1,.53,0,3.36,3.36,0,0,1-.63.16,10.52,10.52,0,0,1-1.07.18c-.29,0-.52-.41-1-.4-.29,0,.06.3-.08.33L34,90.69a3.42,3.42,0,0,0-.83-.11A7.18,7.18,0,0,0,35,91c-.09.06.69.11.74.22-.4,0-2-.12-2.11-.15-.74-.13-1.38-.09-1.32-.28s-1.32-.4-1.65-.55a11.91,11.91,0,0,1,2.4.32c.93-.21-2.18-.23-1.94-.47A.68.68,0,0,0,30.8,90l.34-.08c.07-.19-.68-.38-.38-.57,0,0-.5,0-.57,0-.92.15.2.33,0,.5s.64.09.64.13-.46.13-.73.2c-.66-.14-.51-.31-.64-.47s-.6-.08-.88-.12a.26.26,0,0,0-.05.22c.26.28,2.59.58,1.22.77l.16,0h-.11s0,.08-.36.12l.09-.1c-1.66-.24-.82-.55-1.46-.84-.25-.07.62-.16.36-.23-.53-.2-.3-.4.39-.55A30.59,30.59,0,0,1,36.43,88l0,0-.33,0h.32c0-.06.16-.1.77-.08.38,0,0,0,.41.11h.15l.47.06c-.1,0,.19,0,.36,0,0,.11,0,.24-.06.35.64.06.54,0,.64,0-.13-.05-.26-.11,0-.12-.11-.11,1.07-.06,1.42-.1l.68,0C41.58,88.24,42.3,88.38,42.07,88.38ZM31.88,89,33,89l.15,0c.09,0,.07,0,0-.06l1.23-.16a10.55,10.55,0,0,0-2,.13c.21-.27,2.53-.33,4.07-.39a2.66,2.66,0,0,0,.55-.14s0-.09-.11-.15c-1.39.13-3.23.27-4.8.52a7.53,7.53,0,0,0-3.25,1C29.93,89.43,30.66,89.22,31.88,89Zm.64.11c-.13.08-.17.17-.14.26-.24.23-.4.5,1.11.66-.53-.2-1-.43-1.11-.66-.21.21.07.06.2-.22C32.52,89.19,32.52,89.18,32.53,89.16Z"/><path class="cls-2" d="M33.93,88c.8,0,1.49,0,2.32,0-.73-.05-1.41-.1-2-.12A14.6,14.6,0,0,0,32,88c-2.37.15-3.52.52-4,1-.08,0-.18.06,0,.11A17.15,17.15,0,0,1,33.93,88Z"/><path class="cls-2" d="M26.73,89.77c.19.09.37.18.33.26.5-.07.61-.17.66-.25a.63.63,0,0,1-.16-.34C27.13,89.54,26.79,89.65,26.73,89.77Z"/><path class="cls-2" d="M28.08,89.07l-.17.06c-.26.1-.36.2-.36.32l1.42-.3A5.37,5.37,0,0,1,28.08,89.07Z"/></g><g class="cls-1"><path class="cls-2" d="M44.92,82.68c-.41,0-.49,0-.33.24s-1.29-.17-1.78-.17a.9.9,0,0,0-.53.07c-.87-.16-1.5-.21-1.6,0-.12,0-.46-.09.65.35-.8-.11-1.68-.27-1.22.13.08.12-.87-.18-.79-.06.32.27-.86-.07-.78.1a7.07,7.07,0,0,1,.63.33c-1.18-.29.48.56,1.11,1,.16.13.39.3.32.3a5.23,5.23,0,0,1,.55.25,5.27,5.27,0,0,1-.71-.16c-.39-.1-.87-.23-1.18-.34a1,1,0,0,1-.38-.35,1.47,1.47,0,0,0-.55-.46c-.32-.1-.05.3-.21.26-1.27-.76-2.11-1.36-2.66-1.7a4.29,4.29,0,0,0-.82-.47,10.61,10.61,0,0,0,1.67,1.19c-.12,0,.67.41.69.53-.4-.21-2.05-1-2.13-1.1-.71-.46-1.4-.71-1.26-.84s-1.23-.92-1.52-1.17a14.54,14.54,0,0,1,2.39,1.3c1,.21-2.19-1.14-1.85-1.23a.92.92,0,0,0-.26-.18l.38.08c.14-.13-.59-.59-.21-.62,0,0-.53-.19-.61-.21-1-.26.11.34-.19.38s.64.34.63.37-.52-.08-.83-.15c-.64-.39-.43-.45-.52-.63s-.6-.31-.89-.45c-.08,0-.12.08-.12.14.19.3,2.51,1.54,1,1.1l.16.08-.12,0s-.07,0-.42-.07l.13,0c-1.64-.9-.67-.76-1.25-1.24-.24-.15.69.14.45,0-.5-.36-.2-.41.58-.25,2.32.37,4.9.85,8.4,1.72l0,0-.34-.12.34.1c0-.07.2-.06.85.13.4.14,0,.05.41.24l.16,0,.49.21c-.11-.06.2.06.38.13-.07.13-.06.29-.18.4.67.26.58.17.69.19-.12-.1-.25-.21,0-.16-.08-.17,1.17.21,1.56.24l.72.22C44.43,82.37,45.17,82.73,44.92,82.68ZM33.83,80.12l1.21.36.17,0c.09,0,.08,0,0-.06l1.35.3a15.7,15.7,0,0,0-2.2-.62c.3-.15,2.78.63,4.43,1.06a2.67,2.67,0,0,0,.63,0c.06,0,0-.11-.08-.2-3.06-.57-7.95-1.91-9-1.64C31.66,79.67,32.5,79.79,33.83,80.12Zm.65.35c-.16,0-.23.08-.23.17-.32.11-.58.26.94,1-.49-.41-.94-.81-.94-1-.29.1.05.08.28-.11C34.47,80.49,34.47,80.48,34.48,80.46Z"/><path class="cls-2" d="M36.3,79.9l2.48.72-2.08-.74a24.41,24.41,0,0,0-2.39-.6c-2.55-.68-3.86-.84-4.45-.7-.09,0-.21,0,0,.08A36.89,36.89,0,0,1,36.3,79.9Z"/><path class="cls-2" d="M28.2,78.61c.17.14.34.28.27.32.55.16.69.14.76.1s-.1-.23-.07-.31A2.5,2.5,0,0,0,28.2,78.61Z"/><path class="cls-2" d="M29.83,78.65l-.19,0c-.31,0-.43,0-.47.08l1.58.35A8.6,8.6,0,0,1,29.83,78.65Z"/></g><g class="cls-1"><path class="cls-2" d="M48.62,75.15c-.43,0-.51,0-.33.24s-1.36-.2-1.87-.21a.94.94,0,0,0-.55.06c-.92-.18-1.59-.25-1.69-.07-.12,0-.49-.11.7.37-.85-.13-1.79-.31-1.28.1.09.12-.93-.2-.84-.08.35.28-.92-.1-.82.08s.77.38.69.36c-1.26-.33.54.58,1.22,1,.18.14.43.3.35.34a3.68,3.68,0,0,1,.6.28,10.09,10.09,0,0,1-2.06-.48c-.34-.12-.4-.72-1-1-.34-.13-.07.34-.23.31-5.44-3.57-3.95-2.31-1.94-1.08-.13,0,.73.45.74.58-.43-.25-2.22-1.13-2.31-1.2-.78-.48-1.52-.76-1.37-.88S35.31,73,35,72.73a16.88,16.88,0,0,1,2.59,1.38c1.13.24-2.37-1.21-2-1.29a1,1,0,0,0-.28-.19l.41.09c.15-.12-.64-.61-.23-.63,0,0-.57-.21-.65-.23-1.09-.29.12.34-.2.38-.17,0,.69.36.68.39s-.56-.1-.9-.17c-.7-.41-.46-.47-.56-.65s-.65-.33-1-.48c-.08,0-.13.07-.13.14.2.31,2.71,1.63,1.11,1.13l.17.09-.13,0s-.07,0-.45-.08l.14,0c-1.78-1-.72-.78-1.35-1.28-.26-.16.75.16.49,0-.54-.38-.22-.42.62-.23,2.49.44,5.25,1,9,2l0-.05-.36-.13.36.11c0-.07.21-.06.9.15.43.15,0,.05.44.25l.17,0,.52.22c-.11-.06.21.07.4.14-.07.13,0,.3-.17.4.72.28.61.18.73.21-.13-.11-.27-.22,0-.16-.09-.17,1.24.23,1.65.27l.76.24C48.09,74.83,48.87,75.21,48.62,75.15ZM36.82,72.3l1.3.4.18,0c.1,0,.09,0,0-.06l1.44.34a18.11,18.11,0,0,0-2.35-.69c.32-.14,3,.71,4.73,1.18a2.94,2.94,0,0,0,.66,0c.07,0,0-.11-.09-.2-3.24-.65-8.48-2.13-9.58-1.89C34.49,71.79,35.39,71.94,36.82,72.3Zm.69.37c-.17,0-.25.08-.25.16-.34.1-.62.24,1,1.07-.53-.43-1-.84-1-1.07-.3.09.06.08.29-.11C37.5,72.7,37.51,72.68,37.52,72.67Z"/><path class="cls-2" d="M39.44,72.15l2.64.78-2.22-.8c-1.46-.48-1.62-.41-2.55-.67-2.72-.75-4.13-1-4.76-.83-.1,0-.22,0,0,.08A43.06,43.06,0,0,1,39.44,72.15Z"/><path class="cls-2" d="M30.76,70.62c.18.14.36.29.29.32.59.18.75.16.82.13s-.11-.23-.07-.31A2.94,2.94,0,0,0,30.76,70.62Z"/><path class="cls-2" d="M32.51,70.72l-.21,0c-.33,0-.47,0-.51.07l1.7.4A10,10,0,0,1,32.51,70.72Z"/></g><g class="cls-1"><path class="cls-2" d="M51.75,64.27c-.43.15-.48.29-.25.47s-1.41.35-1.92.54a1,1,0,0,0-.54.29c-1,.12-1.67.28-1.72.52-.13,0-.52,0,.8.22-.89.13-1.9.19-1.29.53.12.12-1,0-.87.14.41.24-1,.12-.83.3a7.13,7.13,0,0,1,.77.25c-1.36-.08.65.55,1.42,1,.2.14.49.28.41.34a3,3,0,0,1,.66.22,7.58,7.58,0,0,1-2.23-.13c-.36-.09-.49-.79-1.15-.94-.37-.08,0,.41-.21.4-1.52-.78-2.58-1.22-3.26-1.5a5.35,5.35,0,0,0-1-.35,19.07,19.07,0,0,0,2.09,1c-.13,0,.82.36.85.51-.48-.21-2.46-.86-2.57-.92-.88-.37-1.69-.54-1.56-.66s-1.56-.68-1.94-.85a17.58,17.58,0,0,1,2.92.89c1.2.07-2.66-.79-2.32-.88a1.34,1.34,0,0,0-.33-.12l.43,0c.12-.12-.79-.41-.39-.47,0,0-.62-.09-.71-.09-1.17-.09.21.24-.11.3s.78.21.77.23a4,4,0,0,1-.95-.05c-.8-.25-.58-.3-.72-.42s-.74-.18-1.09-.25c-.07,0-.11.06-.1.1.28.17,3.12,1,1.39.72l.19.06-.14,0s-.06,0-.48,0l.13,0c-2-.59-.91-.5-1.67-.8-.3-.09.79.06.49,0-.63-.21-.33-.24.56-.2,2.61,0,5.52,0,9.5-.3l0,0-.4,0h.39c0-.08.18-.13.94-.15.47,0,0,.06.51.12l.18,0,.58,0c-.13,0,.23,0,.44,0,0,.18,0,.37,0,.54.79.05.66,0,.79,0-.17-.08-.33-.15-.06-.19-.14-.17,1.29-.22,1.71-.36l.83,0C51.12,64.09,52,64.22,51.75,64.27ZM39.18,65l1.41.1h.19c.11,0,.09,0,0-.06l1.54,0c-1.17-.07-2.2-.14-2.54-.1.28-.18,3.17,0,5.06-.08a2.66,2.66,0,0,0,.67-.18c.06-.05,0-.12-.15-.19a55.09,55.09,0,0,1-5.94.27,40.06,40.06,0,0,0-4.16.08C36.71,65,37.65,65,39.18,65Zm.79.19c-.17,0-.23.11-.21.19-.32.15-.57.3,1.28.8-.63-.32-1.22-.6-1.28-.8-.29.13.08.07.27-.15C40,65.24,40,65.23,40,65.21Z"/><path class="cls-2" d="M41.76,64.29c1,0,1.84,0,2.85,0l-2.44-.1c-1.59,0-1.72.06-2.73.06a33.27,33.27,0,0,0-5,.13c-.11,0-.23,0,0,.05Z"/><path class="cls-2" d="M32.67,64.44c.22.08.44.16.37.18a2.21,2.21,0,0,0,.86.05c-.09-.07-.17-.14-.15-.19A6.22,6.22,0,0,0,32.67,64.44Z"/><path class="cls-2" d="M34.45,64.41h-.22c-.34,0-.47,0-.49.07.57,0,1.27.1,1.81.13C34.93,64.51,34.61,64.45,34.45,64.41Z"/></g><g class="cls-1"><path class="cls-2" d="M50.23,52.19c-.33.32-.32.49,0,.58s-1.15.91-1.54,1.29a1,1,0,0,0-.38.5c-.85.5-1.44.91-1.39,1.17-.12.06-.47.23.84-.1-.78.46-1.7.9-1,1,.16.07-.92.4-.76.46.48.07-.86.48-.67.59a7.44,7.44,0,0,1,.82-.06c-1.31.44.83.26,1.72.35.24,0,.57.07.52.15a3.16,3.16,0,0,1,.7-.05,8,8,0,0,1-2.15.72c-.38.06-.78-.53-1.45-.41-.38.07.14.38,0,.44-1.74-.13-2.91-.14-3.65-.13a5.54,5.54,0,0,0-1.08.06,19,19,0,0,0,2.35.11c-.11.08.91,0,1,.14-.53,0-2.65.15-2.77.14-1,0-1.8.15-1.72,0a10.25,10.25,0,0,0-2.15-.05,18.07,18.07,0,0,1,3.09-.29c1.16-.4-2.81.29-2.52.07a1.36,1.36,0,0,0-.35,0l.42-.14c.07-.16-.89-.07-.54-.28,0,0-.62.16-.7.19-1.14.36.28.14,0,.32s.81-.11.82-.08a4.15,4.15,0,0,1-.91.31c-.85.07-.66-.06-.84-.12s-.76.12-1.12.18c-.06.05-.09.09-.06.13.32,0,3.31-.27,1.57.14l.2,0-.14,0s0,.06-.47.15l.11-.08c-2.12.22-1-.12-1.86-.11-.32,0,.77-.24.45-.21-.67,0-.39-.1.46-.39a88.72,88.72,0,0,0,8.77-3.93l-.06,0-.38.14.36-.16c0-.07.12-.2.8-.52.44-.19,0,0,.52-.09l.16-.09.56-.18c-.13,0,.21-.1.41-.18,0,.19.2.34.19.54.76-.26.61-.28.72-.34-.19,0-.37,0-.13-.16-.2-.1,1.1-.74,1.42-1l.75-.37C49.57,52.26,50.46,52,50.23,52.19ZM38.86,57.85l1.36-.45.18-.09c.1,0,.07-.05,0,0l1.43-.61c-1.12.38-2.11.72-2.42.88.2-.27,3-1.22,4.7-2a2.58,2.58,0,0,0,.55-.43c0-.07-.08-.1-.22-.12A47.52,47.52,0,0,1,39,57.53c-1.84.76-3.44,1.34-3.89,1.64C36.51,58.73,37.4,58.38,38.86,57.85Zm.81-.13c-.14.11-.17.19-.12.25-.25.26-.42.49,1.51.25A3.69,3.69,0,0,1,39.55,58c-.22.23.1,0,.2-.24C39.68,57.75,39.67,57.73,39.68,57.72Z"/><path class="cls-2" d="M41,56.19c.92-.38,1.7-.73,2.64-1.15l-2.31.87c-1.49.59-1.58.73-2.52,1.12a41.72,41.72,0,0,0-4.64,2c-.1,0-.22.08,0,0C35.88,58.4,37.49,57.7,41,56.19Z"/><path class="cls-2" d="M32.5,59.78c.23,0,.47,0,.41,0a2.33,2.33,0,0,0,.83-.28c-.1,0-.21-.06-.21-.11A6.81,6.81,0,0,0,32.5,59.78Z"/><path class="cls-2" d="M34.18,59.09l-.21.08c-.32.12-.43.2-.44.25.56-.17,1.23-.38,1.76-.56C34.67,59,34.34,59.06,34.18,59.09Z"/></g><g class="cls-1"><path class="cls-2" d="M46.73,44.08c-.33.27-.32.38,0,.39s-1.12.82-1.49,1.17a.91.91,0,0,0-.35.43c-.8.52-1.34,1-1.27,1.15-.11.07-.43.27.8-.24-.72.51-1.55,1.06-.86,1,.16,0-.84.52-.68.54.47-.05-.75.59-.55.64s.85-.29.78-.24c-1.19.68.84,0,1.7-.16.24,0,.55-.1.52,0a4.18,4.18,0,0,1,.66-.23A11,11,0,0,1,44,49.62c-.35.16-.85-.21-1.46.05-.35.16.21.29.06.38-6.74,1.44-4.68,1.23-2.27.65-.09.1.88-.21,1-.13-.51.14-2.51.81-2.63.83-.94.22-1.7.56-1.67.37s-1.7.28-2.12.33a18.6,18.6,0,0,1,2.95-.89c1-.64-2.66.85-2.44.54a1.11,1.11,0,0,0-.35.07l.37-.23c0-.2-.91,0-.61-.28,0,0-.57.26-.65.31-1,.58.32.16.1.42-.15.1.78-.24.78-.21s-.5.34-.81.53c-.82.21-.67,0-.87-.06s-.72.23-1.06.35c0,.08-.05.15,0,.2.36.08,3.2-.8,1.62,0l.19-.06-.13.06s0,.08-.41.27L33.7,53c-2,.61-1.08,0-1.9.06-.31.07.69-.43.38-.35-.67.11-.44-.14.32-.62,2.21-1.49,4.66-3.08,8.07-5l-.06,0-.36.17L40.5,47c0-.05.11-.19.77-.53.42-.2,0,0,.5-.13l.15-.09.54-.21c-.13,0,.2-.1.39-.19,0,.14.19.24.18.4.72-.32.58-.3.68-.37-.18,0-.35,0-.13-.1-.2-.05,1.06-.71,1.38-1l.73-.37C46.11,44.23,47,43.94,46.73,44.08ZM36,50.46l1.26-.65.16-.11c.09-.06.06-.07,0,0l1.31-.79a19.59,19.59,0,0,0-2.24,1.2c.14-.33,2.72-1.63,4.35-2.55a3,3,0,0,0,.51-.44c0-.07-.08-.08-.21-.08-2.82,1.84-7.8,4.56-8.5,5.54C33.91,51.78,34.71,51.23,36,50.46Zm.78-.24c-.12.14-.13.23-.07.29-.19.32-.3.62,1.53,0-.7.08-1.37.14-1.53,0-.17.28.1,0,.15-.29C36.83,50.25,36.82,50.24,36.82,50.22Z"/><path class="cls-2" d="M37.89,48.47l2.5-1.33-2.2,1c-1.41.7-1.48.86-2.36,1.35-2.55,1.41-3.77,2.29-4.18,2.84-.09.06-.19.14,0,.08A48.5,48.5,0,0,1,37.89,48.47Z"/><path class="cls-2" d="M30.25,53.64c.23,0,.47-.05.43,0,.58-.3.69-.43.73-.51-.12,0-.24-.09-.26-.18A3.41,3.41,0,0,0,30.25,53.64Z"/><path class="cls-2" d="M31.68,52.43l-.18.13c-.28.21-.37.33-.35.42L32.74,52A10.71,10.71,0,0,1,31.68,52.43Z"/></g><g class="cls-1"><path class="cls-2" d="M43.49,37.24c-.35.17-.36.23-.1.2s-1.15.56-1.54.82a1,1,0,0,0-.38.31c-.8.42-1.35.78-1.27,1-.1.07-.41.26.77-.23-.68.49-1.48,1-.81,1,.16,0-.8.51-.64.53.46,0-.72.57-.52.63s.83-.28.75-.23c-1.14.66.82,0,1.66-.14.23,0,.54-.1.51,0a3.93,3.93,0,0,1,.64-.22A10.2,10.2,0,0,1,40.72,42c-.34.15-.83-.22-1.43,0-.34.15.21.29.06.38-6.54,1.35-4.53,1.17-2.2.62-.08.1.85-.2,1-.12-.49.13-2.44.78-2.55.79-.91.21-1.65.54-1.62.34s-1.64.26-2,.3a17.31,17.31,0,0,1,2.84-.85c1-.63-2.57.81-2.36.5a1,1,0,0,0-.33.07l.36-.23c0-.2-.87,0-.58-.29,0,0-.55.25-.63.3-1,.57.31.16.1.42-.15.09.75-.23.76-.2s-.48.33-.78.51c-.79.2-.65,0-.84-.07s-.7.22-1,.34c0,.08-.05.15,0,.2.34.08,3.08-.75,1.55,0l.19-.06L31,45s0,.08-.39.27l.08-.12c-2,.58-1-.05-1.83,0-.3.07.66-.42.37-.35-.64.1-.42-.15.32-.62L33,41.91a37.65,37.65,0,0,1,4.39-2.44h-.05l-.36.13.34-.14s.11-.16.77-.42c.42-.15,0,0,.49-.1l.15-.07.53-.17c-.12,0,.2-.08.39-.14,0,.1.15.16.13.28.71-.26.57-.24.68-.29-.17,0-.34,0-.11-.06-.18,0,1.07-.52,1.41-.69l.73-.26A5,5,0,0,1,43.49,37.24ZM33,42.68l1.21-.63.15-.11c.09-.06.06-.07,0,0l1.26-.77a17.65,17.65,0,0,0-2.15,1.16c.13-.33,2.61-1.61,4.21-2.4a3.62,3.62,0,0,0,.51-.38c0-.06-.07-.06-.19-.06-1.41.76-3.31,1.81-4.92,2.86a16.15,16.15,0,0,0-3.32,2.39C30.92,44,31.68,43.44,33,42.68Zm.75-.23c-.11.14-.13.23-.07.29-.18.31-.29.62,1.48,0-.68.07-1.32.12-1.48,0-.16.28.1,0,.14-.28C33.72,42.49,33.71,42.47,33.71,42.46Z"/><path class="cls-2" d="M34.75,40.7c.85-.4,1.58-.75,2.45-1.13-.8.3-1.53.58-2.16.84a18,18,0,0,0-2.3,1.23A18.3,18.3,0,0,0,30,43.4a7.05,7.05,0,0,0-1.23,1.11c-.09.06-.18.14,0,.08l2.33-1.71A25.71,25.71,0,0,1,34.75,40.7Z"/><path class="cls-2" d="M27.39,45.78c.22,0,.45,0,.41,0,.56-.29.67-.42.7-.5-.11,0-.23-.1-.24-.18A3.27,3.27,0,0,0,27.39,45.78Z"/><path class="cls-2" d="M28.77,44.59l-.17.13c-.27.2-.35.33-.34.41l1.52-.92A9.88,9.88,0,0,1,28.77,44.59Z"/></g><g class="cls-1"><path class="cls-2" d="M42.37,32.43c-.36,0-.39.11-.16.2s-1.18.12-1.6.23a.76.76,0,0,0-.43.17c-.83.09-1.42.23-1.43.39s-.45.06.74.08c-.76.13-1.63.3-1,.45.13.06-.87.14-.74.21.42.1-.82.24-.66.35s.82,0,.74,0c-1.21.2.71.25,1.51.32.22,0,.51.05.46.1a4.94,4.94,0,0,1,.64,0,4.25,4.25,0,0,1-.71.18c-.41.09-.91.19-1.25.23S37.79,35,37.18,35c-.34,0,.1.29-.05.33-1.57-.14-2.61-.28-3.27-.36a4.61,4.61,0,0,0-1-.08,9,9,0,0,0,2.09.36c-.1.07.82.08.9.18-.48,0-2.4,0-2.5,0-.87-.1-1.63,0-1.54-.22s-1.53-.35-1.89-.49a15.74,15.74,0,0,1,2.77.23c1.07-.25-2.52-.14-2.23-.4a.81.81,0,0,0-.31-.07l.39-.09c.09-.2-.76-.37-.4-.57,0,0-.57,0-.65,0-1.06.18.21.32-.07.51s.73.07.72.11-.53.16-.85.24c-.75-.12-.56-.3-.7-.45s-.68-.06-1-.09a.28.28,0,0,0-.09.23c.26.28,2.93.5,1.34.75h.18l-.13,0s-.05.08-.43.14l.11-.11c-1.9-.18-.89-.53-1.6-.81-.28-.06.72-.19.44-.25-.59-.19-.3-.4.5-.58a38.41,38.41,0,0,1,8.43-1.35l0,0h0c0-.06.16-.11.81-.1.41,0,0,0,.45.1h.16l.51.05c-.11,0,.2,0,.38,0,0,.12.07.24,0,.35.7,0,.57,0,.68,0-.15,0-.3-.1-.07-.11-.14-.11,1.1-.1,1.45-.14l.71,0C41.82,32.31,42.6,32.43,42.37,32.43Zm-10.94,1,1.26-.11.17,0c.09,0,.08,0,0-.06l1.36-.2a13,13,0,0,0-2.26.2c.24-.28,2.81-.41,4.46-.52a2.8,2.8,0,0,0,.57-.16s0-.09-.14-.14c-1.47.17-3.47.37-5.23.66a10,10,0,0,0-3.73,1.09C29.21,33.87,30.06,33.63,31.43,33.41Zm.72.09c-.15.09-.19.18-.16.27-.27.24-.47.52,1.26.62-.62-.18-1.19-.4-1.26-.62-.24.22.08.06.22-.23C32.15,33.54,32.15,33.52,32.16,33.51Z"/><path class="cls-2" d="M33.69,32.29c.87,0,1.61-.07,2.5-.08-.79,0-1.51-.06-2.14-.06a17.45,17.45,0,0,0-2.41.21c-2.6.22-3.93.64-4.48,1.1-.1,0-.21.07,0,.11A22,22,0,0,1,33.69,32.29Z"/><path class="cls-2" d="M25.52,34.34c.2.09.4.17.34.26.59-.09.72-.2.78-.28A.53.53,0,0,1,26.5,34,2.3,2.3,0,0,0,25.52,34.34Z"/><path class="cls-2" d="M27.15,33.56l-.2.07c-.31.11-.43.22-.45.34l1.65-.35A6.49,6.49,0,0,1,27.15,33.56Z"/></g><g class="cls-1"><path class="cls-2" d="M43.42,26c-.35.07-.42.21-.28.43s-1.13.09-1.55.19a.71.71,0,0,0-.47.2c-.76-.06-1.32,0-1.42.2-.1,0-.4-.07.56.38-.72,0-1.44-.27-1,.11.09.1-.75-.2-.66-.09.31.24-.75-.1-.66.06s.66.32.59.3c-1.07-.27.49.48,1.13.83.17.11.4.23.34.25a4.57,4.57,0,0,1,.53.21,4.12,4.12,0,0,1-.66-.11c-.37-.07-.82-.17-1.12-.25s-.41-.55-.93-.74c-.3-.1,0,.29-.18.26-2.45-1.39-3.23-2-3.3-1.94a6.91,6.91,0,0,0,1.57,1.09c-.11,0,.64.37.66.48-.39-.19-2-.88-2-.95-.68-.41-1.32-.62-1.17-.77S32.26,25.23,32,25a12.85,12.85,0,0,1,2.16,1.24c1,.17-2-1.07-1.65-1.21,0,0-.09-.09-.22-.18l.36.06c.16-.15-.46-.63-.09-.69,0,0-.47-.19-.54-.2-.94-.23,0,.39-.27.46-.15,0,.56.34.54.37s-.5-.05-.8-.09c-.56-.4-.32-.5-.37-.7a8.76,8.76,0,0,0-.77-.46.33.33,0,0,0-.17.19c.08.37,2.17,1.58.76,1.22l.14.08L31,25s-.08.06-.42,0l.14-.06c-1.47-.87-.48-.85-.94-1.38-.2-.17.67.09.47-.07-.39-.4-.07-.5.66-.37a59.65,59.65,0,0,0,7.36,1.59.14.14,0,0,1,0-.05l-.3-.09.29.07c0-.08.18-.09.74,0,.35.09,0,.06.35.21h.14l.42.15c-.09,0,.17,0,.33.08a2.14,2.14,0,0,1-.17.53c.58.2.5.11.6.11-.11-.11-.21-.21,0-.2-.07-.19,1,0,1.36,0l.62.11C43,25.69,43.63,26,43.42,26Zm-9.68-1.63,1.06.38.15,0c.08,0,.07,0,0-.06l1.18.28a16.84,16.84,0,0,0-1.92-.6c.27-.11,2.43.61,3.88.91a1.72,1.72,0,0,0,.55,0c.06,0,0-.12-.06-.21a31,31,0,0,1-4.6-.88l-2-.54a3.05,3.05,0,0,0-1.37,0A22.14,22.14,0,0,1,33.74,24.35Zm.56.34a.21.21,0,0,0-.23.17c-.31.12-.59.32.78,1.06-.43-.4-.8-.82-.78-1.06-.28.12,0,.08.27-.12C34.28,24.72,34.29,24.7,34.3,24.69Z"/><path class="cls-2" d="M35.94,24.17c.75.19,1.39.34,2.16.51l-1.81-.55c-1.19-.33-1.33-.27-2.09-.46a26,26,0,0,0-3.91-.89c-.08,0-.17-.06,0,.06Z"/><path class="cls-2" d="M28.59,23c.12.16.25.32.16.38.52.13.68.08.76,0a.63.63,0,0,1,0-.39A1.85,1.85,0,0,0,28.59,23Z"/><path class="cls-2" d="M30.25,22.82h-.19c-.3,0-.44.05-.51.16.48.08,1,.2,1.48.28A4.85,4.85,0,0,1,30.25,22.82Z"/></g><g class="cls-1"><path class="cls-2" d="M43.4,14.92c-.23.17-.22.31,0,.44s-.79.47-1.06.7a.59.59,0,0,0-.27.33c-.59.23-1,.46-1,.7-.08,0-.33.1.56.09-.55.24-1.19.44-.73.66.1.1-.65.17-.55.26.31.16-.62.26-.51.41a3.86,3.86,0,0,1,.55.11c-.93.14.52.41,1.12.66.16.09.38.17.34.24a1.71,1.71,0,0,1,.48.09,4.16,4.16,0,0,1-1.54.25c-.26,0-.46-.64-.93-.66-.26,0,0,.39-.08.41-1.16-.46-1.93-.71-2.42-.85a2.63,2.63,0,0,0-.72-.17,8.17,8.17,0,0,0,1.54.59c-.09.05.61.2.65.33-.36-.11-1.81-.38-1.88-.42-.65-.2-1.22-.22-1.13-.37s-1.11-.42-1.37-.53a8.5,8.5,0,0,1,2.06.39c.83-.15-1.88-.32-1.64-.49a.58.58,0,0,0-.23-.07l.3-.05c.08-.15-.54-.3-.26-.44,0,0-.42,0-.49,0-.8.11.13.23-.09.36s.54.08.53.11-.41.09-.66.12c-.55-.12-.39-.23-.48-.34s-.5-.06-.74-.08c-.06,0-.09.09-.08.14.17.16,2.15.49.92.55l.14,0h-.1s0,0-.34.05l.1-.06c-1.41-.25-.6-.39-1.11-.59-.2,0,.56-.08.35-.13-.42-.13-.19-.23.42-.35,1.8-.42,3.7-.95,6.14-1.66l0,0-.25,0,.24-.05c0-.07.09-.15.55-.26.29-.05,0,.05.34.05l.11,0,.37,0c-.08,0,.14,0,.27-.05a2.08,2.08,0,0,1,.08.5c.51,0,.41-.09.48-.12-.12-.05-.24-.1-.08-.16-.12-.14.75-.35,1-.52l.5-.12C43,14.83,43.55,14.85,43.4,14.92Zm-7.81,2.31.94-.12.13,0c.07,0,.06,0,0-.06l1-.24A10.52,10.52,0,0,0,36,17a21.44,21.44,0,0,1,3.25-.78,1.34,1.34,0,0,0,.39-.25c0-.06,0-.11-.13-.16a30.68,30.68,0,0,1-3.77,1.07,15,15,0,0,0-2.83.79C33.92,17.58,34.57,17.42,35.59,17.23Zm.54.07c-.11.08-.15.15-.13.23-.21.2-.38.41.92.6-.45-.21-.87-.41-.92-.6-.19.18.06.05.17-.19C36.13,17.33,36.13,17.31,36.13,17.3Z"/><path class="cls-2" d="M37.21,16.11,39,15.72l-1.54.2c-1,.17-1.09.29-1.73.42a12.52,12.52,0,0,0-3.32.94c-.07,0-.16,0,0,.07C33.65,17,34.81,16.65,37.21,16.11Z"/><path class="cls-2" d="M31.12,17.75c.14.05.29.1.23.15.45,0,.56-.08.62-.12s-.1-.13-.08-.2A2.74,2.74,0,0,0,31.12,17.75Z"/><path class="cls-2" d="M32.4,17.35l-.15,0c-.24.06-.33.12-.36.19.4-.06.88-.12,1.26-.19A6.11,6.11,0,0,1,32.4,17.35Z"/></g><g class="cls-1"><path class="cls-2" d="M38.57,5.13a.31.31,0,0,0,.25.41c.24.14-.25.68-.31,1a.58.58,0,0,0,0,.39c-.27.4-.43.74-.32.95,0,0-.17.19.42-.09-.25.39-.6.77-.19.84.11.06-.37.36-.26.41.29,0-.32.44-.18.53a2.31,2.31,0,0,1,.43-.07c-.59.42.53.21,1.05.25.15,0,.33,0,.33.11a1.06,1.06,0,0,1,.38-.07,2.57,2.57,0,0,1-1,.71c-.19.07-.58-.44-.92-.31s.18.34.1.4c-1-.05-1.63,0-2,0a1.56,1.56,0,0,0-.56.07,5.16,5.16,0,0,0,1.29.06c0,.08.5,0,.58.1-.29,0-1.42.22-1.48.21-.53,0-.94.18-.93,0s-.92,0-1.14-.07c.51-.14,1.66-.41,1.57-.29.53-.4-1.43.29-1.31.06,0,0-.08,0-.18,0l.19-.14c0-.17-.48-.1-.34-.32,0,0-.28.15-.32.17-.52.35.17.17.06.35s.4-.1.41-.07-.26.21-.42.32c-.43.06-.35-.09-.45-.16a4.7,4.7,0,0,0-.54.15.2.2,0,0,0,0,.15c.16.09,1.66-.22.82.22l.1,0-.07,0s0,.06-.22.16l.05-.09c-1.07.2-.54-.18-1-.2-.16,0,.36-.25.2-.23-.33,0-.2-.15.17-.45a32.1,32.1,0,0,0,3.37-3.42l0,0L36,7.27l.13-.12c-.05-.06,0-.16.22-.41s0,0,.25-.06l0-.07.23-.14c-.06,0,.07-.07.15-.13a2.73,2.73,0,0,1,.33.43c.31-.2.22-.21.25-.26s-.21,0-.14-.12c-.15-.08.29-.56.33-.78l.25-.27C38.24,5.19,38.63,5,38.57,5.13Zm-4,4.56.59-.4.07-.08s0-.05,0,0l.57-.53a6.32,6.32,0,0,0-1,.77c0-.26,1.19-1.08,1.82-1.73a.91.91,0,0,0,.13-.35c0-.06-.08-.09-.16-.1a13.67,13.67,0,0,1-2,2.15A11.53,11.53,0,0,0,32.92,11C33.57,10.53,34,10.18,34.58,9.69Zm.39-.1a.25.25,0,0,0,0,.25c-.06.25-.11.49.86.26-.39-.05-.75-.1-.86-.26-.06.22.06,0,0-.23C35,9.61,35,9.6,35,9.59Z"/><path class="cls-2" d="M35.19,8.18c.36-.31.64-.59,1-.91l-.91.67a12.89,12.89,0,0,0-.94.92,9.68,9.68,0,0,0-1.87,1.88s-.1.09,0,.06Z"/><path class="cls-2" d="M31.69,11.57c.11,0,.23,0,.2.06.31-.16.37-.25.39-.31s-.11-.09-.11-.16A1.93,1.93,0,0,0,31.69,11.57Z"/><path class="cls-2" d="M32.46,10.8l-.09.08c-.14.13-.19.22-.19.28.26-.18.57-.39.8-.57A3.54,3.54,0,0,1,32.46,10.8Z"/></g><g class="cls-1"><path class="cls-2" d="M29.22.9a.3.3,0,0,0,.33.11c.2,0,.18.37.31.52a.48.48,0,0,0,.2.18c.06.27.17.49.36.56,0,0,0,.15.18-.18.08.27.13.59.4.48.1,0,0,.31.12.3s.11.34.25.35.18-.23.18-.2c0,.44.43-.09.72-.29.1,0,.19-.12.24-.08a.54.54,0,0,1,.14-.19,1.33,1.33,0,0,1,0,.77c0,.12-.6,0-.69.22s.33.11.33.17c-1.1.76-1.39,1-1.37,1a2.11,2.11,0,0,0,.76-.44c0,.06.27-.2.38-.18-.14.13-.59.69-.64.71-.28.21-.38.46-.51.34s-.57.27-.73.31c.2-.24.65-.8.7-.69,0-.43-.6.66-.73.45,0,0-.06,0-.1.06V5c-.13-.12-.38,0-.47-.16,0,0-.06.17-.06.21,0,.39.25.1.34.27s.17-.18.2-.16,0,.23,0,.36c-.22.16-.3,0-.42,0a1.41,1.41,0,0,0-.22.24.48.48,0,0,0,.13.14c.2.06.85-.6.72,0l0,0v0s0,.05,0,.19l0-.08c-.48.46-.5,0-.79.06-.08,0,0-.3-.08-.25s-.28-.11-.29-.43c-.09-1-.19-2-.24-3h0l0,.09V2.4c-.06,0-.1-.09-.09-.26s0,0,.12-.08V2l.07-.12s0-.05,0-.1a3.93,3.93,0,0,1,.42.14c.07-.18,0-.16,0-.19s-.13,0-.15,0-.11-.33-.19-.44a1.5,1.5,0,0,1,0-.18C29.05,1,29.2.84,29.22.9Zm.26,3.45c0-.12,0-.27.08-.41V3.87s0,0-.05,0l0-.47a1.9,1.9,0,0,0-.09.73c-.18-.2,0-1,0-1.49a.64.64,0,0,0-.12-.23.22.22,0,0,0-.16,0c.22.93,0,2.64.38,3.34C29.5,5.19,29.46,4.83,29.48,4.34Zm.17-.16a.42.42,0,0,0,.19.17c.15.19.32.38.71-.07a1,1,0,0,1-.71.07c.13.17.06,0-.15-.17C29.68,4.2,29.67,4.19,29.65,4.18Z"/><path class="cls-2" d="M28.8,3.19l.07-.72c-.07.2-.13.39-.17.56a3.12,3.12,0,0,0,0,.76,3.38,3.38,0,0,0,.24,1.78s0,.09.07.06A10.38,10.38,0,0,1,28.8,3.19Z"/><path class="cls-2" d="M29.2,6.48c.08,0,.16,0,.2,0a.43.43,0,0,0,0-.36A.7.7,0,0,1,29.14,6,1,1,0,0,0,29.2,6.48Z"/><path class="cls-2" d="M29,5.63v.09a.47.47,0,0,0,.13.29c0-.21,0-.45,0-.64A.82.82,0,0,1,29,5.63Z"/></g><g class="cls-1"><path class="cls-2" d="M22.5,0l.19,0A1,1,0,0,1,23,0h.14a3,3,0,0,0,.3.07s0,0,.05,0a.68.68,0,0,0,.29.11s.07.07.11.07.11.09.18.11l.06,0c0,.11.19,0,.3,0a.22.22,0,0,1,.11,0s0,0,0,0a.26.26,0,0,1,.09.2s-.28,0-.3,0,.17.06.18.07c-.42.12-.51.11-.5.14a.61.61,0,0,0,.29,0s.1,0,.16,0-.19.14-.21.13-.12.08-.19,0-.22,0-.28,0S24,.65,24,.68c-.06-.12-.18.09-.26,0h0l0,0C23.64.6,23.56.6,23.49.54s0,0,0,0,.12.07.17.12,0,0,.06,0,0,.07,0,.1-.11,0-.17-.08l-.05,0,.06.06c.08.06.27,0,.28.13h0a0,0,0,0,0,0,0s0,0,0,.06l0,0c-.15,0-.2-.1-.3-.13s0-.08-.06-.08a.3.3,0,0,1-.17-.16A1.17,1.17,0,0,0,22.7.07h-.2Zm.87.36,0-.08,0,0h0l-.1-.09a.45.45,0,0,0,.1.12C23.18.27,23.1.16,23,.1l-.11,0H22.8c.33.05.55.4.77.67A1.53,1.53,0,0,0,23.37.4Zm0,0,.11.06c.09.06.19.14.3.08a.92.92,0,0,1-.3-.08L23.43.4Z"/><path class="cls-2" d="M22.85.13,22.72.07l0,0,.16.09a4.62,4.62,0,0,1,.41.4s0,0,0,0A1.67,1.67,0,0,0,22.85.13Z"/><path class="cls-2" d="M23.55.9a.18.18,0,0,1,.08,0,.18.18,0,0,0,0-.11l-.1-.08A.61.61,0,0,0,23.55.9Z"/><path class="cls-2" d="M23.37.63l0,0,.09.1A1.36,1.36,0,0,0,23.4.6S23.38.63,23.37.63Z"/></g><g class="cls-1"><path class="cls-3" d="M32.22,144.87c-.12-4-.29-17.51-.22-23.4,0-2.27,0-4,.06-5.3,0-1.09,0,1.44-.06,5.3v6.16c.05-3,.16-5.85.27-7.91l0-4.59c.09-6.82.13-13.43.35-20.18.09-2.45.16-7.79.35-10.17q-.32,14.88-.52,29.75l0-.8q.17-7.82.43-15.64c0-.89,0-1.78.09-2.7L33,98.09l-.06,7.09-.18,4.9c0,1.27-.13,2.44-.19,3.65l0,2.34v.69c.15-1,.43-6.36.77-11.93S34,93.54,34,91.91c0-2.6-.39-5-.39-7.86a20.83,20.83,0,0,0,.06-2.52,2.4,2.4,0,0,1-.19-.82c0-1.93.36-3.86.12-5.34-.11-1,1.5-3.94,1.24-4.16-1-.81-.29-.22-.11-2.67a14.65,14.65,0,0,1-.32-1.85c.34-2,0-2.6-.11-4.9-.31-3.41.51-4.16-.24-7.2-.07-.37-.55-5.12-.55-5.12.19-3.71-.53-6,.56-8.9-.89-3.34.3-7.79.2-11.35s.74-5,1.6-8.16A8.38,8.38,0,0,1,36.19,19c.27-.52-.4-1.78-.25-2.67l.5.22.21-1.19c.05-.3.22-.22.39-.15.33.15.67.3.94-.22q.52-1.86.86-3.81-.3-1.92-.73-3.8A1.7,1.7,0,0,1,37.42,7l-.37-1.11c-.54-.22-1.13-.15-1.49-.3-1.54,0-3-1.55-4.47-1.18-.41.15-.53,2.3-1.23,3.27-.22.22-.72-.3-1.27-.52,0,1.26-.54,1.33-1.05.82l-.07.59-.73-.3c-.55,3.19-1.59,6.75-.8,9.87a18,18,0,0,0,.82,2.52,4.41,4.41,0,0,1-.14,1.48c.46.52,1,.44,1.47.67-.41,2.3-1,7.27.62,7.12,0,1.85.73,2.23.85,4.15.18,2.55.34,5.8.47,9,.13,1.75.14,3.43.18,5.12l.05,1.83c.19,6.34.09,11.86.13,17.33s.2,10.91.65,17.1c.86,12.48.69,25.59.77,36.34s.24,19.17.36,22.24Z"/></g><g class="cls-1"><path class="cls-3" d="M5.39,12a2.29,2.29,0,0,1-.46-.33,2.68,2.68,0,0,1-.28-.47,2,2,0,0,1-.16-.5.71.71,0,0,1,.1-.41.66.66,0,0,1,.24-.39c.11-.08,0,.1-.24.39a1.2,1.2,0,0,0,0,.45,3.7,3.7,0,0,1,1.05-.58,2.46,2.46,0,0,1,.14-.33A4.92,4.92,0,0,1,6.6,8.4c.19-.18.28-.57.65-.74a22.16,22.16,0,0,1-.9,2.17l.11-.06c.3-.38.65-.76,1-1.14a.43.43,0,0,1,.17-.2l-.17.2c-.07.17,0,.33,0,.52s-.37.24-.44.36a2.54,2.54,0,0,1-.55.27l-.13.17a.1.1,0,0,1,0,.05h0c.89-.14,3.69-1.58,3.47-1.81S8.63,7.82,8.52,7.6s.29-.13,0-.18a2.54,2.54,0,0,1-.45-.06C8,7.22,8.7,7.08,8.15,7c-.23-.08,2.75-.29,2.19-.3-2-.06-.55,0-.39-.19,0,0-.79-.09-.7-.14C9.72,6.19,9,6.15,8.78,6c-.67-.25.53-.3-.74-.53-.14,0-1-.37-1-.37.08-.27-.77-.44.28-.65-1.05-.24,0-.57-.41-.83s.28-.37.37-.6c0-.07-.14-.11-.09-.15s-.39-.13-.43-.19l.21,0-.08-.09s0,0,.11,0,.28,0,.28,0a2,2,0,0,0-.45-.28l-.41-.14L6,2,5.86,2,5.64,1.9l-.11,0c-.1,0-.16-.11-.14-.09A.64.64,0,0,1,5.13,2S5.07,2,5,2s-.26.1-.24.06l-.11,0,0,0c-.34.12-.66.24-1.06.36a4,4,0,0,0-.91.36A.17.17,0,0,0,2.6,3s-.27.09-.35.11a6.67,6.67,0,0,0,.74,0c-.45.17-1.61.53-.33.52-.21.14.36.16.36.3a2.87,2.87,0,0,1-.12.66A.61.61,0,0,1,2.83,5l0,.13c-.1.93-1.71,1.61-.11,2.51S3.95,9.5,3.9,10.29a1.28,1.28,0,0,0,.06.55,2,2,0,0,0,.3.47,2.8,2.8,0,0,0,.39.36,3.31,3.31,0,0,0,.45.24Z"/></g><g class="cls-1"><path class="cls-3" d="M56.24,1.8a2.29,2.29,0,0,1,.46.33A2.68,2.68,0,0,1,57,2.6a2,2,0,0,1,.16.5.71.71,0,0,1-.1.41.66.66,0,0,1-.24.39c-.11.08,0-.1.24-.39a1.2,1.2,0,0,0,0-.45A3.7,3.7,0,0,1,56,3.63a2.46,2.46,0,0,1-.14.33A4.92,4.92,0,0,1,55,5.44c-.19.18-.28.57-.65.74A22.16,22.16,0,0,1,55.28,4l-.11.06c-.3.38-.65.76-1,1.14a.43.43,0,0,1-.17.2l.17-.2c.07-.17,0-.33,0-.52s.37-.24.44-.36a2.53,2.53,0,0,1,.55-.27l.13-.17a.1.1,0,0,1,0-.05h0c-.89.14-3.69,1.58-3.47,1.81S53,6,53.12,6.23s-.29.13,0,.18a2.54,2.54,0,0,1,.45.06c.08.14-.61.28-.06.39.23.08-2.75.29-2.19.3,2,.06.55,0,.39.19,0,0,.79.09.7.14-.48.15.21.19.47.36.67.25-.53.3.74.53.14,0,1,.37,1,.37-.08.27.77.44-.28.65,1.05.24,0,.57.41.83s-.28.37-.37.6c0,.07.14.11.09.15s.39.13.43.19l-.21,0,.08.09s0,0-.11,0-.28,0-.28,0a2,2,0,0,0,.45.28l.41.14.46.14.13,0,.22.08.11,0c.1,0,.16.11.14.09a.64.64,0,0,1,.27-.24s.06,0,.08,0,.26-.1.24-.06l.11,0,0,0c.34-.12.66-.24,1.06-.36A4,4,0,0,0,59,11a.17.17,0,0,0,.09-.18s.27-.09.35-.11a6.67,6.67,0,0,0-.74,0c.45-.17,1.61-.53.33-.52.21-.14-.36-.16-.36-.3a2.87,2.87,0,0,1,.12-.66.61.61,0,0,1,.08-.37l0-.13c.1-.93,1.71-1.61.11-2.51s-1.26-1.87-1.22-2.65A1.28,1.28,0,0,0,57.68,3a2,2,0,0,0-.3-.47A2.8,2.8,0,0,0,57,2.17a3.31,3.31,0,0,0-.45-.24Z"/></g><g class="cls-1"><path class="cls-3" d="M18.87,38.66a1.74,1.74,0,0,1-.32-.33,3.12,3.12,0,0,1-.19-.47,1.23,1.23,0,0,1,0-.91.74.74,0,0,1,.16-.39c.08-.08,0,.1-.16.39a1.74,1.74,0,0,0,0,.45,2.47,2.47,0,0,1,.72-.58,3.15,3.15,0,0,1,.1-.33A5.82,5.82,0,0,1,19.7,35c.13-.18.19-.57.45-.74-.16.72-.39,1.45-.61,2.17l.07-.06c.2-.38.45-.76.67-1.14a.42.42,0,0,1,.12-.2l-.12.2c0,.17,0,.33,0,.52s-.25.24-.3.36a1.61,1.61,0,0,1-.37.27l-.09.17a.11.11,0,0,1,0,.05h0c.61-.14,2.53-1.58,2.38-1.81s-.84-.36-.91-.57.2-.13,0-.18a1.23,1.23,0,0,1-.31-.06c-.06-.14.42-.28,0-.39-.16-.08,1.88-.29,1.5-.3-1.38-.06-.38,0-.26-.19,0,0-.54-.09-.48-.14.33-.15-.14-.19-.32-.36-.46-.25.36-.3-.51-.53-.1,0-.67-.37-.67-.37.05-.27-.53-.44.19-.65-.72-.24,0-.57-.28-.83s.19-.37.25-.6c0-.06-.1-.11-.06-.15s-.27-.13-.29-.19l.15,0-.06-.09s0,0,.08,0,.19,0,.19,0a1.45,1.45,0,0,0-.31-.28c-.19-.09-.38-.19-.59-.28l-.09,0L19,28.52l-.08,0c-.07,0-.11-.11-.09-.09a.57.57,0,0,1-.18.24s0,0-.05,0-.18.1-.16.06l-.08,0,0,0c-.23.12-.45.24-.73.36a2.36,2.36,0,0,0-.62.36.2.2,0,0,0-.06.18s-.19.09-.24.11a3.16,3.16,0,0,0,.51,0c-.31.17-1.11.53-.22.52-.14.14.25.16.24.3a4.08,4.08,0,0,1-.08.66.85.85,0,0,1-.05.37l0,.13c-.07.93-1.17,1.61-.08,2.51a2.62,2.62,0,0,1,.83,2.65,1.61,1.61,0,0,0,.25,1,2.48,2.48,0,0,0,.26.36,2.15,2.15,0,0,0,.31.24Z"/></g><g class="cls-1"><path class="cls-3" d="M42.76,28.41a1.74,1.74,0,0,1,.32.33,3.12,3.12,0,0,1,.19.47,1.23,1.23,0,0,1,0,.91.74.74,0,0,1-.16.39c-.08.08,0-.1.16-.39a1.74,1.74,0,0,0,0-.45,2.47,2.47,0,0,1-.72.58,3.14,3.14,0,0,1-.1.33,5.82,5.82,0,0,1-.57,1.47c-.13.18-.19.57-.45.74.16-.72.39-1.45.61-2.17l-.07.06c-.2.38-.45.76-.67,1.14a.42.42,0,0,1-.12.2l.12-.2c0-.17,0-.33,0-.52s.25-.24.3-.36a1.6,1.6,0,0,1,.37-.27l.09-.17a.11.11,0,0,1,0-.05h0c-.61.14-2.53,1.58-2.38,1.81s.84.36.91.57-.2.13,0,.18a1.23,1.23,0,0,1,.31.06c.06.14-.42.28,0,.39.16.08-1.88.29-1.5.3,1.38.06.38,0,.26.19,0,0,.54.09.48.14-.33.15.14.19.32.36.46.25-.36.3.51.53.1,0,.67.37.67.37-.05.27.53.44-.19.65.72.24,0,.57.28.83s-.19.37-.25.6c0,.06.1.11.06.15s.27.13.29.19l-.15,0,.06.09s0,0-.08,0-.19,0-.19,0a1.45,1.45,0,0,0,.31.28c.19.09.38.19.59.28l.09,0,.15.08.08,0c.07,0,.11.11.09.09a.57.57,0,0,1,.18-.24s0,0,.05,0,.18-.1.16-.06l.08,0,0,0c.23-.12.45-.24.73-.36a2.36,2.36,0,0,0,.62-.36.2.2,0,0,0,.06-.18s.19-.09.24-.11a3.17,3.17,0,0,0-.51,0c.31-.17,1.11-.53.22-.52.14-.14-.25-.16-.24-.3a4.08,4.08,0,0,1,.08-.66.85.85,0,0,1,.05-.37l0-.13c.07-.93,1.17-1.61.08-2.51a2.62,2.62,0,0,1-.83-2.65,1.61,1.61,0,0,0-.25-1,2.48,2.48,0,0,0-.26-.36,2.15,2.15,0,0,0-.31-.24Z"/></g><g class="cls-1"><path class="cls-3" d="M42.37.47A4.2,4.2,0,0,0,40.8,1L38.61,2.1l-5.45,2.8A8.58,8.58,0,0,0,29,9.44a18.38,18.38,0,0,0-1.39,5,24.14,24.14,0,0,0-.15,5c0,.51,0,.18-.05-.74a21,21,0,0,1,.21-4.21,17.8,17.8,0,0,1,1.61-5.49,16,16,0,0,0-1.44,3.75,16.22,16.22,0,0,0-.38,1.77l-.08.42c-.07.13-.13.26-.18.39l-.34.75a24.78,24.78,0,0,0-.07,4.45,17.07,17.07,0,0,0,1.05,4.93l.4,1.11c.14.34.22.71.33,1.05a17.34,17.34,0,0,1-.66,10.79c-.21.47-.46,1.08-.79,1.7L25.9,42.39a26.79,26.79,0,0,1-2.5,4.14l3-6.37A17,17,0,0,0,28,34.42a18.76,18.76,0,0,0-.37-6.15,12.51,12.51,0,0,0-.43-1.45l-.64-1.76c-.21-.63-.35-1.27-.51-1.9s-.24-1.28-.3-1.91c0,.29,0,.57,0,.86A16.72,16.72,0,0,0,26,24.16a16,16,0,0,0,.56,2.06c.13.39.18.6.25.85s.12.5.18.75a12.24,12.24,0,0,1,.24,1.54,18,18,0,0,1-.49,6.23,6.6,6.6,0,0,1-.64,2,16.39,16.39,0,0,0,.64-2,16.55,16.55,0,0,0-.31-5.47c0-.59,0-1.24-.1-1.88a8.56,8.56,0,0,0-.12-.94l-.1-.46-.21-.65a8.71,8.71,0,0,1-.25-1c0-.35,0-.7-.06-1a19.5,19.5,0,0,1,.09-2,23.21,23.21,0,0,1-.13-2.43,5.58,5.58,0,0,1-.12-.73l0,0a4,4,0,0,0-.67,1.64,14.2,14.2,0,0,0-.37,3.18c0,.64,0,1.34.12,2.09L24.68,27c0,.18.09.44.09.56v.34a16.86,16.86,0,0,1-.3,2.86,19.18,19.18,0,0,1-1.73,5.13c-.33.64-.63,1.16-.86,1.51l-.27.46a1.7,1.7,0,0,0-.09.21,3.34,3.34,0,0,0-.11.32c-.76,2.35.35,5.23-.49,7.84-.28.87-1.15,1.35-.95,2.19a1.7,1.7,0,0,1,.5,1,9.39,9.39,0,0,1-1.38,2.33,3.67,3.67,0,0,0-.74,2.78c0,.66-1.53,1.46-3,2.39s-2.65,1.87-2.14,2.07c1.85.72,2.12.78,1.83,1.1a3.44,3.44,0,0,0-1.25,2.47c-.08.41,1.54,1.57,1.46,2.31a3.73,3.73,0,0,0,.36,3c.44.82,1.09,1.62,1.79,3,.17.24.33.47.47.69l.35.56a5,5,0,0,1,.43.82,12,12,0,0,1,.43,1.46A3.79,3.79,0,0,0,21.4,77a24.39,24.39,0,0,1,1.92,2l1.62,1.81A12.13,12.13,0,0,0,26,83l.56.93a3.53,3.53,0,0,0,.2.37,3.39,3.39,0,0,1,.13.79,3.54,3.54,0,0,1,0,.85A4.71,4.71,0,0,1,26,87.81c1.08,1.48,1.08,3.3.92,5.14a24.05,24.05,0,0,0-.2,5.39c.47,3.36-.66,4.73-1.09,7.64a8.21,8.21,0,0,1,0,2c-.15.48.69,1.7.69,2.54l-.45-.23.07,1.12c0,.28-.12.2-.26.13s-.58-.3-.65.18a22.23,22.23,0,0,0,.63,3.62c.55,1.24,1.06,2.46,1.55,3.66a1.06,1.06,0,0,1,.29.33c.14.36.27.72.39,1.07s.26.15.35.3.34.39.44.72.15.61.24.44.19-2.17.33-3.08c0-.21.07.28.12.5.08-1.19.15-1.26.18-.76l0-.56.07.28c.29-3,.71-6.37.78-9.32,0-.63,0-1.69,0-2.39,0-.35.09-1.12.11-1.4-.05-.49-.15-.43-.23-.64.19-2.17.53-6.88.17-6.74.07-1.76-.09-2.11-.07-3.94,0-2.43,0-5.49-.21-8.55L30.07,84c-.05-.42-.19-.88-.29-1.31l-.9-2.24-.66-1.6L25,70.94a25.92,25.92,0,0,1-1.29-3.67,20.23,20.23,0,0,1-.55-3.73,21.25,21.25,0,0,1,.89-7.47c.38-1.19.95-2.46,1.44-3.75l1.54-4,1.6-4.15c.52-1.39,1.13-2.74,1.57-4.22A22.34,22.34,0,0,0,30.91,31a19.64,19.64,0,0,0-1-4.29,39.86,39.86,0,0,1-1.52-3.92,21.24,21.24,0,0,1-.6-7.79,17.82,17.82,0,0,1,2-6.64,8.83,8.83,0,0,1,1.89-2.32,7.54,7.54,0,0,1,1.13-.76l1.25-.64C37.27,3,39.68,1.75,41,1.06A4.23,4.23,0,0,1,42.37.47Z"/></g><g class="cls-1"><path class="cls-3" d="M22.52,1.38a4.77,4.77,0,0,1,2,.31c.7.22,1.48.51,2.34.83,1.71.66,3.67,1.49,5.66,2.4a12.46,12.46,0,0,1,1.7.94A9.42,9.42,0,0,1,35.7,7.22a12.18,12.18,0,0,1,2,3.11A14.81,14.81,0,0,1,38.92,16a15,15,0,0,1-.42,5.31c-.14.53-.11.18.06-.78A23.24,23.24,0,0,0,38.92,16a16.85,16.85,0,0,0-1.67-6.11,12.3,12.3,0,0,1,.49,4.43,11.62,11.62,0,0,1-.25,1.92l-.09.44c0,.14,0,.27,0,.41v.76a20.41,20.41,0,0,1-.23,4.31,16.84,16.84,0,0,1-1.32,4.57,19.08,19.08,0,0,0-1.57,4.52,22.34,22.34,0,0,0,.1,9.54,15.34,15.34,0,0,0,.64,2.1c.3.79.65,1.63,1,2.49.68,1.7,1.36,3.4,1.75,4.45l-2.65-6.52a20.17,20.17,0,0,1-1.4-7,21.18,21.18,0,0,1,1-7C35,28.1,35.59,27,36,26c.22-.53.37-1.09.56-1.64s.29-1.12.38-1.69a6.47,6.47,0,0,1-.17.73,13.82,13.82,0,0,1-.5,1.75,13.84,13.84,0,0,1-.67,1.68,19.23,19.23,0,0,0-1.32,3.52,22,22,0,0,0-.6,7.48,25.09,25.09,0,0,0,.38,2.58,21.45,21.45,0,0,1-.38-2.58A22.62,22.62,0,0,1,34,31a17.14,17.14,0,0,1,.68-2.27c.27-.75.67-1.51.94-2.15l.36-.79.29-.79a13.26,13.26,0,0,0,.5-1.6,20.28,20.28,0,0,0,.37-2.15l0-.67v0a28.51,28.51,0,0,1-.88,3.84c-.18.46-.33,1-.56,1.48L35,27.49a17.84,17.84,0,0,0-1.29,3.78A22.38,22.38,0,0,0,33.4,39a18.13,18.13,0,0,0,1.28,4.76c1,2.26,2,4.24,3.11,6.76.36.84.59,1.58.91,2.21a4.27,4.27,0,0,1,.38.68c.69,1.68,1.33,3.42,1.82,4.65a7.85,7.85,0,0,1,.26,2.17,10.86,10.86,0,0,0,0,1.62c.25.34.27.4.26.63s-.06.66-.09,1.77A12.25,12.25,0,0,1,41.4,66a32.13,32.13,0,0,1-.83,4.36c-1,3-1.58,3.58-2.41,6.33L36.52,81.2l-.9,2.24-.39,1A5.74,5.74,0,0,0,35,85.52c-.15,1.35-.18,2.58-.31,4,.25,3.17.21,7.39.49,10.75s.22,4.78.34,7.73c.05.84.13,1.47.13,2s.23,1.67.29,2.51l-.1-.2.08,1.12c0,.28,0,.21,0,.14s-.13-.27-.12.22q.12,1.76.3,3.59l.53,3.56a1.13,1.13,0,0,1,.12.3l.17,1c.08.2.14.13.2.26.17,0,.48,1.43.6,1.06a21,21,0,0,1,.32-3.13c.08-.22.21.26.33.46.14-1.21.39-1.3.46-.82l.14-.58.2.26c.47-1.56,1.12-3.22,1.73-4.86a16.55,16.55,0,0,0,1.24-4.74,9.1,9.1,0,0,0-.2-2.36c-.07-.34.37-1.14.47-1.43-.41-.46-1-.34-1.56-.51.76-2.24,2.61-7,.1-6.69.25-1.74-.91-2-1-3.81,0-1.18-.08-2.52-.08-3.91s0-2.86.11-4.13V86.8l0-.42a1.42,1.42,0,0,1,0-.27v0s0,0,0,0c-.22,0-.35,0-.53-.08a9.05,9.05,0,0,1-2-.53l-.47-.2L37,85.16h0l3,1.22h0l0,0,.06-.14.13-.27.26-.54L41,84.29l.7-1.59c1.19-2.76,2.44-5.27,3.7-7.68l.47-.9c.16-.32.29-.53.5-1a22.05,22.05,0,0,0,1-2.45,24.76,24.76,0,0,0,1.14-4.92,21.65,21.65,0,0,0-1-10.1c-.15-.43-.33-.86-.52-1.29s-.33-.68-.5-1c-.32-.6-.66-1.2-1-1.8A41.93,41.93,0,0,0,43,47.94q-1.37-1.83-2.6-3.74c-.8-1.25-1.68-2.67-2.15-3.6A14.47,14.47,0,0,1,37,33.17a14.14,14.14,0,0,1,.78-3.61,7.83,7.83,0,0,1,.33-.81l.44-1a18.5,18.5,0,0,0,.86-2.3,24.51,24.51,0,0,0,.92-9,19.31,19.31,0,0,0-2.39-8,12.38,12.38,0,0,0-1.22-1.69c-.23-.26-.45-.53-.7-.77s-.55-.47-.82-.69a10.13,10.13,0,0,0-1.78-1.08l-1.3-.53a45,45,0,0,0-7.59-2.3A6.45,6.45,0,0,0,22.52,1.38Z"/></g><path class="cls-4" d="M3,59a3.09,3.09,0,0,1-1.06-1.2,18.46,18.46,0,0,1-.59-4q-.3-3.34-.3-5V47.63q0-.55,0-1.22a21.22,21.22,0,0,1,.14-2.47,5.75,5.75,0,0,1,.25-1,3.56,3.56,0,0,1,.44-.84A2.53,2.53,0,0,1,3.42,41a4.86,4.86,0,0,1,1.22-.14,1.87,1.87,0,0,1,.92.26c.31.18.47.38.47.62s-.13.26-.38.26a1.88,1.88,0,0,1-.55-.17,1.55,1.55,0,0,0-.65-.17,2.63,2.63,0,0,0-1.21.28,2.26,2.26,0,0,0-.85.73,3.65,3.65,0,0,0-.46,1.06,6.59,6.59,0,0,0-.24,1.34,12.25,12.25,0,0,0-.07,1.44l0,1.34c0,.38,0,.8,0,1.25q0,1.66.34,4.87a14.16,14.16,0,0,0,.65,3.72,1.81,1.81,0,0,0,.85.7,3,3,0,0,0,1.19.24,2.06,2.06,0,0,0,1.68-.7.59.59,0,0,1,.46-.29c.14,0,.22.11.22.34a1.16,1.16,0,0,1-.26.76,1.62,1.62,0,0,1-.72.49,4.15,4.15,0,0,1-1.68.34A2.47,2.47,0,0,1,3,59Z"/><path class="cls-4" d="M8.87,50.79V50q0-6.7,1.73-6.7a1.16,1.16,0,0,1,.34.07,6.6,6.6,0,0,0,1.51.34q.46.1.91.94a7,7,0,0,1,.76,2.28,16.55,16.55,0,0,1,.25,2.9l0,.12q0,.79,0,1.42l0,1.44q0,1.22-.1,2.21a12.88,12.88,0,0,1-.48,2.57,4.91,4.91,0,0,1-.49,1.08,2.57,2.57,0,0,1-.68.72,1.51,1.51,0,0,1-.94.29Q8.87,59.63,8.87,50.79ZM13,57.61a10.81,10.81,0,0,0,.55-2.74q.1-1.44.1-2.3t-.14-2.83q-.12-2.09-.12-2.83l-.1-.19,0-.12a2.92,2.92,0,0,0-.59-1.82A1.75,1.75,0,0,0,11.3,44,1.21,1.21,0,0,0,10,45.06c0,.24-.06.58-.1,1a13.26,13.26,0,0,1-.14,2.42q0,.36-.07,1.13l0,1.13c0,.35,0,.66,0,.94l0,1a20.2,20.2,0,0,0,.19,2.59,15.89,15.89,0,0,0,.34,1.82,4,4,0,0,0,.55,1.27,1,1,0,0,0,.84.58Q12.52,58.93,13,57.61Z"/><path class="cls-4" d="M23.42,59.26l-.08-.14a1.71,1.71,0,0,1-.16-.43,1,1,0,0,0-.1-.34l0-.07a15.19,15.19,0,0,0-.82-2.76l-.43-1.25A11.8,11.8,0,0,1,21.4,53l-.19-.58Q19,45.8,18.5,45.25a6.06,6.06,0,0,0-.19,1.68q0,.55,0,1l0,.94,0,.58c0,.18,0,.37,0,.58a7.43,7.43,0,0,0,0,.91l0,.77h-.07a26.84,26.84,0,0,0,.17,4.42v2.16a1.13,1.13,0,0,1,.1.5.49.49,0,0,1-.13.34.42.42,0,0,1-.32.14q-.5,0-.5-1.3l0-.77a6.07,6.07,0,0,0,0-.79q0-1.15-.07-3.46t-.07-3.46q0-.7.07-2.14t.07-2.11v-.31a2,2,0,0,1,.43-1.54l.07.07.24,0a.52.52,0,0,1,.22.14.3.3,0,0,1,.1.22l0,.14a.39.39,0,0,0,0,.12,28.71,28.71,0,0,0,1.73,4.78Q22,52,22.29,53.07q.24.84.38,1.49a11.78,11.78,0,0,0,1.08,3.14l0-.07a130.16,130.16,0,0,0,.55-13.08l0-.29a1.63,1.63,0,0,1,0-.31q0-.5.34-.5a.45.45,0,0,1,.37.22.8.8,0,0,1,.16.48v1.61l-.12.19q0,2.28-.26,7.49a33.78,33.78,0,0,1-.5,5.66l-.41.1v0l0,0-.24.07Z"/><path class="cls-4" d="M30.11,58.83l0-.89q0-.38,0-.86a2.93,2.93,0,0,1,0-.41l0-.43a2.16,2.16,0,0,0-.1-.58q0-1.61-.24-6T29.51,44a17.38,17.38,0,0,1-2-.07Q27,43.76,27,43.5a.45.45,0,0,1,.46-.26q.72,0,2.09.1t2.09.12h.5l.5,0q.43,0,.43.31A.25.25,0,0,1,33,44a.77.77,0,0,1-.37.08q-.48,0-1,0l-1,0c-.06,0-.1,0-.1.07a2.28,2.28,0,0,0,0,.46q0,2.33.29,7.06.26,4.9.26,7a.4.4,0,0,1-.2.31.69.69,0,0,1-.4.14Z"/><path class="cls-4" d="M36.3,58.93a.63.63,0,0,0-.19,0h-.19q-.53,0-.67-.24a.34.34,0,0,1,.19-.29l.12-.12h.7l.1-.1,0-.22,0-.29q0-1.46-.07-2.62l0-.89,0-1.75q0-.94.07-2.81l0-2.78a24.24,24.24,0,0,0-.12-2.78,2.53,2.53,0,0,0-.72-.07l-.26,0L35,44q-.46,0-.46-.41c0-.06.07-.13.22-.19a.93.93,0,0,1,.36-.1,17.3,17.3,0,0,1,1.82.1,3.85,3.85,0,0,1,1.1.22c.29.1.43.23.43.41a.58.58,0,0,1-.07.19l-.55,0a1.15,1.15,0,0,0-.7-.14l-.12.07a6,6,0,0,1,.07,1.27q0,1.58,0,2.86l0,2.86q0,1.08.1,2.62.07,1.75.07,2.64v.31a3.06,3.06,0,0,0,0,.43,1.77,1.77,0,0,0,.07.67l0,0c0,.16.18.24.53.24l.36,0h.36q.7,0,.7.34a.45.45,0,0,1-.14.35.55.55,0,0,1-.38.13,1.39,1.39,0,0,1-.38,0l-.41,0a1.26,1.26,0,0,0-.43.12,1.11,1.11,0,0,1-.43.14Q36.4,59.17,36.3,58.93Z"/><path class="cls-4" d="M47.27,59.26l-.08-.14a1.71,1.71,0,0,1-.16-.43,1,1,0,0,0-.1-.34l0-.07a15.19,15.19,0,0,0-.82-2.76l-.43-1.25A11.8,11.8,0,0,1,45.26,53l-.19-.58q-2.16-6.67-2.71-7.22a6.06,6.06,0,0,0-.19,1.68q0,.55,0,1l0,.94,0,.58c0,.18,0,.37,0,.58a7.43,7.43,0,0,0,0,.91l0,.77h-.07a26.84,26.84,0,0,0,.17,4.42v2.16a1.13,1.13,0,0,1,.1.5.49.49,0,0,1-.13.34.42.42,0,0,1-.32.14q-.5,0-.5-1.3l0-.77a6.07,6.07,0,0,0,0-.79q0-1.15-.07-3.46t-.07-3.46q0-.7.07-2.14t.07-2.11v-.31A2,2,0,0,1,42,43.35l.07.07.24,0a.52.52,0,0,1,.22.14.3.3,0,0,1,.1.22l0,.14a.39.39,0,0,0,0,.12,28.71,28.71,0,0,0,1.73,4.78q1.37,3.24,1.7,4.3.24.84.38,1.49a11.78,11.78,0,0,0,1.08,3.14l0-.07a130.16,130.16,0,0,0,.55-13.08l0-.29a1.63,1.63,0,0,1,0-.31q0-.5.34-.5a.45.45,0,0,1,.37.22.8.8,0,0,1,.16.48v1.61l-.12.19q0,2.28-.26,7.49a33.78,33.78,0,0,1-.5,5.66l-.41.1v0l0,0-.24.07Z"/><path class="cls-4" d="M54.08,59.28a2.7,2.7,0,0,1-.73-.59,6,6,0,0,1-.53-2.42q-.19-2-.24-4.56,0-.58,0-.86,0-6-.19-7.13l.14-.34q.55.07.55,1.32l.07,6.36q0,.67.12,2.54.14,1.68.14,2.54,0,2.74,1.8,2.74,1.1,0,1.42-5l0-.48q.17-6.6.17-9.77l0-.22a.88.88,0,0,1,0-.22c0-.18.14-.26.41-.26s.31,0,.36.14a4.92,4.92,0,0,1,0,.84,13.27,13.27,0,0,1-.14,2.45l0,.14q0,.31-.07,1l0,1v.24a1,1,0,0,1,0,.24q0,.58,0,1.1a4.13,4.13,0,0,0,0,.53q0,2.28-.1,4A12,12,0,0,1,56.61,58q-.53,1.54-1.7,1.54A1.69,1.69,0,0,1,54.08,59.28Z"/><path class="cls-4" d="M61.14,59v-.31a1.52,1.52,0,0,0,0-.29l-.1-.1a2.76,2.76,0,0,0,.19-1q0-.55-.07-1.58l0-1.58q0-1.2.07-3.6.1-2.14.1-3.62l0-1.44q0-.65,0-1.44a.68.68,0,0,1,.17-.52.76.76,0,0,1,.53-.16.52.52,0,0,1,.38.14,6,6,0,0,0,.7.1,5.3,5.3,0,0,1,1,.22q.46.15.46.36t-.46.48a7.22,7.22,0,0,0-1.94-.46l-.12.14c0,.14,0,.49,0,1s0,1.3,0,1.85,0,1.18,0,1.87q0,.67.34.67l.38,0,.41,0q.94,0,.94.43a.78.78,0,0,1-.12.44.4.4,0,0,1-.36.18.75.75,0,0,1-.55-.19l-.77-.12h-.12l-.12.12v.07q0,.41,0,1.9,0,.94,0,1.7l0,1.7q0,.94.07,1.92a1,1,0,0,0,.24.73,1.28,1.28,0,0,0,.79.18l.43,0,.48,0q.7,0,.7.31t-1.06.43h-2Q61.19,59.48,61.14,59Z"/><path class="cls-5" d="M2.94,59.15a3.09,3.09,0,0,1-1.06-1.2,18.46,18.46,0,0,1-.59-4Q1,50.65,1,49V47.75q0-.55,0-1.22a21.22,21.22,0,0,1,.14-2.47,5.75,5.75,0,0,1,.25-1,3.56,3.56,0,0,1,.44-.84A2.53,2.53,0,0,1,3.39,41.1,4.86,4.86,0,0,1,4.62,41a1.87,1.87,0,0,1,.92.26c.31.18.47.38.47.62s-.13.26-.38.26a1.88,1.88,0,0,1-.55-.17,1.55,1.55,0,0,0-.65-.17A2.63,2.63,0,0,0,3.21,42a2.26,2.26,0,0,0-.85.73,3.65,3.65,0,0,0-.46,1.06,6.59,6.59,0,0,0-.24,1.34,12.25,12.25,0,0,0-.07,1.44l0,1.34c0,.38,0,.8,0,1.25q0,1.66.34,4.87a14.16,14.16,0,0,0,.65,3.72,1.81,1.81,0,0,0,.85.7,3,3,0,0,0,1.19.24A2.06,2.06,0,0,0,6.34,58a.59.59,0,0,1,.46-.29c.14,0,.22.11.22.34a1.16,1.16,0,0,1-.26.76,1.62,1.62,0,0,1-.72.49,4.15,4.15,0,0,1-1.68.34A2.47,2.47,0,0,1,2.94,59.15Z"/><path class="cls-5" d="M8.84,50.92v-.84q0-6.7,1.73-6.7a1.16,1.16,0,0,1,.34.07,6.6,6.6,0,0,0,1.51.34q.46.1.91.94A7,7,0,0,1,14.08,47a16.55,16.55,0,0,1,.25,2.9l0,.12q0,.79,0,1.42l0,1.44q0,1.22-.1,2.21a12.88,12.88,0,0,1-.48,2.57,4.91,4.91,0,0,1-.49,1.08,2.57,2.57,0,0,1-.68.72,1.51,1.51,0,0,1-.94.29Q8.84,59.75,8.84,50.92Zm4.1,6.82A10.81,10.81,0,0,0,13.5,55q.1-1.44.1-2.3t-.14-2.83q-.12-2.09-.12-2.83l-.1-.19,0-.12a2.92,2.92,0,0,0-.59-1.82,1.75,1.75,0,0,0-1.43-.77,1.21,1.21,0,0,0-1.32,1.06c0,.24-.06.58-.1,1a13.26,13.26,0,0,1-.14,2.42q0,.36-.07,1.13l0,1.13c0,.35,0,.66,0,.94l0,1a20.2,20.2,0,0,0,.19,2.59,15.89,15.89,0,0,0,.34,1.82,4,4,0,0,0,.55,1.27,1,1,0,0,0,.84.58Q12.49,59.05,12.94,57.73Z"/><path class="cls-5" d="M23.38,59.39l-.08-.14a1.71,1.71,0,0,1-.16-.43,1,1,0,0,0-.1-.34l0-.07a15.19,15.19,0,0,0-.82-2.76l-.43-1.25a11.8,11.8,0,0,1-.46-1.22l-.19-.58Q19,45.93,18.46,45.37a6.06,6.06,0,0,0-.19,1.68q0,.55,0,1l0,.94,0,.58c0,.18,0,.37,0,.58a7.43,7.43,0,0,0,0,.91l0,.77H18.3a26.84,26.84,0,0,0,.17,4.42v2.16a1.13,1.13,0,0,1,.1.5.49.49,0,0,1-.13.34.42.42,0,0,1-.32.14q-.5,0-.5-1.3l0-.77a6.07,6.07,0,0,0,0-.79q0-1.15-.07-3.46t-.07-3.46q0-.7.07-2.14t.07-2.11V45a2,2,0,0,1,.43-1.54l.07.07.24,0a.52.52,0,0,1,.22.14.3.3,0,0,1,.1.22l0,.14a.39.39,0,0,0,0,.12,28.71,28.71,0,0,0,1.73,4.78q1.37,3.24,1.7,4.3.24.84.38,1.49a11.78,11.78,0,0,0,1.08,3.14l0-.07a130.16,130.16,0,0,0,.55-13.08l0-.29a1.63,1.63,0,0,1,0-.31q0-.5.34-.5a.45.45,0,0,1,.37.22.8.8,0,0,1,.16.48v1.61l-.12.19q0,2.28-.26,7.49a33.78,33.78,0,0,1-.5,5.66l-.41.1v0l0,0-.24.07Z"/><path class="cls-5" d="M30.08,59l0-.89q0-.38,0-.86a2.93,2.93,0,0,1,0-.41l0-.43a2.16,2.16,0,0,0-.1-.58q0-1.61-.24-6t-.26-5.74a17.38,17.38,0,0,1-2-.07q-.48-.12-.48-.38a.45.45,0,0,1,.46-.26q.72,0,2.09.1t2.09.12h.5l.5,0q.43,0,.43.31a.25.25,0,0,1-.16.23.77.77,0,0,1-.37.08q-.48,0-1,0l-1,0c-.06,0-.1,0-.1.07a2.28,2.28,0,0,0,0,.46q0,2.33.29,7.06.26,4.9.26,7a.4.4,0,0,1-.2.31.69.69,0,0,1-.4.14Z"/><path class="cls-5" d="M36.27,59.05a.63.63,0,0,0-.19,0h-.19q-.53,0-.67-.24a.34.34,0,0,1,.19-.29l.12-.12h.7l.1-.1,0-.22,0-.29q0-1.46-.07-2.62l0-.89,0-1.75q0-.94.07-2.81l0-2.78a24.24,24.24,0,0,0-.12-2.78,2.53,2.53,0,0,0-.72-.07l-.26,0-.31,0q-.46,0-.46-.41c0-.06.07-.13.22-.19a.93.93,0,0,1,.36-.1,17.3,17.3,0,0,1,1.82.1,3.85,3.85,0,0,1,1.1.22c.29.1.43.23.43.41a.58.58,0,0,1-.07.19l-.55,0a1.15,1.15,0,0,0-.7-.14l-.12.07A6,6,0,0,1,37,45.64q0,1.58,0,2.86l0,2.86q0,1.08.1,2.62.07,1.75.07,2.64v.31a3.06,3.06,0,0,0,0,.43,1.77,1.77,0,0,0,.07.67l0,0c0,.16.18.24.53.24l.36,0h.36q.7,0,.7.34A.45.45,0,0,1,39,59a.55.55,0,0,1-.38.13,1.39,1.39,0,0,1-.38,0l-.41,0a1.26,1.26,0,0,0-.43.12,1.11,1.11,0,0,1-.43.14Q36.37,59.29,36.27,59.05Z"/><path class="cls-5" d="M47.24,59.39l-.08-.14a1.71,1.71,0,0,1-.16-.43,1,1,0,0,0-.1-.34l0-.07a15.19,15.19,0,0,0-.82-2.76l-.43-1.25a11.8,11.8,0,0,1-.46-1.22L45,52.6q-2.16-6.67-2.71-7.22a6.06,6.06,0,0,0-.19,1.68q0,.55,0,1l0,.94,0,.58c0,.18,0,.37,0,.58a7.43,7.43,0,0,0,0,.91l0,.77h-.07a26.84,26.84,0,0,0,.17,4.42v2.16a1.13,1.13,0,0,1,.1.5.49.49,0,0,1-.13.34.42.42,0,0,1-.32.14q-.5,0-.5-1.3l0-.77a6.07,6.07,0,0,0,0-.79q0-1.15-.07-3.46t-.07-3.46q0-.7.07-2.14t.07-2.11V45A2,2,0,0,1,42,43.48l.07.07.24,0a.52.52,0,0,1,.22.14.3.3,0,0,1,.1.22l0,.14a.39.39,0,0,0,0,.12,28.71,28.71,0,0,0,1.73,4.78q1.37,3.24,1.7,4.3.24.84.38,1.49a11.78,11.78,0,0,0,1.08,3.14l0-.07a130.16,130.16,0,0,0,.55-13.08l0-.29a1.63,1.63,0,0,1,0-.31q0-.5.34-.5a.45.45,0,0,1,.37.22.8.8,0,0,1,.16.48v1.61l-.12.19q0,2.28-.26,7.49a33.78,33.78,0,0,1-.5,5.66l-.41.1v0l0,0-.24.07Z"/><path class="cls-5" d="M54,59.4a2.7,2.7,0,0,1-.73-.59,6,6,0,0,1-.53-2.42q-.19-2-.24-4.56,0-.58,0-.86,0-6-.19-7.13l.14-.34q.55.07.55,1.32l.07,6.36q0,.67.12,2.54.14,1.68.14,2.54,0,2.74,1.8,2.74,1.1,0,1.42-5l0-.48q.17-6.6.17-9.77l0-.22a.88.88,0,0,1,0-.22c0-.18.14-.26.41-.26s.31,0,.36.14a4.92,4.92,0,0,1,0,.84,13.27,13.27,0,0,1-.14,2.45l0,.14q0,.31-.07,1l0,1v.24a1,1,0,0,1,0,.24q0,.58,0,1.1a4.13,4.13,0,0,0,0,.53q0,2.28-.1,4a12,12,0,0,1-.58,3.53q-.53,1.54-1.7,1.54A1.69,1.69,0,0,1,54,59.4Z"/><path class="cls-5" d="M61.11,59.1v-.31a1.52,1.52,0,0,0,0-.29l-.1-.1a2.76,2.76,0,0,0,.19-1q0-.55-.07-1.58l0-1.58q0-1.2.07-3.6.1-2.14.1-3.62l0-1.44q0-.65,0-1.44a.68.68,0,0,1,.17-.52.76.76,0,0,1,.53-.16.52.52,0,0,1,.38.14,6,6,0,0,0,.7.1,5.3,5.3,0,0,1,1,.22q.46.15.46.36t-.46.48A7.22,7.22,0,0,0,62,44.32l-.12.14c0,.14,0,.49,0,1s0,1.3,0,1.85,0,1.18,0,1.87q0,.67.34.67l.38,0,.41,0q.94,0,.94.43a.78.78,0,0,1-.12.44.4.4,0,0,1-.36.18.75.75,0,0,1-.55-.19l-.77-.12H62l-.12.12v.07q0,.41,0,1.9,0,.94,0,1.7l0,1.7Q61.9,57,62,58a1,1,0,0,0,.24.73,1.28,1.28,0,0,0,.79.18l.43,0,.48,0q.7,0,.7.31t-1.06.43h-2Q61.16,59.6,61.11,59.1Z"/><path class="cls-6" d="M2.94,59.11a3.09,3.09,0,0,1-1.06-1.2,18.46,18.46,0,0,1-.59-4Q1,50.62,1,49V47.71q0-.55,0-1.22A21.22,21.22,0,0,1,1.11,44a5.75,5.75,0,0,1,.25-1,3.56,3.56,0,0,1,.44-.84,2.53,2.53,0,0,1,1.58-1.08,4.86,4.86,0,0,1,1.22-.14,1.87,1.87,0,0,1,.92.26c.31.18.47.38.47.62s-.13.26-.38.26a1.88,1.88,0,0,1-.55-.17,1.55,1.55,0,0,0-.65-.17A2.63,2.63,0,0,0,3.21,42a2.26,2.26,0,0,0-.85.73A3.65,3.65,0,0,0,1.9,43.8a6.59,6.59,0,0,0-.24,1.34,12.25,12.25,0,0,0-.07,1.44l0,1.34c0,.38,0,.8,0,1.25q0,1.66.34,4.87a14.16,14.16,0,0,0,.65,3.72,1.81,1.81,0,0,0,.85.7,3,3,0,0,0,1.19.24A2.06,2.06,0,0,0,6.34,58a.59.59,0,0,1,.46-.29c.14,0,.22.11.22.34a1.16,1.16,0,0,1-.26.76A1.62,1.62,0,0,1,6,59.3a4.15,4.15,0,0,1-1.68.34A2.47,2.47,0,0,1,2.94,59.11Z"/><path class="cls-6" d="M8.84,50.88V50q0-6.7,1.73-6.7a1.16,1.16,0,0,1,.34.07,6.6,6.6,0,0,0,1.51.34q.46.1.91.94A7,7,0,0,1,14.08,47a16.55,16.55,0,0,1,.25,2.9l0,.12q0,.79,0,1.42l0,1.44q0,1.22-.1,2.21a12.88,12.88,0,0,1-.48,2.57,4.91,4.91,0,0,1-.49,1.08,2.57,2.57,0,0,1-.68.72,1.51,1.51,0,0,1-.94.29Q8.84,59.71,8.84,50.88Zm4.1,6.82A10.81,10.81,0,0,0,13.5,55q.1-1.44.1-2.3t-.14-2.83q-.12-2.09-.12-2.83l-.1-.19,0-.12a2.92,2.92,0,0,0-.59-1.82,1.75,1.75,0,0,0-1.43-.77,1.21,1.21,0,0,0-1.32,1.06c0,.24-.06.58-.1,1A13.26,13.26,0,0,1,9.7,48.6q0,.36-.07,1.13l0,1.13c0,.35,0,.66,0,.94l0,1a20.2,20.2,0,0,0,.19,2.59,15.89,15.89,0,0,0,.34,1.82,4,4,0,0,0,.55,1.27,1,1,0,0,0,.84.58Q12.49,59,12.94,57.7Z"/><path class="cls-6" d="M23.38,59.35l-.08-.14a1.71,1.71,0,0,1-.16-.43,1,1,0,0,0-.1-.34l0-.07a15.19,15.19,0,0,0-.82-2.76l-.43-1.25a11.8,11.8,0,0,1-.46-1.22l-.19-.58Q19,45.89,18.46,45.34A6.06,6.06,0,0,0,18.27,47q0,.55,0,1l0,.94,0,.58c0,.18,0,.37,0,.58a7.43,7.43,0,0,0,0,.91l0,.77H18.3a26.84,26.84,0,0,0,.17,4.42v2.16a1.13,1.13,0,0,1,.1.5.49.49,0,0,1-.13.34.42.42,0,0,1-.32.14q-.5,0-.5-1.3l0-.77a6.07,6.07,0,0,0,0-.79q0-1.15-.07-3.46t-.07-3.46q0-.7.07-2.14t.07-2.11V45a2,2,0,0,1,.43-1.54l.07.07.24,0a.52.52,0,0,1,.22.14.3.3,0,0,1,.1.22l0,.14a.39.39,0,0,0,0,.12,28.71,28.71,0,0,0,1.73,4.78q1.37,3.24,1.7,4.3.24.84.38,1.49a11.78,11.78,0,0,0,1.08,3.14l0-.07a130.16,130.16,0,0,0,.55-13.08l0-.29a1.63,1.63,0,0,1,0-.31q0-.5.34-.5a.45.45,0,0,1,.37.22.8.8,0,0,1,.16.48v1.61L25,46q0,2.28-.26,7.49a33.78,33.78,0,0,1-.5,5.66l-.41.1v0l0,0-.24.07Z"/><path class="cls-6" d="M30.08,58.92l0-.89q0-.38,0-.86a2.93,2.93,0,0,1,0-.41l0-.43a2.16,2.16,0,0,0-.1-.58q0-1.61-.24-6T29.48,44a17.38,17.38,0,0,1-2-.07q-.48-.12-.48-.38a.45.45,0,0,1,.46-.26q.72,0,2.09.1t2.09.12h.5l.5,0q.43,0,.43.31a.25.25,0,0,1-.16.23.77.77,0,0,1-.37.08q-.48,0-1,0l-1,0c-.06,0-.1,0-.1.07a2.28,2.28,0,0,0,0,.46q0,2.33.29,7.06.26,4.9.26,7a.4.4,0,0,1-.2.31.69.69,0,0,1-.4.14Z"/><path class="cls-6" d="M36.27,59a.63.63,0,0,0-.19,0h-.19q-.53,0-.67-.24a.34.34,0,0,1,.19-.29l.12-.12h.7l.1-.1,0-.22,0-.29q0-1.46-.07-2.62l0-.89,0-1.75q0-.94.07-2.81l0-2.78a24.24,24.24,0,0,0-.12-2.78,2.53,2.53,0,0,0-.72-.07l-.26,0-.31,0q-.46,0-.46-.41c0-.06.07-.13.22-.19a.93.93,0,0,1,.36-.1,17.3,17.3,0,0,1,1.82.1,3.85,3.85,0,0,1,1.1.22c.29.1.43.23.43.41a.58.58,0,0,1-.07.19l-.55,0a1.15,1.15,0,0,0-.7-.14l-.12.07A6,6,0,0,1,37,45.6q0,1.58,0,2.86l0,2.86q0,1.08.1,2.62.07,1.75.07,2.64v.31a3.06,3.06,0,0,0,0,.43,1.77,1.77,0,0,0,.07.67l0,0c0,.16.18.24.53.24l.36,0h.36q.7,0,.7.34a.45.45,0,0,1-.14.35.55.55,0,0,1-.38.13,1.39,1.39,0,0,1-.38,0l-.41,0a1.26,1.26,0,0,0-.43.12,1.11,1.11,0,0,1-.43.14Q36.37,59.26,36.27,59Z"/><path class="cls-6" d="M47.24,59.35l-.08-.14a1.71,1.71,0,0,1-.16-.43,1,1,0,0,0-.1-.34l0-.07a15.19,15.19,0,0,0-.82-2.76l-.43-1.25a11.8,11.8,0,0,1-.46-1.22L45,52.56q-2.16-6.67-2.71-7.22A6.06,6.06,0,0,0,42.13,47q0,.55,0,1l0,.94,0,.58c0,.18,0,.37,0,.58a7.43,7.43,0,0,0,0,.91l0,.77h-.07a26.84,26.84,0,0,0,.17,4.42v2.16a1.13,1.13,0,0,1,.1.5.49.49,0,0,1-.13.34.42.42,0,0,1-.32.14q-.5,0-.5-1.3l0-.77a6.07,6.07,0,0,0,0-.79q0-1.15-.07-3.46t-.07-3.46q0-.7.07-2.14t.07-2.11V45A2,2,0,0,1,42,43.44l.07.07.24,0a.52.52,0,0,1,.22.14.3.3,0,0,1,.1.22l0,.14a.39.39,0,0,0,0,.12,28.71,28.71,0,0,0,1.73,4.78q1.37,3.24,1.7,4.3.24.84.38,1.49a11.78,11.78,0,0,0,1.08,3.14l0-.07a130.16,130.16,0,0,0,.55-13.08l0-.29a1.63,1.63,0,0,1,0-.31q0-.5.34-.5a.45.45,0,0,1,.37.22.8.8,0,0,1,.16.48v1.61l-.12.19q0,2.28-.26,7.49a33.78,33.78,0,0,1-.5,5.66l-.41.1v0l0,0-.24.07Z"/><path class="cls-6" d="M54,59.37a2.7,2.7,0,0,1-.73-.59,6,6,0,0,1-.53-2.42q-.19-2-.24-4.56,0-.58,0-.86,0-6-.19-7.13l.14-.34q.55.07.55,1.32l.07,6.36q0,.67.12,2.54.14,1.68.14,2.54,0,2.74,1.8,2.74,1.1,0,1.42-5l0-.48q.17-6.6.17-9.77l0-.22a.88.88,0,0,1,0-.22c0-.18.14-.26.41-.26s.31,0,.36.14a4.92,4.92,0,0,1,0,.84,13.27,13.27,0,0,1-.14,2.45l0,.14q0,.31-.07,1l0,1v.24a1,1,0,0,1,0,.24q0,.58,0,1.1a4.13,4.13,0,0,0,0,.53q0,2.28-.1,4a12,12,0,0,1-.58,3.53q-.53,1.54-1.7,1.54A1.69,1.69,0,0,1,54,59.37Z"/><path class="cls-6" d="M61.11,59.06v-.31a1.52,1.52,0,0,0,0-.29l-.1-.1a2.76,2.76,0,0,0,.19-1q0-.55-.07-1.58l0-1.58q0-1.2.07-3.6.1-2.14.1-3.62l0-1.44q0-.65,0-1.44a.68.68,0,0,1,.17-.52.76.76,0,0,1,.53-.16.52.52,0,0,1,.38.14,6,6,0,0,0,.7.1,5.3,5.3,0,0,1,1,.22q.46.15.46.36t-.46.48A7.22,7.22,0,0,0,62,44.28l-.12.14c0,.14,0,.49,0,1s0,1.3,0,1.85,0,1.18,0,1.87q0,.67.34.67l.38,0,.41,0q.94,0,.94.43a.78.78,0,0,1-.12.44.4.4,0,0,1-.36.18.75.75,0,0,1-.55-.19l-.77-.12H62l-.12.12v.07q0,.41,0,1.9,0,.94,0,1.7l0,1.7Q61.9,57,62,58a1,1,0,0,0,.24.73,1.28,1.28,0,0,0,.79.18l.43,0,.48,0q.7,0,.7.31t-1.06.43h-2Q61.16,59.57,61.11,59.06Z"/><g class="cls-1"><path class="cls-2" d="M40.54,73.18c-1.14.13-2.5,2.13-3.38,2.82a4.75,4.75,0,0,1-.73.66c-.18.12.15-.21.73-.66.22-.23.46-.51.74-.83-.61.25-1.21.49-1.67.63q-.24.33-.5.65a22.22,22.22,0,0,1-2,2.46c-.23.19-.64.82-.85.79L34,78.17l1.3-1.85-.13.09-.45.54c-.15.18-.25.27-.37.41L33.7,78a.6.6,0,0,1-.21.2l.21-.2a8.72,8.72,0,0,0,.37-.8c.12-.15.32-.19.49-.43a2.18,2.18,0,0,1,.61-.39l.27-.32a.5.5,0,0,1,0-.13h0a1.75,1.75,0,0,0-.92.32l-.58.37-.42.14c-.51.16-.76.12-.78.3a7.85,7.85,0,0,1-.07,1.64c0,.12-.12-.09-.13.21a3.32,3.32,0,0,1,0,.48c-.11.28-.23-.22-.31.45v0a12,12,0,0,1-.09-1.49,7.26,7.26,0,0,0,0-.93c-.14,1.82,0,.48-.11.2,0,0-.12.59-.14.47,0-.54-.12,0-.28,0s-.17-.11-.19-.24-.06-.18-.32,0c0,.07-.6,0-.61,0-.17-.46-.76-.41-.35-1.18-.87-.17-.62-1.25-1.05-1.73s-.12-1,0-1.69c0-.17-.12-.25,0-.4s-.39-.13-.41-.31l.27-.12,0-.23c0-.06.08-.1.17-.14a.79.79,0,0,0,.43-.31,2.9,2.9,0,0,0,0-.78,6.71,6.71,0,0,0-.77-.32,2.16,2.16,0,0,1-.35.14L28,70.78c-.27.12-.53.29-.71.37-.7.43-1.53.6-2.13,1-.17.14,0,.5-.27.85a2.7,2.7,0,0,1-.63.27c.12.19-.14.37-.42.43v.12l-.36.16c0,.67-.28,1.58.32,1.87a2,2,0,0,0,.58.17c.1,0,0,.23,0,.29a4.59,4.59,0,0,0,.8-.35c0,.5,0,1.52.87,1,.13.31.58.11.8.38s.32.38.49.59l.25.34.33.47a8.07,8.07,0,0,1,.71,1.07l.25.39a32,32,0,0,1,1.66,3,30,30,0,0,0,1.63,2.92,18.47,18.47,0,0,0,1.2-2.61,23.71,23.71,0,0,1,2.05-4.39,14.59,14.59,0,0,1,2.09-2.69C39,75,40.3,74,40.69,73.64Z"/></g><g class="cls-1"><path class="cls-3" d="M40.54,74.61c-1.14.13-2.5,2.13-3.38,2.82a4.75,4.75,0,0,1-.73.66c-.18.12.15-.21.73-.66.22-.23.46-.51.74-.83-.61.25-1.21.49-1.67.63q-.24.33-.5.65a22.22,22.22,0,0,1-2,2.46c-.23.19-.64.82-.85.79L34,79.61l1.3-1.85-.13.09-.45.54c-.15.18-.25.27-.37.41l-.65.67a.6.6,0,0,1-.21.2l.21-.2a8.72,8.72,0,0,0,.37-.8c.12-.15.32-.19.49-.43a2.18,2.18,0,0,1,.61-.39l.27-.32a.5.5,0,0,1,0-.13h0a1.75,1.75,0,0,0-.92.32l-.58.37-.42.14c-.51.16-.76.12-.78.3a7.85,7.85,0,0,1-.07,1.64c0,.12-.12-.09-.13.21a3.32,3.32,0,0,1,0,.48c-.11.28-.23-.22-.31.45v0a12,12,0,0,1-.09-1.49,7.26,7.26,0,0,0,0-.93c-.14,1.82,0,.48-.11.2,0,0-.12.59-.14.47,0-.54-.12,0-.28,0s-.17-.11-.19-.24-.06-.18-.32,0c0,.07-.6,0-.61,0-.17-.46-.76-.41-.35-1.18-.87-.17-.62-1.25-1.05-1.73s-.12-1,0-1.69c0-.17-.12-.25,0-.4s-.39-.13-.41-.31l.27-.12,0-.23c0-.06.08-.1.17-.14a.79.79,0,0,0,.43-.31,2.9,2.9,0,0,0,0-.78,6.71,6.71,0,0,0-.77-.32,2.16,2.16,0,0,1-.35.14L28,72.21c-.27.12-.53.29-.71.37-.7.43-1.53.6-2.13,1-.17.14,0,.5-.27.85a2.7,2.7,0,0,1-.63.27c.12.19-.14.37-.42.43v.12l-.36.16c0,.67-.28,1.58.32,1.87a2,2,0,0,0,.58.17c.1,0,0,.23,0,.29a4.59,4.59,0,0,0,.8-.35c0,.5,0,1.52.87,1,.13.31.58.11.8.38s.32.38.49.59l.25.34.33.47a8.07,8.07,0,0,1,.71,1.07l.25.39a32,32,0,0,1,1.66,3,30,30,0,0,0,1.63,2.92,18.47,18.47,0,0,0,1.2-2.61,23.71,23.71,0,0,1,2.05-4.39,14.59,14.59,0,0,1,2.09-2.69c1.37-1.41,2.71-2.35,3.09-2.76Z"/></g></g></g></svg>