<svg xmlns="http://www.w3.org/2000/svg" viewBox="0 0 578.2 578.2"><defs><style>.cls-1,.cls-5{fill:#fff;}.cls-2,.cls-3{fill:none;stroke:#39b54a;stroke-miterlimit:10;}.cls-2{stroke-width:5px;}.cls-3{stroke-width:5.83px;}.cls-4{fill:#39b54a;}.cls-5{font-size:62px;font-family:AmaticSC-Bold, Amatic SC;font-weight:700;}</style></defs><title>btn_show</title><g id="Layer_2" data-name="Layer 2"><g id="Layer_1-2" data-name="Layer 1"><rect class="cls-1" x="292.44" y="195.19" width="37.88" height="149.3" transform="translate(340.76 680.83) rotate(-135)"/><rect class="cls-1" x="240.44" y="258.91" width="37.88" height="74.65" transform="translate(-133.5 270.18) rotate(-45)"/><path class="cls-2" d="M145.86,432.34c79.11,79.11,207.37,79.11,286.48,0s79.11-207.37,0-286.48-207.37-79.11-286.48,0S66.75,353.23,145.86,432.34ZM288.71,91.15,489.12,291.56,291.56,489.12,91.15,288.71Z"/><path class="cls-2" d="M86.53,289.1c0,111.88,90.69,202.57,202.57,202.57S491.67,401,491.67,289.1,401,86.53,289.1,86.53,86.53,177.22,86.53,289.1ZM428.79,148.85V432.27H149.4V148.85Z"/><path class="cls-2" d="M101.73,212.11c-42.52,103.48,6.9,221.84,110.38,264.36s221.84-6.9,264.36-110.38-6.9-221.84-110.38-264.36S144.25,108.63,101.73,212.11Zm369.89.36L363.9,474.62,105.47,368.44,213.19,106.28Z"/><path class="cls-2" d="M216.17,100.11C111.79,140.39,59.83,257.65,100.11,362S257.65,518.36,362,478.09,518.36,320.54,478.09,216.17,320.54,59.83,216.17,100.11ZM470.24,368.94,205.82,471,105.23,210.31l264.42-102Z"/><path class="cls-3" d="M122.19,456c92.18,92.18,241.64,92.18,333.82,0s92.18-241.64,0-333.82-241.64-92.18-333.82,0S30,363.83,122.19,456ZM288.64,58.44,522.17,292,292,522.17,58.44,288.64Z"/><path class="cls-4" d="M0,289.1C0,448.76,129.43,578.2,289.1,578.2S578.2,448.76,578.2,289.1,448.76,0,289.1,0,0,129.43,0,289.1ZM488.46,88.94V493.43H89.73V88.94Z"/><text class="cls-5" transform="translate(227.54 389.02) scale(1.26 1)">show!</text></g></g></svg>