<svg xmlns="http://www.w3.org/2000/svg" viewBox="0 0 90.39 93.36"><defs><style>.cls-1,.cls-2,.cls-3,.cls-5{fill:none;stroke:#fff;stroke-miterlimit:10;}.cls-2{stroke-width:0.37px;}.cls-3{stroke-width:0.13px;}.cls-4{fill:#fff;}.cls-5{stroke-width:0.07px;}</style></defs><title>btn_ScrollDown</title><g id="Layer_2" data-name="Layer 2"><g id="Layer_1-2" data-name="Layer 1"><polygon class="cls-1" points="66.08 29.48 89.4 29.48 45.19 89.55 0.99 29.48 12.43 29.48 39.26 29.48 45.2 27.81 51.13 29.48 66.08 29.48"/><polygon class="cls-2" points="45.19 80.27 12.43 35.75 77.96 35.75 45.19 80.27"/><polygon class="cls-3" points="38.31 50.3 49.65 65.71 26.97 65.71 38.31 50.3"/><polygon class="cls-3" points="52.08 50.3 63.42 65.71 40.74 65.71 52.08 50.3"/><polygon class="cls-3" points="38.31 8.8 49.65 24.21 26.97 24.21 38.31 8.8"/><polygon class="cls-3" points="52.08 8.8 63.42 24.21 40.74 24.21 52.08 8.8"/><polygon class="cls-4" points="45.19 93.36 33.85 77.95 56.54 77.95 45.19 93.36"/><polygon class="cls-1" points="31.84 77.95 20.5 62.54 43.18 62.54 31.84 77.95"/><polygon class="cls-1" points="58.55 77.95 47.21 62.54 69.89 62.54 58.55 77.95"/><polygon class="cls-1" points="45.19 57.75 33.85 42.34 56.54 42.34 45.19 57.75"/><polygon class="cls-4" points="58.55 78.14 53 70.6 64.1 70.6 58.55 78.14"/><polygon class="cls-4" points="77.96 39.52 72.41 31.98 83.51 31.98 77.96 39.52"/><polygon class="cls-4" points="12.43 39.52 6.88 31.98 17.98 31.98 12.43 39.52"/><polygon class="cls-4" points="45.07 52.84 39.51 45.29 50.62 45.29 45.07 52.84"/><polygon class="cls-4" points="31.84 78.14 26.29 70.6 37.39 70.6 31.84 78.14"/><polygon class="cls-5" points="32.91 16.14 38.85 24.21 26.97 24.21 32.91 16.14"/><polygon class="cls-5" points="40.74 16.14 46.67 24.21 34.8 24.21 40.74 16.14"/><polygon class="cls-5" points="37.78 16.14 43.72 24.21 31.84 24.21 37.78 16.14"/><polygon class="cls-5" points="52.61 16.14 58.55 24.21 46.67 24.21 52.61 16.14"/><polygon class="cls-5" points="28.86 50.3 34.8 58.37 22.92 58.37 28.86 50.3"/><polygon class="cls-5" points="61.27 50.3 67.21 58.37 55.34 58.37 61.27 50.3"/><polygon class="cls-5" points="28.86 44.7 34.8 52.77 22.92 52.77 28.86 44.7"/><polygon class="cls-5" points="61.27 44.7 67.21 52.77 55.34 52.77 61.27 44.7"/><polygon class="cls-5" points="28.86 37.77 34.8 45.84 22.92 45.84 28.86 37.77"/><polygon class="cls-5" points="61.27 37.77 67.21 45.84 55.34 45.84 61.27 37.77"/><polygon class="cls-5" points="28.86 33.74 34.8 41.81 22.92 41.81 28.86 33.74"/><polygon class="cls-5" points="61.27 33.74 67.21 41.81 55.34 41.81 61.27 33.74"/><polygon class="cls-5" points="21.55 45.84 15.61 37.77 27.49 37.77 21.55 45.84"/><polygon class="cls-5" points="12.43 34.01 6.49 25.94 18.37 25.94 12.43 34.01"/><polygon class="cls-5" points="24.31 37.55 18.37 29.48 30.25 29.48 24.31 37.55"/><polygon class="cls-5" points="66.08 37.55 60.14 29.48 72.02 29.48 66.08 37.55"/><polygon class="cls-5" points="77.96 34.01 72.02 25.94 83.9 25.94 77.96 34.01"/><polygon class="cls-4" points="64.49 17.04 58.55 8.97 70.43 8.97 64.49 17.04"/><polygon class="cls-5" points="64.49 21.07 58.55 13.01 70.43 13.01 64.49 21.07"/><polygon class="cls-4" points="45.2 8.07 39.26 0 51.13 0 45.2 8.07"/><polygon class="cls-5" points="45.2 12.1 39.26 4.04 51.13 4.04 45.2 12.1"/><polygon class="cls-4" points="25.9 17.04 19.96 8.97 31.84 8.97 25.9 17.04"/><polygon class="cls-5" points="25.9 21.07 19.96 13.01 31.84 13.01 25.9 21.07"/><polygon class="cls-5" points="69.02 45.84 63.08 37.77 74.96 37.77 69.02 45.84"/><polygon class="cls-5" points="45.19 40.98 39.26 32.91 51.13 32.91 45.19 40.98"/><polygon class="cls-4" points="45.19 35.88 39.26 27.81 51.13 27.81 45.19 35.88"/><polygon class="cls-5" points="45.19 20.17 39.26 12.1 51.13 12.1 45.19 20.17"/><polygon class="cls-5" points="45.19 16.14 39.26 8.07 51.13 8.07 45.19 16.14"/><polygon class="cls-5" points="49.65 16.14 55.59 24.21 43.72 24.21 49.65 16.14"/><polygon class="cls-5" points="55.69 16.14 61.63 24.21 49.75 24.21 55.69 16.14"/></g></g></svg>