<svg xmlns="http://www.w3.org/2000/svg" viewBox="0 0 258.86 269.18"><defs><style>.cls-1,.cls-3{fill:none;stroke:#fff;stroke-miterlimit:10;}.cls-1{stroke-width:2.95px;}.cls-2{fill:#fff;}.cls-3{stroke-width:8.79px;}</style></defs><title>da_btn</title><g id="Layer_2" data-name="Layer 2"><g id="Layer_1-2" data-name="Layer 1"><rect class="cls-1" x="46.01" y="86.18" width="161.98" height="80.99" rx="6.64" ry="6.64"/><path class="cls-1" d="M140.53,180.45H113.47c-6.64,0-6.64,0-6.64-6.64h0c0-3.65,16.52-6.64,20.17-6.64h0c3.65,0,20.17,3,20.17,6.64h0C147.17,180.45,147.17,180.45,140.53,180.45Z"/><path class="cls-2" d="M0,269.06v-8.13H9.24a7.55,7.55,0,0,1,1.58.14,2.87,2.87,0,0,1,1,.42,1.65,1.65,0,0,1,.58.69,2.35,2.35,0,0,1,.18,1v3.71a2.35,2.35,0,0,1-.18,1,1.66,1.66,0,0,1-.58.69,2.87,2.87,0,0,1-1,.42,7.55,7.55,0,0,1-1.58.14Zm2-1.59H9.26a2.16,2.16,0,0,0,1-.17.55.55,0,0,0,.31-.51v-3.57a.55.55,0,0,0-.31-.51,2.16,2.16,0,0,0-1-.17H2Z"/><path class="cls-2" d="M14.4,269.06v-8.13H27v1.59H16.42v1.07h8.67v1.48H16.42v2.39H27v1.59Z"/><path class="cls-2" d="M28.52,269.06v-1.59H37.4a2.16,2.16,0,0,0,1-.17.55.55,0,0,0,.31-.51v-.84a.55.55,0,0,0-.31-.51,2.16,2.16,0,0,0-1-.17H31.49q-3,0-3-1.75v-1q0-1.56,2.94-1.56h8.9v1.59h-9a1.84,1.84,0,0,0-.62.07.24.24,0,0,0-.17.23v.48a.29.29,0,0,0,.17.28,1.65,1.65,0,0,0,.64.08h6a7.55,7.55,0,0,1,1.58.14,2.86,2.86,0,0,1,1,.42,1.65,1.65,0,0,1,.58.69,2.36,2.36,0,0,1,.18,1v1a2.35,2.35,0,0,1-.18,1,1.66,1.66,0,0,1-.58.69,2.87,2.87,0,0,1-1,.42,7.55,7.55,0,0,1-1.58.14Z"/><path class="cls-2" d="M42.52,269.06v-8.13h2V264h1.22L52,260.93h3.83l-8,3.76,8.52,4.37H52.58l-6.83-3.66H44.53v3.66Z"/><path class="cls-2" d="M61.12,269.06v-6.53H55.8v-1.59H68.44v1.59H63.13v6.53Z"/><path class="cls-2" d="M72.65,269.06a7.51,7.51,0,0,1-1.59-.14,2.87,2.87,0,0,1-1-.42,1.66,1.66,0,0,1-.58-.69,2.34,2.34,0,0,1-.18-1v-3.71a2.34,2.34,0,0,1,.18-1,1.65,1.65,0,0,1,.58-.69,2.87,2.87,0,0,1,1-.42,7.51,7.51,0,0,1,1.59-.14h5.87a7.55,7.55,0,0,1,1.58.14,2.88,2.88,0,0,1,1,.42,1.66,1.66,0,0,1,.58.69,2.35,2.35,0,0,1,.18,1v3.71a2.35,2.35,0,0,1-.18,1,1.66,1.66,0,0,1-.58.69,2.88,2.88,0,0,1-1,.42,7.55,7.55,0,0,1-1.58.14Zm-1.32-2.28a.55.55,0,0,0,.31.51,2.16,2.16,0,0,0,1,.17h5.9a2.16,2.16,0,0,0,1-.17.55.55,0,0,0,.31-.51v-3.57a.55.55,0,0,0-.31-.51,2.16,2.16,0,0,0-1-.17h-5.9a2.16,2.16,0,0,0-1,.17.55.55,0,0,0-.31.51Z"/><path class="cls-2" d="M83.68,269.06v-8.13h9.26a7.56,7.56,0,0,1,1.58.14,2.88,2.88,0,0,1,1,.42,1.65,1.65,0,0,1,.58.69,2.35,2.35,0,0,1,.18,1v1.06a2.36,2.36,0,0,1-.18,1,1.65,1.65,0,0,1-.58.69,2.87,2.87,0,0,1-1,.42,7.49,7.49,0,0,1-1.58.14H85.69v2.65Zm2-4.14h7.26a2.16,2.16,0,0,0,1-.17.55.55,0,0,0,.31-.51v-1a.55.55,0,0,0-.31-.51,2.16,2.16,0,0,0-1-.17H85.69Z"/><path class="cls-2" d="M102.68,269.06v-8.13h9.24a7.55,7.55,0,0,1,1.58.14,2.88,2.88,0,0,1,1,.42,1.66,1.66,0,0,1,.58.69,2.37,2.37,0,0,1,.18,1v3.71a2.37,2.37,0,0,1-.18,1,1.66,1.66,0,0,1-.58.69,2.88,2.88,0,0,1-1,.42,7.55,7.55,0,0,1-1.58.14Zm2-1.59h7.24a2.16,2.16,0,0,0,1-.17.55.55,0,0,0,.31-.51v-3.57a.55.55,0,0,0-.31-.51,2.16,2.16,0,0,0-1-.17h-7.24Z"/><path class="cls-2" d="M117.08,269.06v-8.13H129.7v1.59h-10.6v1.07h8.67v1.48h-8.67v2.39h10.63v1.59Z"/><path class="cls-2" d="M138.72,268.72a1.12,1.12,0,0,1-.48.35,1.48,1.48,0,0,1-1.12,0,1.12,1.12,0,0,1-.48-.35l-6.3-7.79h2.43l4.91,6.21,4.91-6.21H145Z"/><path class="cls-2" d="M145.93,269.06v-8.13h12.61v1.59h-10.6v1.07h8.67v1.48h-8.67v2.39h10.63v1.59Z"/><path class="cls-2" d="M160.1,269.06v-8.13h2v6.53h7.15v1.59Z"/><path class="cls-2" d="M173.7,269.06a7.53,7.53,0,0,1-1.59-.14,2.88,2.88,0,0,1-1-.42,1.65,1.65,0,0,1-.58-.69,2.35,2.35,0,0,1-.18-1v-3.71a2.35,2.35,0,0,1,.18-1,1.65,1.65,0,0,1,.58-.69,2.88,2.88,0,0,1,1-.42,7.53,7.53,0,0,1,1.59-.14h5.87a7.55,7.55,0,0,1,1.58.14,2.88,2.88,0,0,1,1,.42,1.65,1.65,0,0,1,.58.69,2.35,2.35,0,0,1,.18,1v3.71a2.35,2.35,0,0,1-.18,1,1.66,1.66,0,0,1-.58.69,2.88,2.88,0,0,1-1,.42,7.55,7.55,0,0,1-1.58.14Zm-1.32-2.28a.55.55,0,0,0,.31.51,2.16,2.16,0,0,0,1,.17h5.9a2.16,2.16,0,0,0,1-.17.55.55,0,0,0,.31-.51v-3.57a.55.55,0,0,0-.31-.51,2.16,2.16,0,0,0-1-.17h-5.9a2.16,2.16,0,0,0-1,.17.55.55,0,0,0-.31.51Z"/><path class="cls-2" d="M184.73,269.06v-8.13H194a7.55,7.55,0,0,1,1.58.14,2.88,2.88,0,0,1,1,.42,1.66,1.66,0,0,1,.58.69,2.35,2.35,0,0,1,.18,1v1.06a2.36,2.36,0,0,1-.18,1,1.66,1.66,0,0,1-.58.69,2.86,2.86,0,0,1-1,.42,7.48,7.48,0,0,1-1.58.14h-7.24v2.65Zm2-4.14H194a2.16,2.16,0,0,0,1-.17.55.55,0,0,0,.31-.51v-1a.55.55,0,0,0-.31-.51,2.16,2.16,0,0,0-1-.17h-7.26Z"/><path class="cls-2" d="M198.64,269.06v-7.47a.65.65,0,0,1,.29-.58,1.19,1.19,0,0,1,.67-.19,1.76,1.76,0,0,1,.47.07,1.14,1.14,0,0,1,.43.23l7.09,6.14,7.09-6.14a1.14,1.14,0,0,1,.42-.23,1.72,1.72,0,0,1,.48-.07,1.19,1.19,0,0,1,.67.19.65.65,0,0,1,.29.58v7.47h-2v-5.51l-6.22,5.39a1.19,1.19,0,0,1-1.44,0l-6.22-5.39v5.51Z"/><path class="cls-2" d="M218.37,269.06v-8.13H231v1.59h-10.6v1.07h8.67v1.48h-8.67v2.39H231v1.59Z"/><path class="cls-2" d="M232.54,269.06v-7.42a.71.71,0,0,1,.28-.6,1.06,1.06,0,0,1,.66-.21,1.46,1.46,0,0,1,.35,0,1.07,1.07,0,0,1,.33.14l9,5.76v-5.84h2v7.44a.71.71,0,0,1-.28.6,1.06,1.06,0,0,1-.66.21,1.46,1.46,0,0,1-.35,0,1.07,1.07,0,0,1-.33-.14l-9-5.76v5.83Z"/><path class="cls-2" d="M251.54,269.06v-6.53h-5.31v-1.59h12.64v1.59h-5.31v6.53Z"/><circle class="cls-3" cx="127" cy="122.98" r="118.58"/></g></g></svg>