<svg xmlns="http://www.w3.org/2000/svg" viewBox="0 0 200.01 200.33"><defs><style>.cls-1{fill:#1a1a1a;}.cls-10,.cls-12,.cls-2,.cls-3{fill:none;stroke:#fff;stroke-miterlimit:10;}.cls-2{stroke-width:1.53px;}.cls-3{stroke-width:4.45px;}.cls-4{fill:gray;}.cls-4,.cls-5{opacity:0.5;}.cls-11,.cls-5,.cls-7,.cls-8,.cls-9{fill:#fff;}.cls-6,.cls-8,.cls-9{isolation:isolate;}.cls-7,.cls-8,.cls-9{font-size:3.12px;font-family:VenusRising-Regular, Venus Rising;text-decoration:underline;}.cls-8{letter-spacing:-0.02em;}.cls-10{stroke-width:0.1px;}.cls-12{stroke-width:0.31px;}</style></defs><title>daAlt_btn</title><g id="Layer_2" data-name="Layer 2"><g id="Layer_1-2" data-name="Layer 1"><rect class="cls-1" y="0.33" width="200" height="200"/><rect class="cls-2" x="58.19" y="64.33" width="86.61" height="40.98" rx="6.64" ry="6.64"/><path class="cls-2" d="M108.74,112H94.26c-3.55,0-3.55,0-3.55-3.36h0c0-1.85,8.83-3.36,10.79-3.36h0c2,0,10.79,1.51,10.79,3.36h0C112.29,112,112.29,112,108.74,112Z"/><circle class="cls-3" cx="101.5" cy="81.43" r="60"/><rect class="cls-4" y="150" width="200" height="50"/><rect class="cls-5" x="0.01" y="186.58" width="200" height="13.42"/><rect class="cls-5" x="0.01" width="200" height="13.42"/><g id="Layer_2-2" data-name="Layer 2"><g id="Layer_1-2-2" data-name="Layer 1-2"><g class="cls-6"><text class="cls-7" transform="translate(86.87 100.88)"><tspan xml:space="preserve">DRP </tspan></text><text class="cls-8" transform="translate(97.53 100.88)">S</text><text class="cls-9" transform="translate(100.59 100.88)">tudios</text></g><polygon class="cls-10" points="94.31 82.6 93.95 81.2 94.82 78 95.63 76.77 95.1 74.19 95.32 73.41 97.43 74.27 99.61 72.56 101.77 72.06 104.13 72.14 106.76 71.05 108 71.44 108.98 73.6 109.01 75.28 110.18 77.16 110.86 79.46 110.63 82.55 110.1 86.05 109.79 86.95 108.08 88.63 105.28 90.96 102.59 92.7 101.27 92.84 100.31 92.56 100.06 91.71 100.17 91.38 99.59 90.8 100.27 90.55 99.78 88.5 98.73 87.06 97.86 86.26 96.92 86.09 96.19 86.18 96.12 86.47 94.95 86.33 94.06 84.96 93.77 83.75 94.31 82.6"/><polygon class="cls-11" points="98.68 80.16 99.89 81.61 101.37 82.06 102.29 81.76 102.59 81.17 102.36 79.43 101.64 78.56 99.94 77.51 99.56 77.72 98.47 79.68 98.68 80.16"/><polygon class="cls-11" points="94.87 81.14 94.7 80.84 94.84 79.94 95.08 79.64 95.44 79.66 95.63 80 95.56 80.94 95.24 81.22 94.87 81.14"/><polyline class="cls-10" points="94.3 82.6 95.03 81.71 95.07 81.16"/><polyline class="cls-10" points="100.16 91.38 100.6 91.41 101.25 91.59 102.51 91.24 103.23 89.44 103.33 88.11 102.38 85.25 101.42 84.98 99.64 85.38 98.73 85.29 96.91 86.09"/><polyline class="cls-11" points="96.2 86.18 95.6 85.5 95.04 85.13 94.36 84.17 94.36 83.67 95.23 83.34 95.96 83.3 96.72 83.46 97.04 83.51 97.12 84.18 96.83 84.68 96.25 84.93 95.97 85.3 96.21 86.17"/><polygon class="cls-11" points="102.22 90.85 102.38 90.43 101.82 90.13 101.73 90 100.85 90.09 100.55 90 100.57 90.48 100.32 90.75 99.91 90.82 100.17 91.21 100.67 91.3 101.24 91.34 101.31 91.14 101.94 91.13 102.22 90.85"/><polygon class="cls-11" points="96.94 86.09 97.85 86.26 97.69 86.05 98.24 85.76 98.84 86.14 98.9 85.65 99.78 85.72 100.17 85.52 100.25 85.24 99.64 85.38 98.73 85.29 96.94 86.09"/><polygon class="cls-11" points="96.83 86.09 97.74 86.26 97.59 86.05 98.14 85.76 98.74 86.14 98.8 85.65 99.68 85.72 100.07 85.52 100.14 85.24 99.54 85.38 98.63 85.29 96.83 86.09"/><circle class="cls-12" cx="102.06" cy="82.06" r="14.07"/></g></g><path class="cls-11" d="M25.42,173.48v-7.39h5.45a2.93,2.93,0,0,1,.93.13,1.45,1.45,0,0,1,.62.38,1.54,1.54,0,0,1,.34.63,3.18,3.18,0,0,1,.11.87v3.37a3.19,3.19,0,0,1-.11.87,1.54,1.54,0,0,1-.34.63,1.45,1.45,0,0,1-.62.38,2.93,2.93,0,0,1-.93.13ZM26.61,172h4.27a.9.9,0,0,0,.58-.16.57.57,0,0,0,.18-.46v-3.25a.57.57,0,0,0-.18-.46.9.9,0,0,0-.58-.16H26.61Z"/><path class="cls-11" d="M33.91,173.48v-7.39h7.44v1.45H35.1v1h5.11v1.35H35.1V172h6.27v1.45Z"/><path class="cls-11" d="M42.23,173.48V172h5.23a.9.9,0,0,0,.58-.16.57.57,0,0,0,.18-.46v-.76a.57.57,0,0,0-.18-.46.9.9,0,0,0-.58-.16H44q-1.75,0-1.75-1.59v-.93q0-1.42,1.73-1.42h5.24v1.45H43.92a.73.73,0,0,0-.37.07.23.23,0,0,0-.1.21v.44a.3.3,0,0,0,.1.26.66.66,0,0,0,.38.07h3.53a2.92,2.92,0,0,1,.93.13,1.44,1.44,0,0,1,.62.38,1.53,1.53,0,0,1,.34.63,3.18,3.18,0,0,1,.11.87v.88a3.19,3.19,0,0,1-.11.87A1.53,1.53,0,0,1,49,173a1.45,1.45,0,0,1-.62.38,2.92,2.92,0,0,1-.93.13Z"/><path class="cls-11" d="M50.49,173.48v-7.39h1.19v2.78h.72l3.67-2.78h2.26l-4.74,3.42,5,4H56.42l-4-3.33h-.72v3.33Z"/><path class="cls-11" d="M61.45,173.48v-5.94H58.31v-1.45h7.45v1.45H62.63v5.94Z"/><path class="cls-11" d="M68.24,173.48a2.92,2.92,0,0,1-.94-.13,1.45,1.45,0,0,1-.61-.38,1.53,1.53,0,0,1-.34-.63,3.19,3.19,0,0,1-.11-.87V168.1a3.18,3.18,0,0,1,.11-.87,1.53,1.53,0,0,1,.34-.63,1.45,1.45,0,0,1,.61-.38,2.92,2.92,0,0,1,.94-.13H71.7a2.92,2.92,0,0,1,.93.13,1.45,1.45,0,0,1,.62.38,1.54,1.54,0,0,1,.34.63,3.18,3.18,0,0,1,.11.87v3.37a3.19,3.19,0,0,1-.11.87,1.54,1.54,0,0,1-.34.63,1.45,1.45,0,0,1-.62.38,2.92,2.92,0,0,1-.93.13Zm-.78-2.07a.57.57,0,0,0,.18.46.9.9,0,0,0,.58.16h3.48a.9.9,0,0,0,.58-.16.57.57,0,0,0,.18-.46v-3.25a.57.57,0,0,0-.18-.46.9.9,0,0,0-.58-.16H68.24a.9.9,0,0,0-.58.16.57.57,0,0,0-.18.46Z"/><path class="cls-11" d="M74.75,173.48v-7.39H80.2a2.92,2.92,0,0,1,.93.13,1.45,1.45,0,0,1,.62.38,1.54,1.54,0,0,1,.34.63,3.18,3.18,0,0,1,.11.87v1a3.19,3.19,0,0,1-.11.87,1.54,1.54,0,0,1-.34.63,1.45,1.45,0,0,1-.62.38,2.92,2.92,0,0,1-.93.13H75.93v2.41Zm1.19-3.76h4.28a.9.9,0,0,0,.58-.16.57.57,0,0,0,.18-.46v-.94a.57.57,0,0,0-.18-.46.9.9,0,0,0-.58-.16H75.93Z"/><path class="cls-11" d="M85.95,173.48v-7.39h5.45a2.93,2.93,0,0,1,.93.13,1.45,1.45,0,0,1,.62.38,1.54,1.54,0,0,1,.34.63,3.18,3.18,0,0,1,.11.87v3.37a3.19,3.19,0,0,1-.11.87,1.54,1.54,0,0,1-.34.63,1.45,1.45,0,0,1-.62.38,2.93,2.93,0,0,1-.93.13ZM87.13,172H91.4a.9.9,0,0,0,.58-.16.57.57,0,0,0,.18-.46v-3.25a.57.57,0,0,0-.18-.46.9.9,0,0,0-.58-.16H87.13Z"/><path class="cls-11" d="M94.44,173.48v-7.39h7.44v1.45H95.62v1h5.11v1.35H95.62V172h6.27v1.45Z"/><path class="cls-11" d="M107.19,173.17a.78.78,0,0,1-.28.32.6.6,0,0,1-.66,0,.77.77,0,0,1-.28-.32l-3.71-7.08h1.43l2.9,5.65,2.9-5.65h1.43Z"/><path class="cls-11" d="M111.44,173.48v-7.39h7.44v1.45h-6.25v1h5.11v1.35h-5.11V172h6.27v1.45Z"/><path class="cls-11" d="M119.79,173.48v-7.39H121V172h4.21v1.45Z"/><path class="cls-11" d="M127.81,173.48a2.92,2.92,0,0,1-.94-.13,1.45,1.45,0,0,1-.61-.38,1.53,1.53,0,0,1-.34-.63,3.19,3.19,0,0,1-.11-.87V168.1a3.18,3.18,0,0,1,.11-.87,1.53,1.53,0,0,1,.34-.63,1.45,1.45,0,0,1,.61-.38,2.92,2.92,0,0,1,.94-.13h3.46a2.92,2.92,0,0,1,.93.13,1.45,1.45,0,0,1,.62.38,1.54,1.54,0,0,1,.34.63,3.18,3.18,0,0,1,.11.87v3.37a3.19,3.19,0,0,1-.11.87,1.54,1.54,0,0,1-.34.63,1.45,1.45,0,0,1-.62.38,2.92,2.92,0,0,1-.93.13Zm-.78-2.07a.57.57,0,0,0,.18.46.9.9,0,0,0,.58.16h3.48a.9.9,0,0,0,.58-.16.57.57,0,0,0,.18-.46v-3.25a.57.57,0,0,0-.18-.46.9.9,0,0,0-.58-.16H127.8a.9.9,0,0,0-.58.16.57.57,0,0,0-.18.46Z"/><path class="cls-11" d="M134.31,173.48v-7.39h5.46a2.92,2.92,0,0,1,.93.13,1.45,1.45,0,0,1,.62.38,1.54,1.54,0,0,1,.34.63,3.18,3.18,0,0,1,.11.87v1a3.19,3.19,0,0,1-.11.87,1.54,1.54,0,0,1-.34.63,1.45,1.45,0,0,1-.62.38,2.92,2.92,0,0,1-.93.13H135.5v2.41Zm1.19-3.76h4.28a.9.9,0,0,0,.58-.16.57.57,0,0,0,.18-.46v-.94a.57.57,0,0,0-.18-.46.9.9,0,0,0-.58-.16H135.5Z"/><path class="cls-11" d="M142.51,173.48v-6.79a.72.72,0,0,1,.17-.53.54.54,0,0,1,.39-.17.7.7,0,0,1,.28.06.64.64,0,0,1,.25.21l4.18,5.58,4.18-5.58a.64.64,0,0,1,.25-.21.67.67,0,0,1,.28-.07.54.54,0,0,1,.39.17.72.72,0,0,1,.17.53v6.79h-1.19v-5l-3.66,4.9a.52.52,0,0,1-.85,0l-3.66-4.9v5Z"/><path class="cls-11" d="M154.14,173.48v-7.39h7.44v1.45h-6.25v1h5.11v1.35h-5.11V172h6.27v1.45Z"/><path class="cls-11" d="M162.49,173.48v-6.75a.81.81,0,0,1,.17-.54.5.5,0,0,1,.39-.2.59.59,0,0,1,.2,0,.57.57,0,0,1,.2.13l5.31,5.24v-5.31h1.19v6.76a.81.81,0,0,1-.17.54.5.5,0,0,1-.39.2.59.59,0,0,1-.2,0,.57.57,0,0,1-.2-.13l-5.31-5.24v5.3Z"/><path class="cls-11" d="M173.69,173.48v-5.94h-3.13v-1.45H178v1.45h-3.13v5.94Z"/></g></g></svg>