<svg xmlns="http://www.w3.org/2000/svg" xmlns:xlink="http://www.w3.org/1999/xlink" viewBox="0 0 200.01 200"><defs><style>.cls-1{fill:#1a1a1a;}.cls-11,.cls-12,.cls-13,.cls-14,.cls-15,.cls-16,.cls-17,.cls-2,.cls-23,.cls-24,.cls-25,.cls-26,.cls-27,.cls-28,.cls-5{fill:none;}.cls-13,.cls-2{stroke:#fff;}.cls-11,.cls-12,.cls-13,.cls-14,.cls-15,.cls-16,.cls-17,.cls-2,.cls-23,.cls-24,.cls-25,.cls-26,.cls-27,.cls-28{stroke-miterlimit:10;}.cls-2{stroke-width:4.45px;}.cls-21,.cls-3{opacity:0.7;}.cls-4{fill:#373737;}.cls-5{stroke:#373737;stroke-width:0;}.cls-6{fill:url(#linear-gradient);}.cls-7{fill:url(#linear-gradient-2);}.cls-8{fill:url(#linear-gradient-3);}.cls-9{fill:url(#linear-gradient-4);}.cls-10,.cls-30{fill:#fff;}.cls-11,.cls-12,.cls-14,.cls-15,.cls-16,.cls-17,.cls-23,.cls-24,.cls-25,.cls-26,.cls-27,.cls-28{stroke-width:1.17px;}.cls-11{stroke:url(#linear-gradient-5);}.cls-12{stroke:url(#linear-gradient-6);}.cls-13{stroke-width:0.42px;}.cls-14{stroke:url(#linear-gradient-7);}.cls-15{stroke:url(#linear-gradient-8);}.cls-16{stroke:url(#linear-gradient-9);}.cls-17{stroke:url(#linear-gradient-10);}.cls-18,.cls-19,.cls-22{opacity:0.8;}.cls-19{fill:#77787b;}.cls-20,.cls-21{fill:#888a8c;}.cls-22{fill:#6d6e71;}.cls-23{stroke:url(#linear-gradient-11);}.cls-24{stroke:url(#linear-gradient-12);}.cls-25{stroke:url(#linear-gradient-13);}.cls-26{stroke:url(#linear-gradient-14);}.cls-27{stroke:url(#linear-gradient-16);}.cls-28{stroke:url(#linear-gradient-17);}.cls-29{fill:gray;}.cls-29,.cls-30{opacity:0.5;}</style><linearGradient id="linear-gradient" x1="-1008.36" y1="-3280.13" x2="-1008.36" y2="-3300.12" gradientTransform="matrix(0, -1, 0.6, 0, 2069.37, -932.73)" gradientUnits="userSpaceOnUse"><stop offset="0" stop-color="#fff"/><stop offset="0.25" stop-color="#c5c4c4"/><stop offset="1" stop-opacity="0"/></linearGradient><linearGradient id="linear-gradient-2" x1="1938.29" y1="-820.8" x2="1938.29" y2="-840.79" gradientTransform="translate(2051.33 -425.27) rotate(180) scale(1 0.6)" xlink:href="#linear-gradient"/><linearGradient id="linear-gradient-3" x1="4138.53" y1="-281.15" x2="4138.53" y2="-301.14" gradientTransform="matrix(0, 1, -0.5, 0, -50.24, -4056.55)" xlink:href="#linear-gradient"/><linearGradient id="linear-gradient-4" x1="1279.21" y1="-2708.71" x2="1279.21" y2="-2728.71" gradientTransform="translate(-1171.15 1441.32) scale(1 0.5)" xlink:href="#linear-gradient"/><linearGradient id="linear-gradient-5" x1="3074.22" y1="-4348.13" x2="3084.22" y2="-4348.13" gradientTransform="translate(3201 -4269.92) rotate(180)" gradientUnits="userSpaceOnUse"><stop offset="0" stop-color="#fff"/><stop offset="1" stop-opacity="0"/></linearGradient><linearGradient id="linear-gradient-6" x1="426.4" y1="141.04" x2="436.4" y2="141.04" gradientTransform="translate(-349.34 -62.84)" xlink:href="#linear-gradient-5"/><linearGradient id="linear-gradient-7" x1="-593.27" y1="-3526.45" x2="-583.27" y2="-3526.45" gradientTransform="translate(3628.37 -490.2) rotate(-90)" xlink:href="#linear-gradient-5"/><linearGradient id="linear-gradient-8" x1="2258.74" y1="55.44" x2="2268.73" y2="55.44" gradientTransform="translate(-1442.16 -1544.29) rotate(45)" xlink:href="#linear-gradient-5"/><linearGradient id="linear-gradient-9" x1="556.76" y1="-4716.89" x2="566.76" y2="-4716.89" gradientTransform="translate(3817.07 -2877.33) rotate(-135)" xlink:href="#linear-gradient-5"/><linearGradient id="linear-gradient-10" x1="4093.89" y1="-680.64" x2="4103.89" y2="-680.64" gradientTransform="translate(-578.72 -4040.55) rotate(90)" xlink:href="#linear-gradient-5"/><linearGradient id="linear-gradient-11" x1="3856.75" y1="-3118.88" x2="3866.74" y2="-3118.88" gradientTransform="translate(609.79 -4840.43) rotate(135)" xlink:href="#linear-gradient-5"/><linearGradient id="linear-gradient-12" x1="-1041.25" y1="-1542.57" x2="-1031.25" y2="-1542.57" gradientTransform="translate(1942.84 418.81) rotate(-45)" xlink:href="#linear-gradient-5"/><linearGradient id="linear-gradient-13" x1="-949.51" y1="-3460.69" x2="-939.51" y2="-3460.69" gradientTransform="translate(3562.61 -841.09) rotate(-90)" xlink:href="#linear-gradient-5"/><linearGradient id="linear-gradient-14" x1="4088.6" y1="-680.64" x2="4098.59" y2="-680.64" gradientTransform="translate(-578.72 -4040.55) rotate(90)" xlink:href="#linear-gradient-5"/><linearGradient id="linear-gradient-16" x1="165" y1="-86.25" x2="174.99" y2="-86.25" gradientTransform="translate(-93.26 164.49)" xlink:href="#linear-gradient-5"/><linearGradient id="linear-gradient-17" x1="2974.09" y1="-4055.07" x2="2984.08" y2="-4055.07" gradientTransform="translate(3106.19 -3976.84) rotate(180)" xlink:href="#linear-gradient-5"/></defs><title>dgAlt_btn</title><g id="Layer_2" data-name="Layer 2"><g id="Layer_1-2" data-name="Layer 1"><rect class="cls-1" x="0.01" width="200" height="200"/><circle class="cls-2" cx="101.92" cy="80.31" r="60"/><g class="cls-3"><path class="cls-4" d="M137.42,93.34c-.83,1.63-1.53,3.36-2.46,4.84a25.64,25.64,0,0,1-3.07,4.28c-.55.65-1.18,1.22-1.76,1.86l-.88,1c-.3.32-.64.61-1,.93a37.29,37.29,0,0,1-11.46,7.45,38.34,38.34,0,0,1-12.75,3.2,34.43,34.43,0,0,1-13.2-1.47c-16-5-26.73-19.64-26.89-35.46a39.3,39.3,0,0,1,9.74-26.56c.6-.63,1.2-1.41,2-2.12s1.61-1.5,2.54-2.25,1.94-1.49,3-2.18l1.64-1a15,15,0,0,1,1.67-.95,44,44,0,0,1,12.38-4.18A40.54,40.54,0,0,0,75.28,51.07,38.29,38.29,0,0,1,98.83,40.19a39.32,39.32,0,0,1,25.1,6.41,41.53,41.53,0,0,0-11-5.13A40.42,40.42,0,0,0,101,40l-3,.16-3,.45-.75.11-.73.18L92,41.23l-1.46.37-1.42.5-1.42.51-.71.25-.68.32-2.72,1.28L81.06,46l-.64.38-.61.44-1.21.88a39.32,39.32,0,0,0-8.39,8.43,42.85,42.85,0,0,0-5.51,10.46A45,45,0,0,0,62.52,78.1a44.42,44.42,0,0,0,1.18,11.56A40.07,40.07,0,0,1,66.15,61.8,39.65,39.65,0,0,1,87.82,41.91a40.06,40.06,0,0,1,29.16.37,40.63,40.63,0,0,1,12,7.64,42.15,42.15,0,0,1,8.38,10.67l1,1.8c.34.61.56,1.27.84,1.89l.79,1.83c.24.59.4,1.18.59,1.72A41.68,41.68,0,0,0,124.17,46,40.24,40.24,0,0,0,96,39.59a39.6,39.6,0,0,0-14.15,4.9,39.88,39.88,0,0,0-19.9,36.83,41.53,41.53,0,0,0,2.74,12.55,41.63,41.63,0,0,0,6.74,11.08c.74.8,1.41,1.67,2.21,2.41L76,109.59l2.62,2c.87.68,1.85,1.19,2.77,1.79a40.45,40.45,0,0,0,26.79,5.2A40.23,40.23,0,0,0,133.61,104l2.13-2.9c.68-1.09,1.36-2.26,2.06-3.45s1.21-2.53,1.76-3.83,1-2.65,1.31-4,.62-2.61.82-3.82.25-2.38.33-3.4a20.64,20.64,0,0,0-.32-4.48l-.21,4.26c-.22,1.42-.36,2.85-.67,4.14.14-1,.15-2.16.28-3.33-.19,1.11-.34,2.34-.53,3.37a8.53,8.53,0,0,0,.15-2.09c-.16,1.34-.54,3.2-.74,4.25A25.61,25.61,0,0,1,138.82,93c.27-1,.63-2.19.88-3.32s.37-2.23.47-3.08c-.19.7-.35,1.4-.55,2.08a23.32,23.32,0,0,0,.48-3c-.14.89-.39,1.7-.57,2.54a16,16,0,0,1-.73,2.55c-.53,1.42-1,2.71-1.59,4l.54-1.27c.17-.45.3-.92.44-1.37.28-.9.53-1.74.65-2.32-.31.73-.57,1.52-.84,2.3a.41.41,0,0,0,0-.19L137.6,93s-.08.07-.08,0l0,0"/><path class="cls-4" d="M140.08,91.62,139.57,93a11.24,11.24,0,0,1-.62,1.52c-.48,1-1,2-1.35,2.72"/><path class="cls-5" d="M62.09,79.39l0-1.1.19-3.14.07-1.07.19-1.17.43-2.64a45,45,0,0,1,1.9-6.19A39.76,39.76,0,0,1,90.76,40.29a40.27,40.27,0,0,1,20.93-.43,39.3,39.3,0,0,1,9.77,3.8L123.68,45c.75.42,1.4,1,2.1,1.46a38.89,38.89,0,0,1,3.88,3.18,42,42,0,0,1,10.23,15,50,50,0,0,1,3.21,13.6"/><path class="cls-5" d="M83.22,44.22a2,2,0,0,1,.36-.2l1.07-.51,1.72-.81c.66-.35,1.49-.57,2.38-.91a39.61,39.61,0,0,1,15.14-2.27,40.42,40.42,0,0,1,9.81,1.62,43.85,43.85,0,0,1,9.83,4.49,44.37,44.37,0,0,1,8.57,7.21c.64.69,1.19,1.45,1.8,2.16l.88,1.09.78,1.16c.5.78,1.07,1.53,1.52,2.33L138.41,62"/></g><rect class="cls-6" x="84.38" y="73.63" width="12.03" height="4" transform="translate(-27 86.07) rotate(-45)"/><rect class="cls-7" x="111.05" y="69.58" width="4" height="12.05" transform="translate(-20.35 102.08) rotate(-45)"/><rect class="cls-8" x="90.33" y="79.98" width="10" height="4" transform="translate(-30.05 91.42) rotate(-45)"/><rect class="cls-9" x="106.06" y="76.96" width="4" height="10" transform="translate(-26.3 100.42) rotate(-45)"/><path class="cls-10" d="M110.18,69.94l-2.83-2.83-5.65,5.65L96,67.12l-2.83,2.83,5.65,5.65h0a4,4,0,0,1-5.65,0h0a4,4,0,0,0-5.65,0h0l-5.65,5.65,2.83,2.83,5.65,5.65,2.83-2.83-5.65-5.65h0a4,4,0,0,1,5.65,0h0a4,4,0,0,0,5.65,0h0a4,4,0,0,1,5.65,0h0a4,4,0,0,0,5.65,0h0a4,4,0,0,1,5.65,0h0l-5.65,5.65L113,89.74l5.65-5.65,2.83-2.83-2.83-2.83-2.83-2.83h0a4,4,0,0,0-5.65,0h0a4,4,0,0,1-5.65,0h0Z"/><path class="cls-11" d="M116.79,87.61a9.41,9.41,0,0,0,0-18.82"/><path class="cls-12" d="M87.05,68.79a9.41,9.41,0,0,0,0,18.82"/><path class="cls-13" d="M76.15,91"/><path class="cls-14" d="M92.51,93.07a9.41,9.41,0,1,0,18.82,0"/><path class="cls-15" d="M129.52,92.5a9.41,9.41,0,1,0-13.31,13.31"/><path class="cls-16" d="M74.32,63.91A9.41,9.41,0,1,0,87.62,50.6"/><path class="cls-17" d="M111.33,63.34a9.41,9.41,0,1,0-18.82,0"/><g class="cls-18"><path class="cls-19" d="M99.8,47.11c-.29,0-.72-.12-1.16-.18l-1.17-.07a4.72,4.72,0,0,1,1.65-.42c.85-.1,1.9-.2,2.8-.32,1.22-.28-.2-.86-1.14-.71a22.58,22.58,0,0,0-6.32,1.13,20,20,0,0,0-2.59,1,12.5,12.5,0,0,0-1.57.95c-.8.4,2.32-.45,5.17-1,.85-.24,1.72-.43,2.59-.65"/><path class="cls-20" d="M76.49,100.33l1.25,1.14-1.43-1.8c-.45-.61-.83-1.28-1.27-1.95l-.65-1-.59-1.14A24.7,24.7,0,0,1,72.59,93c-.62-1.4-.65-.43-.34.79-.52-1-1-1.75-1.4-2.44s-.66-1.33-1-1.9a21.52,21.52,0,0,1-1.52-3.5,34.81,34.81,0,0,0,7.5,13.3A11.27,11.27,0,0,0,76.49,100.33Z"/><path class="cls-21" d="M132.36,87.13c-.36,1.12-.9,2.19-1.34,3.29s-1.1,2.1-1.73,3.1A32.48,32.48,0,0,1,110,108a34.4,34.4,0,0,1-22.91-1.84,1.9,1.9,0,0,1-.64-.22A32.14,32.14,0,0,0,113,107.6a32.6,32.6,0,0,0,11.35-7.31,34.11,34.11,0,0,0,7.55-11.41,8.93,8.93,0,0,0,.47-1.17l.52-2.21A15.24,15.24,0,0,0,132.36,87.13Z"/><path class="cls-22" d="M124.78,54.21a15,15,0,0,1,1,1.54A28.25,28.25,0,0,1,133,67.28a33.69,33.69,0,0,1,1.38,14.54,7.73,7.73,0,0,1-.55,1.66c-.24.57-.49,1.21-.86,2l-.52,2.21a8.93,8.93,0,0,1-.47,1.17,34.11,34.11,0,0,1-7.55,11.41A32.6,32.6,0,0,1,113,107.6,32.14,32.14,0,0,1,86.46,106c-.67-.33-1.47-.81-.91-.53l-.72-.39-.76-.43L83.2,104a21,21,0,0,1-1.79-1.39,11.61,11.61,0,0,1-1.22-1.33c.53.51,1,1,1.55,1.46L83.38,104c.28.2.55.41.84.6l.93.54c.64.35,1.27.77,2,1.1H87.1A34.4,34.4,0,0,0,110,108a32.48,32.48,0,0,0,19.27-14.53,32.2,32.2,0,0,1-6.2,7.19,30.65,30.65,0,0,1-8.1,5.12,31.83,31.83,0,0,1-9.41,2.57,36,36,0,0,1-10-.32,27.63,27.63,0,0,1-11.3-4.68l-1.64-1.28c-.53-.42-1-.89-1.48-1.32a31.56,31.56,0,0,1-2.66-2.68,16.4,16.4,0,0,1-1.16-1.45c-.36-.5-.77-1-1.09-1.52a21.36,21.36,0,0,1-1.78-3.46c-.24-.63-.49-1.21-.65-1.79l-.39-1.71a24.36,24.36,0,0,1-.43-3.29,13.28,13.28,0,0,1-.1-1.73c0-.6,0-1.22-.09-1.89s0-1.37,0-2.13a22.09,22.09,0,0,1,.08-2.45c0-.54,0-1,0-1.39V74.21a10.09,10.09,0,0,1,.2-2.5c.44-2.19,2-4.49,2.24-5.25A36.88,36.88,0,0,1,81.6,56.06c1.09-1.33,3-2.61,3.08-3,.28-.69-.82-.28,1.86-2-.55.19-1.46.65-2.22,1s-1.28.77-1.22.6c.26-.27.57-.57.91-.88s.75-.56,1.13-.84c.77-.55,1.51-1.11,2.06-1.45A18.34,18.34,0,0,0,85,50.56a17.28,17.28,0,0,0-2.08,1.25c-.51.36-1,.7-1.43,1-.83.57-1.55,1.22-2.28,1.77l-.36.39A29.12,29.12,0,0,0,76,57.46c-.41.64-1.08,1.44-1.68,2.23a12.27,12.27,0,0,0-1.21,2.16c0-.18-.07-.22-.19-.15a23.06,23.06,0,0,0-1.3,2.66c-.18.25-.49.62-.73,1l-.65,1.06-.47,1.73-.19,1.06a6.17,6.17,0,0,1-1,1.92,30.38,30.38,0,0,0-.34,3.05,12.91,12.91,0,0,0-.72,3.37c-.07,1.5.06,2.9,0,4.1.14,1.08.3,2.14.49,3.11a9.61,9.61,0,0,0,.33,1.17,21.52,21.52,0,0,0,1.52,3.5c.3.57.61,1.19,1,1.9s.87,1.48,1.4,2.44c-.32-1.22-.29-2.18.34-.79a24.7,24.7,0,0,0,1.22,2.55l.59,1.14.65,1c.43.67.82,1.34,1.27,1.95l1.43,1.8c1.62,1.33,3.1,2.36,4.72,3.47l.33.36a9.61,9.61,0,0,0,.67.71l1.22.69c2.53,1.22,4.88,2.07,7.56,3.22a36,36,0,0,0,7.52,1.26c.92-.06,1.83,0,2.65-.15a6.69,6.69,0,0,1,1.9-.13c.35,0,.7,0,1,.07l.85,0,2.26-.34c1.12-.34,2.27-.72,3.41-1.12s2.24-.91,3.27-1.43a18.45,18.45,0,0,0,1.77-1.35,2.83,2.83,0,0,1-1,1c.5-.25,1-.49,1.47-.71s.9-.5,1.32-.71c.83-.45,1.63-.73,2.24-1l1.4-1.24a9.34,9.34,0,0,0,.95-.48,37.3,37.3,0,0,0,6.51-8.36c.21-.41-.2.41-.46,1.08-.12.34-.26.6-.21.68s.27,0,.67-.6a28.63,28.63,0,0,0,4.2-8.28c.3-1,.6-2,.9-2.9s.37-2.07.53-3.16a34.94,34.94,0,0,0-1.44-13.84,34.63,34.63,0,0,0-32-24A34.89,34.89,0,0,1,114,47,33.75,33.75,0,0,1,124.78,54.21Z"/></g><path class="cls-23" d="M87.62,105.81A9.41,9.41,0,1,0,74.32,92.5"/><path class="cls-24" d="M116.22,50.6a9.41,9.41,0,1,0,13.31,13.31"/><path class="cls-25" d="M92.51,98.42a9.41,9.41,0,1,0,18.82,0"/><path class="cls-26" d="M111.33,58a9.41,9.41,0,1,0-18.82,0"/><path class="cls-11" d="M116.79,87.61a9.41,9.41,0,0,0,0-18.82"/><path class="cls-27" d="M81.73,68.82a9.41,9.41,0,1,0,0,18.82"/><path class="cls-28" d="M122.11,87.64a9.41,9.41,0,0,0,0-18.82"/><rect class="cls-29" x="0.01" y="150" width="200" height="50"/><rect class="cls-30" y="186.58" width="200" height="13.42"/><rect class="cls-30" width="200" height="13.42"/><path class="cls-10" d="M52.51,173.15a2.92,2.92,0,0,1-.94-.13,1.45,1.45,0,0,1-.61-.38,1.53,1.53,0,0,1-.34-.63,3.19,3.19,0,0,1-.11-.87v-3.37a3.18,3.18,0,0,1,.11-.87,1.53,1.53,0,0,1,.34-.63,1.45,1.45,0,0,1,.61-.38,2.92,2.92,0,0,1,.94-.13H58v1.45H52.5a.9.9,0,0,0-.58.16.57.57,0,0,0-.18.46v3.25a.57.57,0,0,0,.18.46.9.9,0,0,0,.58.16h4.28v-2.17h-4v-1.35h4.61a.53.53,0,0,1,.42.21.79.79,0,0,1,.18.51v4.24Z"/><path class="cls-10" d="M59,173.15v-7.39h5.46a2.92,2.92,0,0,1,.93.13,1.45,1.45,0,0,1,.62.38,1.54,1.54,0,0,1,.34.63,3.18,3.18,0,0,1,.11.87v.73a3.18,3.18,0,0,1-.11.87A1.54,1.54,0,0,1,66,170a1.45,1.45,0,0,1-.62.39,3,3,0,0,1-.93.13H63.5l3.09,2.64H64.46l-2.86-2.64H60.14v2.64Zm1.19-3.94h4.28a.9.9,0,0,0,.58-.15.57.57,0,0,0,.18-.46v-.76a.57.57,0,0,0-.18-.46.9.9,0,0,0-.58-.16H60.14Z"/><path class="cls-10" d="M67.19,173.15v-4.88a2.72,2.72,0,0,1,.58-1.86,2.23,2.23,0,0,1,1.75-.65h2.79a2.23,2.23,0,0,1,1.75.65,2.72,2.72,0,0,1,.58,1.86v4.88H73.45v-2.36H68.37v2.36Zm1.19-3.71h5.08v-1.17a1.8,1.8,0,0,0-.05-.46.73.73,0,0,0-.19-.33.82.82,0,0,0-.36-.2,2,2,0,0,0-.56-.07H69.53a2,2,0,0,0-.56.07.82.82,0,0,0-.36.2.73.73,0,0,0-.19.33,1.77,1.77,0,0,0-.05.46Z"/><path class="cls-10" d="M75.7,173.15v-7.39h5.46a2.92,2.92,0,0,1,.93.13,1.45,1.45,0,0,1,.62.38,1.54,1.54,0,0,1,.34.63,3.18,3.18,0,0,1,.11.87v1a3.19,3.19,0,0,1-.11.87,1.54,1.54,0,0,1-.34.63,1.45,1.45,0,0,1-.62.38,2.92,2.92,0,0,1-.93.13H76.89v2.41Zm1.19-3.76h4.28a.9.9,0,0,0,.58-.16.57.57,0,0,0,.18-.46v-.94a.57.57,0,0,0-.18-.46.9.9,0,0,0-.58-.16H76.89Z"/><path class="cls-10" d="M83.9,173.15v-7.39h1.19v2.37h5.09v-2.37h1.19v7.39H90.17v-3.67H85.09v3.67Z"/><path class="cls-10" d="M92.5,173.15v-7.39h1.19v7.39Z"/><path class="cls-10" d="M96.8,173.15a2.92,2.92,0,0,1-.94-.13,1.45,1.45,0,0,1-.61-.38,1.53,1.53,0,0,1-.34-.63,3.19,3.19,0,0,1-.11-.87v-3.37a3.18,3.18,0,0,1,.11-.87,1.53,1.53,0,0,1,.34-.63,1.45,1.45,0,0,1,.61-.38,2.92,2.92,0,0,1,.94-.13h5.44v1.45H96.79a.9.9,0,0,0-.58.16.57.57,0,0,0-.18.46v3.25a.57.57,0,0,0,.18.46.9.9,0,0,0,.58.16h5.46v1.45Z"/><path class="cls-10" d="M106.15,173.15v-7.39h5.45a2.93,2.93,0,0,1,.93.13,1.45,1.45,0,0,1,.62.38,1.54,1.54,0,0,1,.34.63,3.18,3.18,0,0,1,.11.87v3.37a3.19,3.19,0,0,1-.11.87,1.54,1.54,0,0,1-.34.63,1.45,1.45,0,0,1-.62.38,2.93,2.93,0,0,1-.93.13Zm1.19-1.45h4.27a.9.9,0,0,0,.58-.16.57.57,0,0,0,.18-.46v-3.25a.57.57,0,0,0-.18-.46.9.9,0,0,0-.58-.16h-4.27Z"/><path class="cls-10" d="M114.64,173.15v-7.39h7.44v1.45h-6.25v1h5.11v1.35h-5.11v2.17h6.27v1.45Z"/><path class="cls-10" d="M123,173.15V171.7h5.23a.9.9,0,0,0,.58-.16.57.57,0,0,0,.18-.46v-.76a.57.57,0,0,0-.18-.46.9.9,0,0,0-.58-.16h-3.48q-1.75,0-1.75-1.59v-.93q0-1.42,1.73-1.42h5.24v1.45h-5.28a.73.73,0,0,0-.37.07.23.23,0,0,0-.1.21v.44a.3.3,0,0,0,.1.26.66.66,0,0,0,.38.07h3.53a2.92,2.92,0,0,1,.93.13,1.44,1.44,0,0,1,.62.38,1.53,1.53,0,0,1,.34.63,3.18,3.18,0,0,1,.11.87v.88a3.19,3.19,0,0,1-.11.87,1.53,1.53,0,0,1-.34.63,1.45,1.45,0,0,1-.62.38,2.92,2.92,0,0,1-.93.13Z"/><path class="cls-10" d="M131.28,173.15v-7.39h1.19v7.39Z"/><path class="cls-10" d="M135.57,173.15a2.92,2.92,0,0,1-.94-.13,1.45,1.45,0,0,1-.61-.38,1.53,1.53,0,0,1-.34-.63,3.19,3.19,0,0,1-.11-.87v-3.37a3.18,3.18,0,0,1,.11-.87,1.53,1.53,0,0,1,.34-.63,1.45,1.45,0,0,1,.61-.38,2.92,2.92,0,0,1,.94-.13H141v1.45h-5.45a.9.9,0,0,0-.58.16.57.57,0,0,0-.18.46v3.25a.57.57,0,0,0,.18.46.9.9,0,0,0,.58.16h4.28v-2.17h-4v-1.35h4.61a.53.53,0,0,1,.42.21.79.79,0,0,1,.18.51v4.24Z"/><path class="cls-10" d="M142,173.15V166.4a.81.81,0,0,1,.17-.54.5.5,0,0,1,.39-.2.59.59,0,0,1,.2,0,.57.57,0,0,1,.2.13l5.31,5.24v-5.31h1.19v6.76a.81.81,0,0,1-.17.54.5.5,0,0,1-.39.2.59.59,0,0,1-.2,0,.57.57,0,0,1-.2-.13l-5.31-5.24v5.3Z"/></g></g></svg>