<svg xmlns="http://www.w3.org/2000/svg" viewBox="0 0 245.96 268.97"><defs><style>.cls-1{fill:#fff;}.cls-2{fill:none;stroke:#fff;stroke-miterlimit:10;stroke-width:8.79px;}.cls-3{fill:#1a1a1a;}</style></defs><title>gd_btn</title><g id="Layer_2" data-name="Layer 2"><g id="Layer_1-2" data-name="Layer 1"><path class="cls-1" d="M16.81,268.85a7.53,7.53,0,0,1-1.59-.14,2.87,2.87,0,0,1-1-.42,1.65,1.65,0,0,1-.58-.69,2.34,2.34,0,0,1-.18-1v-3.71a2.34,2.34,0,0,1,.18-1,1.64,1.64,0,0,1,.58-.69,2.87,2.87,0,0,1,1-.42,7.53,7.53,0,0,1,1.59-.14H26v1.59H16.8a2.16,2.16,0,0,0-1,.17.55.55,0,0,0-.31.51v3.57a.55.55,0,0,0,.31.51,2.16,2.16,0,0,0,1,.17h7.26v-2.39H17.23v-1.48h7.83a1.12,1.12,0,0,1,.71.24.7.7,0,0,1,.3.57v4.66Z"/><path class="cls-1" d="M27.72,268.85v-5.37a2.38,2.38,0,0,1,1-2,5,5,0,0,1,3-.71H36.4a5,5,0,0,1,3,.71,2.38,2.38,0,0,1,1,2v5.37h-2v-2.6H29.73v2.6Zm2-4.08h8.62v-1.29a1.33,1.33,0,0,0-.09-.51.81.81,0,0,0-.32-.36,1.69,1.69,0,0,0-.6-.22,5.24,5.24,0,0,0-.94-.07h-4.7a5.23,5.23,0,0,0-.94.07,1.69,1.69,0,0,0-.6.22.81.81,0,0,0-.32.36,1.31,1.31,0,0,0-.09.51Z"/><path class="cls-1" d="M42.16,268.85v-7.47a.65.65,0,0,1,.29-.58,1.18,1.18,0,0,1,.67-.19,1.75,1.75,0,0,1,.47.07,1.14,1.14,0,0,1,.43.23L51.11,267l7.09-6.14a1.14,1.14,0,0,1,.42-.23,1.72,1.72,0,0,1,.48-.07,1.18,1.18,0,0,1,.67.19.65.65,0,0,1,.29.58v7.47h-2v-5.51l-6.22,5.39a1.2,1.2,0,0,1-1.44,0l-6.22-5.39v5.51Z"/><path class="cls-1" d="M61.9,268.85v-8.13H74.51v1.59H63.91v1.07h8.67v1.48H63.91v2.39H74.54v1.59Z"/><path class="cls-1" d="M81.16,268.85v-8.13H90.4a7.56,7.56,0,0,1,1.58.14,2.88,2.88,0,0,1,1,.42,1.65,1.65,0,0,1,.58.69,2.34,2.34,0,0,1,.18,1v3.71a2.34,2.34,0,0,1-.18,1,1.66,1.66,0,0,1-.58.69,2.88,2.88,0,0,1-1,.42,7.56,7.56,0,0,1-1.58.14Zm2-1.59h7.24a2.16,2.16,0,0,0,1-.17.55.55,0,0,0,.31-.51V263a.55.55,0,0,0-.31-.51,2.16,2.16,0,0,0-1-.17H83.17Z"/><path class="cls-1" d="M95.56,268.85v-8.13h12.62v1.59H97.57v1.07h8.67v1.48H97.57v2.39H108.2v1.59Z"/><path class="cls-1" d="M117.2,268.51a1.13,1.13,0,0,1-.48.35,1.49,1.49,0,0,1-1.12,0,1.13,1.13,0,0,1-.48-.35l-6.3-7.79h2.43l4.91,6.21,4.91-6.21h2.43Z"/><path class="cls-1" d="M124.41,268.85v-8.13H137v1.59h-10.6v1.07h8.67v1.48h-8.67v2.39h10.63v1.59Z"/><path class="cls-1" d="M138.58,268.85v-8.13h2v6.53h7.15v1.59Z"/><path class="cls-1" d="M152.18,268.85a7.53,7.53,0,0,1-1.59-.14,2.88,2.88,0,0,1-1-.42,1.65,1.65,0,0,1-.58-.69,2.35,2.35,0,0,1-.18-1v-3.71a2.35,2.35,0,0,1,.18-1,1.65,1.65,0,0,1,.58-.69,2.88,2.88,0,0,1,1-.42,7.53,7.53,0,0,1,1.59-.14h5.87a7.55,7.55,0,0,1,1.58.14,2.88,2.88,0,0,1,1,.42,1.65,1.65,0,0,1,.58.69,2.35,2.35,0,0,1,.18,1v3.71a2.35,2.35,0,0,1-.18,1,1.66,1.66,0,0,1-.58.69,2.88,2.88,0,0,1-1,.42,7.55,7.55,0,0,1-1.58.14Zm-1.32-2.28a.55.55,0,0,0,.31.51,2.16,2.16,0,0,0,1,.17h5.9a2.16,2.16,0,0,0,1-.17.55.55,0,0,0,.31-.51V263a.55.55,0,0,0-.31-.51,2.16,2.16,0,0,0-1-.17h-5.9a2.16,2.16,0,0,0-1,.17.55.55,0,0,0-.31.51Z"/><path class="cls-1" d="M163.21,268.85v-8.13h9.26a7.55,7.55,0,0,1,1.58.14,2.88,2.88,0,0,1,1,.42,1.66,1.66,0,0,1,.58.69,2.35,2.35,0,0,1,.18,1V264a2.36,2.36,0,0,1-.18,1,1.66,1.66,0,0,1-.58.69,2.86,2.86,0,0,1-1,.42,7.48,7.48,0,0,1-1.58.14h-7.24v2.65Zm2-4.14h7.26a2.16,2.16,0,0,0,1-.17.55.55,0,0,0,.31-.51v-1a.55.55,0,0,0-.31-.51,2.16,2.16,0,0,0-1-.17h-7.26Z"/><path class="cls-1" d="M177.12,268.85v-7.47a.65.65,0,0,1,.29-.58,1.19,1.19,0,0,1,.67-.19,1.76,1.76,0,0,1,.47.07,1.14,1.14,0,0,1,.43.23l7.09,6.14,7.09-6.14a1.14,1.14,0,0,1,.42-.23,1.72,1.72,0,0,1,.48-.07,1.19,1.19,0,0,1,.67.19.65.65,0,0,1,.29.58v7.47h-2v-5.51l-6.22,5.39a1.19,1.19,0,0,1-1.44,0l-6.22-5.39v5.51Z"/><path class="cls-1" d="M196.85,268.85v-8.13h12.61v1.59h-10.6v1.07h8.67v1.48h-8.67v2.39h10.63v1.59Z"/><path class="cls-1" d="M211,268.85v-7.42a.71.71,0,0,1,.28-.6,1.06,1.06,0,0,1,.66-.21,1.46,1.46,0,0,1,.35,0,1.07,1.07,0,0,1,.33.14l9,5.76v-5.84h2v7.44a.71.71,0,0,1-.28.6,1.06,1.06,0,0,1-.66.21,1.46,1.46,0,0,1-.35,0,1.07,1.07,0,0,1-.33-.14L213,263v5.83Z"/><path class="cls-1" d="M230,268.85v-6.53H224.7v-1.59h12.64v1.59H232v6.53Z"/><circle class="cls-2" cx="122.98" cy="122.98" r="118.58"/><path class="cls-1" d="M187.57,100.13H58.39A16.45,16.45,0,0,0,42,116.53v32.12a16.45,16.45,0,0,0,16.4,16.4H82.61v-6.53a5.62,5.62,0,0,1,5.6-5.6h67.87a5.62,5.62,0,0,1,5.6,5.6v6.53h25.88a16.45,16.45,0,0,0,16.4-16.4V116.53A16.45,16.45,0,0,0,187.57,100.13Z"/><rect class="cls-3" x="166.62" y="137.53" width="15.4" height="15.4" rx="7.7" ry="7.7"/><rect class="cls-3" x="166.62" y="112.26" width="15.4" height="15.4" rx="7.7" ry="7.7"/><rect class="cls-3" x="153.98" y="124.9" width="15.4" height="15.4" rx="7.7" ry="7.7"/><rect class="cls-3" x="103.85" y="128.75" width="15.4" height="7.7" rx="1.97" ry="1.97"/><rect class="cls-1" x="118.3" y="91.14" width="7.7" height="15.4" rx="1.97" ry="1.97" transform="translate(220.98 -23.31) rotate(90)"/><path class="cls-1" d="M126,50.68l1.79,8.54a66.79,66.79,0,0,1,0,27.48L126,95.23a3.62,3.62,0,0,1-3.61,3.61h-.48a3.62,3.62,0,0,1-3.61-3.61l1.79-8.54a66.79,66.79,0,0,0,0-27.48l-1.79-8.54C118.3,48.69,126,48.69,126,50.68Z"/><rect class="cls-1" x="68.98" y="86.71" width="7.7" height="24.26" rx="2.47" ry="2.47" transform="translate(171.67 26) rotate(90)"/><rect class="cls-1" x="170.47" y="86.2" width="7.7" height="25.27" rx="2.52" ry="2.52" transform="translate(273.15 -75.48) rotate(90)"/><rect class="cls-3" x="125.04" y="128.75" width="15.4" height="7.7" rx="1.97" ry="1.97"/><path class="cls-3" d="M64.55,127.58V117.17A1.32,1.32,0,0,1,66,116H70.8a1.32,1.32,0,0,1,1.45,1.13v10.41a1,1,0,0,1-.41.79l-2.39,1.94a1.75,1.75,0,0,1-2.1,0L65,128.37A1,1,0,0,1,64.55,127.58Z"/><rect class="cls-3" x="179.25" y="124.9" width="15.4" height="15.4" rx="7.7" ry="7.7"/><path class="cls-3" d="M72.25,137.61V148a1.32,1.32,0,0,1-1.45,1.13H66A1.32,1.32,0,0,1,64.55,148V137.61a1,1,0,0,1,.41-.79l2.39-1.94a1.75,1.75,0,0,1,2.1,0l2.39,1.94A1,1,0,0,1,72.25,137.61Z"/><path class="cls-3" d="M73.42,128.75H83.83A1.32,1.32,0,0,1,85,130.2V135a1.32,1.32,0,0,1-1.13,1.45H73.42a1,1,0,0,1-.79-.41l-1.94-2.39a1.75,1.75,0,0,1,0-2.1l1.94-2.39A1,1,0,0,1,73.42,128.75Z"/><path class="cls-3" d="M63.39,136.45H53A1.32,1.32,0,0,1,51.84,135V130.2A1.32,1.32,0,0,1,53,128.75H63.39a1,1,0,0,1,.79.41l1.94,2.39a1.75,1.75,0,0,1,0,2.1L64.17,136A1,1,0,0,1,63.39,136.45Z"/></g></g></svg>