<svg xmlns="http://www.w3.org/2000/svg" viewBox="0 0 200 200"><defs><style>.cls-1{fill:#1a1a1a;}.cls-2{fill:none;stroke:#fff;stroke-miterlimit:10;stroke-width:4.45px;}.cls-3,.cls-5{fill:#fff;}.cls-4{fill:gray;}.cls-4,.cls-5{opacity:0.5;}</style></defs><title>gdAlt_btn</title><g id="Layer_2" data-name="Layer 2"><g id="Layer_1-2" data-name="Layer 1"><rect class="cls-1" width="200" height="200"/><circle class="cls-2" cx="100.11" cy="82.16" r="60"/><path class="cls-3" d="M132.79,70.6H67.43a8.32,8.32,0,0,0-8.3,8.3V95.15a8.32,8.32,0,0,0,8.3,8.3H79.68v-3.3a2.84,2.84,0,0,1,2.83-2.83h34.34a2.84,2.84,0,0,1,2.83,2.83v3.3h13.1a8.32,8.32,0,0,0,8.3-8.3V78.9A8.32,8.32,0,0,0,132.79,70.6Z"/><rect class="cls-1" x="122.19" y="89.52" width="7.79" height="7.79" rx="3.9" ry="3.9"/><rect class="cls-1" x="122.19" y="76.74" width="7.79" height="7.79" rx="3.9" ry="3.9"/><rect class="cls-1" x="115.79" y="83.13" width="7.79" height="7.79" rx="3.9" ry="3.9"/><rect class="cls-1" x="90.43" y="85.08" width="7.79" height="3.9" rx="1.95" ry="1.95"/><rect class="cls-3" x="97.74" y="66.05" width="3.9" height="7.79" rx="1.95" ry="1.95" transform="translate(169.63 -29.74) rotate(90)"/><path class="cls-3" d="M101.63,45.57l.91,4.32a33.8,33.8,0,0,1,0,13.9l-.91,4.32a1.83,1.83,0,0,1-1.83,1.83h-.24a1.83,1.83,0,0,1-1.83-1.83l.91-4.32a33.8,33.8,0,0,0,0-13.9l-.91-4.32C97.74,44.57,101.63,44.57,101.63,45.57Z"/><rect class="cls-3" x="72.79" y="63.81" width="3.9" height="12.27" rx="1.95" ry="1.95" transform="translate(144.68 -4.79) rotate(90)"/><rect class="cls-3" x="124.14" y="63.55" width="3.9" height="12.79" rx="1.95" ry="1.95" transform="translate(196.03 -56.14) rotate(90)"/><rect class="cls-1" x="101.15" y="85.08" width="7.79" height="3.9" rx="1.95" ry="1.95"/><path class="cls-1" d="M70.54,84.49V79.22a.67.67,0,0,1,.74-.57H73.7a.67.67,0,0,1,.74.57v5.27a.52.52,0,0,1-.21.4l-1.21,1a.89.89,0,0,1-1.06,0l-1.21-1A.52.52,0,0,1,70.54,84.49Z"/><rect class="cls-1" x="128.58" y="83.13" width="7.79" height="7.79" rx="3.9" ry="3.9"/><path class="cls-1" d="M74.44,89.56v5.27a.67.67,0,0,1-.74.57H71.28a.67.67,0,0,1-.74-.57V89.56a.52.52,0,0,1,.21-.4l1.21-1a.89.89,0,0,1,1.06,0l1.21,1A.52.52,0,0,1,74.44,89.56Z"/><path class="cls-1" d="M75,85.08H80.3a.67.67,0,0,1,.57.74v2.42a.67.67,0,0,1-.57.74H75a.52.52,0,0,1-.4-.21l-1-1.21a.89.89,0,0,1,0-1.06l1-1.21A.52.52,0,0,1,75,85.08Z"/><path class="cls-1" d="M70,89H64.69a.67.67,0,0,1-.57-.74V85.81a.67.67,0,0,1,.57-.74H70a.52.52,0,0,1,.4.21l1,1.21a.89.89,0,0,1,0,1.06l-1,1.21A.52.52,0,0,1,70,89Z"/><rect class="cls-4" y="150" width="200" height="50"/><path class="cls-3" d="M36.2,175a2.92,2.92,0,0,1-.94-.13,1.45,1.45,0,0,1-.61-.38,1.53,1.53,0,0,1-.34-.63,3.19,3.19,0,0,1-.11-.87v-3.37a3.18,3.18,0,0,1,.11-.87,1.53,1.53,0,0,1,.34-.63,1.45,1.45,0,0,1,.61-.38,2.92,2.92,0,0,1,.94-.13h5.44v1.45H36.19a.9.9,0,0,0-.58.16.57.57,0,0,0-.18.46v3.25a.57.57,0,0,0,.18.46.9.9,0,0,0,.58.16h4.28v-2.17h-4V170h4.61a.53.53,0,0,1,.42.21.79.79,0,0,1,.18.51V175Z"/><path class="cls-3" d="M42.63,175v-4.88a2.72,2.72,0,0,1,.58-1.86,2.23,2.23,0,0,1,1.75-.65h2.79a2.23,2.23,0,0,1,1.75.65,2.72,2.72,0,0,1,.58,1.86V175H48.9v-2.36H43.82V175Zm1.19-3.71H48.9v-1.17a1.8,1.8,0,0,0-.05-.46.73.73,0,0,0-.19-.33.82.82,0,0,0-.36-.2,2,2,0,0,0-.56-.07H45a2,2,0,0,0-.56.07.82.82,0,0,0-.36.2.73.73,0,0,0-.19.33,1.77,1.77,0,0,0-.05.46Z"/><path class="cls-3" d="M51.14,175v-6.79a.72.72,0,0,1,.17-.53.54.54,0,0,1,.39-.17.7.7,0,0,1,.28.06.64.64,0,0,1,.25.21l4.18,5.58,4.18-5.58a.64.64,0,0,1,.25-.21.67.67,0,0,1,.28-.07.54.54,0,0,1,.39.17.72.72,0,0,1,.17.53V175H60.51v-5l-3.66,4.9a.52.52,0,0,1-.85,0L52.33,170v5Z"/><path class="cls-3" d="M62.78,175v-7.39h7.44v1.45H64v1h5.11v1.35H64v2.17h6.27V175Z"/><path class="cls-3" d="M74.13,175v-7.39h5.45a2.93,2.93,0,0,1,.93.13,1.45,1.45,0,0,1,.62.38,1.54,1.54,0,0,1,.34.63,3.18,3.18,0,0,1,.11.87V173a3.19,3.19,0,0,1-.11.87,1.54,1.54,0,0,1-.34.63,1.45,1.45,0,0,1-.62.38,2.93,2.93,0,0,1-.93.13Zm1.19-1.45h4.27a.9.9,0,0,0,.58-.16.57.57,0,0,0,.18-.46v-3.25a.57.57,0,0,0-.18-.46.9.9,0,0,0-.58-.16H75.32Z"/><path class="cls-3" d="M82.62,175v-7.39h7.44v1.45H83.81v1h5.11v1.35H83.81v2.17h6.27V175Z"/><path class="cls-3" d="M95.37,174.69a.78.78,0,0,1-.28.32.6.6,0,0,1-.66,0,.77.77,0,0,1-.28-.32l-3.71-7.08h1.43l2.9,5.65,2.9-5.65h1.43Z"/><path class="cls-3" d="M99.63,175v-7.39h7.44v1.45h-6.25v1h5.11v1.35h-5.11v2.17h6.27V175Z"/><path class="cls-3" d="M108,175v-7.39h1.19v5.94h4.21V175Z"/><path class="cls-3" d="M116,175a2.92,2.92,0,0,1-.94-.13,1.45,1.45,0,0,1-.61-.38,1.53,1.53,0,0,1-.34-.63A3.19,3.19,0,0,1,114,173v-3.37a3.18,3.18,0,0,1,.11-.87,1.53,1.53,0,0,1,.34-.63,1.45,1.45,0,0,1,.61-.38,2.92,2.92,0,0,1,.94-.13h3.46a2.92,2.92,0,0,1,.93.13,1.45,1.45,0,0,1,.62.38,1.54,1.54,0,0,1,.34.63,3.18,3.18,0,0,1,.11.87V173a3.19,3.19,0,0,1-.11.87,1.54,1.54,0,0,1-.34.63,1.45,1.45,0,0,1-.62.38,2.92,2.92,0,0,1-.93.13Zm-.78-2.07a.57.57,0,0,0,.18.46.9.9,0,0,0,.58.16h3.48a.9.9,0,0,0,.58-.16.57.57,0,0,0,.18-.46v-3.25a.57.57,0,0,0-.18-.46.9.9,0,0,0-.58-.16H116a.9.9,0,0,0-.58.16.57.57,0,0,0-.18.46Z"/><path class="cls-3" d="M122.5,175v-7.39H128a2.92,2.92,0,0,1,.93.13,1.45,1.45,0,0,1,.62.38,1.54,1.54,0,0,1,.34.63,3.18,3.18,0,0,1,.11.87v1a3.19,3.19,0,0,1-.11.87,1.54,1.54,0,0,1-.34.63,1.45,1.45,0,0,1-.62.38,2.92,2.92,0,0,1-.93.13h-4.27V175Zm1.19-3.76H128a.9.9,0,0,0,.58-.16.57.57,0,0,0,.18-.46v-.94a.57.57,0,0,0-.18-.46.9.9,0,0,0-.58-.16h-4.28Z"/><path class="cls-3" d="M130.7,175v-6.79a.72.72,0,0,1,.17-.53.54.54,0,0,1,.39-.17.7.7,0,0,1,.28.06.64.64,0,0,1,.25.21l4.18,5.58,4.18-5.58a.64.64,0,0,1,.25-.21.67.67,0,0,1,.28-.07.54.54,0,0,1,.39.17.72.72,0,0,1,.17.53V175h-1.19v-5l-3.66,4.9a.52.52,0,0,1-.85,0l-3.66-4.9v5Z"/><path class="cls-3" d="M142.33,175v-7.39h7.44v1.45h-6.25v1h5.11v1.35h-5.11v2.17h6.27V175Z"/><path class="cls-3" d="M150.68,175v-6.75a.81.81,0,0,1,.17-.54.5.5,0,0,1,.39-.2.59.59,0,0,1,.2,0,.57.57,0,0,1,.2.13l5.31,5.24v-5.31h1.19v6.76a.81.81,0,0,1-.17.54.5.5,0,0,1-.39.2.59.59,0,0,1-.2,0,.57.57,0,0,1-.2-.13l-5.31-5.24V175Z"/><path class="cls-3" d="M161.88,175v-5.94h-3.13v-1.45h7.45v1.45h-3.13V175Z"/><rect class="cls-5" y="186.58" width="200" height="13.42"/><rect class="cls-5" width="200" height="13.42"/></g></g></svg>