<svg xmlns="http://www.w3.org/2000/svg" viewBox="0 0 260.11 269.19"><defs><style>.cls-1{fill:#fff;}.cls-2,.cls-3,.cls-5{fill:none;stroke:#fff;stroke-miterlimit:10;}.cls-2{stroke-width:8.79px;}.cls-3{stroke-width:2.44px;}.cls-4{fill:#1a1a1a;}.cls-5{stroke-width:1.73px;}</style></defs><title>ma_btn</title><g id="Layer_2" data-name="Layer 2"><g id="Layer_1-2" data-name="Layer 1"><path class="cls-1" d="M0,269.06v-8.15a.71.71,0,0,1,.32-.63,1.29,1.29,0,0,1,.73-.21,1.91,1.91,0,0,1,.51.07,1.23,1.23,0,0,1,.47.25l7.74,6.7,7.74-6.7a1.24,1.24,0,0,1,.46-.25,1.85,1.85,0,0,1,.52-.08,1.29,1.29,0,0,1,.73.21.71.71,0,0,1,.32.63v8.15h-2.2v-6l-6.78,5.88a1.31,1.31,0,0,1-1.57,0L2.2,263v6Z"/><path class="cls-1" d="M25.16,269.06a8.13,8.13,0,0,1-1.73-.16,3.11,3.11,0,0,1-1.13-.46,1.81,1.81,0,0,1-.63-.76,2.57,2.57,0,0,1-.2-1v-4a2.58,2.58,0,0,1,.2-1,1.81,1.81,0,0,1,.63-.76,3.11,3.11,0,0,1,1.13-.46,8.2,8.2,0,0,1,1.73-.16h6.4a8.22,8.22,0,0,1,1.73.16,3.11,3.11,0,0,1,1.14.46,1.81,1.81,0,0,1,.63.76,2.58,2.58,0,0,1,.2,1v4a2.57,2.57,0,0,1-.2,1,1.81,1.81,0,0,1-.63.76,3.11,3.11,0,0,1-1.14.46,8.16,8.16,0,0,1-1.73.16Zm-1.44-2.48a.6.6,0,0,0,.34.56,2.37,2.37,0,0,0,1.08.19h6.43a2.37,2.37,0,0,0,1.08-.19.6.6,0,0,0,.34-.56v-3.9a.6.6,0,0,0-.34-.56,2.37,2.37,0,0,0-1.08-.19H25.15a2.37,2.37,0,0,0-1.08.19.6.6,0,0,0-.34.56Z"/><path class="cls-1" d="M37.2,269.06v-8.87H47.49a5.64,5.64,0,0,1,2.62.46,1.5,1.5,0,0,1,.83,1.4v1.26a1,1,0,0,1-.33.76,2.09,2.09,0,0,1-.8.41,2,2,0,0,1,.84.43,1.11,1.11,0,0,1,.33.87v1.43a1.51,1.51,0,0,1-.85,1.36,5.43,5.43,0,0,1-2.63.49Zm2.2-5.36H47.6a2.59,2.59,0,0,0,.91-.11q.27-.11.27-.32v-.85q0-.24-.32-.36a2.62,2.62,0,0,0-.89-.12H39.39Zm0,3.62h8a3.06,3.06,0,0,0,1-.13.49.49,0,0,0,.33-.51v-.84q0-.28-.34-.41a2.82,2.82,0,0,0-1-.13H39.39Z"/><path class="cls-1" d="M53,269.06v-8.87h2.2v8.87Z"/><path class="cls-1" d="M57.34,269.06v-8.87h2.2v7.13h7.8v1.74Z"/><path class="cls-1" d="M68.71,269.06v-8.87H82.48v1.74H70.91v1.16h9.46v1.62H70.91v2.6h11.6v1.74Z"/><path class="cls-1" d="M89.73,269.06v-8.87H99.81a8.21,8.21,0,0,1,1.73.16,3.12,3.12,0,0,1,1.14.46,1.81,1.81,0,0,1,.63.76,2.58,2.58,0,0,1,.2,1v4a2.57,2.57,0,0,1-.2,1,1.81,1.81,0,0,1-.63.76,3.12,3.12,0,0,1-1.14.46,8.14,8.14,0,0,1-1.73.16Zm2.2-1.74h7.9a2.37,2.37,0,0,0,1.08-.19.6.6,0,0,0,.34-.56v-3.9a.6.6,0,0,0-.34-.56,2.37,2.37,0,0,0-1.08-.19h-7.9Z"/><path class="cls-1" d="M105.44,269.06v-8.87H119.2v1.74H107.64v1.16h9.46v1.62h-9.46v2.6h11.6v1.74Z"/><path class="cls-1" d="M129,268.69a1.23,1.23,0,0,1-.52.38,1.63,1.63,0,0,1-1.23,0,1.23,1.23,0,0,1-.52-.38l-6.87-8.5h2.65l5.36,6.78,5.36-6.78h2.65Z"/><path class="cls-1" d="M136.91,269.06v-8.87h13.76v1.74H139.11v1.16h9.46v1.62h-9.46v2.6h11.6v1.74Z"/><path class="cls-1" d="M152.37,269.06v-8.87h2.2v7.13h7.8v1.74Z"/><path class="cls-1" d="M167.21,269.06a8.13,8.13,0,0,1-1.73-.16,3.11,3.11,0,0,1-1.14-.46,1.8,1.8,0,0,1-.63-.76,2.56,2.56,0,0,1-.2-1v-4a2.56,2.56,0,0,1,.2-1,1.8,1.8,0,0,1,.63-.76,3.11,3.11,0,0,1,1.14-.46,8.19,8.19,0,0,1,1.73-.16h6.4a8.22,8.22,0,0,1,1.73.16,3.12,3.12,0,0,1,1.14.46,1.81,1.81,0,0,1,.63.76,2.58,2.58,0,0,1,.2,1v4a2.57,2.57,0,0,1-.2,1,1.81,1.81,0,0,1-.63.76,3.12,3.12,0,0,1-1.14.46,8.16,8.16,0,0,1-1.73.16Zm-1.44-2.48a.6.6,0,0,0,.34.56,2.37,2.37,0,0,0,1.08.19h6.43a2.37,2.37,0,0,0,1.08-.19.6.6,0,0,0,.34-.56v-3.9a.6.6,0,0,0-.34-.56,2.37,2.37,0,0,0-1.08-.19h-6.43a2.37,2.37,0,0,0-1.08.19.6.6,0,0,0-.34.56Z"/><path class="cls-1" d="M179.24,269.06v-8.87h10.1a8.22,8.22,0,0,1,1.73.16,3.12,3.12,0,0,1,1.14.46,1.81,1.81,0,0,1,.63.76,2.58,2.58,0,0,1,.2,1v1.15a2.58,2.58,0,0,1-.2,1,1.81,1.81,0,0,1-.63.76,3.14,3.14,0,0,1-1.14.46,8.22,8.22,0,0,1-1.73.16h-7.9v2.89Zm2.2-4.51h7.92a2.37,2.37,0,0,0,1.08-.19.6.6,0,0,0,.34-.56v-1.13a.6.6,0,0,0-.34-.56,2.37,2.37,0,0,0-1.08-.19h-7.92Z"/><path class="cls-1" d="M194.41,269.06v-8.15a.71.71,0,0,1,.32-.63,1.29,1.29,0,0,1,.73-.21,1.91,1.91,0,0,1,.51.07,1.22,1.22,0,0,1,.47.25l7.74,6.7,7.74-6.7a1.24,1.24,0,0,1,.46-.25,1.85,1.85,0,0,1,.52-.08,1.29,1.29,0,0,1,.73.21.71.71,0,0,1,.32.63v8.15h-2.2v-6L205,268.93a1.31,1.31,0,0,1-1.57,0L196.61,263v6Z"/><path class="cls-1" d="M215.94,269.06v-8.87H229.7v1.74H218.13v1.16h9.46v1.62h-9.46v2.6h11.6v1.74Z"/><path class="cls-1" d="M231.39,269.06V261a.77.77,0,0,1,.31-.65,1.16,1.16,0,0,1,.72-.23,1.64,1.64,0,0,1,.38,0,1.18,1.18,0,0,1,.36.16l9.83,6.29v-6.37h2.2v8.11a.78.78,0,0,1-.31.65,1.17,1.17,0,0,1-.72.23,1.58,1.58,0,0,1-.38,0,1.16,1.16,0,0,1-.36-.16l-9.83-6.29v6.36Z"/><path class="cls-1" d="M252.12,269.06v-7.13h-5.8v-1.74h13.79v1.74h-5.8v7.13Z"/><circle class="cls-2" cx="129.69" cy="122.98" r="118.58"/><path class="cls-3" d="M79.45,128.82"/><path class="cls-1" d="M168,55.1V202.66c0,4.89-3.53,8.87-7.87,8.87H97.88c-4.34,0-7.87-4-7.87-8.87V55.1h78m1.67-1.67H88.34V202.66c0,5.8,4.29,10.54,9.54,10.54H160.1c5.25,0,9.54-4.74,9.54-10.54V53.43Z"/><path class="cls-1" d="M160.1,36.41H97.88c-5.25,0-9.54,4.74-9.54,10.54v7.42h81.3V47C169.64,41.16,165.35,36.41,160.1,36.41Z"/><path class="cls-1" d="M97.88,212.26H160.1c5.25,0,9.54-5,9.54-11.1v-7.81H88.34v7.81C88.34,207.26,92.63,212.26,97.88,212.26Z"/><rect class="cls-4" x="123.51" y="196.18" width="12.29" height="12.29" rx="6.14" ry="6.14"/><rect class="cls-4" x="138.64" y="42.09" width="7.56" height="7.56" rx="3.78" ry="3.78"/><rect class="cls-4" x="113.11" y="43.03" width="12.29" height="5.67" rx="2.84" ry="2.84"/><path class="cls-5" d="M65.38,39.57"/><path class="cls-5" d="M79.72,146.06"/></g></g></svg>