<svg xmlns="http://www.w3.org/2000/svg" viewBox="0 0 261.31 271.8"><defs><style>.cls-1{font-size:12px;font-family:VenusRising-Regular, Venus Rising;}.cls-1,.cls-5{fill:#fff;}.cls-2{letter-spacing:-0.01em;}.cls-3,.cls-4,.cls-7{fill:none;stroke:#fff;stroke-miterlimit:10;}.cls-3{stroke-width:8.79px;}.cls-4{stroke-width:2.44px;}.cls-6{fill:#1a1a1a;}.cls-7{stroke-width:1.73px;}</style></defs><title>ma_btn</title><g id="Layer_2" data-name="Layer 2"><g id="Layer_1-2" data-name="Layer 1"><text class="cls-1" transform="translate(0 269.06) scale(1.26 1)">mobile deve<tspan class="cls-2" x="120.78" y="0">l</tspan><tspan x="129.66" y="0">opment</tspan></text><circle class="cls-3" cx="130.69" cy="122.98" r="118.58"/><path class="cls-4" d="M80.45,128.82"/><path class="cls-5" d="M169,55.1V202.66c0,4.89-3.53,8.87-7.87,8.87H98.88c-4.34,0-7.87-4-7.87-8.87V55.1h78m1.67-1.67H89.34V202.66c0,5.8,4.29,10.54,9.54,10.54H161.1c5.25,0,9.54-4.74,9.54-10.54V53.43Z"/><path class="cls-5" d="M161.1,36.41H98.88c-5.25,0-9.54,4.74-9.54,10.54v7.42h81.3V47C170.64,41.16,166.35,36.41,161.1,36.41Z"/><path class="cls-5" d="M98.88,212.26H161.1c5.25,0,9.54-5,9.54-11.1v-7.81H89.34v7.81C89.34,207.26,93.63,212.26,98.88,212.26Z"/><rect class="cls-6" x="124.51" y="196.18" width="12.29" height="12.29" rx="6.14" ry="6.14"/><rect class="cls-6" x="139.63" y="42.09" width="7.56" height="7.56" rx="3.78" ry="3.78"/><rect class="cls-6" x="114.11" y="43.03" width="12.29" height="5.67" rx="2.84" ry="2.84"/><path class="cls-7" d="M66.38,39.57"/><path class="cls-7" d="M80.72,146.06"/></g></g></svg>