<svg xmlns="http://www.w3.org/2000/svg" viewBox="0 0 200.02 200.33"><defs><style>.cls-1{fill:#1a1a1a;}.cls-12,.cls-13,.cls-2,.cls-3,.cls-5{fill:none;stroke:#fff;stroke-miterlimit:10;}.cls-2{stroke-width:4.45px;}.cls-3{stroke-width:1.24px;}.cls-10,.cls-11,.cls-4,.cls-6,.cls-9{fill:#fff;}.cls-5{stroke-width:0.87px;}.cls-6,.cls-7{opacity:0.5;}.cls-7{fill:gray;}.cls-10,.cls-11,.cls-8{isolation:isolate;}.cls-10,.cls-11,.cls-9{font-size:3.12px;font-family:VenusRising-Regular, Venus Rising;text-decoration:underline;}.cls-10{letter-spacing:-0.02em;}.cls-12{stroke-width:0.1px;}.cls-13{stroke-width:0.31px;}</style></defs><title>maAlt_btn</title><g id="Layer_2" data-name="Layer 2"><g id="Layer_1-2" data-name="Layer 1"><rect class="cls-1" x="0.02" y="0.33" width="200" height="200"/><circle class="cls-2" cx="100.02" cy="81.43" r="60"/><path class="cls-3" d="M74.6,84.39"/><path class="cls-4" d="M119.39,47.09v74.66a4.26,4.26,0,0,1-4,4.49H83.92a4.26,4.26,0,0,1-4-4.49V47.09h39.45m.85-.85H79.09v75.51a5.12,5.12,0,0,0,4.83,5.33H115.4a5.12,5.12,0,0,0,4.83-5.33V46.24Z"/><path class="cls-4" d="M115.4,37.63H83.92A5.12,5.12,0,0,0,79.09,43v3.75h41.14V43A5.12,5.12,0,0,0,115.4,37.63Z"/><path class="cls-4" d="M83.92,126.6H115.4c2.66,0,4.83-2.53,4.83-5.62v-4H79.09v4C79.09,124.08,81.27,126.6,83.92,126.6Z"/><rect class="cls-1" x="96.89" y="118.47" width="6.22" height="6.22" rx="2.91" ry="2.91"/><rect class="cls-1" x="104.54" y="40.5" width="3.83" height="3.83" rx="1.79" ry="1.79"/><rect class="cls-1" x="91.63" y="40.98" width="6.22" height="2.87" rx="1.34" ry="1.34"/><path class="cls-5" d="M67.48,39.23"/><path class="cls-5" d="M74.74,93.11"/><rect class="cls-6" x="0.02" y="186.58" width="200" height="13.42"/><rect class="cls-7" y="150" width="200" height="50"/><rect class="cls-6" x="0.02" width="200" height="13.42"/><g id="Layer_2-2" data-name="Layer 2"><g id="Layer_1-2-2" data-name="Layer 1-2"><g class="cls-8"><text class="cls-9" transform="translate(85.14 94.6)"><tspan xml:space="preserve">DRP </tspan></text><text class="cls-10" transform="translate(95.8 94.6)">S</text><text class="cls-11" transform="translate(98.86 94.6)">tudios</text></g><polygon class="cls-12" points="92.58 76.32 92.22 74.92 93.09 71.72 93.9 70.48 93.37 67.91 93.59 67.12 95.7 67.99 97.88 66.28 100.04 65.77 102.4 65.86 105.03 64.76 106.27 65.16 107.25 67.32 107.28 69 108.45 70.88 109.13 73.18 108.9 76.26 108.37 79.76 108.06 80.66 106.35 82.34 103.55 84.67 100.86 86.41 99.54 86.55 98.58 86.27 98.33 85.43 98.44 85.09 97.86 84.52 98.54 84.27 98.05 82.22 97 80.77 96.13 79.97 95.19 79.81 94.46 79.89 94.39 80.19 93.22 80.05 92.33 78.67 92.04 77.47 92.58 76.32"/><polygon class="cls-4" points="96.94 73.88 98.16 75.33 99.64 75.77 100.56 75.47 100.86 74.89 100.62 73.14 99.91 72.28 98.21 71.23 97.83 71.44 96.73 73.39 96.94 73.88"/><polygon class="cls-4" points="93.14 74.86 92.97 74.55 93.11 73.66 93.35 73.35 93.71 73.37 93.89 73.72 93.83 74.66 93.51 74.94 93.14 74.86"/><polyline class="cls-12" points="92.57 76.32 93.3 75.42 93.34 74.88"/><polyline class="cls-12" points="98.43 85.09 98.86 85.13 99.52 85.3 100.78 84.95 101.5 83.15 101.6 81.83 100.65 78.97 99.69 78.7 97.91 79.09 97 79.01 95.18 79.81"/><polyline class="cls-4" points="94.47 79.89 93.87 79.22 93.31 78.84 92.63 77.89 92.63 77.39 93.5 77.05 94.22 77.01 94.99 77.18 95.31 77.22 95.39 77.89 95.1 78.4 94.52 78.64 94.24 79.01 94.48 79.89"/><polygon class="cls-4" points="100.49 84.56 100.65 84.14 100.08 83.85 100 83.72 99.12 83.8 98.82 83.72 98.84 84.2 98.58 84.46 98.18 84.53 98.44 84.92 98.94 85.01 99.51 85.05 99.58 84.86 100.21 84.84 100.49 84.56"/><polygon class="cls-4" points="95.21 79.8 96.12 79.97 95.96 79.77 96.51 79.47 97.11 79.85 97.17 79.36 98.05 79.43 98.44 79.23 98.52 78.95 97.91 79.09 97 79.01 95.21 79.8"/><polygon class="cls-4" points="95.1 79.8 96.01 79.97 95.86 79.77 96.41 79.47 97.01 79.85 97.06 79.36 97.95 79.43 98.34 79.23 98.41 78.95 97.81 79.09 96.89 79.01 95.1 79.8"/><circle class="cls-13" cx="100.33" cy="75.77" r="14.07"/></g></g><path class="cls-4" d="M30,173.48v-6.79a.72.72,0,0,1,.17-.53.54.54,0,0,1,.39-.17.7.7,0,0,1,.28.06.64.64,0,0,1,.25.21l4.18,5.58,4.18-5.58a.64.64,0,0,1,.25-.21A.67.67,0,0,1,40,166a.54.54,0,0,1,.39.17.72.72,0,0,1,.17.53v6.79H39.33v-5l-3.66,4.9a.52.52,0,0,1-.85,0l-3.66-4.9v5Z"/><path class="cls-4" d="M43.56,173.48a2.92,2.92,0,0,1-.94-.13A1.45,1.45,0,0,1,42,173a1.53,1.53,0,0,1-.34-.63,3.19,3.19,0,0,1-.11-.87V168.1a3.18,3.18,0,0,1,.11-.87,1.53,1.53,0,0,1,.34-.63,1.45,1.45,0,0,1,.61-.38,2.92,2.92,0,0,1,.94-.13H47a2.92,2.92,0,0,1,.93.13,1.45,1.45,0,0,1,.62.38,1.54,1.54,0,0,1,.34.63,3.18,3.18,0,0,1,.11.87v3.37a3.19,3.19,0,0,1-.11.87,1.54,1.54,0,0,1-.34.63,1.45,1.45,0,0,1-.62.38,2.92,2.92,0,0,1-.93.13Zm-.78-2.07a.57.57,0,0,0,.18.46.9.9,0,0,0,.58.16H47a.9.9,0,0,0,.58-.16.57.57,0,0,0,.18-.46v-3.25a.57.57,0,0,0-.18-.46.9.9,0,0,0-.58-.16H43.55a.9.9,0,0,0-.58.16.57.57,0,0,0-.18.46Z"/><path class="cls-4" d="M50.06,173.48v-7.39h5.56a2.15,2.15,0,0,1,1.42.38,1.45,1.45,0,0,1,.45,1.17v1a1,1,0,0,1-.18.63,1.08,1.08,0,0,1-.43.35,1,1,0,0,1,.45.35,1.24,1.24,0,0,1,.18.72v1.19a1.44,1.44,0,0,1-.46,1.13,2.09,2.09,0,0,1-1.42.41ZM51.25,169h4.43a.94.94,0,0,0,.49-.1.3.3,0,0,0,.15-.26v-.71a.33.33,0,0,0-.17-.3,1,1,0,0,0-.48-.1H51.25Zm0,3h4.34a1.13,1.13,0,0,0,.55-.1.45.45,0,0,0,.18-.43v-.7a.37.37,0,0,0-.18-.34,1,1,0,0,0-.53-.11H51.25Z"/><path class="cls-4" d="M58.62,173.48v-7.39H59.8v7.39Z"/><path class="cls-4" d="M60.95,173.48v-7.39h1.19V172h4.21v1.45Z"/><path class="cls-4" d="M67.09,173.48v-7.39h7.44v1.45H68.28v1h5.11v1.35H68.28V172h6.27v1.45Z"/><path class="cls-4" d="M78.44,173.48v-7.39h5.45a2.93,2.93,0,0,1,.93.13,1.45,1.45,0,0,1,.62.38,1.54,1.54,0,0,1,.34.63,3.18,3.18,0,0,1,.11.87v3.37a3.19,3.19,0,0,1-.11.87,1.54,1.54,0,0,1-.34.63,1.45,1.45,0,0,1-.62.38,2.93,2.93,0,0,1-.93.13ZM79.63,172H83.9a.9.9,0,0,0,.58-.16.57.57,0,0,0,.18-.46v-3.25a.57.57,0,0,0-.18-.46.9.9,0,0,0-.58-.16H79.63Z"/><path class="cls-4" d="M86.94,173.48v-7.39h7.44v1.45H88.12v1h5.11v1.35H88.12V172h6.27v1.45Z"/><path class="cls-4" d="M99.69,173.17a.78.78,0,0,1-.28.32.6.6,0,0,1-.66,0,.77.77,0,0,1-.28-.32l-3.71-7.08h1.43l2.9,5.65,2.9-5.65h1.43Z"/><path class="cls-4" d="M103.94,173.48v-7.39h7.44v1.45h-6.25v1h5.11v1.35h-5.11V172h6.27v1.45Z"/><path class="cls-4" d="M112.29,173.48v-7.39h1.19V172h4.21v1.45Z"/><path class="cls-4" d="M120.31,173.48a2.92,2.92,0,0,1-.94-.13,1.45,1.45,0,0,1-.61-.38,1.53,1.53,0,0,1-.34-.63,3.19,3.19,0,0,1-.11-.87V168.1a3.18,3.18,0,0,1,.11-.87,1.53,1.53,0,0,1,.34-.63,1.45,1.45,0,0,1,.61-.38,2.92,2.92,0,0,1,.94-.13h3.46a2.92,2.92,0,0,1,.93.13,1.45,1.45,0,0,1,.62.38,1.54,1.54,0,0,1,.34.63,3.18,3.18,0,0,1,.11.87v3.37a3.19,3.19,0,0,1-.11.87,1.54,1.54,0,0,1-.34.63,1.45,1.45,0,0,1-.62.38,2.92,2.92,0,0,1-.93.13Zm-.78-2.07a.57.57,0,0,0,.18.46.9.9,0,0,0,.58.16h3.48a.9.9,0,0,0,.58-.16.57.57,0,0,0,.18-.46v-3.25a.57.57,0,0,0-.18-.46.9.9,0,0,0-.58-.16H120.3a.9.9,0,0,0-.58.16.57.57,0,0,0-.18.46Z"/><path class="cls-4" d="M126.81,173.48v-7.39h5.46a2.92,2.92,0,0,1,.93.13,1.45,1.45,0,0,1,.62.38,1.54,1.54,0,0,1,.34.63,3.18,3.18,0,0,1,.11.87v1a3.19,3.19,0,0,1-.11.87,1.54,1.54,0,0,1-.34.63,1.45,1.45,0,0,1-.62.38,2.92,2.92,0,0,1-.93.13H128v2.41Zm1.19-3.76h4.28a.9.9,0,0,0,.58-.16.57.57,0,0,0,.18-.46v-.94a.57.57,0,0,0-.18-.46.9.9,0,0,0-.58-.16H128Z"/><path class="cls-4" d="M135,173.48v-6.79a.72.72,0,0,1,.17-.53.54.54,0,0,1,.39-.17.7.7,0,0,1,.28.06.64.64,0,0,1,.25.21l4.18,5.58,4.18-5.58a.64.64,0,0,1,.25-.21A.67.67,0,0,1,145,166a.54.54,0,0,1,.39.17.72.72,0,0,1,.17.53v6.79h-1.19v-5l-3.66,4.9a.52.52,0,0,1-.85,0l-3.66-4.9v5Z"/><path class="cls-4" d="M146.64,173.48v-7.39h7.44v1.45h-6.25v1h5.11v1.35h-5.11V172h6.27v1.45Z"/><path class="cls-4" d="M155,173.48v-6.75a.81.81,0,0,1,.17-.54.5.5,0,0,1,.39-.2.59.59,0,0,1,.2,0,.57.57,0,0,1,.2.13l5.31,5.24v-5.31h1.19v6.76a.81.81,0,0,1-.17.54.5.5,0,0,1-.39.2.59.59,0,0,1-.2,0,.57.57,0,0,1-.2-.13l-5.31-5.24v5.3Z"/><path class="cls-4" d="M166.19,173.48v-5.94h-3.13v-1.45h7.45v1.45h-3.13v5.94Z"/></g></g></svg>