<svg xmlns="http://www.w3.org/2000/svg" viewBox="0 0 200.01 200"><defs><style>.cls-1{fill:#1a1a1a;}.cls-10,.cls-12,.cls-2,.cls-3{fill:none;stroke:#fff;stroke-miterlimit:10;}.cls-2{stroke-width:1.53px;}.cls-3{stroke-width:4.45px;}.cls-4{fill:gray;}.cls-4,.cls-5{opacity:0.5;}.cls-11,.cls-5,.cls-7,.cls-8,.cls-9{fill:#fff;}.cls-6,.cls-8,.cls-9{isolation:isolate;}.cls-7,.cls-8,.cls-9{font-size:3.12px;font-family:VenusRising-Regular, Venus Rising;text-decoration:underline;}.cls-8{letter-spacing:-0.02em;}.cls-10{stroke-width:0.1px;}.cls-12{stroke-width:0.31px;}</style></defs><title>webDev_btn_1</title><g id="Layer_2" data-name="Layer 2"><g id="Layer_1-2" data-name="Layer 1"><rect class="cls-1" width="200" height="200"/><rect class="cls-2" x="58.19" y="64.01" width="86.61" height="40.98" rx="6.64" ry="6.64"/><path class="cls-2" d="M108.74,111.71H94.26c-3.55,0-3.55,0-3.55-3.36h0c0-1.85,8.83-3.36,10.79-3.36h0c2,0,10.79,1.51,10.79,3.36h0C112.29,111.71,112.29,111.71,108.74,111.71Z"/><circle class="cls-3" cx="101.5" cy="81.1" r="60"/><rect class="cls-4" y="149.67" width="200" height="50"/><rect class="cls-5" x="0.01" y="186.25" width="200" height="13.42"/><g id="Layer_2-2" data-name="Layer 2"><g id="Layer_1-2-2" data-name="Layer 1-2"><g class="cls-6"><text class="cls-7" transform="translate(86.87 100.55)"><tspan xml:space="preserve">DRP </tspan></text><text class="cls-8" transform="translate(97.53 100.55)">S</text><text class="cls-9" transform="translate(100.59 100.55)">tudios</text></g><polygon class="cls-10" points="94.31 82.27 93.95 80.87 94.82 77.67 95.63 76.44 95.1 73.86 95.32 73.08 97.43 73.95 99.61 72.24 101.77 71.73 104.13 71.82 106.76 70.72 108 71.11 108.98 73.27 109.01 74.96 110.18 76.83 110.86 79.13 110.63 82.22 110.1 85.72 109.79 86.62 108.08 88.3 105.28 90.63 102.59 92.37 101.27 92.51 100.31 92.23 100.06 91.39 100.17 91.05 99.59 90.47 100.27 90.22 99.78 88.18 98.73 86.73 97.86 85.93 96.92 85.77 96.19 85.85 96.12 86.14 94.95 86 94.06 84.63 93.77 83.42 94.31 82.27"/><polygon class="cls-11" points="98.68 79.83 99.89 81.29 101.37 81.73 102.29 81.43 102.59 80.84 102.36 79.1 101.64 78.24 99.94 77.19 99.56 77.39 98.47 79.35 98.68 79.83"/><polygon class="cls-11" points="94.87 80.81 94.7 80.51 94.84 79.61 95.08 79.31 95.44 79.33 95.63 79.68 95.56 80.61 95.24 80.9 94.87 80.81"/><polyline class="cls-10" points="94.3 82.27 95.03 81.38 95.07 80.83"/><polyline class="cls-10" points="100.16 91.05 100.6 91.08 101.25 91.26 102.51 90.91 103.23 89.11 103.33 87.78 102.38 84.92 101.42 84.66 99.64 85.05 98.73 84.97 96.91 85.77"/><polyline class="cls-11" points="96.2 85.85 95.6 85.18 95.04 84.8 94.36 83.84 94.36 83.35 95.23 83.01 95.96 82.97 96.72 83.14 97.04 83.18 97.12 83.85 96.83 84.36 96.25 84.6 95.97 84.97 96.21 85.84"/><polygon class="cls-11" points="102.22 90.52 102.38 90.1 101.82 89.8 101.73 89.68 100.85 89.76 100.55 89.68 100.57 90.15 100.32 90.42 99.91 90.49 100.17 90.88 100.67 90.97 101.24 91.01 101.31 90.81 101.94 90.8 102.22 90.52"/><polygon class="cls-11" points="96.94 85.76 97.85 85.93 97.69 85.72 98.24 85.43 98.84 85.81 98.9 85.32 99.78 85.39 100.17 85.19 100.25 84.91 99.64 85.05 98.73 84.97 96.94 85.76"/><polygon class="cls-11" points="96.83 85.76 97.74 85.93 97.59 85.72 98.14 85.43 98.74 85.81 98.8 85.32 99.68 85.39 100.07 85.19 100.14 84.91 99.54 85.05 98.63 84.97 96.83 85.76"/><circle class="cls-12" cx="102.06" cy="81.73" r="14.07"/></g></g><path class="cls-11" d="M35.75,173.15a3.87,3.87,0,0,1-1-.12,1.67,1.67,0,0,1-.68-.35,1.33,1.33,0,0,1-.37-.57,2.37,2.37,0,0,1-.12-.78V166.5H34.9v4.79a.47.47,0,0,0,.2.42,1.16,1.16,0,0,0,.64.14h3.19V166.5h1.31v5.35h3.18a1.16,1.16,0,0,0,.64-.14.47.47,0,0,0,.2-.42V166.5h1.34v4.84a2.37,2.37,0,0,1-.12.78,1.33,1.33,0,0,1-.37.57,1.67,1.67,0,0,1-.68.35,3.89,3.89,0,0,1-1,.12Z"/><path class="cls-11" d="M46.78,173.15V166.5H55v1.31H48.08v.87h5.63v1.21H48.08v2H55v1.3Z"/><path class="cls-11" d="M56,173.15V166.5h6.12a2.76,2.76,0,0,1,1.56.35,1.2,1.2,0,0,1,.5,1v.95a.81.81,0,0,1-.2.57,1.19,1.19,0,0,1-.48.31,1.09,1.09,0,0,1,.5.32,1,1,0,0,1,.19.65v1.07a1.19,1.19,0,0,1-.5,1,2.67,2.67,0,0,1-1.57.37Zm1.3-4h4.88a1.24,1.24,0,0,0,.54-.08.26.26,0,0,0,.16-.24v-.64a.29.29,0,0,0-.19-.27,1.27,1.27,0,0,0-.53-.09H57.27Zm0,2.72H62a1.47,1.47,0,0,0,.6-.09.38.38,0,0,0,.2-.38v-.63a.32.32,0,0,0-.2-.31,1.35,1.35,0,0,0-.58-.1H57.27Z"/><path class="cls-11" d="M68.61,173.15V166.5h6a3.89,3.89,0,0,1,1,.12,1.67,1.67,0,0,1,.68.35,1.33,1.33,0,0,1,.37.57,2.37,2.37,0,0,1,.12.78v3a2.37,2.37,0,0,1-.12.78,1.33,1.33,0,0,1-.37.57,1.67,1.67,0,0,1-.68.35,3.89,3.89,0,0,1-1,.12Zm1.3-1.3h4.7a1.16,1.16,0,0,0,.64-.14.47.47,0,0,0,.2-.42v-2.92a.47.47,0,0,0-.2-.42,1.15,1.15,0,0,0-.64-.14h-4.7Z"/><path class="cls-11" d="M78,173.15V166.5h8.18v1.31H79.26v.87h5.63v1.21H79.26v2h6.89v1.3Z"/><path class="cls-11" d="M92,172.87a.76.76,0,0,1-.31.29.78.78,0,0,1-.73,0,.76.76,0,0,1-.31-.29l-4.09-6.37h1.58l3.19,5.08,3.19-5.08h1.58Z"/><path class="cls-11" d="M96.66,173.15V166.5h8.18v1.31H98v.87h5.63v1.21H98v2h6.89v1.3Z"/><path class="cls-11" d="M105.85,173.15V166.5h1.3v5.35h4.64v1.3Z"/><path class="cls-11" d="M114.67,173.15a3.88,3.88,0,0,1-1-.12,1.67,1.67,0,0,1-.68-.35,1.33,1.33,0,0,1-.37-.57,2.39,2.39,0,0,1-.12-.78v-3a2.38,2.38,0,0,1,.12-.78A1.33,1.33,0,0,1,113,167a1.67,1.67,0,0,1,.68-.35,3.88,3.88,0,0,1,1-.12h3.81a3.89,3.89,0,0,1,1,.12,1.67,1.67,0,0,1,.68.35,1.33,1.33,0,0,1,.37.57,2.37,2.37,0,0,1,.12.78v3a2.37,2.37,0,0,1-.12.78,1.33,1.33,0,0,1-.37.57,1.67,1.67,0,0,1-.68.35,3.89,3.89,0,0,1-1,.12Zm-.85-1.86a.47.47,0,0,0,.2.42,1.16,1.16,0,0,0,.64.14h3.83a1.16,1.16,0,0,0,.64-.14.47.47,0,0,0,.2-.42v-2.92a.47.47,0,0,0-.2-.42,1.15,1.15,0,0,0-.64-.14h-3.83a1.15,1.15,0,0,0-.64.14.47.47,0,0,0-.2.42Z"/><path class="cls-11" d="M121.83,173.15V166.5h6a3.89,3.89,0,0,1,1,.12,1.67,1.67,0,0,1,.68.35,1.33,1.33,0,0,1,.37.57,2.37,2.37,0,0,1,.12.78v.86a2.37,2.37,0,0,1-.12.78,1.33,1.33,0,0,1-.37.57,1.67,1.67,0,0,1-.68.35,3.89,3.89,0,0,1-1,.12h-4.7v2.17Zm1.31-3.38h4.71a1.15,1.15,0,0,0,.64-.14.47.47,0,0,0,.2-.42v-.85a.47.47,0,0,0-.2-.42,1.15,1.15,0,0,0-.64-.14h-4.71Z"/><path class="cls-11" d="M130.84,173.15V167a.58.58,0,0,1,.19-.47.66.66,0,0,1,.43-.16.92.92,0,0,1,.31.05.69.69,0,0,1,.28.19l4.6,5,4.6-5a.7.7,0,0,1,.27-.18.88.88,0,0,1,.31-.06.66.66,0,0,1,.43.16.58.58,0,0,1,.19.47v6.11h-1.3v-4.51l-4,4.41a.65.65,0,0,1-.94,0l-4-4.41v4.51Z"/><path class="cls-11" d="M143.64,173.15V166.5h8.18v1.31h-6.88v.87h5.63v1.21h-5.62v2h6.89v1.3Z"/><path class="cls-11" d="M152.83,173.15v-6.08a.64.64,0,0,1,.18-.49.6.6,0,0,1,.43-.18.78.78,0,0,1,.22,0,.65.65,0,0,1,.22.12l5.84,4.72V166.5H161v6.08a.64.64,0,0,1-.18.49.6.6,0,0,1-.43.17.78.78,0,0,1-.22,0,.64.64,0,0,1-.22-.12l-5.84-4.72v4.77Z"/><path class="cls-11" d="M165.15,173.15v-5.35h-3.45V166.5h8.2v1.31h-3.45v5.35Z"/></g></g></svg>