<svg xmlns="http://www.w3.org/2000/svg" viewBox="0 0 404 404"><defs><style>.cls-1{fill:#fff;}</style></defs><title>btn_myWork</title><g id="Layer_2" data-name="Layer 2"><g id="Layer_1-2" data-name="Layer 1"><polygon class="cls-1" points="229.58 355 173 355 144.71 404 257.87 404 229.58 355"/><polygon class="cls-1" points="173 49 229.58 49 257.87 0 144.71 0 173 49"/><polygon class="cls-1" points="49 229.58 49 173 0 144.71 0 257.87 49 229.58"/><polygon class="cls-1" points="355 173 355 229.58 404 257.87 404 144.71 355 173"/><polygon class="cls-1" points="112.96 329.84 72.95 289.83 18.3 304.47 98.32 384.49 112.96 329.84"/><polygon class="cls-1" points="289.33 73.45 329.34 113.46 383.99 98.82 303.97 18.8 289.33 73.45"/><polygon class="cls-1" points="73.95 113.46 113.96 73.45 99.32 18.8 19.3 98.82 73.95 113.46"/><polygon class="cls-1" points="330.34 289.83 290.33 329.84 304.97 384.49 384.99 304.47 330.34 289.83"/><path class="cls-1" d="M123.49,231.6V218.8q0-5-.7-13.1-.8-9.1-.8-12.5l.2-6.2q.2-2.7.2-6.1-.4,1.3-3.3,13.8-2.9,12.1-6,22.4-3,9.9-4.9,9.9a4.12,4.12,0,0,1-3-1.15A4.25,4.25,0,0,1,104,222.7q0-4.4-3.55-18.7T94,180.6l-.6,11.3q-.8,14.3-1.1,23.8-.2,9.2-.2,12.6a10.5,10.5,0,0,0,.1,1.5v1.4a4,4,0,0,1-.7,2.55,3.25,3.25,0,0,1-2.6.85,2.93,2.93,0,0,1-1.9-.75,2.15,2.15,0,0,1-.9-1.65q0-10.2,1.5-30.6t1.5-30.6a3.37,3.37,0,0,1-.6-1.9,2,2,0,0,1,1.15-1.85,5.51,5.51,0,0,1,2.75-.65q1.3,0,4.8,9.4t7,21.3q3.5,11.9,4.5,17.2.8-2.7,1.3-5l.6-2.4q3.2-14,6.4-25.3a73,73,0,0,1,3.7-10.8q1.8-4.2,3.3-4.2a4.57,4.57,0,0,1,2.55.75,2.25,2.25,0,0,1,1.15,1.95q0,7.2.6,21.6.7,13.4.7,20.8l-.1,5.3-.2,5.3a31.89,31.89,0,0,0,.3,3.6l.3,3.5q.1.9.15,1.4c0,.33,0,.53,0,.6a6.11,6.11,0,0,1,.5,1.9,4.79,4.79,0,0,1-1,3,3,3,0,0,1-2.4,1.3Q123.49,237.8,123.49,231.6Z"/><path class="cls-1" d="M147.64,233.1a2.24,2.24,0,0,1-.75-1.7l.2-9.7q.3-6.5.3-9.7a60.36,60.36,0,0,0-.9-8.6,53,53,0,0,1-1-8.7,40.29,40.29,0,0,0-1.1-8.7,70.14,70.14,0,0,0-2.8-9.4,70,70,0,0,1-2.7-9.25,40.51,40.51,0,0,1-1.1-8.65,1.43,1.43,0,0,1,.8-1.2,3.16,3.16,0,0,1,1.7-.5q1.1,0,2.1,2.3a39.88,39.88,0,0,1,2.3,7.3q1.1,4.7,1.3,5.6l1.3,6.9,1,4.4a40.72,40.72,0,0,0,.5-4.2q.6-8.3,1.5-13.8a26.49,26.49,0,0,1,1.6-5.8q1-2.2,2.4-2.2,2.7,0,2.7,1,0,5.7-2.4,16.8t-2.4,16.9l-.2,1.6a6.14,6.14,0,0,0-.1,1.8v1.6q0,4.3.3,13.2l.2,13.3.2,2.3.2,2.4v2.5a2.6,2.6,0,0,1-1,2.05,3.59,3.59,0,0,1-2.4.85A2.49,2.49,0,0,1,147.64,233.1Z"/><path class="cls-1" d="M191,228.7a102.63,102.63,0,0,1-2.15-13.15q-.85-7.85-1.75-19.85-.5-7.8-1.4-16.7-.7-7.4-1.7-9.5a3,3,0,0,1,2.9-1.8q3.2,0,3.2,6.6a178.68,178.68,0,0,0,2.1,22.8q2.1,14.9,2.4,21.7l.5-3.4q1-6.7,1.75-12.65t1.25-12.85q.7-7.7.7-15.2l2.7-1.2a3.44,3.44,0,0,1,2.15.65,2.2,2.2,0,0,1,.85,1.85v.8A103.71,103.71,0,0,1,207.14,189q1.05,6.65,1.85,15.65.6,6.9,1.4,12.9a240.83,240.83,0,0,0,1.9-33,44.58,44.58,0,0,1,.8-7.6,52.08,52.08,0,0,0,.7-7.5,5.37,5.37,0,0,1-.3-1.7q0-2.4,3-2.4a2.82,2.82,0,0,1,1.9.6,2.12,2.12,0,0,1,.7,1.7v1.5a10,10,0,0,1-.3,2.6v.5a29.75,29.75,0,0,0-1.3,9.2v7.3a172.65,172.65,0,0,1-1.5,18.8,154.1,154.1,0,0,0-1.6,18.2v1.8a13.2,13.2,0,0,1-.5,3.9,2.7,2.7,0,0,1-2.9,2,3,3,0,0,1-2.45-1,4.07,4.07,0,0,1-.85-2.65,167.71,167.71,0,0,0-1.7-21q-.9-5.8-1.9-11.7l-1.6-10.5a41.65,41.65,0,0,0-.4,5.7q0,5.6-.8,14.8a170.59,170.59,0,0,1-2.5,17.9q-1.9,9.7-4.3,9.7Q192.49,234.7,191,228.7Z"/><path class="cls-1" d="M238.19,233.6a15.21,15.21,0,0,1-3.8-4.9q-2.9-5.4-4.3-14.8-1-6.5-1.5-15l-.1-5.3v-5.4q-.1-2.6-.1-6.3a98.81,98.81,0,0,1,.5-10.6,39.51,39.51,0,0,1,2-9.5,10.86,10.86,0,0,1,4.6-5.8,8.81,8.81,0,0,1,3.6-.8,9.9,9.9,0,0,1,8.4,4.2,26,26,0,0,1,4.5,10.5,70.16,70.16,0,0,1,1.8,13.4q.4,7.1.4,13.4v5.7q0,1.7-.5,6.4a59.81,59.81,0,0,0-.4,6.3v.4a31.89,31.89,0,0,0-.6,6.6,15.58,15.58,0,0,1-1.2,5.8,14.28,14.28,0,0,1-3.4,5.1,6.64,6.64,0,0,1-5,2.4A7.54,7.54,0,0,1,238.19,233.6Zm8.5-7.4a35.91,35.91,0,0,0,1.75-8.05q.55-4.75,1-10.75.2-2.6.2-6.7l-.1-9.2q-.2-5.4-1.2-13.5a45.5,45.5,0,0,0-3-12.2,10.67,10.67,0,0,0-2.5-3.9,4.64,4.64,0,0,0-3.2-1.4q-2.5,0-3.7,3.9a37,37,0,0,0-2,9q-.6,5.3-.7,10.1l-.1,3.3q-.1,1.4-.1,3.8v.4a119.83,119.83,0,0,0,1.4,16.5q1.6,13.3,4.7,18.9,2,3.5,4.2,3.5Q245.29,229.9,246.69,226.2Z"/><path class="cls-1" d="M280.29,230.9v-.3a70.79,70.79,0,0,0-1.8-11.8q-1.5-6.5-4.4-15.7-2.2-6.9-3.7-12.4v39.4a4,4,0,0,1-.55,2.35,2.53,2.53,0,0,1-2.15.75,2.47,2.47,0,0,1-1.9-.75,2.74,2.74,0,0,1-.7-2v-.8l.2-29.4q.2-13,.2-29.3V158.7A2.16,2.16,0,0,1,266,157a3.35,3.35,0,0,1,2.1-.45,11,11,0,0,1,4.6,1,10.55,10.55,0,0,1,3.6,2.65,17.06,17.06,0,0,1,4,8.4,23.72,23.72,0,0,1,.4,4.6,24.39,24.39,0,0,1-.25,3.3q-.25,1.8-.35,2.3a25,25,0,0,1-.9,3q-.7,2-.9,2.6l-1.2,2.8-1,2.6a53.38,53.38,0,0,0,1.25,9.1q1.15,5.5,2.55,10.2,1,3.3,3.6,11l2.9,8.8v.2a12.09,12.09,0,0,1-.3,2.9,1.87,1.87,0,0,1-2.1,1.6Q282.08,233.6,280.29,230.9Zm-6.7-48.6,1.5-8.6a7.56,7.56,0,0,0,.1-1.4,24.51,24.51,0,0,0-1.1-6.7,10.48,10.48,0,0,0-1.55-3,3,3,0,0,0-2-1.35l-.2,10q-.3,6.7-.3,10.4,0,3.5.1,4.6A49,49,0,0,0,273.59,182.3Z"/><path class="cls-1" d="M316.68,234.7a5.57,5.57,0,0,0-1.1-.1q-2.7-15.3-5.4-25.6a123.29,123.29,0,0,0-6.8-19.4l-2.1,3.9a7.89,7.89,0,0,0-1,3q-.3,3-.3,4.4,0,3,.3,9.2t.3,9.3v8.2q0,5.3-3.4,5.3-2.9,0-2.9-5.6,0-4.4.6-13.5.7-8.4.7-13.4l.1-8.6V181.4a99.54,99.54,0,0,0-.7-11.5,91,91,0,0,1-.7-9.4,3.19,3.19,0,0,1,.8-2.2,2.56,2.56,0,0,1,2-.9q3.7,0,3.7,8.1l-.4,20.5,1.9-4.9q3.3-8.4,6.8-16.6a62.17,62.17,0,0,1,3.6-7.1q1.7-2.7,2.7-2.7a2.87,2.87,0,0,1,2,.75,2.38,2.38,0,0,1,.85,1.85q0,1-5.4,12.4-5.3,10.9-6.2,14.5V186q1.5,3.8,8,24.35t6.5,21.75a2.51,2.51,0,0,1-1,2,3.39,3.39,0,0,1-2.25.8A3.79,3.79,0,0,1,316.68,234.7Z"/></g></g></svg>