<svg xmlns="http://www.w3.org/2000/svg" viewBox="0 0 1919 1079"><defs><style>.cls-1{fill:#1a1a1a;}.cls-2{opacity:0.05;}.cls-3{fill:#f2f2f2;}.cls-4{opacity:0.1;}</style></defs><title>parallaxDark</title><g id="Layer_2" data-name="Layer 2"><g id="Layer_1-2" data-name="Layer 1"><rect class="cls-1" width="1919" height="1079"/><g class="cls-2"><polygon class="cls-3" points="219.63 807.67 341.53 929.38 341.53 807.67 219.63 807.67"/></g><g class="cls-4"><polygon class="cls-3" points="280.58 929.38 219.63 868.53 219.63 929.38 280.58 929.38"/></g><g class="cls-2"><polygon class="cls-3" points="219.63 271.33 341.53 149.62 341.53 271.33 219.63 271.33"/></g><g class="cls-4"><polygon class="cls-3" points="280.58 149.62 219.63 210.47 219.63 149.62 280.58 149.62"/></g><g class="cls-4"><polygon class="cls-3" points="239.95 291.61 321.21 372.75 321.21 291.61 239.95 291.61"/></g><g class="cls-2"><polygon class="cls-3" points="280.58 393.04 219.63 332.19 219.63 393.04 280.58 393.04"/></g><g class="cls-2"><polygon class="cls-3" points="270.42 675.82 229.79 635.25 229.79 675.82 270.42 675.82"/></g><g class="cls-4"><polygon class="cls-3" points="239.95 787.39 321.21 706.25 321.21 787.39 239.95 787.39"/></g><g class="cls-4"><polygon class="cls-3" points="229.79 549.64 331.37 651.07 331.37 549.64 229.79 549.64"/></g><g class="cls-4"><polygon class="cls-3" points="229.79 529.36 331.37 427.93 331.37 529.36 229.79 529.36"/></g><g class="cls-2"><polygon class="cls-3" points="280.58 685.96 219.63 746.82 219.63 685.96 280.58 685.96"/></g><g class="cls-2"><polygon class="cls-3" points="270.42 403.18 229.79 443.75 229.79 403.18 270.42 403.18"/></g><g class="cls-2"><polygon class="cls-3" points="1081.4 271.33 959.5 149.62 959.5 271.33 1081.4 271.33"/></g><g class="cls-4"><polygon class="cls-3" points="1020.45 149.62 1081.4 210.47 1081.4 149.62 1020.45 149.62"/></g><g class="cls-2"><polygon class="cls-3" points="1081.4 807.67 959.5 929.38 959.5 807.67 1081.4 807.67"/></g><g class="cls-4"><polygon class="cls-3" points="1020.45 929.38 1081.4 868.53 1081.4 929.38 1020.45 929.38"/></g><g class="cls-4"><polygon class="cls-3" points="1061.09 787.39 979.82 706.25 979.82 787.39 1061.09 787.39"/></g><g class="cls-2"><polygon class="cls-3" points="1020.45 685.96 1081.4 746.82 1081.4 685.96 1020.45 685.96"/></g><g class="cls-2"><polygon class="cls-3" points="1030.61 403.18 1071.24 443.75 1071.24 403.18 1030.61 403.18"/></g><g class="cls-4"><polygon class="cls-3" points="1061.09 291.61 979.82 372.75 979.82 291.61 1061.09 291.61"/></g><g class="cls-4"><polygon class="cls-3" points="1071.24 529.36 969.66 427.93 969.66 529.36 1071.24 529.36"/></g><g class="cls-4"><polygon class="cls-3" points="1071.24 549.64 969.66 651.07 969.66 549.64 1071.24 549.64"/></g><g class="cls-2"><polygon class="cls-3" points="1020.45 393.04 1081.4 332.19 1081.4 393.04 1020.45 393.04"/></g><g class="cls-2"><polygon class="cls-3" points="1030.61 675.82 1071.24 635.25 1071.24 675.82 1030.61 675.82"/></g><g class="cls-2"><polygon class="cls-3" points="1381.4 271.33 1259.5 149.62 1259.5 271.33 1381.4 271.33"/></g><g class="cls-4"><polygon class="cls-3" points="1320.45 149.62 1381.4 210.47 1381.4 149.62 1320.45 149.62"/></g><g class="cls-2"><polygon class="cls-3" points="1381.4 807.67 1259.5 929.38 1259.5 807.67 1381.4 807.67"/></g><g class="cls-4"><polygon class="cls-3" points="1320.45 929.38 1381.4 868.53 1381.4 929.38 1320.45 929.38"/></g><g class="cls-4"><polygon class="cls-3" points="1361.09 787.39 1279.82 706.25 1279.82 787.39 1361.09 787.39"/></g><g class="cls-2"><polygon class="cls-3" points="1320.45 685.96 1381.4 746.82 1381.4 685.96 1320.45 685.96"/></g><g class="cls-2"><polygon class="cls-3" points="1330.61 403.18 1371.24 443.75 1371.24 403.18 1330.61 403.18"/></g><g class="cls-4"><polygon class="cls-3" points="1361.09 291.61 1279.82 372.75 1279.82 291.61 1361.09 291.61"/></g><g class="cls-4"><polygon class="cls-3" points="1371.24 529.36 1269.66 427.93 1269.66 529.36 1371.24 529.36"/></g><g class="cls-4"><polygon class="cls-3" points="1371.24 549.64 1269.66 651.07 1269.66 549.64 1371.24 549.64"/></g><g class="cls-2"><polygon class="cls-3" points="1320.45 393.04 1381.4 332.19 1381.4 393.04 1320.45 393.04"/></g><g class="cls-2"><polygon class="cls-3" points="1330.61 675.82 1371.24 635.25 1371.24 675.82 1330.61 675.82"/></g><g class="cls-2"><polygon class="cls-3" points="837.6 807.67 959.5 929.38 959.5 807.67 837.6 807.67"/></g><g class="cls-4"><polygon class="cls-3" points="898.55 929.38 837.6 868.53 837.6 929.38 898.55 929.38"/></g><g class="cls-2"><polygon class="cls-3" points="837.6 271.33 959.5 149.62 959.5 271.33 837.6 271.33"/></g><g class="cls-4"><polygon class="cls-3" points="898.55 149.62 837.6 210.47 837.6 149.62 898.55 149.62"/></g><g class="cls-4"><polygon class="cls-3" points="857.91 291.61 939.18 372.75 939.18 291.61 857.91 291.61"/></g><g class="cls-2"><polygon class="cls-3" points="898.55 393.04 837.6 332.19 837.6 393.04 898.55 393.04"/></g><g class="cls-2"><polygon class="cls-3" points="888.39 675.82 847.76 635.25 847.76 675.82 888.39 675.82"/></g><g class="cls-4"><polygon class="cls-3" points="857.91 787.39 939.18 706.25 939.18 787.39 857.91 787.39"/></g><g class="cls-4"><polygon class="cls-3" points="847.76 549.64 949.34 651.07 949.34 549.64 847.76 549.64"/></g><g class="cls-4"><polygon class="cls-3" points="847.76 529.36 949.34 427.93 949.34 529.36 847.76 529.36"/></g><g class="cls-2"><polygon class="cls-3" points="898.55 685.96 837.6 746.82 837.6 685.96 898.55 685.96"/></g><g class="cls-2"><polygon class="cls-3" points="888.39 403.18 847.76 443.75 847.76 403.18 888.39 403.18"/></g><g class="cls-2"><polygon class="cls-3" points="528.61 807.67 650.51 929.38 650.51 807.67 528.61 807.67"/></g><g class="cls-4"><polygon class="cls-3" points="589.56 929.38 528.61 868.53 528.61 929.38 589.56 929.38"/></g><g class="cls-2"><polygon class="cls-3" points="528.61 271.33 650.51 149.62 650.51 271.33 528.61 271.33"/></g><g class="cls-4"><polygon class="cls-3" points="589.56 149.62 528.61 210.47 528.61 149.62 589.56 149.62"/></g><g class="cls-4"><polygon class="cls-3" points="548.93 291.61 630.2 372.75 630.2 291.61 548.93 291.61"/></g><g class="cls-2"><polygon class="cls-3" points="589.56 393.04 528.61 332.19 528.61 393.04 589.56 393.04"/></g><g class="cls-2"><polygon class="cls-3" points="579.41 675.82 538.77 635.25 538.77 675.82 579.41 675.82"/></g><g class="cls-4"><polygon class="cls-3" points="548.93 787.39 630.2 706.25 630.2 787.39 548.93 787.39"/></g><g class="cls-4"><polygon class="cls-3" points="538.77 549.64 640.36 651.07 640.36 549.64 538.77 549.64"/></g><g class="cls-4"><polygon class="cls-3" points="538.77 529.36 640.36 427.93 640.36 529.36 538.77 529.36"/></g><g class="cls-2"><polygon class="cls-3" points="589.56 685.96 528.61 746.82 528.61 685.96 589.56 685.96"/></g><g class="cls-2"><polygon class="cls-3" points="579.41 403.18 538.77 443.75 538.77 403.18 579.41 403.18"/></g><g class="cls-2"><polygon class="cls-3" points="1681.4 271.33 1559.5 149.62 1559.5 271.33 1681.4 271.33"/></g><g class="cls-4"><polygon class="cls-3" points="1620.45 149.62 1681.4 210.47 1681.4 149.62 1620.45 149.62"/></g><g class="cls-2"><polygon class="cls-3" points="1681.4 807.67 1559.5 929.38 1559.5 807.67 1681.4 807.67"/></g><g class="cls-4"><polygon class="cls-3" points="1620.45 929.38 1681.4 868.53 1681.4 929.38 1620.45 929.38"/></g><g class="cls-4"><polygon class="cls-3" points="1661.09 787.39 1579.82 706.25 1579.82 787.39 1661.09 787.39"/></g><g class="cls-2"><polygon class="cls-3" points="1620.45 685.96 1681.4 746.82 1681.4 685.96 1620.45 685.96"/></g><g class="cls-2"><polygon class="cls-3" points="1630.61 403.18 1671.24 443.75 1671.24 403.18 1630.61 403.18"/></g><g class="cls-4"><polygon class="cls-3" points="1661.09 291.61 1579.82 372.75 1579.82 291.61 1661.09 291.61"/></g><g class="cls-4"><polygon class="cls-3" points="1671.24 529.36 1569.66 427.93 1569.66 529.36 1671.24 529.36"/></g><g class="cls-4"><polygon class="cls-3" points="1671.24 549.64 1569.66 651.07 1569.66 549.64 1671.24 549.64"/></g><g class="cls-2"><polygon class="cls-3" points="1620.45 393.04 1681.4 332.19 1681.4 393.04 1620.45 393.04"/></g><g class="cls-2"><polygon class="cls-3" points="1630.61 675.82 1671.24 635.25 1671.24 675.82 1630.61 675.82"/></g></g></g></svg>