<?xml version="1.0" encoding="utf-8"?>
<!-- Generator: Adobe Illustrator 21.0.0, SVG Export Plug-In . SVG Version: 6.00 Build 0)  -->
<svg version="1.1" id="Layer_1" xmlns="http://www.w3.org/2000/svg" xmlns:xlink="http://www.w3.org/1999/xlink" x="0px" y="0px"
	 viewBox="0 0 300 300" style="enable-background:new 0 0 300 300;" xml:space="preserve">
<style type="text/css">
	.st0{fill:#1A1A1A;}
	.st1{fill:url(#SVGID_1_);}
	.st2{fill:url(#SVGID_2_);}
	.st3{fill:url(#SVGID_3_);}
	.st4{fill:url(#SVGID_4_);}
	.st5{fill:#FFFFFF;}
	.st6{fill:none;stroke:url(#SVGID_5_);stroke-width:4.45;stroke-miterlimit:10;}
	.st7{fill:none;stroke:url(#SVGID_6_);stroke-width:4.45;stroke-miterlimit:10;}
	.st8{fill:none;stroke:#FFFFFF;stroke-width:1.59;stroke-miterlimit:10;}
	.st9{fill:none;stroke:url(#SVGID_7_);stroke-width:4.45;stroke-miterlimit:10;}
	.st10{fill:none;stroke:url(#SVGID_8_);stroke-width:4.45;stroke-miterlimit:10;}
	.st11{fill:none;stroke:url(#SVGID_9_);stroke-width:4.45;stroke-miterlimit:10;}
	.st12{fill:none;stroke:url(#SVGID_10_);stroke-width:4.45;stroke-miterlimit:10;}
	.st13{fill:none;stroke:url(#SVGID_11_);stroke-width:15.06;stroke-miterlimit:10;}
	.st14{fill:none;stroke:url(#SVGID_12_);stroke-width:4.45;stroke-miterlimit:10;}
	.st15{fill:none;stroke:url(#SVGID_13_);stroke-width:4.45;stroke-miterlimit:10;}
	.st16{fill:none;stroke:url(#SVGID_14_);stroke-width:4.45;stroke-miterlimit:10;}
	.st17{fill:none;stroke:url(#SVGID_15_);stroke-width:4.45;stroke-miterlimit:10;}
	.st18{fill:none;stroke:url(#SVGID_16_);stroke-width:4.45;stroke-miterlimit:10;}
	.st19{fill:none;stroke:url(#SVGID_17_);stroke-width:4.45;stroke-miterlimit:10;}
	.st20{fill:none;stroke:url(#SVGID_18_);stroke-width:4.45;stroke-miterlimit:10;}
</style>
<title>icon_nick3</title>
<g id="Layer_2">
	<g id="Layer_1-2">
		<circle class="st0" cx="150" cy="150" r="150"/>
		
			<linearGradient id="SVGID_1_" gradientUnits="userSpaceOnUse" x1="-2066.1489" y1="3972.7849" x2="-2066.1489" y2="4048.9448" gradientTransform="matrix(-0.7071 -0.7071 -0.4243 0.4243 349.3011 -3025.0022)">
			<stop  offset="0" style="stop-color:#FFFFFF"/>
			<stop  offset="0.25" style="stop-color:#C5C4C4"/>
			<stop  offset="1" style="stop-color:#000000;stop-opacity:0"/>
		</linearGradient>
		<polygon class="st1" points="95.3,161.8 84.5,151 116.9,118.6 127.7,129.4 		"/>
		
			<linearGradient id="SVGID_2_" gradientUnits="userSpaceOnUse" x1="1484.1599" y1="2622.8765" x2="1484.1599" y2="2699.0266" gradientTransform="matrix(-0.7071 0.7071 0.4243 0.4243 112.6172 -2038.6024)">
			<stop  offset="0" style="stop-color:#FFFFFF"/>
			<stop  offset="0.25" style="stop-color:#C5C4C4"/>
			<stop  offset="1" style="stop-color:#000000;stop-opacity:0"/>
		</linearGradient>
		<polygon class="st2" points="214,150.9 203.2,161.7 170.8,129.2 181.5,118.5 		"/>
		
			<linearGradient id="SVGID_3_" gradientUnits="userSpaceOnUse" x1="4372.4688" y1="915.4703" x2="4372.4688" y2="991.6303" gradientTransform="matrix(0.7071 0.7071 0.3536 -0.3536 -3304.0535 -2590.3074)">
			<stop  offset="0" style="stop-color:#FFFFFF"/>
			<stop  offset="0.25" style="stop-color:#C5C4C4"/>
			<stop  offset="1" style="stop-color:#000000;stop-opacity:0"/>
		</linearGradient>
		<polygon class="st3" points="133,145.5 143.7,156.3 116.8,183.2 106,172.4 		"/>
		
			<linearGradient id="SVGID_4_" gradientUnits="userSpaceOnUse" x1="864.5302" y1="2012.1322" x2="864.5302" y2="2088.2922" gradientTransform="matrix(0.7071 -0.7071 -0.3536 -0.3536 286.9308 1500.4875)">
			<stop  offset="0" style="stop-color:#FFFFFF"/>
			<stop  offset="0.25" style="stop-color:#C5C4C4"/>
			<stop  offset="1" style="stop-color:#000000;stop-opacity:0"/>
		</linearGradient>
		<polygon class="st4" points="154.5,156.2 165.3,145.5 192.2,172.4 181.5,183.2 		"/>
		<path class="st5" d="M181.5,118.5l-10.8-10.8l-21.5,21.5l-21.5-21.5l-10.8,10.8l21.5,21.5l0,0c-5.9,5.9-15.6,5.9-21.5,0
			c0,0,0,0,0,0l0,0c-5.9-5.9-15.6-5.9-21.5,0c0,0,0,0,0,0l0,0l-21.5,21.5l10.8,10.8l21.5,21.5l10.8-10.8l-21.5-21.5l0,0
			c5.9-5.9,15.6-5.9,21.5,0c0,0,0,0,0,0l0,0c5.9,5.9,15.6,5.9,21.5,0c0,0,0,0,0,0l0,0c5.9-5.9,15.6-5.9,21.5,0c0,0,0,0,0,0l0,0
			c5.9,5.9,15.6,5.9,21.5,0c0,0,0,0,0,0l0,0c5.9-5.9,15.6-5.9,21.5,0c0,0,0,0,0,0l0,0l-21.5,21.5l10.8,10.8l21.5-21.5l10.8-10.8
			l-10.8-10.8L203,140.1l0,0c-5.9-5.9-15.6-5.9-21.5,0c0,0,0,0,0,0l0,0c-5.9,5.9-15.6,5.9-21.5,0c0,0,0,0,0,0l0,0L181.5,118.5z"/>
		
			<linearGradient id="SVGID_5_" gradientUnits="userSpaceOnUse" x1="2110.0571" y1="5510.23" x2="2148.1201" y2="5510.23" gradientTransform="matrix(-1 0 0 1 2354.74 -5360.23)">
			<stop  offset="0" style="stop-color:#FFFFFF"/>
			<stop  offset="1" style="stop-color:#000000;stop-opacity:0"/>
		</linearGradient>
		<path class="st6" d="M206.6,185.8c19.8,0,35.8-16,35.8-35.8c0-19.8-16-35.8-35.8-35.8"/>
		
			<linearGradient id="SVGID_6_" gradientUnits="userSpaceOnUse" x1="404.6283" y1="89.16" x2="442.711" y2="89.16" gradientTransform="matrix(1 0 0 -1 -349.34 239.16)">
			<stop  offset="0" style="stop-color:#FFFFFF"/>
			<stop  offset="1" style="stop-color:#000000;stop-opacity:0"/>
		</linearGradient>
		<path class="st7" d="M93.4,114.2c-19.8,0-35.8,16-35.9,35.8c0,19.8,16,35.8,35.8,35.9c0,0,0,0,0,0"/>
		<path class="st8" d="M51.8,198.7"/>
		
			<linearGradient id="SVGID_7_" gradientUnits="userSpaceOnUse" x1="-1552.173" y1="3751.3999" x2="-1514.1099" y2="3751.3999" gradientTransform="matrix(6.123234e-17 -1 -1 -6.123234e-17 3901.3899 -1307.48)">
			<stop  offset="0" style="stop-color:#FFFFFF"/>
			<stop  offset="1" style="stop-color:#000000;stop-opacity:0"/>
		</linearGradient>
		<path class="st9" d="M114.2,206.6c0,19.8,16,35.8,35.8,35.8c19.8,0,35.8-16,35.8-35.8"/>
		
			<linearGradient id="SVGID_8_" gradientUnits="userSpaceOnUse" x1="2553.4363" y1="644.4226" x2="2591.5046" y2="644.4226" gradientTransform="matrix(0.7071 0.7071 0.7071 -0.7071 -2058.3511 -1146.9899)">
			<stop  offset="0" style="stop-color:#FFFFFF"/>
			<stop  offset="1" style="stop-color:#000000;stop-opacity:0"/>
		</linearGradient>
		<path class="st10" d="M255.1,204.5c-14-14-36.7-14-50.7,0c-14,14-14,36.7,0,50.7l0,0"/>
		
			<linearGradient id="SVGID_9_" gradientUnits="userSpaceOnUse" x1="-473.884" y1="5409.3291" x2="-435.814" y2="5409.3291" gradientTransform="matrix(-0.7071 -0.7071 -0.7071 0.7071 3587.001 -4062.9402)">
			<stop  offset="0" style="stop-color:#FFFFFF"/>
			<stop  offset="1" style="stop-color:#000000;stop-opacity:0"/>
		</linearGradient>
		<path class="st11" d="M44.8,95.5c13.9,14.1,36.6,14.1,50.7,0.2s14.1-36.6,0.2-50.7c-0.1-0.1-0.1-0.1-0.2-0.2"/>
		
			<linearGradient id="SVGID_10_" gradientUnits="userSpaceOnUse" x1="4066.8772" y1="1848" x2="4104.9404" y2="1848" gradientTransform="matrix(6.123234e-17 1 1 -6.123234e-17 -1698 -4011.5701)">
			<stop  offset="0" style="stop-color:#FFFFFF"/>
			<stop  offset="1" style="stop-color:#000000;stop-opacity:0"/>
		</linearGradient>
		<path class="st12" d="M185.8,93.4c0-19.8-16-35.8-35.8-35.8c-19.8,0-35.8,16-35.8,35.8"/>
		
			<linearGradient id="SVGID_11_" gradientUnits="userSpaceOnUse" x1="-1515.85" y1="3581.4099" x2="-1258.37" y2="3581.4099" gradientTransform="matrix(6.123234e-17 -1 -1 -6.123234e-17 3731.4099 -1237.11)">
			<stop  offset="0" style="stop-color:#FFFFFF"/>
			<stop  offset="1" style="stop-color:#000000;stop-opacity:0"/>
		</linearGradient>
		<circle class="st13" cx="150" cy="150" r="121.2"/>
		
			<linearGradient id="SVGID_12_" gradientUnits="userSpaceOnUse" x1="3485.0496" y1="4477.6909" x2="3523.1179" y2="4477.6909" gradientTransform="matrix(-0.7071 0.7071 0.7071 0.7071 -604.7902 -5427.6313)">
			<stop  offset="0" style="stop-color:#FFFFFF"/>
			<stop  offset="1" style="stop-color:#000000;stop-opacity:0"/>
		</linearGradient>
		<path class="st14" d="M95.5,255.1c14-14,14-36.7,0-50.7c-14-14-36.7-14-50.7,0"/>
		
			<linearGradient id="SVGID_13_" gradientUnits="userSpaceOnUse" x1="-1405.5132" y1="1576.05" x2="-1367.4449" y2="1576.05" gradientTransform="matrix(0.7071 -0.7071 -0.7071 -0.7071 2311.1602 217.7111)">
			<stop  offset="0" style="stop-color:#FFFFFF"/>
			<stop  offset="1" style="stop-color:#000000;stop-opacity:0"/>
		</linearGradient>
		<path class="st15" d="M204.4,44.9c-14,14-14,36.7,0,50.7c14,14,36.7,14,50.7,0"/>
		
			<linearGradient id="SVGID_14_" gradientUnits="userSpaceOnUse" x1="-1923.4329" y1="3685.6399" x2="-1885.3699" y2="3685.6399" gradientTransform="matrix(6.123234e-17 -1 -1 -6.123234e-17 3835.6299 -1658.37)">
			<stop  offset="0" style="stop-color:#FFFFFF"/>
			<stop  offset="1" style="stop-color:#000000;stop-opacity:0"/>
		</linearGradient>
		<path class="st16" d="M114.2,227c0,19.8,16,35.8,35.8,35.8c19.8,0,35.8-16,35.8-35.8"/>
		
			<linearGradient id="SVGID_15_" gradientUnits="userSpaceOnUse" x1="4046.707" y1="1848" x2="4084.7703" y2="1848" gradientTransform="matrix(6.123234e-17 1 1 -6.123234e-17 -1698 -4011.5701)">
			<stop  offset="0" style="stop-color:#FFFFFF"/>
			<stop  offset="1" style="stop-color:#000000;stop-opacity:0"/>
		</linearGradient>
		<path class="st17" d="M185.8,73.2c0-19.8-16-35.8-35.8-35.8c-19.8,0-35.8,16-35.8,35.8"/>
		
			<linearGradient id="SVGID_16_" gradientUnits="userSpaceOnUse" x1="2110.0571" y1="5510.23" x2="2148.1201" y2="5510.23" gradientTransform="matrix(-1 0 0 1 2354.74 -5360.23)">
			<stop  offset="0" style="stop-color:#FFFFFF"/>
			<stop  offset="1" style="stop-color:#000000;stop-opacity:0"/>
		</linearGradient>
		<path class="st18" d="M206.6,185.8c19.8,0,35.8-16,35.8-35.8c0-19.8-16-35.8-35.8-35.8"/>
		
			<linearGradient id="SVGID_17_" gradientUnits="userSpaceOnUse" x1="128.2829" y1="316.39" x2="166.3501" y2="316.39" gradientTransform="matrix(1 0 0 -1 -93.26 466.49)">
			<stop  offset="0" style="stop-color:#FFFFFF"/>
			<stop  offset="1" style="stop-color:#000000;stop-opacity:0"/>
		</linearGradient>
		<path class="st19" d="M73.1,114.3c-19.8,0-35.8,16-35.8,35.8s16,35.8,35.8,35.8c0,0,0,0,0,0"/>
		
			<linearGradient id="SVGID_18_" gradientUnits="userSpaceOnUse" x1="1994.9771" y1="5217.2598" x2="2033.04" y2="5217.2598" gradientTransform="matrix(-1 0 0 1 2259.9399 -5067.1499)">
			<stop  offset="0" style="stop-color:#FFFFFF"/>
			<stop  offset="1" style="stop-color:#000000;stop-opacity:0"/>
		</linearGradient>
		<path class="st20" d="M226.9,185.9c19.8,0,35.8-16,35.8-35.8c0-19.8-16-35.8-35.8-35.8"/>
	</g>
</g>
</svg>
